<svg viewBox="0 0 90 144" fill="none" xmlns="http://www.w3.org/2000/svg">
<path fill-rule="evenodd" clip-rule="evenodd" d="M75.0713 2.79758C80.1599 4.43592 84.897 8.2234 86.6655 9.74491C84.5879 9.86083 79.4799 9.91925 74.3778 8.23381C70.2842 6.88211 65.8593 4.19004 63.5432 2.67487C66.7634 3.42294 70.0848 4.46038 73.7055 5.89358C73.7566 5.9139 73.8111 5.92387 73.866 5.92293C73.9209 5.92199 73.975 5.91016 74.0254 5.88812C74.0757 5.86607 74.1212 5.83425 74.1593 5.79447C74.1974 5.75469 74.2273 5.70774 74.2473 5.6563C74.2674 5.60498 74.2771 5.55019 74.2761 5.49506C74.2751 5.43993 74.2634 5.38554 74.2415 5.33499C74.2196 5.28445 74.188 5.23874 74.1485 5.20048C74.1091 5.16221 74.0625 5.13215 74.0115 5.112C70.5173 3.7286 67.2561 2.68664 63.9968 1.91728C66.4655 1.59034 70.691 1.38747 75.0713 2.79758ZM80.2368 17.8945C84.0497 21.6512 86.0144 27.1263 86.6349 29.117C84.7931 28.4459 79.8804 26.3642 75.9767 22.09C72.6575 18.4546 69.9341 13.5541 68.5067 10.7352C69.3185 11.4937 69.9732 12.2246 70.4241 12.8934C70.4869 12.9839 70.5826 13.0459 70.6904 13.066C70.7983 13.0861 70.9096 13.0627 71.0005 13.0008C71.0913 12.939 71.1543 12.8436 71.1759 12.7354C71.1975 12.6272 71.1759 12.5148 71.1158 12.4225C70.5992 11.6558 69.8342 10.8154 68.8829 9.94777C71.4555 11.2085 76.0973 13.8154 80.2368 17.8945ZM5.4972 107.717C5.52291 107.766 5.55791 107.809 5.6002 107.844C5.64249 107.879 5.69125 107.906 5.74369 107.922C5.79614 107.938 5.85123 107.944 5.90584 107.938C5.96045 107.933 6.01349 107.917 6.06195 107.891C6.11041 107.865 6.15333 107.83 6.18826 107.788C6.22319 107.745 6.24945 107.696 6.26554 107.643C6.28163 107.591 6.28723 107.535 6.28202 107.48C6.27682 107.425 6.26091 107.372 6.2352 107.323C2.8908 100.991 1.1232 93.8278 1.1232 86.6087C1.12308 86.5281 1.09983 86.4492 1.05625 86.3815C1.01267 86.3137 0.950605 86.2601 0.8775 86.227V45.4542C0.950571 45.421 1.0126 45.3674 1.05618 45.2997C1.09975 45.232 1.12302 45.1531 1.1232 45.0725C1.1232 33.2577 5.6988 22.1502 14.0076 13.7955C22.316 5.44121 33.3621 0.840453 45.1116 0.84C49.6926 0.86717 55.1687 2.43804 60.5318 5.26415C62.9132 6.51849 65.1267 7.95396 66.9083 9.36543C67.8105 11.2945 71.0987 17.9891 75.362 22.6583C80.3979 28.1728 86.8725 30.0965 87.1457 30.1752C87.2163 30.1955 87.2909 30.1967 87.3622 30.1787C87.4334 30.1607 87.4986 30.1242 87.5514 30.0728C87.6041 30.0214 87.6425 29.957 87.6627 29.8859C87.6829 29.8149 87.6841 29.7398 87.6663 29.6681C87.5885 29.3615 85.7043 22.104 80.8218 17.2945C74.6073 11.1722 67.2669 8.29268 67.1936 8.26415C67.1409 8.24412 67.0848 8.235 67.0286 8.23733C66.9724 8.23967 66.9172 8.25341 66.8664 8.27774C65.1452 6.97041 63.0986 5.66762 60.9197 4.5197C58.0397 3.00272 55.1232 1.8394 52.3202 1.07366C55.4018 1.27291 58.3673 1.62475 61.3832 2.21389C61.3988 2.22968 61.4157 2.24422 61.4336 2.25736C61.4997 2.30536 68.1381 7.05736 74.1173 9.03215C78.1466 10.3626 82.1768 10.6343 84.7944 10.6343C86.5755 10.6343 87.7032 10.5084 87.7307 10.5052C87.8096 10.4959 87.8842 10.464 87.9458 10.4135C88.0074 10.3629 88.0534 10.2957 88.0783 10.2198C88.1033 10.1438 88.1062 10.0623 88.0867 9.98476C88.0672 9.90722 88.0261 9.83689 87.9683 9.78204C87.7248 9.55155 81.9221 4.12075 75.3264 1.99743C69.0003 -0.0393964 63.1346 1.1366 61.8296 1.44498C61.1919 1.31819 60.5534 1.20045 59.9103 1.09177C55.6596 0.379472 51.0975 0.0430189 45.1157 0H45.1125C33.1394 0 21.8826 4.68815 13.4163 13.2014C5.0328 21.6308 0.3825 32.8107 0.2916 44.7174C0.206495 44.7476 0.132761 44.8035 0.0805421 44.8775C0.0283233 44.9516 0.000185633 45.0401 0 45.1309V86.5829C0 86.7736 0.1215 86.9348 0.29025 86.9959C0.35235 94.2204 2.1492 101.376 5.4972 107.717Z" fill="#E4C97E"/>
<path fill-rule="evenodd" clip-rule="evenodd" d="M76.6287 123.835C75.5411 126.552 74.2145 128.198 73.5372 128.924C73.4558 128.616 73.3721 128.186 73.3383 127.647C73.2686 126.543 73.3968 124.741 74.4035 122.422C75.0996 120.817 76.4856 119.104 77.2979 118.175C77.3735 119.495 77.3834 121.952 76.6287 123.835ZM64.7581 134.761C64.3401 138.206 61.9412 140.895 60.8594 141.95C60.6528 140.698 60.3671 137.904 61.1406 134.604C61.6266 132.534 63.5013 129.472 64.4494 128.011C64.7001 129.435 65.0704 132.188 64.7581 134.761ZM53.0874 139.359C51.3833 140.874 48.3116 142.24 46.8252 142.85C47.4147 141.325 48.8412 138.099 51.0629 135.955C52.8102 134.27 54.9905 134.007 55.8171 133.97C55.8792 134.773 55.7586 136.984 53.0874 139.359ZM17.4132 123.691C15.9278 123.824 13.5356 123.692 10.5777 122.309C6.98535 120.63 4.0275 117.8 2.8926 116.626C4.16385 116.438 7.2225 116.305 12.0996 118.013C16.2599 119.471 18.6921 122.217 19.4967 123.256C19.0719 123.407 18.3614 123.607 17.4132 123.691ZM23.1854 121.539C21.4997 118.804 20.4584 115.499 20.0426 114.014C21.4511 114.627 24.5516 116.246 26.6576 119.337C28.4486 121.963 28.823 125.668 28.8999 127.27C27.639 126.387 24.8549 124.248 23.1854 121.539ZM33.827 137.664C30.6337 139.96 26.6418 140.969 25.0169 141.305C25.6154 140.014 27.2867 137.099 31.0824 134.402C33.0174 133.027 36.702 131.962 38.3324 131.536C37.6803 132.963 36.0864 136.04 33.827 137.664ZM23.7825 131.823C21.0533 132.857 18.9495 132.989 17.9586 132.978C18.5103 132.112 19.9733 130.376 23.3127 129.221C24.9597 128.651 27.1521 128.517 28.3829 128.49C27.4658 129.439 25.6703 131.108 23.7825 131.823ZM32.8455 119.391C30.8606 117.244 29.943 115.337 29.5781 114.412C30.5847 114.597 32.7371 115.301 35.0658 117.969C36.2138 119.285 37.1673 121.274 37.6578 122.408C36.4365 121.915 34.2189 120.876 32.8455 119.391ZM42.5003 121.601C41.8415 120.675 41.0072 119.056 40.7732 116.597C40.5194 113.93 41.6403 111.331 42.197 110.231C42.9021 111.213 44.3777 113.551 44.6945 116.31C45.1175 119.997 44.0645 122.072 43.5843 122.803C43.3215 122.579 42.9188 122.189 42.5003 121.601ZM56.1411 123.132C53.9582 122.486 51.174 120.596 49.8708 119.654C51.4688 119.346 54.9446 118.847 57.9357 119.601C60.287 120.194 61.6671 121.913 62.1356 122.596C61.493 123.081 59.58 124.151 56.1411 123.132ZM72.8663 116.779C69.4674 116.845 66.8151 115.579 65.4642 114.757C66.1167 114.687 67.0032 114.547 68.0854 114.269C68.498 114.16 68.9088 114.045 69.3176 113.923C70.5083 113.574 71.7399 113.214 73.5687 113.01C76.0482 112.733 78.0633 113.771 78.9026 114.297C78.0071 115.036 75.6653 116.721 72.8663 116.779ZM89.82 86.2981V45.4773C89.8753 45.4388 89.9206 45.3873 89.9519 45.3274C89.9831 45.2675 89.9995 45.2008 89.9995 45.1331C89.9995 41.9461 89.6666 38.7645 89.0096 35.6757C88.9851 35.5681 88.9196 35.4745 88.8271 35.4152C88.7346 35.3558 88.6227 35.3354 88.5154 35.3584C88.4081 35.3814 88.3141 35.446 88.2538 35.5382C88.1934 35.6303 88.1715 35.7427 88.1928 35.851C88.8165 38.7977 89.1406 41.8007 89.1603 44.8134C89.0943 44.8518 89.0395 44.9069 89.0013 44.9732C88.9631 45.0396 88.9428 45.1148 88.9425 45.1915V86.6155C88.9425 86.7695 89.0222 86.9053 89.1419 86.9837C88.7486 93.7571 87.2361 100.011 84.6401 105.575C83.2821 108.488 81.6086 111.241 79.65 113.784C78.9714 113.305 76.5896 111.828 73.4765 112.175C71.5761 112.387 70.2518 112.774 69.084 113.116C68.67 113.237 68.2798 113.351 67.878 113.455C65.6244 114.035 64.2555 113.982 64.229 113.981C64.1418 113.977 64.0555 114.001 63.9822 114.048C63.909 114.096 63.8525 114.166 63.8206 114.248C63.7888 114.33 63.7833 114.419 63.8049 114.504C63.8265 114.59 63.8741 114.666 63.941 114.722C64.0836 114.843 67.4456 117.62 72.5913 117.62C72.6881 117.62 72.7853 117.619 72.8834 117.617C74.768 117.579 76.4343 116.89 77.6687 116.175C76.89 117.051 76.0768 117.895 75.231 118.704C74.99 118.934 74.7464 119.161 74.5002 119.385C69.7509 123.206 65.0246 122.769 62.9496 122.308C62.559 121.684 61.0214 119.514 58.1391 118.786C53.9195 117.722 48.9834 118.979 48.7755 119.033C48.7 119.053 48.6314 119.093 48.5776 119.15C48.5238 119.207 48.4869 119.278 48.4711 119.355C48.4553 119.432 48.4612 119.511 48.4882 119.585C48.5152 119.659 48.5622 119.723 48.6239 119.771C48.7935 119.903 52.8152 123.022 55.9049 123.937C57.0222 124.268 58.0001 124.395 58.8434 124.395C61.061 124.395 62.3489 123.515 62.802 123.134C63.5193 123.292 64.5228 123.445 65.723 123.445C67.1175 123.445 68.7753 123.237 70.551 122.593C65.5335 126.222 59.805 128.822 54.3222 129.901C48.9884 129.267 45.4163 126.269 44.1504 123.457C44.6571 122.774 46.0152 120.494 45.5243 116.213C45.077 112.315 42.5619 109.316 42.4553 109.191C42.4124 109.141 42.3583 109.101 42.2975 109.076C42.2366 109.051 42.1707 109.04 42.1051 109.045C42.0394 109.05 41.9759 109.071 41.9197 109.106C41.8635 109.14 41.8162 109.188 41.7816 109.244C41.6916 109.391 39.5811 112.894 39.9416 116.677C40.3821 121.304 42.7716 123.269 43.3319 123.671C44.2229 125.751 46.2726 127.942 49.2872 129.351C47.4647 128.903 45.9122 128.268 44.7332 127.685C42.0899 126.375 39.8687 124.603 38.7801 122.939C38.6132 122.499 37.3815 119.349 35.694 117.415C32.2434 113.461 29.0889 113.503 28.9562 113.506C28.8934 113.508 28.8319 113.524 28.7762 113.553C28.7204 113.582 28.6719 113.623 28.6342 113.674C28.5964 113.724 28.5704 113.782 28.5582 113.844C28.5459 113.906 28.5477 113.97 28.5633 114.031C28.5917 114.142 29.2968 116.786 32.2335 119.962C34.1483 122.033 37.4225 123.24 38.142 123.489C39.8606 126.027 44.55 129.412 50.4423 130.459C41.7285 131.365 34.8345 129.937 29.7549 128.04C29.7608 127.521 29.7558 122.395 27.3474 118.862C24.4017 114.541 19.7528 112.985 19.5566 112.921C19.4862 112.898 19.411 112.894 19.3387 112.91C19.2664 112.926 19.1995 112.961 19.1451 113.011C19.0906 113.062 19.0504 113.126 19.0286 113.197C19.0068 113.268 19.0042 113.344 19.0211 113.416C19.0661 113.611 20.1632 118.229 22.4753 121.981C23.7443 124.041 25.5767 125.752 26.9969 126.893C23.9139 125.477 21.7328 124.008 20.4494 123.137C20.0597 122.562 17.4879 119.012 12.3741 117.221C5.52375 114.821 2.0898 115.924 1.94715 115.972C1.88192 115.994 1.82311 116.032 1.77594 116.082C1.72878 116.133 1.69473 116.194 1.67682 116.261C1.65891 116.328 1.65771 116.398 1.67331 116.465C1.68891 116.533 1.72084 116.595 1.76625 116.647C1.91475 116.818 5.46885 120.848 10.2249 123.07C12.7098 124.232 14.8311 124.579 16.4804 124.579C18.3519 124.579 19.6124 124.133 20.1092 123.919C21.4515 124.829 23.6808 126.309 26.7971 127.727C25.6149 127.822 24.2163 128.02 23.0409 128.426C18.0918 130.139 16.9367 133.089 16.8894 133.214C16.8671 133.273 16.8585 133.336 16.864 133.399C16.8696 133.462 16.8892 133.523 16.9215 133.577C16.9537 133.631 16.9977 133.678 17.0502 133.712C17.1027 133.747 17.1624 133.769 17.2247 133.777C17.2607 133.782 17.564 133.821 18.0923 133.821C19.2101 133.821 21.3359 133.647 24.0773 132.609C26.3723 131.739 28.4535 129.661 29.2811 128.761C31.8879 129.746 34.5836 130.474 37.3302 130.935C35.4479 131.461 32.387 132.447 30.6 133.717C25.3359 137.457 23.9954 141.558 23.9405 141.731C23.9191 141.799 23.9152 141.871 23.9292 141.941C23.9432 142.011 23.9747 142.076 24.0206 142.13C24.0665 142.184 24.1254 142.226 24.1917 142.251C24.2579 142.276 24.3294 142.283 24.3995 142.273C24.629 142.239 30.0528 141.41 34.313 138.346C37.2236 136.254 39.0245 132.101 39.3773 131.232C41.1795 131.453 43.0979 131.579 45.1346 131.579C47.5961 131.579 50.2308 131.396 53.0357 130.976C53.415 130.919 53.7966 130.852 54.1787 130.781C54.3191 130.78 54.4595 130.779 54.6003 130.776H54.6125C54.6206 130.775 54.6282 130.773 54.6363 130.772C54.6538 130.771 54.6713 130.769 54.6885 130.765C54.6993 130.763 54.7092 130.759 54.72 130.756C54.7344 130.752 54.7493 130.747 54.7637 130.741C54.7745 130.737 54.7844 130.731 54.7952 130.726C54.8181 130.713 54.84 130.699 54.8604 130.683C54.8715 130.674 54.8822 130.664 54.8924 130.654L54.9104 130.636C56.8544 130.227 58.8254 129.633 60.782 128.876C58.9887 130.244 57.4182 131.736 56.0111 133.124C55.2807 133.125 52.6307 133.279 50.4846 135.35C47.3463 138.378 45.7848 143.247 45.7196 143.453C45.6957 143.528 45.6933 143.609 45.7126 143.685C45.7319 143.761 45.7722 143.83 45.8287 143.885C45.8853 143.939 45.9559 143.976 46.0325 143.992C46.1091 144.008 46.1885 144.002 46.2618 143.974C46.4634 143.9 51.2289 142.132 53.6409 139.987C56.8035 137.175 56.7383 134.506 56.6276 133.692C58.5401 131.807 60.759 129.731 63.4163 128.069C62.3876 129.693 60.7941 132.422 60.3275 134.411C59.2317 139.085 60.1506 142.714 60.1907 142.866C60.2139 142.956 60.2662 143.036 60.3392 143.092C60.4123 143.149 60.502 143.18 60.5943 143.179C60.6888 143.179 60.7824 143.148 60.8576 143.086C61.0268 142.948 65.0057 139.657 65.5875 134.862C66.0173 131.321 65.2347 127.579 65.0903 126.934C68.4198 125.216 71.6153 123.049 74.4638 120.542C74.1492 121.046 73.8621 121.569 73.6376 122.086C71.5451 126.907 72.9257 129.757 72.9851 129.876C73.0134 129.933 73.054 129.982 73.1039 130.02C73.1537 130.059 73.2116 130.086 73.2731 130.099C73.3347 130.111 73.3983 130.11 73.4593 130.095C73.5203 130.08 73.5771 130.051 73.6254 130.01C73.7127 129.937 75.794 128.171 77.4041 124.148C78.5633 121.253 78.0696 117.297 78.0476 117.13C78.0432 117.098 78.0352 117.066 78.0237 117.036C81.0232 113.729 83.5089 109.985 85.3965 105.931C88.0853 100.168 89.6337 93.6856 89.9995 86.6631C90.0029 86.5918 89.9882 86.5208 89.9567 86.4568C89.9252 86.3929 89.8784 86.3385 89.82 86.2981Z" fill="#E4C97E"/>
<path fill-rule="evenodd" clip-rule="evenodd" d="M61.2 54.0195L61.5181 54.3397L35.55 80.4712L35.2318 80.151L61.2 54.0195Z" fill="#BAAB81"/>
<path d="M16.6642 58.7925V58.2853C17.0989 58.2853 18.7653 58.1404 18.7653 55.6408V34.9917C18.1133 34.1223 17.6423 33.9774 16.6642 33.9412V33.434H22.6778L30.6476 52.8513L38.6536 33.434H44.3774V33.9412C43.3993 33.9774 42.2763 33.9049 42.2763 34.9917V55.6408C42.2763 58.1404 43.9427 58.2853 44.3774 58.2853V58.7925H36.1902V58.2853C36.625 58.2853 38.2914 58.1404 38.2914 55.6408V35.68H38.2551L28.7638 58.7925L19.2725 35.68V55.6408C19.2725 58.1404 20.9389 58.2853 21.3736 58.2853V58.7925H16.6642Z" fill="#BAAB81"/>
<path d="M54.2492 70.5661H70.6597V76.797H70.2975C70.2975 76.3623 69.428 71.0732 66.9284 71.0732H60.3352V83.0642H63.3058C65.8054 83.0642 66.6748 80.6732 66.6748 80.2385H67.182V86.397H66.6748C66.6748 85.9623 65.8054 83.5714 63.3058 83.5714H60.3352V95.4174H66.9284C69.428 95.4174 70.2975 90.1283 70.2975 89.6936H70.6597V95.9246H54.2492V95.4174C54.6839 95.4174 56.3503 95.2725 56.3503 92.7729V73.7178C56.3503 71.2181 54.6839 71.0732 54.2492 71.0732V70.5661Z" fill="#BAAB81"/>
</svg>
