<svg height="10000" version="1.1" width="10000" xmlns="http://www.w3.org/2000/svg" data-id="3" data-type="undefined"><g data-type="PATH" data-id="gSlmrmti0f1n9" data-state="{&quot;transform&quot;:{&quot;attrs&quot;:{&quot;x&quot;:0.4990229904651642,&quot;y&quot;:0,&quot;size&quot;:{&quot;x&quot;:346.52996826171875,&quot;y&quot;:500},&quot;center&quot;:{&quot;x&quot;:173.76400712132454,&quot;y&quot;:250},&quot;rotate&quot;:0,&quot;scale&quot;:{&quot;x&quot;:1,&quot;y&quot;:1},&quot;translate&quot;:{&quot;x&quot;:4843.735015869141,&quot;y&quot;:4634},&quot;ratio&quot;:1}}}" data-metadata="{&quot;id&quot;:14,&quot;type&quot;:&quot;ORNAMENT&quot;}" style="cursor: pointer;" transform="matrix(1,0,0,1,4843.735,4634)" xmlns="http://www.w3.org/2000/svg"><path fill-rule="evenodd" clip-rule="evenodd" d="M4.1116 499.867V179.048C4.1116 82.3777 80.2183 3.73084 173.766 3.73084C267.314 3.73084 343.417 82.3777 343.417 179.048V500H347.029V179.048C347.029 80.3212 269.303 0 173.766 0C78.2275 0 0.499023 80.3212 0.499023 179.048L0.499023 499.867H4.1116Z" fill="#E8E8E8"></path><path fill-rule="evenodd" clip-rule="evenodd" d="M86.9449 410.823C89.6565 411.558 92.3993 412.146 95.2235 412.494C101.676 413.3 108.288 412.326 114.688 413.502C120.725 414.613 126.25 417.607 130.908 421.542C133.174 423.458 140.092 429.028 140.841 432.164C132.004 428.912 120.872 426.029 112.292 427.763C111.639 427.895 111.942 428.858 112.581 428.746C120.905 427.284 131.744 430.174 140.619 433.936C140.44 433.994 140.276 434.091 140.139 434.22C140.002 434.348 139.895 434.505 139.825 434.68C137.23 440.571 125.548 439.528 120.331 438.992C113.321 438.269 107.965 435.612 103.369 430.185C97.7931 423.6 92.8619 416.943 86.9449 410.823ZM222.111 404.185C227.446 405.511 232.862 407.454 238.361 409.156C238.947 409.336 239.275 408.443 238.748 408.17C233.65 405.55 227.636 403.119 221.416 401.649C221.413 401.63 221.406 401.615 221.399 401.592C221.381 401.509 221.335 401.457 221.307 401.383C225.966 399.283 230.888 397.963 235.917 400.241C239.188 401.72 241.783 404.5 244.129 407.146C248.83 412.435 253.349 417.896 257.925 423.292C250.509 423.932 242.967 424.178 236.055 420.943C229.109 417.692 224.349 411.333 222.111 404.185ZM209.111 387.264C215.009 381.02 219.929 374.34 219.035 364.825C218.983 364.292 218.212 364.296 218.197 364.835C217.949 373.081 213.664 379.396 208.364 385.25C210.256 371.86 217.081 359.622 222.404 347.103C223.02 350.78 224.767 354.48 226.015 358.213C228.241 364.88 229.279 372.634 224.876 378.643C220.978 383.965 214.922 385.254 209.111 387.264ZM200.231 237.944C200.224 237.874 200.189 237.824 200.17 237.76C204.367 233.492 206.699 227.569 207.834 221.659C207.837 221.642 207.83 221.63 207.834 221.611C208.838 221.506 209.794 221.129 210.599 220.521C213.408 223.444 215.951 226.72 217.296 230.584C217.968 232.514 219.514 236.996 219.065 238.916C219.155 240.77 218.25 243.759 215.009 244.264C214.096 244.518 213.182 244.762 212.266 245.002C209.017 246.082 203.743 251.976 201.253 246.86C200.137 244.582 200.525 240.448 200.231 237.944ZM211.985 219.156C212.626 218.302 213.082 217.297 213.24 216.256C213.299 215.88 213.302 215.517 213.299 215.149C217.66 214.564 222.494 213.564 226.751 214.426C231.788 215.441 232.949 219.17 236.483 221.948C237.947 223.098 239.609 223.155 240.572 224.781C242.79 228.51 237.963 230.913 234.962 232.123C230.868 233.78 225.384 237.9 220.936 235.548C219.798 229.519 215.282 222.686 211.985 219.156ZM233.035 215.242C232.54 214.762 231.988 214.344 231.393 213.995C225.921 210.911 218.937 212.473 212.987 213.25C212.375 211.243 210.918 209.515 209.192 208.265C209.201 208.189 209.223 208.114 209.21 208.021C208.596 203.98 210.358 200.03 211.162 195.982C211.254 195.859 211.312 195.714 211.33 195.562C211.729 192.459 213.172 188.55 216.125 186.961C219.64 185.072 222.107 186.781 225.491 186.81C226.262 186.819 226.954 186.399 227.614 186.283C230.597 183.977 233.785 183.071 235.364 191.843C235.683 193.616 236.088 195.891 236.998 197.496C237.667 198.672 239.701 199.667 240.051 199.782C242.298 201.263 244.498 202.221 242.246 205.892C242.128 207.301 240.014 209.104 239.172 210.048C237.365 212.072 235.291 213.744 233.035 215.242ZM209.393 188.977C209.696 190.799 209.722 192.639 209.547 194.46C209.509 194.67 209.468 194.884 209.442 195.09C209.433 195.147 209.449 195.192 209.449 195.24C209.241 196.844 208.894 198.433 208.426 199.973C207.602 202.718 206.857 205.044 207.245 207.886H207.239C204.817 208.272 203.138 210.235 202.379 212.592C194.274 211.087 181.182 211.477 184.893 199.366C185.502 197.39 185.621 195.839 184.687 193.962C184.159 193.135 183.599 192.33 183.007 191.548C181.641 188.898 184.304 186.874 186.482 186.653C187.636 186.11 190.18 186.923 191.493 186.843C193.763 186.713 196.332 183.993 197.53 183.152C199.077 181.78 199.942 181.391 202.301 181.571C206.676 181.139 208.828 185.615 209.393 188.977ZM207.955 209.75C209.7 210.959 211.192 212.727 211.353 214.917C211.504 216.903 210.227 219.04 208.243 219.59C202.35 221.213 202.563 209.958 207.953 209.752L207.955 209.75ZM184.89 209.865C189.187 213.445 197.041 213.575 201.958 214.49C201.64 217.544 202.833 220.637 205.888 221.446C204.502 228.469 201.508 235.358 195.172 239.279C192.399 240.998 191.096 241.358 187.849 239.732C187.492 239.552 187.226 239.042 186.81 238.885C185.675 238.45 184.474 238.216 183.26 238.193C181.18 238.136 177.972 239.113 178.046 234.747C178.062 233.976 179.103 232.184 179.32 231.262C179.696 229.676 179.763 228.455 179.082 226.91C177.606 223.544 174.38 221.581 175.489 217.267C176.611 212.89 181.102 211.221 184.89 209.865ZM160.981 156.28C160.979 155.755 160.951 155.229 160.898 154.706C160.898 154.694 160.898 154.687 160.895 154.675C162.949 152.542 164.419 149.455 165.152 145.729C165.625 145.655 166.082 145.475 166.503 145.197C168.333 147.127 169.478 148.864 170.102 150.654C170.44 151.622 171.33 154.189 171.089 155.227L171.086 155.279C171.128 156.13 170.752 157.797 168.974 158.079C168.442 158.224 167.931 158.368 167.414 158.499C166.87 158.683 166.274 159.056 165.639 159.461C164.573 160.136 163.367 160.897 162.468 160.646C162.055 160.53 161.724 160.203 161.454 159.65C161.049 158.818 161.016 157.469 160.981 156.28ZM167.565 144.152C167.908 143.657 168.13 143.114 168.212 142.566C168.237 142.409 168.249 142.25 168.25 142.09C168.587 142.042 168.929 141.988 169.275 141.94C171.398 141.628 173.595 141.303 175.57 141.699C177.374 142.068 178.275 143.09 179.229 144.173C179.741 144.756 180.266 145.354 180.953 145.894C181.291 146.157 181.633 146.321 181.964 146.475C182.466 146.715 182.903 146.921 183.204 147.431C183.499 147.926 183.568 148.386 183.417 148.845C183.124 149.702 182.054 150.496 180.146 151.269C179.612 151.486 179.046 151.771 178.445 152.07C176.518 153.042 174.338 154.139 172.521 153.245C171.874 149.993 169.535 146.298 167.565 144.152ZM179.162 141.708C178.905 141.471 178.622 141.262 178.32 141.085C175.57 139.537 172.152 140.03 169.137 140.463C168.762 140.518 168.387 140.57 168.012 140.62C167.667 139.631 166.943 138.69 165.95 137.944C165.95 137.922 165.95 137.899 165.947 137.875C165.711 136.306 166.124 134.781 166.555 133.165C166.728 132.529 166.905 131.868 167.037 131.214C167.093 131.127 167.128 131.028 167.141 130.925C167.363 129.217 168.16 127.091 169.729 126.24C170.999 125.565 171.98 125.745 173.118 125.963C173.678 126.067 174.257 126.179 174.898 126.184C175.199 126.188 175.477 126.086 175.717 126.005C175.865 125.953 176 125.903 176.13 125.883L176.18 125.873L176.22 125.842C177.175 125.103 177.883 124.861 178.448 125.081C179.252 125.389 179.857 126.655 180.25 128.848C180.442 129.895 180.671 131.166 181.194 132.086C181.603 132.806 182.754 133.366 182.993 133.454L183.282 133.643C184.443 134.385 185.205 134.876 184.147 136.6L184.121 136.689C184.07 137.244 183.32 138.003 182.825 138.51C182.694 138.639 182.566 138.772 182.442 138.908C181.555 139.906 180.48 140.819 179.162 141.708ZM163.254 140.475C163.471 139.98 163.979 139.155 164.982 139.081C165.628 139.537 166.654 140.468 166.751 141.796C166.831 142.869 166.139 143.924 165.178 144.204C165.165 144.204 165.159 144.207 165.146 144.211C164.455 144.401 163.904 144.268 163.506 143.81C162.871 143.083 162.761 141.618 163.254 140.475ZM165.651 127.233C165.812 128.184 165.838 129.201 165.737 130.265L165.722 130.344C165.704 130.431 165.687 130.521 165.677 130.611V130.714C165.573 131.555 165.38 132.444 165.114 133.323L165.068 133.47C164.635 134.909 164.258 136.161 164.419 137.668C164.355 137.683 164.287 137.697 164.223 137.716C163.131 138.034 162.236 138.953 161.77 140.246C161.139 140.134 160.467 140.039 159.756 139.942C156.909 139.544 153.683 139.1 152.451 137.173C151.802 136.161 151.741 134.826 152.275 133.094C152.604 132.008 152.709 131.053 152.143 129.908C151.841 129.433 151.519 128.973 151.181 128.523C151.069 128.321 151.009 128.094 151.009 127.864C151.008 127.633 151.066 127.405 151.178 127.203C151.493 126.626 152.24 126.169 152.992 126.095L153.027 126.089L153.059 126.075C153.406 125.915 154.092 126.015 154.697 126.101C155.106 126.165 155.497 126.217 155.797 126.202C156.842 126.139 157.923 125.233 158.708 124.56C158.945 124.367 159.145 124.194 159.297 124.088C160.144 123.339 160.579 123.14 161.849 123.237H161.887C164.133 123.012 165.316 125.25 165.651 127.233ZM159.521 141.426C160.212 141.516 160.869 141.606 161.454 141.708C161.354 143.199 161.868 145.013 163.644 145.591C162.702 150.201 160.718 153.47 157.751 155.305C156.199 156.265 155.534 156.403 153.832 155.552C153.759 155.503 153.693 155.444 153.635 155.377C153.525 155.243 153.384 155.137 153.224 155.069C152.567 154.814 151.87 154.676 151.166 154.661C150.97 154.656 150.764 154.668 150.554 154.675C149.904 154.71 149.235 154.739 148.834 154.353C148.551 154.08 148.419 153.615 148.432 152.93C148.435 152.728 148.627 152.292 148.795 151.913C148.943 151.576 149.085 151.257 149.142 151.013C149.355 150.111 149.404 149.369 148.998 148.44C148.728 147.833 148.367 147.307 148.014 146.802C147.245 145.688 146.579 144.728 146.985 143.152C147.591 140.805 150.027 139.89 152.037 139.171C153.95 140.696 157.034 141.101 159.521 141.426ZM125.03 286.204C124.185 286.145 122.081 285.377 121.246 285.031C121.13 284.979 121.004 284.952 120.876 284.952C120.749 284.952 120.623 284.979 120.506 285.031C119.203 280.59 116.322 276.925 112.552 274.283C113.421 273.803 114.128 273.077 114.584 272.196C118.129 272.097 121.87 271.535 124.85 269.743C125.897 269.496 126.961 269.582 128.045 270.013C130.107 270.857 130.154 271.198 130.145 272.87C130.228 273.533 129.045 274.676 128.787 275.275C128.18 276.67 127.295 278.338 127.096 279.867C126.954 280.981 127.622 281.318 127.69 282.191C127.704 282.371 129.582 286.531 125.03 286.204ZM123.771 268.095C123.539 268.162 123.306 268.223 123.085 268.304C122.879 268.377 122.71 268.524 122.61 268.717C120.342 269.773 117.689 270.16 115.121 270.257C115.161 269.616 115.022 268.976 114.719 268.41C114.272 267.597 113.87 266.939 113.167 266.344C112.508 265.793 111.575 265.509 110.733 265.365C110.703 265.358 110.677 265.365 110.646 265.362C110.771 262.361 110.407 259.512 110.114 256.397C109.986 255.052 110.362 252.575 111.128 251.277C113.692 246.922 117.374 253.391 118.301 253.834C120.065 254.676 122.033 254.83 123.843 255.524C127.671 256.997 129.154 261.012 127.096 264.665C126.302 266.075 125.157 267.257 123.771 268.095ZM109.464 250.279C108.497 251.739 108.062 253.471 108.073 255.247C108.097 258.781 108.776 262.064 108.66 265.545C108.038 265.759 107.447 266.052 106.902 266.419C106.196 266.877 105.699 267.612 105.415 268.429C105.271 268.259 105.07 268.147 104.85 268.114C101.267 267.536 97.625 266.574 94.4231 264.793C91.0842 262.937 91.5122 258.122 95.2547 256.51C95.9824 256.198 96.854 256.188 97.5418 255.761C98.7582 255.01 99.3559 253.931 99.9034 252.665C100.505 251.267 100.99 249.254 102.274 248.268C104.918 246.251 108.153 247.754 109.464 250.281V250.279ZM93.7958 268.095C94.3399 268.166 94.6795 267.832 94.7956 267.42C97.9889 268.873 101.79 269.582 104.618 270.041C104.793 270.071 104.973 270.045 105.133 269.968C105.133 270.193 105.14 270.411 105.171 270.625C105.264 271.307 105.528 271.865 105.862 272.364C105.455 275.887 104.75 279.469 102.535 282.318C100.11 285.448 95.6255 287.507 91.9783 284.938C89.232 283.004 91.8795 280.389 91.6629 277.85C91.5573 276.577 90.8694 275.595 90.4449 274.429C89.3568 271.435 89.3343 267.495 93.7958 268.095ZM100.141 287.161C100.252 287.051 100.331 286.914 100.37 286.763C100.784 286.544 101.181 286.296 101.56 286.021C105.441 283.146 106.895 278.566 107.593 273.979C107.747 274.069 107.905 274.166 108.059 274.242C108.069 274.245 108.082 274.252 108.097 274.256C108.085 274.256 108.073 274.249 108.062 274.242C108.934 274.65 110.852 275.463 111.233 275.722C113.829 277.518 115.981 279.725 117.434 282.539C118.084 283.791 118.892 285.485 119.004 286.913C119.451 292.701 115.541 292.775 112.06 291.407C110.178 290.665 108.638 289.582 106.526 289.724C105.685 289.785 104.793 290.167 103.998 290.402L101.939 291.054C98.4983 291.381 98.3943 288.359 100.141 287.161ZM152.86 414.037C151.259 410.439 149.663 406.845 147.988 403.277C145.174 397.294 142.421 389.447 136.213 386.299C136.047 386.216 135.856 386.395 135.96 386.56C141.723 395.8 146.215 405.586 150.653 415.424C145.528 414.57 140.307 413.899 135.593 411.574C128.205 407.935 124.985 401.225 123.034 393.648C120.886 385.29 123.02 379.371 124.362 371.348C125.044 367.278 125.332 363.139 125.522 359.013C136.937 376.102 165.321 391.531 152.86 414.037ZM80.6415 408.727C87.7818 415.213 93.6538 422.391 99.5396 429.996C102.965 434.429 106.624 438.148 111.958 440.167C119.598 443.065 138.335 445.558 142.527 436.161C142.632 435.933 142.679 435.683 142.662 435.433C142.646 435.183 142.567 434.941 142.433 434.729C144.395 435.609 146.321 436.568 148.206 437.603C156.436 442.144 163.663 448.455 171.642 453.43C177.867 460.97 185.434 467.297 193.962 472.092C197.67 480.87 201.579 489.619 206.617 497.324C207.728 499.019 210.471 497.845 209.889 495.872C207.638 488.254 204.183 480.751 200.513 473.364C200.712 472.947 200.747 472.472 200.612 472.031C200.477 471.59 200.182 471.215 199.784 470.98C199.555 470.837 199.33 470.698 199.108 470.556C196.513 465.411 193.876 460.324 191.528 455.294C189.826 451.658 188.09 448.023 186.356 444.389C187.132 432.57 187.603 420.461 192.004 409.656C199.825 403.003 207.834 401.845 216.036 402.984C216.293 403.365 216.797 403.607 217.322 403.336L217.556 403.22C218.051 403.303 218.55 403.4 219.046 403.496C220.869 411.51 225.574 418.319 232.803 422.5C241.362 427.45 251.486 426.836 260.978 426.049C262.36 425.937 262.875 424.449 262 423.432C255.224 415.63 248.468 405.288 239.635 399.632C232.318 394.945 224.918 397.316 217.859 400.919C209.819 399.532 201.666 399.956 194.879 403.804C196.066 401.764 197.422 399.826 198.931 398.01C201.357 395.099 204.133 392.371 206.843 389.614C207.264 389.489 207.62 389.204 207.834 388.82C215.457 388.134 224.304 385.219 228.215 378.109C232.332 370.631 229.996 361.866 227.167 354.433C226.281 352.116 225.261 349.822 224.748 347.38C224.627 345.882 224.413 344.394 224.107 342.923C224.68 341.435 225.24 339.951 225.744 338.448C226.063 337.507 224.706 337.147 224.226 337.86C222.802 339.977 222.229 342.094 222.171 344.22L221.957 344.823C219.746 350.078 216.906 355.137 214.343 360.231C209.818 369.222 205.689 378.046 204.829 388.213C204.805 388.442 204.835 388.673 204.916 388.888C199.352 394.573 193.413 400.096 190.059 406.878C189.913 407.174 189.781 407.483 189.637 407.781C189.598 407.822 189.551 407.86 189.511 407.905C189.158 408.251 189.041 408.635 189.074 408.995C185.263 417.602 183.5 427.346 182.847 436.96C179.274 429.31 175.846 421.597 172.971 413.684C167.281 398.019 165.902 381.568 165.32 364.998C165.402 364.839 165.442 364.662 165.436 364.483C165.429 364.304 165.376 364.13 165.282 363.978C164.876 351.671 164.85 339.302 163.805 327.143C163.908 327.043 164.02 326.956 164.107 326.818C171.973 314.001 177.701 299.732 182.028 285.362C186.708 269.83 187.035 252.44 197.809 239.805C197.996 239.659 198.202 239.528 198.387 239.378C198.561 242.946 198.42 248.788 200.903 250.802C202.211 251.862 203.83 251.817 205.335 251.315C207.38 250.637 208.603 248.82 210.44 247.804C212.03 246.926 213.874 246.723 215.553 246.132C219.865 244.599 221.338 241.455 221.194 237.765C222.858 238.362 224.535 238.404 226.378 237.923C230.435 236.868 233.676 234.573 237.88 233.668C241.719 232.848 244.769 228.097 242.951 224.034C242.092 222.107 240.278 222.04 238.642 221.061C236.84 219.988 235.695 218.265 234.383 216.685C238.841 213.678 246.467 207.479 244.878 201.561C244.147 198.821 242.478 199.139 240.52 197.899C236.322 195.249 237.551 188.36 235.068 184.492C233.929 182.72 232.138 181.798 229.989 182.299C228.951 182.543 228.447 183.24 227.596 183.709C225.214 185.029 223.88 184.098 221.371 183.866C216.987 183.465 213.552 185.842 211.484 189.24C211.356 186.419 210.864 183.443 208.795 181.652C206.313 179.504 201.324 177.908 198.237 179.523C197.613 179.848 197.443 180.179 196.747 180.699C194.511 182.36 196.374 181.351 193.281 183.577C190.261 185.757 188.248 184.126 184.913 184.875C182.655 185.385 180.352 186.947 180.278 189.493C180.214 191.793 182.236 193.839 182.731 195.998C183.417 199.013 181.652 200.915 181.865 203.858C181.998 205.688 182.558 207.156 183.424 208.353C177.505 210.665 171.446 214.794 173.808 222.107C174.614 224.596 176.492 226.064 177.013 228.688C177.566 231.476 176.067 232.871 175.977 235.507C175.904 237.548 176.799 239.16 178.767 239.891C180.021 240.356 181.452 240.123 182.745 240.154C185.205 240.209 185.846 241.54 187.669 242.493C189.968 243.691 192.226 242.968 194.454 241.877C186.709 251.874 185.366 264.414 181.908 276.925C177.554 292.685 170.868 307.205 163.254 321.549C160.229 294.114 152.8 267.697 148.918 240.42C144.786 211.411 151.202 185.395 159.567 157.975C159.689 159.622 159.983 161.331 160.95 162.109C161.608 162.645 162.478 162.773 163.474 162.484C163.526 162.467 163.578 162.45 163.636 162.436C164.337 162.199 164.874 161.739 165.392 161.296C165.749 160.99 166.122 160.674 166.536 160.442C167.077 160.143 167.692 159.985 168.289 159.831C168.65 159.741 169.022 159.644 169.381 159.516C171.576 158.738 172.689 157.188 172.69 154.907C173.567 155.166 174.472 155.166 175.449 154.91C176.523 154.637 177.523 154.184 178.484 153.755C179.559 153.279 180.674 152.786 181.906 152.518C183.067 152.276 184.159 151.387 184.753 150.221C185.328 149.094 185.38 147.89 184.904 146.823C184.531 145.992 183.864 145.721 183.216 145.451C182.946 145.339 182.665 145.221 182.398 145.06C181.608 144.593 181.061 143.894 180.475 143.164C180.382 143.048 180.292 142.927 180.198 142.815C182.837 141.006 186.903 137.595 185.997 134.219C185.677 133.034 185.03 132.764 184.344 132.475C184.036 132.357 183.74 132.213 183.457 132.043C182.132 131.207 181.823 129.581 181.496 127.864C181.276 126.691 181.042 125.48 180.456 124.562C179.73 123.438 178.611 122.953 177.379 123.244C176.967 123.341 176.696 123.555 176.429 123.753C176.282 123.865 176.147 123.971 175.986 124.057C175.076 124.562 174.484 124.446 173.661 124.285C173.349 124.225 173.001 124.157 172.602 124.121C170.471 123.926 168.525 124.87 167.189 126.726C167.077 125.384 166.749 123.877 165.647 122.924C164.304 121.763 161.416 120.691 159.484 121.699C159.252 121.821 159.117 121.942 158.973 122.078C158.879 122.16 158.774 122.262 158.616 122.377C158.027 122.817 157.926 122.936 157.819 123.068C157.712 123.194 157.602 123.327 156.67 123.996C155.695 124.702 154.924 124.654 154.026 124.597C153.453 124.562 152.798 124.517 152.044 124.69C150.8 124.963 149.324 125.871 149.279 127.478C149.256 128.288 149.651 129.023 150.034 129.739C150.301 130.237 150.552 130.709 150.661 131.19C150.864 132.07 150.668 132.771 150.466 133.516C150.292 134.146 150.112 134.798 150.171 135.578C150.237 136.493 150.495 137.299 150.939 137.991C146.404 139.831 144.576 142.557 145.651 145.885C145.864 146.542 146.202 147.073 146.529 147.591C146.924 148.208 147.291 148.789 147.446 149.562C147.615 150.417 147.42 151.038 147.208 151.686C147.047 152.181 146.883 152.695 146.86 153.347C146.815 154.637 147.42 155.585 148.562 156.009C149.114 156.211 149.703 156.192 150.277 156.176C150.476 156.17 150.672 156.166 150.864 156.17C151.736 156.187 152.167 156.51 152.671 156.886C152.931 157.079 153.196 157.283 153.543 157.458C155.064 158.254 156.532 157.635 157.79 156.995C158.004 156.886 158.211 156.761 158.419 156.642C149.249 183.069 142.39 209.297 145.696 237.501C149.234 267.693 157.904 296.845 160.255 327.28C161.059 337.68 161.139 348.203 161.355 358.713C146.037 336.338 143.892 306.021 122.541 287.558C124.984 288.323 127.744 288.614 129.58 286.528C132.006 283.777 129.002 281.736 129.452 278.848C129.922 275.861 133.536 272.846 131.167 269.902C130.159 268.65 128.754 268.008 127.259 267.806C127.853 267.183 128.39 266.479 128.844 265.673C131.275 261.375 129.792 255.941 125.174 253.964C123.44 253.223 121.212 253.223 119.595 252.289C117.729 251.213 116.876 248.955 115.168 247.934C113.624 247.009 112.132 247.597 110.849 248.711C109.263 246.139 106.415 244.667 103.265 245.604C101.622 246.09 100.304 247.223 99.4062 248.654C97.6822 251.412 98.9973 252.211 94.974 254.55C94.1666 255.017 93.0612 255.103 92.2174 255.565C89.3429 257.132 87.7957 260.168 89.5682 263.184C90.263 264.373 91.2835 265.346 92.4981 266.158C89.5006 266.517 87.0593 269.081 87.5895 272.341C87.7887 273.564 88.539 274.527 88.8994 275.678C89.2823 276.923 89.1697 279.208 88.8127 280.479C88.7001 280.872 87.5739 283.878 89.9442 285.767C92.1377 287.513 94.7141 288.3 97.3287 287.832C96.3827 290.051 97.1069 292.512 100.181 293.026C103.507 293.585 105.909 291.096 109.48 292.329C111.772 293.121 113.564 294.365 116.118 294.06C119.765 293.623 121.099 291.07 121.028 288.102C125.782 293.866 130.786 299.285 134.6 305.83C138.254 312.104 141.075 318.785 143.719 325.529C148.293 337.199 152.441 353.499 161.456 363.054C161.915 380.632 163.095 398.109 169.08 414.813C172.905 425.491 177.722 435.82 182.525 446.117C182.521 447.064 182.525 448.009 182.537 448.941C182.554 450.247 183.627 450.733 184.582 450.532C185.23 451.925 185.876 453.319 186.515 454.715C188.137 458.252 189.689 461.907 191.233 465.598C186.999 462.899 182.913 460.07 179.167 456.671C179.177 456.588 179.166 456.503 179.136 456.425C179.106 456.346 179.057 456.277 178.994 456.221C178.127 455.4 177.218 454.619 176.291 453.852C175.866 453.409 175.43 452.99 175.021 452.52C168.769 445.423 163.97 437.166 159.722 428.767C157.854 425.07 156.126 421.312 154.432 417.538C154.437 416.986 154.241 416.431 153.782 416.109L153.609 415.716C153.765 415.68 153.904 415.592 154.004 415.466C172.226 392.553 134.465 370.547 125.512 353.66C124.878 352.467 122.996 353.117 123.022 354.387C123.402 370.943 116.253 386.748 123.105 402.713C128.139 414.438 140.501 418.176 152.354 419.186C155.097 425.266 157.881 431.333 160.986 437.285C162.762 440.682 164.739 443.97 166.907 447.132C164.829 445.779 162.748 444.447 160.716 443.084C155.731 439.751 150.762 436.161 145.188 433.857C144.037 433.382 142.879 432.926 141.714 432.489C141.638 429.887 138.505 427.17 137.055 425.465C133.434 421.203 129.133 417.387 124.216 414.663C119.205 411.885 113.895 410.571 108.199 410.275C99.0648 409.806 90.6771 409.379 81.9843 406.271C80.5826 405.769 79.621 407.796 80.6398 408.722L80.6415 408.727Z" fill="#E2A967"></path><rect x="0.4990230202674866" y="0" width="346.52996826171875" height="500" data-id="gSlmrmti0f1n9" data-type="PATH" data-action="SELECTOR" fill="rgba(0,0,0,0)" stroke="rgba(0,0,0,0)" style=""></rect></g><g data-type="PATH" data-id="gSlmrmti0f1t1" data-state="{&quot;transform&quot;:{&quot;attrs&quot;:{&quot;x&quot;:0,&quot;y&quot;:0,&quot;size&quot;:{&quot;x&quot;:74.39009857177734,&quot;y&quot;:160},&quot;center&quot;:{&quot;x&quot;:37.19504928588867,&quot;y&quot;:80},&quot;rotate&quot;:0,&quot;scale&quot;:{&quot;x&quot;:0.46438529842543824,&quot;y&quot;:0.46438529842543824},&quot;translate&quot;:{&quot;x&quot;:4991.882735490799,&quot;y&quot;:5112.849176125965},&quot;ratio&quot;:1}}}" data-metadata="{&quot;id&quot;:6,&quot;type&quot;:&quot;CONNECTOR&quot;}" style="cursor: move;" transform="matrix(0.4644,0,0,0.4644,5011.805,5155.6984)" xmlns="http://www.w3.org/2000/svg"><path d="M9.97409 155.844C9.35071 157.299 8.51954 158.338 7.48057 158.961C6.4416 159.584 5.40263 160 4.15587 160H0L64.6238 3.94805C65.6628 1.45455 67.5329 0 70.2342 0H74.3901L9.97409 155.844Z" fill="#8C8C8C"></path><rect x="0" y="0" width="74.39009857177734" height="160" data-id="gSlmrmti0f1t1" data-type="PATH" data-action="SELECTOR" fill="rgba(0,0,0,0)" stroke="rgba(0,0,0,0)" style=""></rect></g><g data-id="gSlmgk5uxv1" data-type="TEXT" height="180" width="180" data-state="{&quot;transform&quot;:{&quot;attrs&quot;:{&quot;x&quot;:0,&quot;y&quot;:0,&quot;size&quot;:{&quot;x&quot;:110.171875,&quot;y&quot;:154},&quot;center&quot;:{&quot;x&quot;:55.0859375,&quot;y&quot;:77},&quot;rotate&quot;:0,&quot;scale&quot;:{&quot;x&quot;:1,&quot;y&quot;:1},&quot;translate&quot;:{&quot;x&quot;:14,&quot;y&quot;:27},&quot;ratio&quot;:1}}}" transform="matrix(1,0,0,1,4849,5114.5)" data-metadata="{&quot;type&quot;:&quot;FIRST_INITIAL&quot;}" style="cursor: pointer;" xmlns="http://www.w3.org/2000/svg">\n        <text x="0" y="0" data-id="gSlmgk5uxv1" height="180" width="180" fill="#555555" style="alignment-baseline: text-before-edge; font-family: Lora, serif; font-size: 120px; font-weight: 400;">M</text>\n    </g><g data-id="gSlmgk5uxv1z" data-type="TEXT" height="180" width="180" data-state="{&quot;transform&quot;:{&quot;attrs&quot;:{&quot;x&quot;:0,&quot;y&quot;:0,&quot;size&quot;:{&quot;x&quot;:74.640625,&quot;y&quot;:154},&quot;center&quot;:{&quot;x&quot;:37.3203125,&quot;y&quot;:77},&quot;rotate&quot;:0,&quot;scale&quot;:{&quot;x&quot;:1,&quot;y&quot;:1},&quot;translate&quot;:{&quot;x&quot;:19,&quot;y&quot;:31},&quot;ratio&quot;:1}}}" transform="matrix(1,0,0,1,5112,5115.5)" data-metadata="{&quot;type&quot;:&quot;SECOND_INITIAL&quot;}" style="cursor: pointer;" xmlns="http://www.w3.org/2000/svg">\n        <text x="0" y="0" data-id="gSlmgk5uxv1z" height="180" width="180" fill="#555555" style="alignment-baseline: text-before-edge; font-family: Lora, serif; font-size: 120px; font-weight: 400;">E</text>\n    </g><g transform="matrix(1,0,0,1,0,0)" xmlns="http://www.w3.org/2000/svg"><path d="M5046.350618839264,5192.849176125965L5091.350618839264,5192.849176125965" stroke="#90caf9" style="stroke-dasharray: 4, 3; opacity: 0.5;" class="ftaxisline"></path><circle cx="5091.350618839264" cy="5192.849176125965" r="6" fill="#fafafa" stroke="#90caf9" style="cursor: crosshair;" class="ftdisc"></circle><path d="M5029.077784776688,5230L5029.077784776688,5275" stroke="#90caf9" style="stroke-dasharray: 4, 3; opacity: 0.5;" class="ftaxisline"></path><circle cx="5029.077784776688" cy="5275" r="6" fill="#fafafa" stroke="#90caf9" style="cursor: crosshair;" class="ftdisc"></circle><path stroke="#90caf9" fill="none" d="M5011.804950714111,5155.6983522519295L5046.350618839264,5155.6983522519295L5046.350618839264,5230L5011.804950714111,5230L5011.804950714111,5155.6983522519295" style="stroke-dasharray: 4, 3; opacity: 0.5;" class="ftbbox"></path><rect x="5005.804950714111" y="5149.6983522519295" width="12" height="12" fill="#fafafa" stroke="#90caf9" transform="matrix(1,0,0,1,0,0)" style="cursor: nw-resize;" class="fthandle"></rect><rect x="5040.350618839264" y="5149.6983522519295" width="12" height="12" fill="#fafafa" stroke="#90caf9" transform="matrix(1,0,0,1,0,0)" style="cursor: sw-resize;" class="fthandle"></rect><rect x="5040.350618839264" y="5224" width="12" height="12" fill="#fafafa" stroke="#90caf9" transform="matrix(1,0,0,1,0,0)" style="cursor: nw-resize;" class="fthandle"></rect><rect x="5005.804950714111" y="5224" width="12" height="12" fill="#fafafa" stroke="#90caf9" transform="matrix(1,0,0,1,0,0)" style="cursor: sw-resize;" class="fthandle"></rect><rect x="5023.077784776688" y="5149.6983522519295" width="12" height="12" fill="#fafafa" stroke="#90caf9" transform="matrix(1,0,0,1,0,0)" style="cursor: n-resize;" class="fthandle"></rect><rect x="5040.350618839264" y="5186.849176125965" width="12" height="12" fill="#fafafa" stroke="#90caf9" transform="matrix(1,0,0,1,0,0)" style="cursor: e-resize;" class="fthandle"></rect><rect x="5023.077784776688" y="5224" width="12" height="12" fill="#fafafa" stroke="#90caf9" transform="matrix(1,0,0,1,0,0)" style="cursor: n-resize;" class="fthandle"></rect><rect x="5005.804950714111" y="5186.849176125965" width="12" height="12" fill="#fafafa" stroke="#90caf9" transform="matrix(1,0,0,1,0,0)" style="cursor: e-resize;" class="fthandle"></rect></g></svg>