<svg height="10000" version="1.1" width="10000" xmlns="http://www.w3.org/2000/svg" data-id="1"><g data-id="gSlmgk5uxv1" data-type="TEXT" height="180" width="180" data-state="{&quot;transform&quot;:{&quot;attrs&quot;:{&quot;x&quot;:0,&quot;y&quot;:0,&quot;size&quot;:{&quot;x&quot;:174.203125,&quot;y&quot;:238},&quot;center&quot;:{&quot;x&quot;:87.1015625,&quot;y&quot;:119},&quot;rotate&quot;:0,&quot;scale&quot;:{&quot;x&quot;:1,&quot;y&quot;:1},&quot;translate&quot;:{&quot;x&quot;:0,&quot;y&quot;:0},&quot;ratio&quot;:1}}}" transform="matrix(1,0,0,1,4915,5100.5)" data-metadata="{&quot;type&quot;:&quot;FIRST_INITIAL&quot;}" style="cursor: move;" xmlns="http://www.w3.org/2000/svg"><text x="0" y="0" data-id="gSlmgk5uxv1" height="180" width="180" fill="#555555" style="alignment-baseline: text-before-edge; font-family: &quot;Roboto Slab&quot;, serif; font-size: 180px; font-weight: 400;">M</text></g><g data-id="gSlmgk5uxv1z" data-type="TEXT" height="180" width="180" data-state="{&quot;transform&quot;:{&quot;attrs&quot;:{&quot;x&quot;:0,&quot;y&quot;:0,&quot;size&quot;:{&quot;x&quot;:114.796875,&quot;y&quot;:238},&quot;center&quot;:{&quot;x&quot;:57.3984375,&quot;y&quot;:119},&quot;rotate&quot;:0,&quot;scale&quot;:{&quot;x&quot;:1,&quot;y&quot;:1},&quot;translate&quot;:{&quot;x&quot;:0,&quot;y&quot;:0},&quot;ratio&quot;:1}}}" transform="matrix(1,0,0,1,5185,5100.5)" data-metadata="{&quot;type&quot;:&quot;SECOND_INITIAL&quot;}" style="cursor: move;" xmlns="http://www.w3.org/2000/svg"><text x="0" y="0" data-id="gSlmgk5uxv1z" height="180" width="180" fill="#555555" style="alignment-baseline: text-before-edge; font-family: &quot;Roboto Slab&quot;, serif; font-size: 180px; font-weight: 400;">E</text></g><g transform="matrix(1,0,0,1,4915,5100.5)" xmlns="http://www.w3.org/2000/svg"><path d="M174.203125,119L219.203125,119" stroke="#90caf9" style="stroke-dasharray: 4, 3; opacity: 0.5;" class="ftaxisline"></path><circle cx="219.203125" cy="119" r="6" fill="#fafafa" stroke="#90caf9" style="cursor: crosshair;" class="ftdisc"></circle><path d="M87.10156250000001,238L87.10156250000001,283" stroke="#90caf9" style="stroke-dasharray: 4, 3; opacity: 0.5;" class="ftaxisline"></path><circle cx="87.10156250000001" cy="283" r="6" fill="#fafafa" stroke="#90caf9" style="cursor: crosshair;" class="ftdisc"></circle><path stroke="#90caf9" fill="none" d="M-7.286648454926752e-15,0L174.203125,0L174.203125,238L7.286648454926752e-15,238L-7.286648454926752e-15,0" style="stroke-dasharray: 4, 3; opacity: 0.5;" class="ftbbox"></path></g><g transform="matrix(1,0,0,1,5185,5100.5)" xmlns="http://www.w3.org/2000/svg"><path d="M114.796875,119L159.796875,119" stroke="#90caf9" style="stroke-dasharray: 4, 3; opacity: 0.5;" class="ftaxisline"></path><circle cx="159.796875" cy="119" r="6" fill="#fafafa" stroke="#90caf9" style="cursor: crosshair;" class="ftdisc"></circle><path d="M57.39843750000001,238L57.39843750000001,283" stroke="#90caf9" style="stroke-dasharray: 4, 3; opacity: 0.5;" class="ftaxisline"></path><circle cx="57.39843750000001" cy="283" r="6" fill="#fafafa" stroke="#90caf9" style="cursor: crosshair;" class="ftdisc"></circle><path stroke="#90caf9" fill="none" d="M-7.286648454926752e-15,0L114.79687499999999,0L114.79687500000001,238L7.286648454926752e-15,238L-7.286648454926752e-15,0" style="stroke-dasharray: 4, 3; opacity: 0.5;" class="ftbbox"></path></g></svg>
