<svg viewBox="0 0 47 75" fill="none" xmlns="http://www.w3.org/2000/svg">
    <path fill-rule="evenodd" clip-rule="evenodd" d="M40.0172 64.4974C39.4492 65.9125 38.7564 66.7698 38.4028 67.1479C38.3602 66.987 38.3165 66.7634 38.2989 66.4828C38.2625 65.9078 38.3294 64.9691 38.8551 63.7611C39.2187 62.9255 39.9425 62.033 40.3666 61.549C40.4061 62.2365 40.4113 63.516 40.0172 64.4972M33.8181 70.1877C33.5998 71.9818 32.347 73.3825 31.7821 73.932C31.6742 73.2801 31.525 71.825 31.929 70.1059C32.1828 69.0278 33.1618 67.4332 33.6569 66.6724C33.7878 67.4137 33.9812 68.8476 33.8181 70.1877ZM27.7234 72.5825C26.8335 73.3714 25.2294 74.0832 24.4532 74.4009C24.761 73.6066 25.506 71.9264 26.6662 70.8099C27.5787 69.932 28.7172 69.795 29.1489 69.7759C29.1814 70.1938 29.1184 71.3455 27.7234 72.5825ZM9.09356 64.4224C8.31783 64.4915 7.06857 64.4226 5.52391 63.7026C3.64791 62.8281 2.10325 61.3538 1.51058 60.7427C2.17446 60.6448 3.77175 60.5752 6.31868 61.4651C8.49126 62.2243 9.76143 63.6545 10.1816 64.1955C9.95977 64.274 9.58871 64.3783 9.09356 64.4224ZM12.1079 63.3012C11.2276 61.8766 10.6838 60.1557 10.4667 59.3821C11.2022 59.7014 12.8214 60.5448 13.9212 62.1542C14.8565 63.5222 15.052 65.4519 15.0922 66.2863C14.4337 65.8264 12.9798 64.7123 12.1079 63.3012ZM17.6652 71.6997C15.9976 72.8955 13.9129 73.4209 13.0644 73.5959C13.3769 72.9238 14.2497 71.4056 16.2319 70.0007C17.2424 69.2849 19.1666 68.7299 20.018 68.5082C19.6775 69.2512 18.8451 70.8535 17.6652 71.6995M12.4198 68.6578C10.9945 69.1962 9.89585 69.2648 9.37838 69.2592C9.66649 68.808 10.4305 67.904 12.1744 67.3021C13.0345 67.0054 14.1794 66.9358 14.8222 66.9217C14.3432 67.4158 13.4056 68.2853 12.4198 68.6578ZM17.1526 62.1825C16.1161 61.0646 15.6369 60.071 15.4463 59.5892C15.972 59.6858 17.096 60.0521 18.3121 61.442C18.9116 62.1274 19.4096 63.1632 19.6657 63.754C19.0279 63.4969 17.8699 62.9561 17.1526 62.1825ZM22.1946 63.3335C21.8505 62.8512 21.4148 62.008 21.2926 60.7276C21.1601 59.3384 21.7455 57.9847 22.0362 57.4118C22.4044 57.9231 23.175 59.141 23.3404 60.5778C23.5613 62.4981 23.0114 63.579 22.7607 63.9594C22.6234 63.8431 22.4131 63.6396 22.1946 63.3335ZM29.3181 64.1309C28.1781 63.7943 26.7242 62.8101 26.0436 62.3196C26.8781 62.159 28.6933 61.8993 30.2553 62.292C31.4832 62.6009 32.2039 63.4962 32.4486 63.8519C32.113 64.1045 31.114 64.6615 29.3181 64.1309ZM38.0524 60.8219C36.2774 60.8564 34.8923 60.1972 34.1869 59.7689C34.5276 59.7328 34.9906 59.6597 35.5557 59.5146C35.7712 59.4581 35.9857 59.398 36.1992 59.3344C36.821 59.1528 37.4642 58.9653 38.4192 58.859C39.7141 58.7151 40.7664 59.2557 41.2047 59.5295C40.737 59.9144 39.5141 60.792 38.0524 60.8219ZM46.906 44.9467V23.686C46.9349 23.6659 46.9585 23.6391 46.9748 23.6079C46.9912 23.5767 46.9997 23.542 46.9998 23.5067C46.9998 21.8468 46.8259 20.1898 46.4828 18.581C46.47 18.525 46.4358 18.4762 46.3875 18.4453C46.3392 18.4144 46.2807 18.4038 46.2247 18.4158C46.1687 18.4277 46.1196 18.4614 46.0881 18.5094C46.0565 18.5574 46.0451 18.6159 46.0562 18.6723C46.3819 20.2071 46.5512 21.7711 46.5615 23.3402C46.527 23.3602 46.4984 23.3889 46.4784 23.4235C46.4585 23.458 46.4479 23.4972 46.4477 23.5371V45.1121C46.4477 45.1923 46.4893 45.263 46.5518 45.3038C46.3465 48.8316 45.5566 52.0889 44.2009 54.9868C43.4917 56.504 42.6178 57.9379 41.595 59.2625C41.2406 59.013 39.9968 58.2436 38.371 58.4243C37.3786 58.5347 36.687 58.7363 36.0772 58.9144C35.861 58.9774 35.6572 59.0368 35.4474 59.0908C34.2705 59.3929 33.5556 59.3653 33.5418 59.3651C33.4962 59.3629 33.4512 59.3751 33.4129 59.4C33.3747 59.4249 33.3452 59.4612 33.3286 59.5038C33.3119 59.5464 33.3091 59.5932 33.3203 59.6375C33.3316 59.6819 33.3565 59.7215 33.3914 59.7509C33.4659 59.8137 35.2216 61.2604 37.9088 61.2604C37.9593 61.2604 38.0101 61.2599 38.0613 61.2587C39.0455 61.2387 39.9157 60.8799 40.5603 60.5078C40.1537 60.9638 39.729 61.4032 39.2873 61.825C39.1615 61.9446 39.0342 62.0628 38.9057 62.1795C36.4255 64.1698 33.9573 63.9422 32.8737 63.7016C32.6697 63.3766 31.8667 62.2465 30.3615 61.8677C28.1579 61.3134 25.5802 61.9679 25.4716 61.9962C25.4322 62.0064 25.3964 62.0275 25.3683 62.0571C25.3402 62.0867 25.3209 62.1236 25.3127 62.1637C25.3044 62.2037 25.3075 62.2453 25.3216 62.2836C25.3357 62.322 25.3603 62.3556 25.3925 62.3807C25.481 62.4493 27.5812 64.0736 29.1948 64.5505C29.7783 64.7226 30.2889 64.7889 30.7293 64.7889C31.8874 64.7889 32.5599 64.3304 32.7966 64.1323C33.1712 64.2144 33.6952 64.2939 34.322 64.2939C35.0502 64.2939 35.916 64.1858 36.8433 63.8505C34.223 65.7405 31.2315 67.0948 28.3683 67.6566C25.5828 67.3264 23.7174 65.7651 23.0563 64.3005C23.3209 63.9443 24.0302 62.7573 23.7738 60.5274C23.5402 58.4969 22.2268 56.9354 22.1711 56.8701C22.1487 56.8439 22.1205 56.8234 22.0887 56.8102C22.0569 56.797 22.0225 56.7915 21.9882 56.7942C21.9539 56.7969 21.9208 56.8077 21.8914 56.8257C21.8621 56.8436 21.8373 56.8683 21.8193 56.8977C21.7723 56.9743 20.6701 58.7986 20.8584 60.7689C21.0884 63.1788 22.3363 64.2026 22.6289 64.4115C23.0942 65.4953 24.1646 66.6361 25.7388 67.37C24.7871 67.1365 23.9763 66.8061 23.3606 66.5021C21.9803 65.8203 20.8203 64.8974 20.2518 64.0304C20.1646 63.8014 19.5214 62.1608 18.6402 61.1535C16.8382 59.0939 15.1909 59.116 15.1215 59.1177C15.0888 59.1186 15.0567 59.1269 15.0276 59.142C14.9985 59.1571 14.9731 59.1785 14.9534 59.2048C14.9337 59.2311 14.9201 59.2614 14.9137 59.2937C14.9073 59.3259 14.9082 59.3592 14.9164 59.391C14.9312 59.4488 15.2994 60.8257 16.833 62.4799C17.833 63.5585 19.5428 64.1875 19.9186 64.3167C20.8161 65.6387 23.265 67.4016 26.3421 67.9471C21.7915 68.4188 18.1914 67.6754 15.5387 66.6872C15.5417 66.4172 15.5391 63.7474 14.2814 61.9071C12.7431 59.6566 10.3153 58.8462 10.2129 58.8127C10.1761 58.8008 10.1368 58.7988 10.0991 58.8071C10.0613 58.8154 10.0264 58.8335 9.99797 58.8598C9.96952 58.8861 9.94853 58.9194 9.93715 58.9565C9.92578 58.9936 9.92442 59.033 9.93322 59.0708C9.95672 59.1722 10.5296 61.5776 11.7371 63.5316C12.3998 64.6042 13.3567 65.4957 14.0984 66.0901C12.4884 65.3526 11.3493 64.5875 10.6791 64.1337C10.4756 63.8342 9.13257 61.9851 6.46203 61.0521C2.88463 59.8021 1.09134 60.3769 1.01685 60.4019C0.982785 60.4133 0.95207 60.4331 0.92744 60.4593C0.902809 60.4855 0.885026 60.5175 0.875675 60.5523C0.866324 60.5871 0.865694 60.6237 0.873843 60.6588C0.881991 60.6939 0.898664 60.7265 0.922378 60.7535C0.999928 60.8425 2.85596 62.9413 5.33967 64.0988C6.63734 64.7038 7.74513 64.8847 8.60641 64.8847C9.58377 64.8847 10.242 64.6523 10.5014 64.541C11.2025 65.0151 12.3666 65.7856 13.994 66.524C13.3767 66.5736 12.6463 66.6766 12.0325 66.8884C9.44794 67.7804 8.8447 69.3167 8.82002 69.3818C8.8084 69.4126 8.80386 69.4456 8.80676 69.4784C8.80966 69.5112 8.81992 69.5429 8.83676 69.5711C8.8536 69.5994 8.87659 69.6234 8.90401 69.6415C8.93144 69.6596 8.96257 69.6712 8.9951 69.6754C9.0139 69.678 9.17229 69.6983 9.44818 69.6983C10.0319 69.6983 11.1421 69.6075 12.5737 69.0667C13.7722 68.6139 14.8591 67.5313 15.2912 67.0629C16.6526 67.5759 18.0603 67.9551 19.4947 68.195C18.5117 68.4691 16.9132 68.9825 15.98 69.6438C13.231 71.5919 12.5309 73.7278 12.5022 73.8179C12.4911 73.8532 12.489 73.8909 12.4964 73.9272C12.5037 73.9636 12.5201 73.9975 12.5441 74.0257C12.5681 74.054 12.5988 74.0756 12.6334 74.0886C12.668 74.1017 12.7054 74.1056 12.7419 74.1002C12.8618 74.0827 15.6942 73.6507 17.919 72.0552C19.439 70.9653 20.3794 68.8026 20.5637 68.35C21.5048 68.4648 22.5067 68.5304 23.5703 68.5304C24.8557 68.5304 26.2316 68.4351 27.6964 68.2165C27.8945 68.1868 28.0938 68.1521 28.2933 68.1151C28.3666 68.1146 28.4399 68.1139 28.5135 68.112H28.5198C28.5241 68.1118 28.5281 68.1106 28.5323 68.1101C28.5414 68.1096 28.5506 68.1084 28.5595 68.1066C28.5652 68.1054 28.5704 68.1035 28.576 68.1019C28.5835 68.0995 28.5913 68.0971 28.5988 68.0941C28.6044 68.0917 28.6096 68.0889 28.6152 68.0861C28.6273 68.0796 28.6387 68.0721 28.6493 68.0637C28.6551 68.059 28.6607 68.054 28.666 68.0488L28.6754 68.0394C29.6906 67.8262 30.7199 67.5172 31.7417 67.1229C30.8052 67.8351 29.9851 68.6122 29.2502 69.3351C28.8688 69.3356 27.4849 69.416 26.3642 70.4945C24.7253 72.0714 23.9098 74.6077 23.8758 74.715C23.8633 74.7541 23.8621 74.7958 23.8722 74.8355C23.8822 74.8752 23.9032 74.9113 23.9328 74.9396C23.9623 74.9679 23.9992 74.9873 24.0392 74.9955C24.0792 75.0038 24.1207 75.0006 24.1589 74.9863C24.2642 74.9478 26.7529 74.0268 28.0125 72.9099C29.664 71.4452 29.63 70.0552 29.5722 69.6311C30.5709 68.649 31.7297 67.5679 33.1174 66.7023C32.5802 67.5483 31.748 68.9698 31.5043 70.0056C30.9321 72.4396 31.412 74.3299 31.4329 74.4092C31.445 74.456 31.4723 74.4974 31.5105 74.5269C31.5486 74.5565 31.5955 74.5725 31.6437 74.5724C31.693 74.5724 31.7419 74.5558 31.7812 74.5235C31.8695 74.4518 33.9474 72.7377 34.2512 70.2405C34.4757 68.3962 34.067 66.4474 33.9916 66.1113C35.7303 65.2163 37.3991 64.0877 38.8866 62.7823C38.7224 63.0448 38.5724 63.3167 38.4552 63.5861C37.3624 66.0971 38.0834 67.5816 38.1144 67.6436C38.1292 67.673 38.1504 67.6987 38.1765 67.7188C38.2025 67.7388 38.2327 67.7527 38.2648 67.7594C38.297 67.7661 38.3302 67.7655 38.3621 67.7575C38.3939 67.7495 38.4236 67.7345 38.4488 67.7134C38.4944 67.6752 39.5813 66.7554 40.4221 64.6604C41.0275 63.1524 40.7697 61.092 40.7582 61.0049C40.7559 60.9882 40.7517 60.9719 40.7457 60.9561C42.3121 59.2338 43.6102 57.2838 44.5959 55.1722C46.0001 52.1708 46.8087 48.7944 46.9998 45.1368C47.0015 45.0997 46.9938 45.0627 46.9774 45.0294C46.9609 44.9961 46.9363 44.9676 46.9058 44.9465" fill="#E4C97E"/>
    <path fill-rule="evenodd" clip-rule="evenodd" d="M39.2039 1.45705C41.8612 2.31034 44.3351 4.28298 45.2586 5.07543C44.1736 5.13581 41.5062 5.16623 38.8417 4.2884C36.7039 3.5844 34.3932 2.18228 33.1836 1.39313C34.8653 1.78275 36.5998 2.32308 38.4906 3.06954C38.5173 3.08012 38.5458 3.08531 38.5744 3.08482C38.6031 3.08434 38.6314 3.07817 38.6577 3.06669C38.684 3.05521 38.7077 3.03864 38.7276 3.01792C38.7475 2.9972 38.7631 2.97274 38.7736 2.94596C38.7841 2.91923 38.7892 2.89069 38.7886 2.86198C38.7881 2.83326 38.782 2.80493 38.7705 2.77861C38.7591 2.75228 38.7426 2.72848 38.722 2.70855C38.7014 2.68862 38.6771 2.67296 38.6504 2.66247C36.8257 1.94195 35.1226 1.39926 33.4205 0.998557C34.7097 0.828274 36.9164 0.722614 39.2039 1.45705ZM41.9014 9.31999C43.8926 11.2766 44.9186 14.1282 45.2427 15.165C44.2808 14.8155 41.7153 13.7313 39.6767 11.5051C37.9433 9.61174 36.5211 7.05939 35.7757 5.59123C36.1996 5.98628 36.5416 6.36694 36.777 6.71528C36.8098 6.7624 36.8598 6.79468 36.9161 6.80515C36.9724 6.81561 37.0306 6.80342 37.078 6.77121C37.1254 6.73899 37.1584 6.68935 37.1696 6.63299C37.1809 6.57663 37.1696 6.51808 37.1382 6.47C36.8684 6.07071 36.4689 5.63298 35.9721 5.18109C37.3156 5.83769 39.7394 7.19547 41.9012 9.31999M2.87076 56.1024C2.88418 56.1278 2.90246 56.1503 2.92455 56.1686C2.94663 56.1869 2.9721 56.2007 2.99948 56.2091C3.02687 56.2175 3.05564 56.2205 3.08416 56.2177C3.11268 56.215 3.14038 56.2067 3.16568 56.1932C3.19099 56.1797 3.2134 56.1614 3.23165 56.1392C3.24989 56.117 3.2636 56.0915 3.272 56.064C3.2804 56.0365 3.28333 56.0076 3.28061 55.979C3.27789 55.9504 3.26958 55.9226 3.25616 55.8972C1.50964 52.5991 0.58656 48.8684 0.58656 45.1086C0.586495 45.0665 0.574355 45.0254 0.551597 44.9902C0.528838 44.9549 0.496427 44.927 0.45825 44.9097V23.674C0.496409 23.6567 0.528804 23.6288 0.551559 23.5935C0.574314 23.5582 0.586466 23.5171 0.58656 23.4751C0.58656 17.3216 2.97604 11.5365 7.31508 7.18509C11.6539 2.83393 17.4224 0.43771 23.5583 0.437474C25.9506 0.451625 28.8103 1.26978 31.611 2.74171C32.8546 3.39501 34.0106 4.14265 34.941 4.87779C35.4121 5.8825 37.1293 9.36928 39.3557 11.8011C41.9856 14.6733 45.3667 15.6752 45.5094 15.7162C45.5463 15.7267 45.5853 15.7274 45.6224 15.718C45.6596 15.7086 45.6937 15.6896 45.7213 15.6628C45.7488 15.6361 45.7689 15.6025 45.7794 15.5655C45.7899 15.5285 45.7906 15.4894 45.7813 15.452C45.7406 15.2924 44.7567 11.5124 42.2069 9.00749C38.9616 5.81882 35.1283 4.31906 35.09 4.30421C35.0625 4.29377 35.0332 4.28902 35.0038 4.29024C34.9745 4.29145 34.9456 4.29861 34.9191 4.31128C34.0202 3.63039 32.9515 2.95185 31.8136 2.35398C30.3096 1.56389 28.7866 0.957991 27.3227 0.559171C28.932 0.662945 30.4807 0.846199 32.0556 1.15304C32.0638 1.16126 32.0726 1.16883 32.082 1.17568C32.1165 1.20068 35.5832 3.67567 38.7057 4.7042C40.8099 5.39713 42.9145 5.53864 44.2815 5.53864C45.2116 5.53864 45.8006 5.47307 45.8149 5.47142C45.8561 5.46655 45.8951 5.44998 45.9273 5.42364C45.9594 5.39731 45.9834 5.36231 45.9965 5.32276C46.0095 5.2832 46.011 5.24074 46.0008 5.20036C45.9906 5.15997 45.9692 5.12334 45.939 5.09477C45.8118 4.97472 42.7815 2.14619 39.3371 1.0403C36.0335 -0.0205437 32.9703 0.591954 32.2888 0.752567C31.9558 0.68653 31.6223 0.625209 31.2865 0.568605C29.0667 0.197616 26.6842 0.0223808 23.5604 -2.47955e-05H23.5587C17.3061 -2.47955e-05 11.4276 2.44171 7.00629 6.87566C2.62824 11.266 0.19975 17.0888 0.15228 23.2902C0.107836 23.3059 0.0693306 23.3351 0.0420609 23.3736C0.0147911 23.4122 9.69417e-05 23.4583 0 23.5056L0 45.0951C0 45.1944 0.06345 45.2784 0.151575 45.3102C0.184005 49.0729 1.12212 52.8003 2.87052 56.1026" fill="#E4C97E"/>
</svg>