<svg width="313" height="500" viewBox="0 0 313 500" fill="none" xmlns="http://www.w3.org/2000/svg">
<path fill-rule="evenodd" clip-rule="evenodd" d="M260.663 9.7138C278.332 15.4025 294.78 28.5534 300.921 33.8364C293.707 34.2389 275.971 34.4417 258.255 28.5895C244.041 23.8961 228.677 14.5487 220.635 9.2877C231.816 11.8852 243.349 15.4874 255.921 20.4638C256.098 20.5343 256.288 20.5689 256.478 20.5657C256.669 20.5624 256.857 20.5213 257.032 20.4448C257.206 20.3682 257.364 20.2577 257.497 20.1196C257.629 19.9815 257.733 19.8185 257.802 19.6399C257.872 19.4617 257.906 19.2714 257.902 19.08C257.899 18.8886 257.858 18.6997 257.782 18.5242C257.706 18.3487 257.596 18.19 257.459 18.0571C257.322 17.9243 257.161 17.8199 256.984 17.7499C244.851 12.9465 233.527 9.32858 222.21 6.65721C230.782 5.52199 245.454 4.81759 260.663 9.7138ZM278.599 62.1334C291.838 75.1774 298.66 94.1884 300.815 101.1C294.419 98.7701 277.362 91.5421 263.807 76.701C252.282 64.0784 242.826 47.0627 237.87 37.275C240.688 39.9087 242.962 42.4464 244.527 44.7687C244.745 45.0829 245.078 45.298 245.452 45.3678C245.826 45.4376 246.213 45.3563 246.529 45.1415C246.844 44.9268 247.063 44.5958 247.138 44.2201C247.213 43.8443 247.138 43.454 246.929 43.1335C245.135 40.4716 242.479 37.5533 239.176 34.5408C248.109 38.9181 264.224 47.97 278.598 62.1334M19.0874 374.016C19.1767 374.185 19.2982 374.335 19.4451 374.457C19.5919 374.579 19.7612 374.671 19.9433 374.727C20.1254 374.784 20.3167 374.803 20.5063 374.785C20.6959 374.767 20.8801 374.711 21.0484 374.621C21.2166 374.531 21.3656 374.409 21.4869 374.261C21.6082 374.114 21.6994 373.943 21.7553 373.76C21.8111 373.577 21.8306 373.384 21.8125 373.194C21.7944 373.003 21.7392 372.817 21.6499 372.648C10.0375 350.661 3.89999 325.79 3.89999 300.724C3.89955 300.444 3.81884 300.17 3.66752 299.935C3.5162 299.699 3.3007 299.513 3.04686 299.398V157.826C3.30058 157.711 3.51597 157.525 3.66727 157.29C3.81857 157.055 3.89936 156.781 3.89999 156.501C3.89999 115.478 19.7874 76.9101 48.6373 47.9008C77.4857 18.893 115.84 2.91823 156.637 2.91666C172.543 3.011 191.557 8.46538 210.179 18.2782C218.448 22.6336 226.134 27.6178 232.32 32.5188C235.452 39.2168 246.869 62.462 261.673 78.6742C279.158 97.822 301.64 104.501 302.588 104.775C302.833 104.845 303.092 104.849 303.34 104.787C303.587 104.724 303.814 104.598 303.997 104.419C304.18 104.241 304.313 104.017 304.383 103.77C304.453 103.524 304.458 103.263 304.396 103.014C304.126 101.949 297.583 76.7497 280.63 60.0501C259.052 38.7923 233.565 28.7939 233.31 28.6949C233.127 28.6253 232.933 28.5936 232.737 28.6017C232.542 28.6099 232.351 28.6576 232.174 28.742C226.198 24.2027 219.091 19.6792 211.526 15.6933C201.526 10.4261 191.399 6.38677 181.667 3.72797C192.367 4.4198 202.663 5.64149 213.135 7.68708C213.19 7.74192 213.248 7.79239 213.31 7.83802C213.54 8.00469 236.59 24.5046 257.351 31.3615C271.341 35.981 285.335 36.9244 294.424 36.9244C300.608 36.9244 304.524 36.4873 304.619 36.4763C304.893 36.4438 305.153 36.3333 305.366 36.1578C305.58 35.9822 305.74 35.7489 305.827 35.4852C305.913 35.2215 305.923 34.9384 305.855 34.6692C305.788 34.4 305.645 34.1558 305.444 33.9653C304.599 33.165 284.451 14.3081 261.549 6.93551C239.584 -0.136792 219.216 3.94653 214.685 5.01728C212.471 4.57703 210.254 4.16822 208.021 3.79087C193.262 1.31761 177.421 0.149371 156.651 0H156.64C115.067 0 75.981 16.2782 46.5842 45.8379C17.4749 75.1067 1.32812 113.926 1.0125 155.268C0.716993 155.373 0.460974 155.567 0.279659 155.824C0.0983446 156.081 0.000644557 156.389 0 156.704V300.634C0 301.296 0.421874 301.856 1.00781 302.068C1.22343 327.153 7.46091 352.002 19.0859 374.018" fill="#E4C97E"/>
<path fill-rule="evenodd" clip-rule="evenodd" d="M266.071 429.982C262.294 439.416 257.688 445.132 255.337 447.652C255.054 446.58 254.763 445.089 254.646 443.218C254.404 439.385 254.849 433.127 258.344 425.074C260.762 419.503 265.574 413.553 268.394 410.327C268.657 414.91 268.691 423.44 266.071 429.981M224.854 467.918C223.402 479.879 215.073 489.217 211.316 492.88C210.599 488.534 209.607 478.833 212.293 467.372C213.981 460.185 220.49 449.555 223.782 444.482C224.652 449.424 225.938 458.984 224.854 467.918ZM184.331 483.883C178.413 489.143 167.748 493.888 162.587 496.006C164.634 490.71 169.587 479.509 177.301 472.066C183.368 466.213 190.938 465.3 193.809 465.173C194.024 467.959 193.606 475.636 184.331 483.883ZM60.4623 429.483C55.3045 429.943 46.9983 429.484 36.728 424.684C24.2546 418.854 13.9844 409.025 10.0437 404.951C14.4578 404.299 25.0781 403.835 42.0124 409.767C56.4576 414.828 64.9029 424.363 67.6967 427.97C66.2217 428.494 63.7545 429.188 60.4623 429.483ZM80.5044 422.008C74.6513 412.511 71.0357 401.038 69.592 395.88C74.4826 398.009 85.2482 403.632 92.5606 414.361C98.7794 423.481 100.079 436.346 100.347 441.909C95.9684 438.843 86.3013 431.415 80.5044 422.008ZM117.454 477.998C106.367 485.97 92.506 489.473 86.8638 490.64C88.9419 486.158 94.745 476.037 107.925 466.671C114.643 461.899 127.437 458.199 133.098 456.721C130.834 461.674 125.3 472.357 117.454 477.996M82.5779 457.718C73.1013 461.308 65.7967 461.765 62.3561 461.728C64.2717 458.72 69.3514 452.693 80.9466 448.681C86.6654 446.703 94.2778 446.239 98.5513 446.144C95.3669 449.438 89.1325 455.236 82.5779 457.718ZM114.047 414.55C107.154 407.097 103.968 400.473 102.701 397.261C106.197 397.906 113.67 400.347 121.756 409.613C125.742 414.182 129.053 421.088 130.756 425.027C126.515 423.313 118.815 419.707 114.047 414.55ZM147.57 422.223C145.282 419.008 142.385 413.387 141.573 404.85C140.692 395.59 144.584 386.564 146.517 382.745C148.965 386.154 154.089 394.274 155.189 403.852C156.657 416.654 153.001 423.86 151.334 426.396C150.421 425.621 149.023 424.264 147.57 422.223ZM194.934 427.539C187.354 425.295 177.687 418.734 173.162 415.464C178.71 414.393 190.779 412.662 201.165 415.28C209.329 417.339 214.121 423.308 215.748 425.679C213.516 427.363 206.874 431.077 194.934 427.539ZM253.007 405.479C241.205 405.709 231.996 401.314 227.305 398.459C229.571 398.218 232.649 397.731 236.407 396.764C237.839 396.387 239.266 395.987 240.685 395.563C244.819 394.352 249.096 393.102 255.446 392.393C264.055 391.434 271.052 395.038 273.966 396.863C270.857 399.429 262.726 405.28 253.007 405.479ZM311.874 299.645V157.906C312.066 157.773 312.223 157.594 312.332 157.386C312.44 157.178 312.497 156.946 312.497 156.711C312.497 145.645 311.341 134.598 309.06 123.874C308.975 123.5 308.747 123.175 308.426 122.969C308.105 122.763 307.716 122.692 307.344 122.772C306.971 122.852 306.645 123.076 306.436 123.396C306.226 123.716 306.15 124.106 306.224 124.482C308.389 134.714 309.515 145.14 309.583 155.601C309.354 155.735 309.164 155.926 309.031 156.156C308.899 156.387 308.828 156.648 308.827 156.914V300.747C308.827 301.282 309.104 301.753 309.519 302.025C308.154 325.544 302.902 347.26 293.888 366.579C289.173 376.693 283.362 386.252 276.562 395.083C274.205 393.42 265.935 388.291 255.126 389.495C248.527 390.231 243.929 391.575 239.874 392.763C238.437 393.182 237.082 393.579 235.687 393.939C227.862 395.953 223.109 395.769 223.016 395.767C222.714 395.753 222.414 395.834 222.16 396C221.905 396.166 221.709 396.408 221.599 396.692C221.488 396.976 221.469 397.288 221.544 397.583C221.619 397.879 221.784 398.143 222.016 398.34C222.512 398.758 234.185 408.402 252.052 408.402C252.388 408.402 252.726 408.399 253.066 408.391C259.61 408.258 265.396 405.866 269.682 403.385C266.978 406.425 264.155 409.354 261.218 412.167C260.381 412.964 259.535 413.752 258.68 414.53C242.19 427.799 225.779 426.281 218.574 424.677C217.218 422.511 211.879 414.976 201.871 412.451C187.22 408.756 170.081 413.119 169.359 413.308C169.097 413.376 168.858 413.517 168.672 413.714C168.485 413.911 168.357 414.157 168.302 414.424C168.247 414.691 168.268 414.968 168.361 415.224C168.455 415.48 168.618 415.704 168.832 415.871C169.421 416.328 183.385 427.157 194.113 430.336C197.993 431.484 201.388 431.926 204.316 431.926C212.016 431.926 216.488 428.869 218.062 427.549C220.552 428.096 224.037 428.626 228.204 428.626C233.046 428.626 238.802 427.905 244.968 425.67C227.546 438.27 207.656 447.298 188.618 451.044C170.098 448.842 157.695 438.434 153.299 428.67C155.059 426.295 159.774 418.382 158.07 403.516C156.517 389.979 147.784 379.569 147.414 379.134C147.265 378.959 147.077 378.822 146.866 378.734C146.654 378.647 146.426 378.61 146.198 378.628C145.97 378.646 145.749 378.718 145.554 378.838C145.359 378.957 145.195 379.122 145.075 379.318C144.762 379.829 137.434 391.99 138.685 405.126C140.215 421.192 148.512 428.017 150.457 429.41C153.551 436.635 160.668 444.24 171.135 449.133C164.807 447.577 159.417 445.374 155.323 443.347C146.145 438.802 138.432 432.649 134.653 426.869C134.073 425.343 129.796 414.405 123.937 407.69C111.956 393.959 101.003 394.107 100.542 394.118C100.324 394.124 100.111 394.179 99.917 394.28C99.7234 394.38 99.5549 394.523 99.4238 394.699C99.2928 394.874 99.2026 395.076 99.16 395.291C99.1174 395.506 99.1235 395.728 99.1778 395.94C99.2762 396.325 101.725 405.505 111.922 416.533C118.57 423.723 129.939 427.916 132.437 428.778C138.404 437.591 154.687 449.344 175.146 452.981C144.89 456.125 120.953 451.17 103.315 444.582C103.336 442.781 103.318 424.983 94.9559 412.714C84.7279 397.711 68.5857 392.308 67.9045 392.085C67.6601 392.005 67.399 391.992 67.1479 392.047C66.8968 392.102 66.6649 392.224 66.4757 392.399C66.2865 392.574 66.147 392.796 66.0713 393.043C65.9956 393.29 65.9866 393.553 66.0451 393.805C66.2014 394.481 70.0107 410.517 78.0388 423.544C82.4451 430.695 88.8075 436.638 93.7388 440.6C83.0341 435.684 75.4607 430.583 71.0045 427.558C69.6514 425.561 60.7217 413.234 42.9655 407.014C19.1797 398.681 7.25626 402.512 6.76095 402.679C6.53446 402.755 6.33024 402.887 6.16648 403.062C6.00271 403.237 5.88447 403.45 5.8223 403.682C5.76012 403.914 5.75594 404.158 5.81012 404.392C5.86429 404.626 5.97515 404.843 6.13282 405.023C6.64845 405.616 18.989 419.608 35.503 427.325C44.1311 431.358 51.4967 432.564 57.2233 432.564C63.7217 432.564 68.0982 431.016 69.8232 430.273C74.4841 433.434 82.2247 438.57 93.045 443.493C88.9403 443.824 84.0841 444.511 80.0029 445.923C62.8186 451.869 58.8076 462.111 58.6436 462.545C58.5663 462.75 58.5362 462.971 58.5554 463.189C58.5747 463.408 58.6429 463.619 58.7549 463.808C58.8668 463.996 59.0197 464.156 59.202 464.277C59.3844 464.397 59.5914 464.474 59.8076 464.503C59.9326 464.52 60.9858 464.655 62.8201 464.655C66.7014 464.655 74.0826 464.05 83.6013 460.445C91.57 457.426 98.7966 450.209 101.67 447.086C110.721 450.506 120.081 453.034 129.618 454.633C123.082 456.46 112.454 459.883 106.25 464.292C87.9716 477.279 83.3169 491.518 83.1263 492.119C83.052 492.355 83.0386 492.606 83.0873 492.848C83.136 493.091 83.2452 493.317 83.4046 493.505C83.564 493.693 83.7684 493.837 83.9985 493.924C84.2286 494.011 84.4769 494.038 84.72 494.001C85.5169 493.885 104.35 491.004 119.142 480.368C129.248 473.102 135.501 458.684 136.726 455.666C142.984 456.432 149.645 456.869 156.717 456.869C165.264 456.869 174.412 456.234 184.151 454.776C185.468 454.578 186.793 454.347 188.12 454.1C188.607 454.097 189.095 454.092 189.584 454.08H189.626C189.654 454.078 189.681 454.07 189.709 454.067C189.77 454.064 189.83 454.056 189.89 454.044C189.927 454.036 189.962 454.023 189.999 454.012C190.049 453.997 190.101 453.981 190.151 453.96C190.188 453.945 190.223 453.926 190.26 453.907C190.34 453.864 190.416 453.814 190.487 453.758C190.525 453.726 190.562 453.693 190.598 453.659L190.66 453.596C197.41 452.174 204.254 450.114 211.048 447.486C204.821 452.234 199.368 457.415 194.482 462.234C191.946 462.237 182.745 462.773 175.293 469.964C164.396 480.476 158.974 497.385 158.748 498.1C158.665 498.36 158.657 498.639 158.724 498.903C158.791 499.168 158.931 499.409 159.127 499.597C159.323 499.786 159.569 499.915 159.834 499.97C160.1 500.025 160.376 500.004 160.631 499.908C161.331 499.652 177.878 493.512 186.253 486.066C197.234 476.302 197.007 467.034 196.623 464.207C203.263 457.66 210.968 450.453 220.195 444.682C216.623 450.322 211.09 459.798 209.47 466.704C205.665 482.93 208.856 495.533 208.995 496.061C209.075 496.373 209.257 496.649 209.51 496.846C209.764 497.043 210.076 497.15 210.396 497.149C210.724 497.149 211.049 497.039 211.31 496.823C211.898 496.345 225.713 484.918 227.734 468.27C229.226 455.975 226.509 442.982 226.007 440.742C237.568 434.775 248.663 427.251 258.554 418.549C257.462 420.299 256.465 422.111 255.685 423.907C248.419 440.648 253.213 450.544 253.419 450.957C253.518 451.153 253.659 451.325 253.832 451.458C254.005 451.592 254.206 451.684 254.42 451.729C254.633 451.774 254.854 451.77 255.066 451.716C255.278 451.663 255.475 451.563 255.643 451.423C255.946 451.168 263.173 445.036 268.763 431.069C272.788 421.016 271.074 407.28 270.997 406.7C270.982 406.588 270.955 406.479 270.915 406.374C281.33 394.892 289.96 381.892 296.515 367.814C305.851 347.805 311.227 325.296 312.497 300.912C312.509 300.665 312.458 300.418 312.349 300.196C312.239 299.974 312.075 299.784 311.872 299.643" fill="#E4C97E"/>
</svg>
