<svg width="348" height="501" viewBox="0 0 348 501" fill="none" xmlns="http://www.w3.org/2000/svg">
<path fill-rule="evenodd" clip-rule="evenodd" d="M343.969 499.137H347.224V214.412H343.969V499.137ZM0.6011 499.137H3.85589V447.234H0.6011V499.137Z" fill="#E8E8E8"/>
<path fill-rule="evenodd" clip-rule="evenodd" d="M4.21455 500.867V179.962C4.21455 83.2666 80.3415 4.59878 173.914 4.59878C267.487 4.59878 343.61 83.2666 343.61 179.962V216.03H347.224V179.962C347.224 81.2095 269.476 0.866943 173.914 0.866943C78.3502 0.866943 0.601013 81.2095 0.601013 179.962L0.601013 500.867H4.21455Z" fill="#E8E8E8"/>
<path fill-rule="evenodd" clip-rule="evenodd" d="M87.0699 411.8C89.7822 412.535 92.5258 413.123 95.3507 413.471C101.805 414.277 108.418 413.303 114.821 414.479C120.859 415.59 126.386 418.585 131.044 422.521C133.311 424.438 140.231 430.009 140.98 433.146C132.141 429.893 121.006 427.009 112.424 428.744C111.77 428.876 112.074 429.839 112.713 429.727C121.039 428.265 131.881 431.156 140.758 434.919C140.579 434.977 140.415 435.073 140.278 435.202C140.141 435.331 140.034 435.488 139.965 435.663C137.368 441.556 125.684 440.512 120.465 439.976C113.453 439.253 108.096 436.595 103.498 431.166C97.9209 424.58 92.9885 417.921 87.0699 411.8ZM222.272 405.159C227.608 406.486 233.026 408.429 238.527 410.132C239.112 410.312 239.44 409.419 238.913 409.146C233.814 406.524 227.799 404.094 221.577 402.623C221.573 402.604 221.566 402.588 221.559 402.566C221.542 402.483 221.495 402.431 221.468 402.357C226.128 400.256 231.052 398.936 236.081 401.215C239.353 402.694 241.95 405.474 244.296 408.121C248.998 413.412 253.518 418.874 258.095 424.272C250.678 424.912 243.133 425.158 236.22 421.922C229.272 418.67 224.511 412.31 222.272 405.159ZM209.268 388.234C215.168 381.988 220.09 375.306 219.196 365.789C219.144 365.256 218.372 365.26 218.357 365.8C218.109 374.047 213.823 380.364 208.521 386.22C210.414 372.825 217.241 360.585 222.565 348.063C223.182 351.741 224.929 355.441 226.177 359.175C228.404 365.845 229.442 373.601 225.038 379.611C221.138 384.934 215.081 386.223 209.268 388.234ZM200.386 238.874C200.379 238.805 200.344 238.755 200.325 238.691C204.523 234.421 206.856 228.497 207.991 222.585C207.994 222.568 207.987 222.556 207.991 222.537C208.995 222.432 209.952 222.055 210.757 221.447C213.566 224.371 216.111 227.647 217.455 231.512C218.128 233.443 219.674 237.926 219.225 239.846C219.315 241.701 218.41 244.691 215.168 245.196C214.254 245.45 213.341 245.694 212.424 245.935C209.175 247.014 203.899 252.91 201.409 247.793C200.292 245.514 200.681 241.379 200.386 238.874ZM212.143 220.082C212.785 219.227 213.241 218.222 213.398 217.18C213.457 216.805 213.461 216.441 213.457 216.073C217.819 215.488 222.655 214.488 226.913 215.35C231.951 216.365 233.112 220.095 236.648 222.874C238.112 224.024 239.775 224.082 240.738 225.708C242.957 229.438 238.128 231.841 235.126 233.052C231.031 234.71 225.546 238.831 221.097 236.478C219.958 230.447 215.442 223.613 212.143 220.082ZM233.199 216.166C232.703 215.687 232.152 215.268 231.556 214.919C226.083 211.834 219.097 213.396 213.145 214.173C212.533 212.166 211.076 210.438 209.35 209.187C209.358 209.111 209.381 209.037 209.367 208.943C208.754 204.902 210.516 200.95 211.32 196.902C211.412 196.778 211.47 196.634 211.488 196.481C211.887 193.377 213.331 189.467 216.284 187.877C219.8 185.988 222.268 187.697 225.653 187.727C226.424 187.736 227.116 187.315 227.776 187.199C230.761 184.893 233.95 183.986 235.528 192.762C235.847 194.535 236.253 196.81 237.163 198.415C237.832 199.592 239.866 200.587 240.216 200.703C242.464 202.184 244.665 203.142 242.412 206.813C242.294 208.223 240.18 210.026 239.338 210.971C237.53 212.995 235.456 214.668 233.199 216.166ZM209.551 189.895C209.854 191.717 209.88 193.557 209.705 195.379C209.667 195.588 209.625 195.803 209.599 196.009C209.591 196.066 209.606 196.111 209.606 196.159C209.398 197.763 209.052 199.353 208.584 200.893C207.759 203.639 207.013 205.966 207.402 208.808H207.396C204.974 209.194 203.294 211.158 202.535 213.516C194.428 212.011 181.332 212.4 185.045 200.286C185.653 198.31 185.772 196.758 184.838 194.881C184.31 194.054 183.749 193.248 183.157 192.466C181.791 189.815 184.455 187.791 186.634 187.569C187.788 187.026 190.332 187.839 191.646 187.76C193.916 187.63 196.487 184.909 197.684 184.068C199.232 182.696 200.097 182.306 202.457 182.486C206.833 182.054 208.986 186.531 209.551 189.895ZM208.112 210.673C209.858 211.883 211.35 213.651 211.511 215.841C211.662 217.827 210.384 219.966 208.4 220.516C202.506 222.139 202.719 210.881 208.111 210.675L208.112 210.673ZM185.041 210.787C189.339 214.369 197.195 214.499 202.114 215.414C201.795 218.469 202.989 221.563 206.045 222.372C204.658 229.396 201.663 236.287 195.325 240.21C192.552 241.929 191.249 242.289 188.001 240.663C187.644 240.483 187.377 239.973 186.961 239.815C185.827 239.381 184.625 239.147 183.41 239.123C181.33 239.066 178.121 240.044 178.195 235.677C178.211 234.905 179.252 233.113 179.469 232.191C179.845 230.604 179.913 229.383 179.232 227.838C177.755 224.471 174.528 222.507 175.637 218.192C176.76 213.813 181.252 212.144 185.041 210.787ZM161.126 157.189C161.124 156.663 161.096 156.138 161.043 155.614C161.043 155.602 161.043 155.595 161.039 155.583C163.095 153.45 164.564 150.362 165.297 146.635C165.771 146.561 166.228 146.381 166.649 146.102C168.479 148.033 169.625 149.77 170.249 151.561C170.587 152.53 171.478 155.097 171.237 156.135L171.233 156.187C171.275 157.038 170.899 158.706 169.121 158.988C168.589 159.133 168.077 159.277 167.561 159.409C167.017 159.592 166.42 159.966 165.784 160.371C164.719 161.045 163.512 161.806 162.613 161.556C162.2 161.44 161.869 161.113 161.599 160.559C161.193 159.727 161.161 158.377 161.126 157.189ZM167.712 145.057C168.055 144.563 168.277 144.019 168.358 143.471C168.383 143.314 168.396 143.154 168.396 142.995C168.734 142.947 169.076 142.893 169.422 142.845C171.545 142.533 173.743 142.208 175.719 142.604C177.523 142.973 178.424 143.995 179.379 145.078C179.89 145.661 180.415 146.26 181.103 146.8C181.441 147.063 181.783 147.227 182.114 147.381C182.616 147.621 183.053 147.827 183.355 148.338C183.649 148.832 183.719 149.293 183.568 149.751C183.275 150.609 182.204 151.403 180.296 152.177C179.762 152.393 179.195 152.678 178.594 152.978C176.667 153.95 174.486 155.047 172.668 154.153C172.022 150.9 169.682 147.204 167.712 145.057ZM179.311 142.613C179.054 142.375 178.772 142.166 178.469 141.99C175.719 140.441 172.299 140.935 169.284 141.367C168.909 141.422 168.534 141.475 168.159 141.524C167.814 140.535 167.089 139.594 166.096 138.848C166.096 138.826 166.096 138.803 166.093 138.779C165.857 137.21 166.27 135.684 166.701 134.068C166.875 133.431 167.051 132.77 167.183 132.116C167.239 132.029 167.275 131.93 167.287 131.827C167.509 130.118 168.306 127.992 169.876 127.14C171.147 126.466 172.128 126.646 173.266 126.864C173.826 126.967 174.405 127.08 175.046 127.085C175.348 127.089 175.625 126.986 175.866 126.905C176.013 126.853 176.148 126.803 176.278 126.784L176.329 126.774L176.369 126.742C177.324 126.004 178.032 125.762 178.597 125.981C179.402 126.289 180.006 127.556 180.4 129.749C180.592 130.796 180.821 132.068 181.344 132.988C181.753 133.708 182.904 134.268 183.143 134.357L183.433 134.545C184.594 135.287 185.356 135.779 184.298 137.504L184.272 137.592C184.221 138.147 183.471 138.907 182.975 139.414C182.844 139.543 182.717 139.676 182.592 139.812C181.705 140.81 180.63 141.723 179.311 142.613ZM163.4 141.379C163.616 140.884 164.124 140.059 165.128 139.985C165.774 140.441 166.8 141.372 166.897 142.701C166.977 143.774 166.285 144.829 165.323 145.109C165.311 145.109 165.304 145.113 165.292 145.116C164.601 145.306 164.05 145.173 163.651 144.715C163.017 143.988 162.906 142.523 163.4 141.379ZM165.797 128.133C165.958 129.085 165.984 130.102 165.883 131.166L165.868 131.246C165.85 131.332 165.833 131.422 165.823 131.512V131.616C165.719 132.457 165.526 133.346 165.259 134.225L165.214 134.372C164.781 135.812 164.403 137.064 164.564 138.571C164.5 138.587 164.433 138.601 164.368 138.62C163.277 138.938 162.381 139.857 161.914 141.151C161.284 141.038 160.611 140.943 159.901 140.846C157.053 140.448 153.826 140.004 152.594 138.076C151.944 137.064 151.883 135.729 152.417 133.997C152.746 132.91 152.852 131.955 152.285 130.81C151.984 130.334 151.661 129.874 151.323 129.424C151.211 129.222 151.152 128.995 151.151 128.765C151.15 128.534 151.208 128.306 151.32 128.104C151.635 127.526 152.382 127.069 153.134 126.995L153.169 126.99L153.202 126.976C153.549 126.815 154.235 126.915 154.84 127.002C155.249 127.066 155.641 127.118 155.94 127.102C156.985 127.04 158.067 126.133 158.852 125.46C159.089 125.267 159.289 125.094 159.441 124.988C160.289 124.239 160.724 124.04 161.994 124.137H162.032C164.278 123.912 165.462 126.151 165.797 128.133ZM159.665 142.331C160.356 142.421 161.013 142.511 161.599 142.613C161.498 144.104 162.013 145.919 163.79 146.497C162.847 151.108 160.862 154.377 157.895 156.213C156.342 157.173 155.677 157.312 153.975 156.46C153.902 156.411 153.835 156.352 153.777 156.286C153.668 156.151 153.527 156.045 153.367 155.978C152.71 155.722 152.013 155.584 151.308 155.569C151.112 155.564 150.906 155.576 150.696 155.583C150.046 155.618 149.377 155.647 148.975 155.262C148.692 154.988 148.561 154.523 148.573 153.838C148.576 153.635 148.769 153.199 148.937 152.82C149.084 152.483 149.226 152.165 149.283 151.921C149.497 151.018 149.545 150.275 149.14 149.346C148.869 148.739 148.509 148.213 148.155 147.708C147.386 146.594 146.72 145.633 147.126 144.057C147.732 141.71 150.169 140.794 152.18 140.075C154.093 141.601 157.178 142.005 159.665 142.331ZM125.165 287.147C124.32 287.088 122.216 286.32 121.38 285.974C121.264 285.922 121.138 285.895 121.01 285.895C120.883 285.895 120.757 285.922 120.64 285.974C119.337 281.531 116.455 277.865 112.684 275.223C113.553 274.743 114.26 274.016 114.717 273.135C118.262 273.037 122.004 272.474 124.985 270.682C126.032 270.435 127.096 270.521 128.181 270.952C130.244 271.796 130.29 272.137 130.282 273.81C130.365 274.473 129.181 275.616 128.923 276.215C128.316 277.611 127.431 279.279 127.231 280.808C127.089 281.922 127.758 282.26 127.826 283.133C127.84 283.313 129.718 287.474 125.165 287.147ZM123.906 269.033C123.673 269.101 123.441 269.161 123.219 269.242C123.014 269.315 122.844 269.463 122.744 269.656C120.476 270.711 117.822 271.099 115.254 271.196C115.294 270.555 115.154 269.915 114.852 269.348C114.405 268.535 114.003 267.877 113.299 267.282C112.64 266.73 111.706 266.447 110.864 266.303C110.834 266.296 110.808 266.303 110.777 266.3C110.902 263.298 110.538 260.448 110.245 257.332C110.117 255.986 110.493 253.509 111.259 252.211C113.824 247.855 117.507 254.326 118.434 254.768C120.198 255.611 122.167 255.765 123.978 256.459C127.807 257.933 129.29 261.948 127.231 265.602C126.437 267.013 125.292 268.195 123.906 269.033ZM109.595 251.213C108.628 252.673 108.193 254.405 108.204 256.182C108.228 259.717 108.907 263 108.791 266.483C108.169 266.696 107.578 266.99 107.032 267.357C106.327 267.815 105.829 268.55 105.545 269.367C105.401 269.197 105.2 269.086 104.98 269.052C101.396 268.474 97.7528 267.512 94.55 265.73C91.2103 263.874 91.6384 259.057 95.3819 257.445C96.1098 257.133 96.9816 257.123 97.6696 256.696C98.8863 255.945 99.4842 254.865 100.032 253.599C100.633 252.201 101.119 250.187 102.403 249.201C105.047 247.184 108.283 248.687 109.595 251.215V251.213ZM93.9227 269.033C94.4668 269.104 94.8065 268.77 94.9227 268.358C98.1168 269.812 101.919 270.521 104.748 270.979C104.923 271.01 105.103 270.984 105.262 270.907C105.262 271.132 105.269 271.35 105.301 271.564C105.394 272.246 105.658 272.805 105.992 273.303C105.585 276.827 104.879 280.41 102.664 283.26C100.238 286.391 95.7528 288.45 92.1046 285.881C89.3576 283.947 92.0058 281.331 91.7892 278.791C91.6835 277.518 90.9954 276.535 90.5708 275.369C89.4824 272.374 89.4599 268.433 93.9227 269.033ZM100.269 288.104C100.381 287.995 100.46 287.857 100.498 287.706C100.912 287.488 101.31 287.24 101.689 286.964C105.571 284.088 107.025 279.507 107.723 274.919C107.878 275.009 108.035 275.106 108.19 275.182C108.2 275.185 108.212 275.192 108.228 275.196C108.216 275.196 108.204 275.189 108.193 275.182C109.065 275.59 110.983 276.403 111.365 276.663C113.961 278.459 116.113 280.666 117.568 283.481C118.217 284.734 119.025 286.428 119.138 287.857C119.585 293.646 115.673 293.72 112.191 292.351C110.309 291.609 108.768 290.526 106.656 290.668C105.815 290.729 104.923 291.111 104.127 291.346L102.068 291.999C98.6263 292.326 98.5223 289.303 100.269 288.104ZM153.003 415.014C151.401 411.415 149.805 407.82 148.129 404.251C145.315 398.267 142.561 390.417 136.351 387.268C136.185 387.185 135.994 387.365 136.098 387.53C141.862 396.772 146.356 406.561 150.795 416.402C145.668 415.547 140.446 414.876 135.731 412.55C128.341 408.91 125.12 402.199 123.169 394.62C121.02 386.26 123.155 380.339 124.496 372.313C125.179 368.242 125.467 364.102 125.658 359.976C137.075 377.069 165.467 392.502 153.003 415.014ZM80.7649 409.703C87.907 416.191 93.7805 423.37 99.6679 430.978C103.094 435.412 106.755 439.132 112.089 441.151C119.732 444.05 138.474 446.543 142.666 437.144C142.772 436.916 142.818 436.666 142.802 436.416C142.786 436.165 142.707 435.923 142.573 435.711C144.536 436.592 146.462 437.551 148.348 438.587C156.58 443.128 163.809 449.441 171.79 454.417C178.016 461.96 185.585 468.289 194.116 473.085C197.825 481.865 201.734 490.616 206.774 498.324C207.885 500.019 210.629 498.845 210.046 496.87C207.795 489.251 204.339 481.746 200.669 474.357C200.867 473.94 200.902 473.464 200.767 473.023C200.632 472.582 200.337 472.207 199.939 471.973C199.71 471.829 199.485 471.691 199.263 471.549C196.667 466.402 194.029 461.313 191.681 456.282C189.979 452.646 188.242 449.009 186.507 445.374C187.284 433.552 187.755 421.44 192.157 410.632C199.981 403.978 207.991 402.819 216.196 403.959C216.452 404.339 216.956 404.582 217.481 404.31L217.715 404.194C218.211 404.277 218.71 404.374 219.206 404.471C221.029 412.486 225.736 419.298 232.967 423.479C241.528 428.431 251.655 427.817 261.149 427.03C262.532 426.917 263.047 425.429 262.172 424.412C255.393 416.608 248.636 406.263 239.801 400.606C232.482 395.917 225.079 398.289 218.019 401.893C209.977 400.505 201.821 400.929 195.032 404.779C196.22 402.738 197.576 400.799 199.086 398.983C201.513 396.071 204.289 393.343 207 390.585C207.421 390.459 207.777 390.174 207.991 389.791C215.617 389.104 224.466 386.189 228.378 379.076C232.495 371.597 230.159 362.829 227.329 355.395C226.443 353.076 225.423 350.782 224.91 348.339C224.789 346.841 224.574 345.352 224.268 343.881C224.842 342.393 225.402 340.909 225.906 339.405C226.225 338.464 224.868 338.104 224.388 338.817C222.963 340.935 222.39 343.052 222.332 345.178L222.118 345.782C219.906 351.038 217.066 356.099 214.502 361.194C209.975 370.187 205.845 379.014 204.986 389.184C204.961 389.412 204.991 389.643 205.072 389.858C199.507 395.545 193.566 401.069 190.211 407.853C190.065 408.149 189.934 408.459 189.79 408.756C189.75 408.798 189.703 408.836 189.663 408.881C189.31 409.227 189.194 409.611 189.227 409.971C185.414 418.58 183.651 428.327 182.998 437.943C179.424 430.291 175.994 422.576 173.119 414.661C167.427 398.992 166.048 382.537 165.466 365.962C165.548 365.803 165.588 365.626 165.581 365.447C165.575 365.268 165.522 365.094 165.427 364.941C165.022 352.632 164.996 340.26 163.951 328.097C164.053 327.997 164.166 327.91 164.252 327.772C172.121 314.952 177.85 300.678 182.178 286.305C186.859 270.768 187.187 253.374 197.963 240.736C198.15 240.59 198.357 240.459 198.542 240.308C198.715 243.877 198.575 249.722 201.059 251.736C202.367 252.796 203.986 252.751 205.492 252.249C207.537 251.571 208.76 249.753 210.598 248.737C212.189 247.858 214.033 247.656 215.712 247.064C220.026 245.531 221.499 242.386 221.355 238.696C223.019 239.293 224.696 239.334 226.54 238.853C230.598 237.798 233.84 235.502 238.045 234.597C241.885 233.777 244.936 229.024 243.118 224.96C242.258 223.033 240.443 222.966 238.807 221.986C237.005 220.914 235.859 219.191 234.547 217.609C239.007 214.602 246.634 208.402 245.045 202.481C244.314 199.741 242.645 200.059 240.686 198.819C236.487 196.168 237.716 189.277 235.232 185.409C234.093 183.635 232.301 182.713 230.152 183.215C229.114 183.459 228.61 184.156 227.759 184.625C225.376 185.945 224.041 185.014 221.532 184.782C217.147 184.381 213.71 186.758 211.643 190.158C211.514 187.336 211.022 184.358 208.953 182.568C206.469 180.419 201.48 178.822 198.391 180.438C197.767 180.763 197.597 181.094 196.901 181.614C194.665 183.275 196.528 182.267 193.435 184.493C190.414 186.673 188.4 185.042 185.064 185.791C182.805 186.301 180.502 187.864 180.428 190.41C180.363 192.711 182.386 194.758 182.882 196.917C183.568 199.933 181.802 201.836 182.015 204.779C182.149 206.609 182.708 208.078 183.575 209.275C177.655 211.588 171.594 215.718 173.956 223.033C174.762 225.523 176.641 226.992 177.162 229.616C177.715 232.405 176.216 233.8 176.126 236.436C176.053 238.478 176.947 240.09 178.916 240.822C180.171 241.287 181.603 241.054 182.895 241.085C185.356 241.14 185.998 242.471 187.821 243.424C190.121 244.623 192.379 243.9 194.608 242.808C186.861 252.808 185.518 265.351 182.058 277.865C177.703 293.63 171.015 308.154 163.4 322.502C160.374 295.059 152.942 268.635 149.06 241.351C144.926 212.334 151.344 186.312 159.712 158.884C159.833 160.531 160.128 162.241 161.095 163.019C161.753 163.556 162.623 163.684 163.62 163.395C163.672 163.377 163.724 163.36 163.781 163.346C164.483 163.109 165.02 162.649 165.538 162.206C165.895 161.9 166.268 161.583 166.682 161.351C167.223 161.052 167.838 160.895 168.436 160.741C168.797 160.651 169.169 160.554 169.528 160.426C171.724 159.647 172.836 158.097 172.838 155.815C173.715 156.075 174.62 156.075 175.597 155.819C176.672 155.545 177.672 155.092 178.634 154.663C179.708 154.187 180.824 153.694 182.057 153.426C183.218 153.184 184.31 152.294 184.904 151.128C185.48 150 185.532 148.796 185.055 147.729C184.682 146.898 184.015 146.627 183.367 146.357C183.097 146.244 182.816 146.127 182.549 145.966C181.759 145.499 181.211 144.8 180.625 144.069C180.532 143.954 180.441 143.832 180.348 143.72C182.987 141.91 187.055 138.499 186.149 135.121C185.828 133.936 185.181 133.666 184.495 133.377C184.187 133.26 183.89 133.115 183.608 132.945C182.282 132.109 181.973 130.483 181.646 128.765C181.426 127.592 181.192 126.381 180.606 125.462C179.88 124.338 178.76 123.853 177.528 124.144C177.116 124.241 176.845 124.455 176.578 124.653C176.431 124.765 176.296 124.871 176.135 124.957C175.225 125.462 174.632 125.346 173.809 125.185C173.497 125.125 173.148 125.057 172.75 125.021C170.618 124.826 168.672 125.77 167.336 127.627C167.223 126.284 166.895 124.777 165.793 123.824C164.45 122.663 161.561 121.59 159.628 122.599C159.396 122.72 159.261 122.841 159.117 122.978C159.024 123.059 158.918 123.161 158.76 123.277C158.171 123.717 158.07 123.836 157.963 123.967C157.855 124.094 157.746 124.227 156.814 124.896C155.838 125.602 155.067 125.554 154.169 125.497C153.595 125.462 152.94 125.417 152.186 125.59C150.942 125.864 149.465 126.772 149.42 128.379C149.398 129.189 149.793 129.924 150.176 130.64C150.443 131.139 150.694 131.611 150.803 132.092C151.006 132.973 150.81 133.673 150.608 134.419C150.434 135.049 150.254 135.701 150.313 136.481C150.379 137.396 150.637 138.203 151.081 138.895C146.545 140.736 144.717 143.462 145.791 146.791C146.004 147.448 146.342 147.98 146.67 148.497C147.065 149.114 147.433 149.696 147.587 150.469C147.757 151.324 147.561 151.945 147.349 152.594C147.188 153.088 147.023 153.602 147.001 154.255C146.956 155.545 147.561 156.493 148.703 156.917C149.256 157.12 149.845 157.101 150.419 157.085C150.618 157.078 150.814 157.075 151.006 157.078C151.878 157.095 152.309 157.419 152.814 157.794C153.074 157.988 153.339 158.192 153.686 158.367C155.207 159.163 156.675 158.544 157.933 157.903C158.148 157.794 158.355 157.67 158.563 157.55C149.391 183.985 142.53 210.22 145.836 238.431C149.375 268.632 158.048 297.791 160.4 328.234C161.204 338.637 161.284 349.163 161.5 359.675C146.178 337.294 144.032 306.969 122.675 288.502C125.119 289.267 127.88 289.557 129.717 287.471C132.143 284.72 129.138 282.678 129.588 279.789C130.058 276.801 133.673 273.786 131.304 270.841C130.295 269.588 128.89 268.947 127.394 268.744C127.989 268.121 128.526 267.417 128.98 266.611C131.412 262.312 129.928 256.876 125.309 254.898C123.574 254.158 121.346 254.158 119.729 253.223C117.862 252.147 117.009 249.888 115.301 248.867C113.756 247.941 112.264 248.53 110.98 249.644C109.394 247.071 106.545 245.599 103.394 246.537C101.751 247.023 100.432 248.156 99.5345 249.587C97.81 252.346 99.1255 253.146 95.1012 255.485C94.2935 255.952 93.1878 256.038 92.3438 256.5C89.4686 258.068 87.9209 261.104 89.6939 264.121C90.3888 265.31 91.4096 266.284 92.6245 267.095C89.6263 267.455 87.1843 270.019 87.7146 273.281C87.9139 274.504 88.6644 275.467 89.0249 276.618C89.4079 277.864 89.2952 280.149 88.9382 281.421C88.8256 281.813 87.699 284.82 90.0699 286.71C92.2641 288.457 94.8412 289.244 97.4565 288.775C96.5102 290.995 97.2346 293.457 100.309 293.971C103.637 294.53 106.039 292.04 109.611 293.274C111.904 294.066 113.696 295.31 116.25 295.005C119.899 294.568 121.233 292.014 121.162 289.045C125.918 294.812 130.923 300.232 134.737 306.779C138.393 313.054 141.214 319.737 143.859 326.483C148.434 338.156 152.583 354.46 161.601 364.018C162.06 381.601 163.24 399.082 169.226 415.791C173.053 426.471 177.871 436.803 182.675 447.102C182.672 448.05 182.675 448.995 182.688 449.928C182.705 451.234 183.778 451.72 184.733 451.519C185.381 452.912 186.027 454.306 186.667 455.703C188.289 459.241 189.842 462.896 191.386 466.588C187.15 463.89 183.064 461.059 179.317 457.659C179.326 457.576 179.316 457.492 179.285 457.413C179.255 457.335 179.206 457.265 179.143 457.21C178.277 456.388 177.367 455.607 176.44 454.839C176.015 454.396 175.578 453.978 175.169 453.507C168.916 446.409 164.115 438.149 159.866 429.748C157.998 426.05 156.27 422.291 154.575 418.516C154.58 417.964 154.384 417.409 153.925 417.087L153.751 416.694C153.908 416.658 154.047 416.569 154.147 416.443C172.374 393.524 134.602 371.512 125.647 354.621C125.013 353.428 123.131 354.078 123.157 355.348C123.536 371.909 116.386 387.718 123.24 403.687C128.275 415.415 140.64 419.154 152.497 420.165C155.24 426.246 158.025 432.315 161.131 438.268C162.907 441.666 164.885 444.955 167.053 448.118C164.975 446.765 162.894 445.433 160.861 444.069C155.875 440.736 150.904 437.144 145.329 434.839C144.178 434.365 143.019 433.908 141.854 433.471C141.777 430.869 138.644 428.151 137.193 426.445C133.571 422.182 129.269 418.365 124.351 415.64C119.339 412.862 114.027 411.547 108.33 411.251C99.193 410.782 90.803 410.355 82.108 407.246C80.7059 406.744 79.744 408.772 80.7631 409.697L80.7649 409.703Z" fill="#E2A967"/>
</svg>
