<svg width="423" height="500" viewBox="0 0 423 500" fill="none" xmlns="http://www.w3.org/2000/svg">
<path d="M402.165 289.519C383.624 289.519 368.541 274.463 368.541 255.956V175.87C368.541 152.129 363.882 129.096 354.693 107.411C345.818 86.4694 333.115 67.6599 316.936 51.5107C300.757 35.3615 281.913 22.6783 260.932 13.8223C239.208 4.65027 216.133 0 192.348 0C168.563 0 145.488 4.65027 123.763 13.8223C102.783 22.6818 83.9389 35.3615 67.76 51.5107C51.5776 67.6634 38.8746 86.4694 30.0023 107.411C20.8134 129.093 16.1545 152.125 16.1545 175.87V401.702C16.1545 409.839 9.52293 416.458 1.37086 416.458C0.612362 416.458 0 417.07 0 417.827C0 418.584 0.612362 419.195 1.37086 419.195C9.52293 419.195 16.1545 425.814 16.1545 433.952V498.632C16.1545 499.385 16.7669 500 17.5254 500H367.174C367.932 500 368.545 499.389 368.545 498.632V325.821C368.545 307.314 383.628 292.259 402.169 292.259C402.927 292.259 403.54 291.648 403.54 290.89C403.54 290.133 402.927 289.522 402.169 289.522L402.165 289.519ZM8.16251 417.823C12.3725 416.048 15.744 412.683 17.5219 408.481C19.2999 412.683 22.6713 416.048 26.8813 417.823C22.6713 419.598 19.2999 422.963 17.5219 427.165C15.744 422.963 12.3725 419.598 8.16251 417.823ZM365.799 497.26H18.8928V433.948C18.8928 425.811 25.5244 419.192 33.6764 419.192C34.4349 419.192 35.0473 418.58 35.0473 417.823C35.0473 417.066 34.4349 416.455 33.6764 416.455C25.5244 416.455 18.8928 409.835 18.8928 401.698V175.87C18.8928 152.497 23.4785 129.822 32.5248 108.477C41.2614 87.8621 53.7661 69.3443 69.698 53.4452C85.6298 37.5425 104.178 25.0608 124.831 16.3402C146.215 7.31402 168.932 2.73668 192.348 2.73668C215.764 2.73668 238.48 7.31402 259.864 16.3402C280.518 25.0608 299.069 37.5425 314.998 53.4452C330.926 69.3478 343.434 87.8621 352.171 108.477C361.214 129.822 365.803 152.497 365.803 175.87V255.956C365.803 274.463 350.72 289.519 332.179 289.519C331.42 289.519 330.808 290.13 330.808 290.887C330.808 291.644 331.42 292.255 332.179 292.255C350.72 292.255 365.803 307.311 365.803 325.818L365.799 497.26ZM367.17 315.93C363.74 303.848 354.182 294.311 342.081 290.887C354.185 287.463 363.743 277.922 367.17 265.84C370.601 277.922 380.159 287.463 392.26 290.887C380.155 294.311 370.597 303.851 367.17 315.93Z" fill="#D5D5D5"/>
<path d="M420.907 246.821C413.086 246.821 406.723 240.467 406.723 232.657C406.723 231.934 406.136 231.344 405.408 231.344C404.68 231.344 404.093 231.93 404.093 232.657C404.093 240.467 397.73 246.821 389.909 246.821C389.181 246.821 388.594 247.408 388.594 248.135C388.594 248.861 389.181 249.448 389.909 249.448C397.73 249.448 404.093 255.802 404.093 263.612C404.093 264.336 404.68 264.926 405.408 264.926C406.136 264.926 406.723 264.339 406.723 263.612C406.723 255.802 413.086 249.448 420.907 249.448C421.635 249.448 422.222 248.861 422.222 248.135C422.222 247.408 421.635 246.821 420.907 246.821ZM405.411 257.102C403.706 253.068 400.471 249.838 396.432 248.135C400.471 246.431 403.706 243.201 405.411 239.167C407.117 243.201 410.352 246.431 414.391 248.135C410.352 249.838 407.117 253.068 405.411 257.102Z" fill="#D4D4D4"/>
</svg>
