<svg viewBox="0 0 423 500" fill="none" xmlns="http://www.w3.org/2000/svg">
<path d="M402.363 289.519C383.822 289.519 368.739 274.463 368.739 255.956V175.87C368.739 152.129 364.08 129.096 354.891 107.411C346.015 86.4694 333.312 67.6599 317.133 51.5107C300.954 35.3615 282.11 22.6783 261.13 13.8223C239.405 4.65027 216.33 0 192.545 0C168.761 0 145.686 4.65027 123.961 13.8223C102.98 22.6818 84.1364 35.3615 67.9575 51.5107C51.7751 67.6634 39.0721 86.4694 30.1998 107.411C21.0109 129.093 16.352 152.125 16.352 175.87V401.702C16.352 409.839 9.72044 416.458 1.56837 416.458C0.809872 416.458 0.19751 417.07 0.19751 417.827C0.19751 418.584 0.809872 419.195 1.56837 419.195C9.72044 419.195 16.352 425.814 16.352 433.952V498.632C16.352 499.385 16.9644 500 17.7229 500H367.371C368.13 500 368.742 499.389 368.742 498.632V325.821C368.742 307.314 383.825 292.259 402.366 292.259C403.125 292.259 403.737 291.648 403.737 290.89C403.737 290.133 403.125 289.522 402.366 289.522L402.363 289.519ZM8.36002 417.823C12.57 416.048 15.9415 412.683 17.7194 408.481C19.4974 412.683 22.8688 416.048 27.0788 417.823C22.8688 419.598 19.4974 422.963 17.7194 427.165C15.9415 422.963 12.57 419.598 8.36002 417.823ZM365.997 497.26H19.0903V433.948C19.0903 425.811 25.7219 419.192 33.874 419.192C34.6325 419.192 35.2448 418.58 35.2448 417.823C35.2448 417.066 34.6325 416.455 33.874 416.455C25.7219 416.455 19.0903 409.835 19.0903 401.698V175.87C19.0903 152.497 23.676 129.822 32.7223 108.477C41.4589 87.8621 53.9636 69.3443 69.8955 53.4452C85.8273 37.5425 104.376 25.0608 125.029 16.3402C146.413 7.31402 169.129 2.73668 192.545 2.73668C215.961 2.73668 238.678 7.31402 260.062 16.3402C280.715 25.0608 299.267 37.5425 315.195 53.4452C331.124 69.3478 343.632 87.8621 352.368 108.477C361.411 129.822 366 152.497 366 175.87V255.956C366 274.463 350.918 289.519 332.376 289.519C331.618 289.519 331.005 290.13 331.005 290.887C331.005 291.644 331.618 292.255 332.376 292.255C350.918 292.255 366 307.311 366 325.818L365.997 497.26ZM367.368 315.93C363.937 303.848 354.38 294.311 342.278 290.887C354.383 287.463 363.941 277.922 367.368 265.84C370.798 277.922 380.356 287.463 392.457 290.887C380.353 294.311 370.795 303.851 367.368 315.93Z" fill="#D5D5D5"/>
<path d="M421.105 246.821C413.283 246.821 406.921 240.467 406.921 232.657C406.921 231.934 406.333 231.344 405.606 231.344C404.878 231.344 404.29 231.93 404.29 232.657C404.29 240.467 397.928 246.821 390.107 246.821C389.379 246.821 388.791 247.408 388.791 248.135C388.791 248.861 389.379 249.448 390.107 249.448C397.928 249.448 404.29 255.802 404.29 263.612C404.29 264.336 404.878 264.926 405.606 264.926C406.333 264.926 406.921 264.339 406.921 263.612C406.921 255.802 413.283 249.448 421.105 249.448C421.832 249.448 422.42 248.861 422.42 248.135C422.42 247.408 421.832 246.821 421.105 246.821ZM405.609 257.102C403.903 253.068 400.668 249.838 396.629 248.135C400.668 246.431 403.903 243.201 405.609 239.167C407.315 243.201 410.549 246.431 414.588 248.135C410.549 249.838 407.315 253.068 405.609 257.102Z" fill="#D4D4D4"/>
</svg>
