<svg width="377" height="500" viewBox="0 0 377 500" fill="none" xmlns="http://www.w3.org/2000/svg">
<path fill-rule="evenodd" clip-rule="evenodd" d="M183.224 287.245C180.492 287.245 177.341 285.619 173.484 282.291L173.058 281.924C167.607 277.219 164.87 274.857 162.386 270.21C161.471 268.499 160.757 266.598 160.002 264.586C158.638 260.954 157.228 257.199 154.401 253.735C150.029 248.373 149.253 246.92 150.185 242.28C150.193 242.242 150.208 242.205 150.23 242.173C150.252 242.141 150.28 242.114 150.312 242.092C150.345 242.071 150.381 242.056 150.42 242.049C150.458 242.042 150.497 242.042 150.535 242.05C150.612 242.065 150.679 242.11 150.723 242.175C150.767 242.24 150.783 242.319 150.768 242.396C149.916 246.632 150.375 247.862 154.862 253.363C157.749 256.902 159.242 260.874 160.559 264.382C161.306 266.374 162.014 268.257 162.908 269.933C165.341 274.484 168.051 276.821 173.448 281.477L173.874 281.845C179.556 286.748 183.59 287.837 186.959 285.371L187.443 285.02C190.188 283.045 192.78 281.181 189.829 274.018C188.185 270.02 185.721 266.875 183.111 263.546C180.922 260.748 178.656 257.856 176.926 254.42C173.579 247.765 174.751 239.216 180.064 231.551C184.648 224.936 184.734 219.786 183.215 211.414C181.812 203.67 174.721 194.688 163.986 181.091C162.952 179.781 161.883 178.428 160.781 177.026C148.156 160.977 114.211 111.73 113.867 111.235C113.845 111.203 113.83 111.167 113.822 111.129C113.815 111.091 113.815 111.052 113.822 111.013C113.829 110.975 113.844 110.939 113.866 110.907C113.887 110.875 113.915 110.847 113.947 110.825C114.012 110.781 114.092 110.765 114.168 110.779C114.245 110.794 114.314 110.838 114.359 110.902C114.701 111.397 148.635 160.63 161.247 176.664C162.351 178.066 163.42 179.417 164.453 180.725C175.241 194.393 182.37 203.421 183.799 211.31C185.347 219.844 185.256 225.102 180.554 231.886C175.363 239.371 174.207 247.694 177.458 254.156C179.161 257.541 181.408 260.408 183.579 263.182C186.098 266.398 188.702 269.722 190.379 273.794C193.504 281.388 190.6 283.477 187.793 285.499L187.312 285.845C186.041 286.775 184.693 287.245 183.224 287.245Z" fill="#3F3F3F"/>
<path fill-rule="evenodd" clip-rule="evenodd" d="M163.445 179.929L164.171 180.849L164.219 180.909C166.254 183.477 168.276 186.055 170.285 188.643C168.424 186.236 166.395 183.666 164.219 180.909C163.96 180.581 163.703 180.257 163.445 179.929ZM150.476 242.34C150.05 244.454 149.911 245.827 150.523 247.455C149.953 245.895 150.044 244.483 150.476 242.34ZM154.401 253.265C154.478 253.36 154.555 253.455 154.632 253.549L154.401 253.265ZM190.215 274.185C192.897 280.905 190.606 283.073 188.095 284.912C190.706 283.003 192.906 280.922 190.215 274.185ZM180.843 286.553C183.239 287.311 185.235 286.994 187.133 285.606C185.27 286.968 183.225 287.298 180.843 286.553ZM183.221 287.538C180.417 287.538 177.262 285.941 173.287 282.512L172.862 282.144C167.38 277.416 164.63 275.041 162.121 270.344C161.197 268.62 160.482 266.709 159.72 264.688C158.365 261.078 156.965 257.346 154.169 253.919C149.722 248.468 148.933 246.984 149.891 242.221C149.906 242.145 149.936 242.072 149.98 242.007C150.023 241.942 150.079 241.887 150.144 241.843C150.209 241.8 150.282 241.771 150.359 241.756C150.436 241.742 150.514 241.742 150.591 241.759C150.911 241.822 151.119 242.134 151.057 242.453C150.219 246.61 150.634 247.712 155.091 253.176C158.008 256.753 159.509 260.75 160.833 264.276C161.58 266.261 162.283 268.133 163.17 269.792C165.576 274.294 168.269 276.62 173.638 281.251L174.066 281.621C179.623 286.416 183.544 287.5 186.782 285.131C186.929 285.021 187.079 284.916 187.228 284.808L187.266 284.779C190.029 282.794 192.413 281.077 189.552 274.127C187.922 270.168 185.472 267.039 182.875 263.724C180.675 260.916 178.4 258.013 176.658 254.549C173.261 247.796 174.443 239.136 179.817 231.381C184.343 224.852 184.425 219.757 182.921 211.465C181.529 203.792 174.456 194.832 163.749 181.269L163.703 181.211C162.684 179.922 161.631 178.588 160.544 177.204C147.983 161.236 113.966 111.9 113.624 111.404C113.58 111.34 113.549 111.268 113.533 111.193C113.517 111.117 113.517 111.038 113.531 110.962C113.545 110.886 113.575 110.814 113.617 110.749C113.66 110.684 113.715 110.628 113.779 110.585C113.909 110.497 114.068 110.463 114.223 110.492C114.377 110.521 114.514 110.609 114.604 110.738C114.944 111.233 148.906 160.495 161.482 176.483C162.583 177.885 163.652 179.239 164.687 180.544C175.503 194.247 182.648 203.299 184.092 211.259C185.653 219.875 185.558 225.186 180.795 232.055C175.671 239.449 174.521 247.663 177.723 254.024C179.411 257.385 181.65 260.24 183.813 263.003C186.345 266.234 188.962 269.574 190.654 273.684C193.868 281.492 190.732 283.748 187.965 285.739L187.486 286.085C186.146 287.067 184.753 287.542 183.225 287.542" fill="#3F3F3F"/>
<path fill-rule="evenodd" clip-rule="evenodd" d="M156.71 298.098C156.68 298.098 156.651 298.093 156.623 298.085C154.184 297.347 152.944 293.286 151.51 288.584C150.811 286.289 150.088 283.914 149.161 281.689C147.486 277.655 147.671 274.193 147.835 271.138C147.95 268.989 148.059 266.957 147.518 264.985C146.3 260.55 145.093 255.252 146.176 248.499C147.141 242.473 147.36 223.742 147.36 217.655C147.36 213.721 152.306 205.14 157.346 200.332C162.21 195.688 168.278 186.394 168.338 186.301C168.382 186.235 168.449 186.189 168.526 186.173C168.603 186.156 168.684 186.171 168.75 186.214C168.783 186.235 168.811 186.262 168.833 186.294C168.855 186.326 168.871 186.362 168.879 186.4C168.887 186.438 168.888 186.477 168.88 186.515C168.873 186.553 168.859 186.589 168.837 186.622C168.777 186.715 162.671 196.067 157.755 200.756C152.809 205.479 147.954 213.847 147.954 217.655C147.954 223.754 147.735 242.527 146.763 248.592C145.697 255.228 146.835 260.253 148.092 264.83C148.657 266.893 148.547 268.971 148.429 271.169C148.26 274.307 148.087 277.553 149.711 281.463C150.647 283.716 151.376 286.103 152.079 288.413C153.463 292.953 154.659 296.874 156.796 297.519C156.865 297.538 156.925 297.582 156.964 297.642C157.003 297.702 157.019 297.775 157.008 297.846C156.998 297.917 156.962 297.982 156.907 298.028C156.852 298.074 156.782 298.099 156.71 298.098Z" fill="#3F3F3F"/>
<path fill-rule="evenodd" clip-rule="evenodd" d="M149.354 281.377L149.438 281.577C149.41 281.511 149.381 281.444 149.354 281.377ZM156.71 298.393C156.651 298.393 156.593 298.384 156.537 298.367C153.945 297.584 152.685 293.452 151.226 288.669C150.529 286.378 149.806 284.012 148.888 281.801C147.187 277.706 147.372 274.207 147.54 271.122C147.653 268.997 147.759 266.99 147.23 265.063C146.007 260.597 144.79 255.263 145.883 248.453C146.846 242.445 147.063 223.736 147.063 217.657C147.063 213.657 152.053 204.97 157.14 200.119C161.979 195.502 168.03 186.234 168.09 186.141C168.267 185.868 168.637 185.789 168.91 185.964C168.976 186.006 169.033 186.06 169.077 186.124C169.122 186.188 169.153 186.26 169.17 186.336C169.186 186.412 169.187 186.491 169.173 186.567C169.159 186.644 169.129 186.717 169.087 186.782C169.025 186.875 162.884 196.274 157.961 200.969C153.06 205.646 148.25 213.911 148.25 217.655C148.25 223.76 148.032 242.554 147.056 248.637C145.999 255.217 147.128 260.206 148.378 264.753C148.955 266.862 148.844 268.962 148.724 271.184C148.558 274.291 148.387 277.503 149.986 281.35C150.927 283.615 151.658 286.01 152.363 288.325C153.723 292.787 154.898 296.637 156.883 297.238C157.018 297.279 157.134 297.368 157.21 297.487C157.286 297.607 157.316 297.75 157.295 297.89C157.274 298.03 157.203 298.158 157.096 298.25C156.988 298.342 156.851 298.393 156.71 298.393Z" fill="#3F3F3F"/>
<path fill-rule="evenodd" clip-rule="evenodd" d="M169.079 372.437C169.028 372.437 168.975 372.437 168.926 372.432C167.524 372.319 166.573 370.618 165.719 368.884C163.943 365.285 166.369 359.747 167.974 356.766C168.387 355.997 168.928 355.023 169.5 353.992C170.498 352.194 171.529 350.337 171.951 349.452C172.233 348.858 172.576 348.093 173.007 347.124C173.583 345.837 174.371 344.072 175.437 341.784C177.302 337.781 179.647 330.202 180.42 327.708C181.039 325.711 181.725 322.893 181.986 321.799C174.351 323.419 170.19 317.573 169.132 315.82L168.888 316.308C167.622 318.861 164.258 325.645 158.948 327.774C156.553 328.734 154.826 328.921 153.67 328.349C152.526 327.783 152.206 326.601 151.972 325.74C151.923 325.558 151.878 325.385 151.827 325.233C151.452 324.117 151.969 322.021 152.624 319.369C152.89 318.287 153.165 317.171 153.4 316.034C153.848 313.867 154.386 309.933 154.906 306.131C155.3 303.253 155.671 300.538 155.972 298.833C156.668 294.876 161.272 282.195 162.521 279.295C163.668 276.636 163.475 272.047 163.473 272C163.472 271.961 163.478 271.922 163.491 271.885C163.504 271.849 163.525 271.815 163.551 271.787C163.578 271.758 163.61 271.735 163.645 271.719C163.68 271.702 163.719 271.693 163.757 271.692C163.796 271.69 163.835 271.696 163.872 271.709C163.909 271.722 163.942 271.742 163.971 271.768C164 271.795 164.023 271.826 164.04 271.862C164.056 271.897 164.065 271.935 164.067 271.974C164.076 272.167 164.267 276.746 163.065 279.528C161.86 282.328 157.232 295.098 156.556 298.933C156.258 300.627 155.886 303.341 155.495 306.211C154.972 310.023 154.433 313.966 153.983 316.153C153.746 317.3 153.468 318.422 153.2 319.508C152.594 321.968 152.071 324.091 152.39 325.048C152.444 325.208 152.493 325.392 152.546 325.587C152.761 326.383 153.031 327.371 153.936 327.821C154.917 328.308 156.529 328.107 158.725 327.228C163.825 325.182 167.118 318.546 168.356 316.045C168.593 315.572 168.762 315.226 168.877 315.049C168.905 315.005 168.945 314.969 168.992 314.946C169.038 314.922 169.09 314.911 169.143 314.914C169.195 314.917 169.246 314.934 169.29 314.962C169.334 314.991 169.369 315.031 169.392 315.078C169.558 315.415 173.557 323.292 182.314 321.117C182.363 321.105 182.414 321.106 182.462 321.119C182.511 321.133 182.555 321.158 182.591 321.193C182.627 321.228 182.654 321.272 182.669 321.32C182.683 321.369 182.685 321.42 182.674 321.469C182.665 321.509 181.773 325.344 180.986 327.883C180.212 330.384 177.857 337.993 175.976 342.032C175.152 343.802 174.344 345.579 173.55 347.363C173.117 348.335 172.772 349.104 172.486 349.705C172.057 350.606 171.022 352.473 170.021 354.276C169.449 355.307 168.91 356.279 168.498 357.044C166.946 359.925 164.593 365.262 166.253 368.624C167.203 370.554 167.99 371.765 168.973 371.843C170.008 371.934 171.403 370.714 173.239 368.141C177.355 362.368 178.338 361.231 178.376 361.184C178.417 361.138 178.47 361.106 178.529 361.092C178.589 361.078 178.651 361.082 178.708 361.104C178.765 361.126 178.813 361.164 178.847 361.215C178.881 361.265 178.899 361.325 178.897 361.386C178.897 361.441 178.793 366.808 181.684 367.208C184.526 367.604 187.384 364.007 189.908 360.834L190.365 360.261C192.206 357.957 195.652 353.824 198.038 352.047C198.985 351.34 200.478 349.672 202.208 347.74C204.044 345.687 206.128 343.36 208.206 341.446C212.211 337.756 213.132 336.39 214.006 332.839C214.259 331.815 214.394 331.079 214.503 330.488C214.777 329 214.86 328.552 216.117 327.586C218.06 326.093 219.049 324.6 219.231 322.884C219.236 322.836 219.253 322.79 219.281 322.75C219.308 322.709 219.345 322.677 219.388 322.655C219.439 322.627 224.542 319.926 225.445 319.316C225.616 319.2 225.799 319.112 225.992 319.019C226.891 318.591 228.009 318.056 228.645 313.982C228.864 312.592 229.017 311.398 229.153 310.345C229.51 307.564 229.747 305.726 230.701 303.863C230.996 303.291 231.275 302.676 231.57 302.024C232.546 299.875 233.65 297.435 235.704 295.801C236.811 294.921 236.607 293.852 236.385 293.293C235.866 291.982 234.145 290.667 232.424 290.794C229.486 291.013 227.98 291.089 227.964 291.089C227.917 291.092 227.87 291.084 227.827 291.065C227.784 291.046 227.746 291.017 227.717 290.981C227.687 290.944 227.667 290.901 227.658 290.855C227.649 290.809 227.65 290.761 227.663 290.716C227.709 290.549 228.811 286.578 229.404 285.107C229.956 283.735 230.035 278.55 229.364 274.917C228.676 271.193 227.652 246.887 227.652 237.029C227.652 227.224 227.503 224.24 226.926 222.518C226.551 221.399 224.617 215.517 223.356 209.454C223.11 208.273 223.008 207.066 223.054 205.861C223.09 203.606 223.105 202.672 216.829 197.625L214.139 195.052C214.119 195.033 214.102 195.012 214.088 194.988C213.764 194.433 181.74 139.218 175.861 112.32C175.853 112.282 175.852 112.243 175.859 112.205C175.866 112.166 175.881 112.13 175.902 112.097C175.923 112.064 175.95 112.036 175.983 112.014C176.015 111.992 176.051 111.977 176.089 111.969C176.166 111.952 176.246 111.966 176.312 112.009C176.378 112.051 176.425 112.118 176.442 112.195C182.239 138.717 213.604 192.97 214.578 194.655L217.219 197.183C223.702 202.391 223.684 203.482 223.646 205.87C223.631 206.73 223.615 207.799 223.934 209.332C225.19 215.362 227.113 221.217 227.487 222.33C228.095 224.144 228.244 227.029 228.244 237.027C228.244 246.616 229.279 271.196 229.945 274.81C230.594 278.317 230.599 283.721 229.954 285.322C229.481 286.498 228.645 289.414 228.345 290.476C228.975 290.439 230.326 290.357 232.379 290.204C234.216 290.068 236.256 291.355 236.937 293.076C237.414 294.284 237.101 295.444 236.074 296.26C234.132 297.804 233.058 300.175 232.109 302.266C231.812 302.922 231.53 303.545 231.229 304.129C230.321 305.901 230.089 307.699 229.74 310.418C229.603 311.474 229.448 312.674 229.23 314.071C228.547 318.453 227.217 319.087 226.248 319.549C226.075 319.633 225.911 319.711 225.777 319.803C224.921 320.38 220.643 322.655 219.803 323.101C219.561 324.922 218.501 326.499 216.478 328.053C215.403 328.878 215.348 329.173 215.086 330.591C214.981 331.16 214.839 331.937 214.582 332.977C213.671 336.674 212.722 338.086 208.608 341.876C206.55 343.77 204.478 346.088 202.649 348.131C200.899 350.086 199.387 351.774 198.393 352.517C196.688 353.786 193.931 356.742 190.828 360.627L190.373 361.198C187.75 364.495 184.781 368.237 181.6 367.791C178.934 367.422 178.416 363.857 178.322 362.2C177.679 363.029 176.326 364.828 173.721 368.481C171.778 371.204 170.337 372.437 169.079 372.437Z" fill="#3F3F3F"/>
<path fill-rule="evenodd" clip-rule="evenodd" d="M223.35 205.867C223.337 206.741 223.319 207.828 223.645 209.395C223.404 208.236 223.305 207.05 223.35 205.867ZM227.271 222.626C227.808 224.416 227.948 227.552 227.948 237.03C227.948 246.749 228.943 270.521 229.629 274.71C228.959 270.592 227.948 246.5 227.948 237.03C227.948 227.437 227.814 224.425 227.271 222.626ZM163.771 271.987C163.771 272.033 163.953 276.44 162.891 279.176C163.957 276.44 163.778 272.173 163.771 271.987ZM230.145 280.682C230.148 282.725 229.977 284.477 229.68 285.215C229.189 286.442 228.325 289.46 228.041 290.469L228.06 290.398C228.391 289.232 229.209 286.388 229.68 285.215C229.999 284.424 230.154 282.671 230.145 280.682ZM233.071 290.516C234.667 290.702 236.137 291.919 236.643 293.141C236.075 291.762 234.57 290.689 233.071 290.516ZM236.677 293.223C236.878 293.756 237.164 295.02 235.889 296.033C236.81 295.301 237.093 294.303 236.677 293.223ZM162.667 279.709C161.296 283.006 157.118 294.559 156.311 298.628C157.107 294.629 161.322 282.947 162.667 279.709ZM230.44 305.219C229.924 306.667 229.72 308.242 229.445 310.38C229.445 310.386 229.444 310.392 229.444 310.398C229.72 308.246 229.923 306.67 230.44 305.219ZM169.118 315.223L169.249 315.441C169.207 315.365 169.166 315.287 169.127 315.208L169.118 315.223ZM152.939 319.331L152.911 319.439C152.866 319.623 152.82 319.805 152.778 319.985C152.831 319.767 152.885 319.55 152.939 319.331ZM182.386 321.404C182.204 321.449 182.021 321.49 181.837 321.528L181.925 321.51L182.384 321.413L182.386 321.404ZM225.612 319.561C224.683 320.189 219.578 322.89 219.527 322.916C219.36 324.502 218.544 325.901 216.977 327.268C218.496 325.942 219.307 324.591 219.509 323.065L219.527 322.916L219.664 322.843C220.509 322.395 224.769 320.129 225.612 319.561ZM152.339 325.952C152.565 326.751 152.895 327.634 153.804 328.084C154.878 328.618 156.525 328.425 158.836 327.5C164.044 325.412 167.37 318.703 168.623 316.177L168.641 316.141L168.739 315.939L168.628 316.164C167.372 318.703 164.042 325.412 158.836 327.5C156.557 328.412 154.865 328.611 153.804 328.084C152.897 327.634 152.556 326.718 152.339 325.952ZM216.123 327.955C215.271 328.638 215.094 329.02 214.9 329.989C215.091 329.042 215.273 328.636 216.123 327.955ZM182.28 321.845L182.276 321.865C182.009 322.981 181.322 325.795 180.703 327.795C181.331 325.768 182.021 322.932 182.28 321.845ZM170.378 353.016L169.759 354.133L169.734 354.182L169.388 354.803L169.752 354.149L169.766 354.12L170.378 353.016ZM198.121 352.354C195.766 354.149 192.406 358.181 190.599 360.443C193.661 356.612 196.392 353.674 198.121 352.354ZM178.574 361.409L178.619 362.184C178.622 361.915 178.616 361.646 178.601 361.378L178.574 361.409ZM178.224 361.844C178.179 361.903 178.133 361.962 178.088 362.021L178.224 361.844ZM181.703 367.508C184.56 367.859 187.325 364.55 189.791 361.456C187.323 364.552 184.555 367.848 181.703 367.508ZM168.89 372.13L168.949 372.135L168.982 372.137C168.951 372.137 168.921 372.134 168.89 372.13ZM169.078 372.731C169.02 372.731 168.96 372.731 168.901 372.724C167.346 372.6 166.344 370.822 165.452 369.012C163.618 365.297 166.082 359.655 167.712 356.624C168.12 355.868 168.65 354.911 169.213 353.898L169.24 353.847C170.235 352.057 171.262 350.205 171.681 349.325C171.959 348.742 172.294 347.995 172.717 347.048L172.735 347.003C173.312 345.715 174.099 343.952 175.168 341.658C177.026 337.671 179.366 330.108 180.136 327.622C180.679 325.866 181.276 323.471 181.592 322.176C180.819 322.313 180.082 322.375 179.382 322.375C173.76 322.375 170.428 318.339 169.162 316.421L169.155 316.438C167.874 319.018 164.474 325.875 159.058 328.046C156.581 329.038 154.774 329.224 153.54 328.612C152.274 327.986 151.919 326.68 151.686 325.815C151.636 325.629 151.593 325.469 151.545 325.325C151.145 324.129 151.669 321.996 152.336 319.297C152.602 318.221 152.875 317.108 153.11 315.973C153.554 313.817 154.091 309.896 154.61 306.104C155.006 303.212 155.377 300.495 155.679 298.781C156.379 294.805 160.996 282.084 162.249 279.179C163.365 276.591 163.179 272.059 163.177 272.011C163.171 271.854 163.227 271.702 163.333 271.586C163.439 271.471 163.587 271.402 163.744 271.396C163.819 271.391 163.895 271.401 163.967 271.426C164.039 271.451 164.105 271.49 164.161 271.541C164.221 271.594 164.27 271.658 164.304 271.73C164.339 271.802 164.359 271.88 164.363 271.96C164.372 272.155 164.565 276.801 163.339 279.644C162.137 282.434 157.521 295.166 156.849 298.985C156.55 300.673 156.18 303.381 155.789 306.248C155.266 310.065 154.727 314.014 154.274 316.21C154.035 317.363 153.758 318.486 153.49 319.574C152.917 321.892 152.379 324.079 152.671 324.952C152.726 325.119 152.78 325.307 152.833 325.509C153.044 326.287 153.283 327.166 154.068 327.556C154.958 327.997 156.53 327.787 158.613 326.951C163.611 324.948 166.863 318.386 168.089 315.915C168.333 315.425 168.504 315.079 168.626 314.89C168.683 314.8 168.763 314.728 168.857 314.68C168.951 314.632 169.056 314.61 169.162 314.616C169.267 314.623 169.368 314.657 169.455 314.715C169.543 314.773 169.613 314.853 169.659 314.948C169.821 315.276 173.713 322.948 182.242 320.83C182.34 320.805 182.443 320.806 182.541 320.832C182.639 320.858 182.728 320.909 182.801 320.98C182.873 321.051 182.926 321.139 182.955 321.236C182.984 321.333 182.987 321.436 182.965 321.535C182.928 321.694 182.05 325.447 181.271 327.968C180.495 330.472 178.137 338.094 176.245 342.155C175.422 343.924 174.615 345.699 173.822 347.482C173.387 348.454 173.043 349.225 172.755 349.829C172.322 350.738 171.287 352.603 170.287 354.406L170.011 354.291L170.271 354.435C169.703 355.457 169.167 356.422 168.759 357.182C167.235 360.014 164.917 365.249 166.519 368.493C167.399 370.278 168.158 371.48 168.996 371.547C169.903 371.627 171.247 370.422 172.995 367.969C177.026 362.319 178.047 361.11 178.151 360.993C178.231 360.901 178.338 360.836 178.456 360.807C178.574 360.777 178.699 360.785 178.813 360.829C178.926 360.872 179.024 360.95 179.092 361.051C179.16 361.152 179.195 361.272 179.193 361.394C179.193 361.443 179.106 366.552 181.725 366.914C184.398 367.286 187.201 363.763 189.672 360.655L190.133 360.077C191.983 357.761 195.447 353.607 197.86 351.809C198.782 351.122 200.264 349.465 201.984 347.546C203.83 345.482 205.917 343.149 208.004 341.226C211.953 337.589 212.862 336.245 213.718 332.768C213.967 331.758 214.102 331.027 214.209 330.441C214.486 328.942 214.59 328.387 215.936 327.352C217.812 325.913 218.764 324.482 218.937 322.854C218.947 322.757 218.98 322.665 219.034 322.584C219.088 322.504 219.161 322.438 219.247 322.393C219.3 322.366 224.388 319.672 225.279 319.071C225.468 318.944 225.67 318.845 225.863 318.752C226.701 318.354 227.739 317.856 228.353 313.937C228.538 312.733 228.706 311.526 228.857 310.317C229.221 307.494 229.458 305.636 230.438 303.727C230.729 303.161 231.006 302.549 231.299 301.903C232.288 299.721 233.408 297.248 235.519 295.57C236.43 294.845 236.342 293.989 236.109 293.399C235.639 292.214 234.022 290.974 232.447 291.086C229.742 291.289 228.258 291.369 227.985 291.383C227.891 291.39 227.796 291.374 227.709 291.337C227.623 291.299 227.546 291.241 227.487 291.168C227.427 291.095 227.386 291.008 227.367 290.916C227.347 290.823 227.351 290.728 227.377 290.637C227.424 290.467 228.533 286.477 229.13 284.995C229.655 283.687 229.724 278.493 229.072 274.969C228.382 271.234 227.355 246.895 227.355 237.028C227.355 227.261 227.209 224.297 226.644 222.609C226.269 221.491 224.332 215.599 223.064 209.513C222.725 207.883 222.742 206.759 222.756 205.856C222.793 203.701 222.805 202.809 216.642 197.854L213.932 195.264C213.893 195.226 213.858 195.182 213.83 195.135C213.508 194.581 181.468 139.358 175.572 112.381C175.556 112.305 175.555 112.226 175.569 112.15C175.583 112.074 175.612 112.001 175.654 111.935C175.696 111.87 175.751 111.814 175.815 111.77C175.879 111.726 175.952 111.696 176.028 111.68C176.181 111.647 176.341 111.676 176.473 111.761C176.605 111.845 176.698 111.979 176.733 112.131C179.104 122.986 186.314 140.44 197.584 162.608C203.064 173.37 208.811 183.996 214.818 194.473L217.427 196.972C224.002 202.255 223.984 203.39 223.944 205.878C223.931 206.723 223.914 207.772 224.226 209.276C225.479 215.29 227.398 221.129 227.77 222.238C228.391 224.09 228.542 226.993 228.542 237.03C228.542 246.609 229.575 271.155 230.239 274.758C230.895 278.307 230.891 283.794 230.232 285.433C229.817 286.466 229.121 288.846 228.746 290.159C229.478 290.116 230.693 290.037 232.358 289.912C234.31 289.766 236.49 291.139 237.215 292.971C237.743 294.306 237.397 295.59 236.26 296.494C234.374 297.992 233.316 300.329 232.381 302.389C232.083 303.05 231.798 303.673 231.496 304.265C230.611 305.993 230.382 307.769 230.036 310.457C229.897 311.528 229.744 312.724 229.526 314.117C228.815 318.652 227.408 319.326 226.379 319.818C226.229 319.885 226.084 319.962 225.945 320.049C225.116 320.608 221.166 322.715 220.075 323.294C219.786 325.134 218.699 326.724 216.662 328.288C215.675 329.046 215.635 329.259 215.38 330.647C215.275 331.217 215.131 331.996 214.87 333.051C213.943 336.817 212.98 338.256 208.811 342.095C206.764 343.98 204.695 346.291 202.872 348.329C201.111 350.296 199.59 351.995 198.574 352.754C196.888 354.011 194.151 356.947 191.064 360.811L190.606 361.385C187.928 364.754 184.904 368.557 181.561 368.087C179.047 367.737 178.308 364.825 178.093 362.989C176.691 364.858 175.315 366.747 173.964 368.653C171.952 371.474 170.446 372.731 169.078 372.731Z" fill="#3F3F3F"/>
<path fill-rule="evenodd" clip-rule="evenodd" d="M191.053 151.052C191 151.052 190.949 151.038 190.904 151.012C190.859 150.985 190.821 150.948 190.795 150.902C190.769 150.857 190.756 150.805 190.756 150.753C190.757 150.7 190.771 150.649 190.798 150.604L214.093 112.104C214.134 112.037 214.2 111.989 214.276 111.97C214.353 111.951 214.433 111.963 214.501 112.004C214.534 112.024 214.563 112.05 214.586 112.081C214.609 112.113 214.626 112.148 214.635 112.186C214.645 112.224 214.646 112.263 214.64 112.301C214.635 112.34 214.621 112.377 214.601 112.41L191.306 150.91C191.279 150.953 191.242 150.989 191.198 151.014C191.154 151.039 191.104 151.052 191.053 151.052Z" fill="#3F3F3F"/>
<path fill-rule="evenodd" clip-rule="evenodd" d="M191.052 151.347C190.92 151.347 190.792 151.303 190.688 151.222C190.584 151.141 190.509 151.027 190.477 150.899C190.458 150.824 190.454 150.746 190.466 150.669C190.477 150.592 190.504 150.519 190.544 150.453L213.838 111.953C213.92 111.819 214.052 111.724 214.204 111.687C214.356 111.649 214.517 111.674 214.652 111.754C214.718 111.794 214.776 111.846 214.822 111.908C214.868 111.971 214.902 112.041 214.921 112.116C214.939 112.191 214.943 112.27 214.932 112.346C214.92 112.423 214.894 112.496 214.854 112.563L191.561 151.063C191.507 151.15 191.433 151.222 191.344 151.272C191.255 151.322 191.155 151.347 191.052 151.347ZM214.346 195.136C214.29 195.136 214.235 195.121 214.187 195.091C214.14 195.061 214.102 195.018 214.077 194.968C214.053 194.917 214.044 194.861 214.051 194.805C214.058 194.749 214.081 194.697 214.116 194.653C214.389 194.322 241.562 161.418 252.525 150.547C263.471 139.697 287.294 111.168 287.536 110.882C287.586 110.821 287.659 110.783 287.737 110.775C287.816 110.768 287.894 110.792 287.955 110.842C288.079 110.945 288.097 111.133 287.991 111.257C287.755 111.545 263.911 140.096 252.948 150.965C242.002 161.815 214.848 194.697 214.575 195.027C214.548 195.061 214.513 195.088 214.473 195.107C214.434 195.126 214.389 195.136 214.346 195.136Z" fill="#3F3F3F"/>
<path fill-rule="evenodd" clip-rule="evenodd" d="M252.133 151.362C240.951 162.648 215.446 193.508 214.346 194.841C214.614 194.515 240.841 162.761 252.133 151.362ZM214.346 195.431C214.234 195.433 214.123 195.402 214.028 195.342C213.933 195.283 213.856 195.197 213.808 195.096C213.759 194.994 213.741 194.881 213.755 194.769C213.77 194.657 213.815 194.552 213.888 194.466C215.008 193.109 241.461 161.101 252.317 150.338C263.158 139.591 286.326 111.867 287.306 110.691C287.407 110.57 287.551 110.495 287.708 110.481C287.864 110.466 288.02 110.514 288.142 110.614C288.395 110.824 288.429 111.197 288.22 111.446C287.981 111.732 264.173 140.252 253.156 151.174C242.249 161.987 215.079 194.883 214.805 195.214C214.75 195.282 214.68 195.337 214.6 195.374C214.521 195.412 214.434 195.431 214.346 195.431ZM173.501 277.95L177.957 283.22C179.256 284.756 181.173 285.555 183.089 285.357C185.876 285.071 187.872 282.942 189.026 279.03C189.173 278.523 189.193 277.988 189.084 277.472C188.974 276.956 188.738 276.475 188.398 276.072L182.727 269.266C181.743 269.164 175.069 268.806 173.501 277.95ZM182.512 285.976C180.618 285.976 178.782 285.114 177.502 283.599L172.956 278.227C172.929 278.194 172.909 278.156 172.897 278.115C172.886 278.075 172.884 278.032 172.89 277.99C174.599 267.594 182.84 268.685 182.923 268.696C182.996 268.707 183.062 268.744 183.109 268.8L188.853 275.697C189.673 276.68 189.951 277.992 189.595 279.196C188.749 282.058 186.945 285.552 183.147 285.943C182.936 285.965 182.724 285.976 182.512 285.976Z" fill="#3F3F3F"/>
<path fill-rule="evenodd" clip-rule="evenodd" d="M173.252 277.649C173.234 277.744 173.215 277.84 173.201 277.937L173.206 277.901L173.252 277.649ZM173.816 277.866L178.184 283.031C179.418 284.491 181.241 285.253 183.057 285.063C185.711 284.79 187.623 282.732 188.741 278.946C188.874 278.486 188.891 278 188.791 277.532C188.691 277.063 188.477 276.627 188.167 276.261L182.576 269.548C181.123 269.426 175.313 269.487 173.816 277.866ZM182.513 286.273C180.518 286.273 178.608 285.367 177.275 283.79L172.729 278.416C172.674 278.351 172.634 278.275 172.612 278.194C172.589 278.112 172.584 278.026 172.598 277.942C174.343 267.328 182.879 268.394 182.964 268.405C183.11 268.425 183.243 268.499 183.338 268.612L189.082 275.507C189.967 276.569 190.265 277.979 189.881 279.279C189.009 282.23 187.14 285.828 183.179 286.236C182.958 286.26 182.735 286.272 182.513 286.273Z" fill="#3F3F3F"/>
<path fill-rule="evenodd" clip-rule="evenodd" d="M169.127 315.503C169.109 315.503 169.095 315.503 169.076 315.499C168.999 315.486 168.931 315.443 168.886 315.379C168.841 315.315 168.823 315.236 168.836 315.159C168.843 315.106 169.752 309.963 171.528 306.04C172.069 304.849 172.837 303.188 173.651 301.43C175.509 297.418 177.822 292.426 178.647 290.321C179.441 288.294 179.246 286.114 179.244 286.091C179.237 286.013 179.261 285.935 179.311 285.875C179.361 285.815 179.432 285.777 179.51 285.77C179.549 285.765 179.588 285.769 179.626 285.78C179.663 285.791 179.698 285.809 179.729 285.834C179.759 285.859 179.784 285.89 179.802 285.924C179.82 285.959 179.831 285.997 179.834 286.036C179.843 286.131 180.044 288.38 179.2 290.534C178.366 292.658 176.05 297.659 174.19 301.676C173.376 303.434 172.608 305.093 172.07 306.282C170.324 310.138 169.43 315.208 169.421 315.259C169.408 315.327 169.372 315.389 169.319 315.434C169.266 315.478 169.197 315.503 169.127 315.503Z" fill="#3F3F3F"/>
<path fill-rule="evenodd" clip-rule="evenodd" d="M179.539 286.063C179.546 286.154 179.726 288.207 179 290.223C179.728 288.198 179.546 286.152 179.539 286.063ZM178.324 291.869C177.255 294.353 175.437 298.276 173.922 301.549C173.209 303.084 172.501 304.622 171.799 306.162C172.343 304.96 173.146 303.228 173.92 301.554C175.436 298.28 177.253 294.355 178.324 291.869ZM169.127 315.8C169.041 315.8 168.955 315.782 168.877 315.746C168.798 315.709 168.729 315.656 168.673 315.59C168.617 315.524 168.576 315.447 168.554 315.364C168.531 315.28 168.527 315.193 168.542 315.108C168.552 315.055 169.475 309.855 171.256 305.92C171.802 304.714 172.567 303.06 173.381 301.307C175.239 297.296 177.546 292.31 178.37 290.212C179.133 288.267 178.949 286.14 178.947 286.118C178.94 286.041 178.948 285.963 178.971 285.889C178.994 285.815 179.032 285.746 179.082 285.686C179.131 285.627 179.192 285.578 179.261 285.542C179.33 285.506 179.405 285.484 179.482 285.477C179.628 285.459 179.783 285.5 179.909 285.599C179.971 285.649 180.022 285.711 180.06 285.781C180.098 285.852 180.121 285.929 180.129 286.008C180.138 286.105 180.347 288.422 179.475 290.642C178.639 292.774 176.323 297.781 174.459 301.8C173.685 303.474 172.884 305.204 172.34 306.402C170.606 310.234 169.721 315.259 169.712 315.308C169.688 315.446 169.617 315.571 169.51 315.661C169.404 315.751 169.267 315.8 169.127 315.8ZM158.376 327.973C158.313 327.974 158.25 327.955 158.198 327.918C158.146 327.881 158.107 327.828 158.089 327.767C158.07 327.706 158.071 327.64 158.093 327.58C158.115 327.52 158.155 327.468 158.209 327.434C160.589 325.829 162.201 319.136 162.201 317.273C162.201 315.616 161.691 315.053 159.32 314.104C155.993 312.775 154.457 313.949 154.441 313.962C154.38 314.011 154.301 314.034 154.223 314.026C154.145 314.018 154.074 313.979 154.024 313.918C153.999 313.889 153.981 313.855 153.97 313.818C153.958 313.781 153.954 313.743 153.958 313.704C153.962 313.666 153.973 313.629 153.991 313.595C154.009 313.561 154.034 313.531 154.064 313.507C154.137 313.447 155.858 312.083 159.542 313.558C161.942 314.519 162.795 315.224 162.795 317.273C162.795 319.275 161.125 326.181 158.542 327.922C158.493 327.955 158.436 327.973 158.376 327.973Z" fill="#3F3F3F"/>
<path fill-rule="evenodd" clip-rule="evenodd" d="M156.415 313.179C157.198 313.179 158.202 313.34 159.431 313.831C160.682 314.334 161.438 314.76 161.886 315.252C161.413 314.711 160.63 314.312 159.431 313.831C155.905 312.42 154.27 313.72 154.255 313.733C154.264 313.724 154.969 313.179 156.415 313.179ZM158.375 328.27C158.278 328.27 158.182 328.246 158.097 328.201C158.011 328.155 157.938 328.09 157.883 328.009C157.839 327.945 157.808 327.873 157.792 327.797C157.776 327.721 157.775 327.642 157.79 327.566C157.805 327.489 157.835 327.417 157.879 327.352C157.922 327.288 157.978 327.232 158.043 327.19C160.302 325.667 161.904 319.042 161.904 317.273C161.904 315.824 161.588 315.332 159.209 314.378C156.093 313.132 154.638 314.185 154.623 314.196C154.501 314.291 154.345 314.335 154.19 314.318C154.036 314.301 153.894 314.225 153.795 314.104C153.697 313.984 153.65 313.83 153.665 313.676C153.68 313.521 153.756 313.379 153.875 313.279C153.951 313.216 155.798 311.741 159.653 313.285C162.077 314.256 163.092 315.024 163.092 317.273C163.092 318.286 162.689 320.506 161.919 322.79C161.278 324.687 160.202 327.161 158.71 328.166C158.612 328.233 158.494 328.269 158.375 328.27ZM159.533 277.606C159.44 277.606 159.349 277.564 159.291 277.486C159.268 277.455 159.252 277.42 159.243 277.382C159.233 277.345 159.232 277.307 159.237 277.269C159.243 277.231 159.256 277.194 159.276 277.162C159.296 277.129 159.322 277.1 159.353 277.078C159.653 276.859 161.992 275.843 163.611 276.491C163.683 276.52 163.741 276.577 163.772 276.649C163.802 276.72 163.804 276.801 163.775 276.874C163.745 276.946 163.688 277.004 163.616 277.035C163.544 277.065 163.463 277.066 163.391 277.038C162.056 276.506 159.963 277.373 159.704 277.553C159.654 277.588 159.595 277.605 159.533 277.606Z" fill="#3F3F3F"/>
<path fill-rule="evenodd" clip-rule="evenodd" d="M162.378 276.653C161.123 276.653 159.806 277.292 159.548 277.485C159.886 277.236 162.055 276.216 163.5 276.873C163.145 276.722 162.763 276.645 162.378 276.653ZM159.533 278.168C159.436 278.167 159.34 278.14 159.256 278.092C159.172 278.043 159.101 277.975 159.05 277.891C158.959 277.746 158.922 277.573 158.945 277.402C158.968 277.232 159.051 277.075 159.178 276.959C159.542 276.653 161.982 275.458 163.722 276.249C164.026 276.387 164.173 276.781 164.051 277.123C163.929 277.469 163.583 277.633 163.279 277.498C162.074 276.948 160.105 277.862 159.875 278.044C159.779 278.124 159.658 278.167 159.533 278.168ZM174.345 307.588C174.283 307.589 174.222 307.571 174.171 307.536C174.12 307.5 174.081 307.449 174.061 307.39C174.041 307.332 174.04 307.268 174.058 307.209C174.076 307.149 174.113 307.097 174.163 307.06C174.225 306.982 174.286 306.903 174.345 306.823C178.262 301.573 183.5 299.516 187.248 298.719C188.406 296.841 188.137 292.891 187.831 290.064C187.472 286.777 185.292 286.923 185.197 286.93C185.159 286.934 185.12 286.93 185.083 286.918C185.046 286.907 185.011 286.888 184.981 286.863C184.952 286.839 184.927 286.808 184.909 286.774C184.891 286.739 184.88 286.702 184.876 286.663C184.872 286.625 184.876 286.586 184.888 286.549C184.899 286.512 184.918 286.477 184.943 286.447C184.968 286.417 184.998 286.393 185.032 286.375C185.067 286.357 185.104 286.345 185.143 286.342C185.172 286.34 187.998 286.118 188.421 290.002C188.771 293.222 189.004 297.173 187.68 299.145C187.636 299.211 187.569 299.256 187.492 299.272C183.837 300.028 178.672 302.015 174.82 307.176C174.613 307.453 174.565 307.519 174.465 307.563C174.427 307.579 174.386 307.589 174.345 307.588Z" fill="#3F3F3F"/>
<path fill-rule="evenodd" clip-rule="evenodd" d="M188.154 290.297C188.449 293.109 188.669 296.91 187.531 298.826C188.658 296.936 188.473 293.331 188.154 290.297ZM174.515 307.091C174.538 307.06 174.561 307.03 174.584 307L174.515 307.091ZM174.346 307.883C174.231 307.883 174.118 307.849 174.022 307.786C173.926 307.724 173.85 307.634 173.803 307.53C173.752 307.415 173.739 307.287 173.766 307.164C173.793 307.041 173.859 306.931 173.954 306.848C173.989 306.806 174.045 306.726 174.103 306.65C178.046 301.368 183.3 299.279 187.059 298.458C188.097 296.61 187.832 292.812 187.535 290.097C187.207 287.088 185.306 287.219 185.224 287.223C185.068 287.234 184.915 287.185 184.795 287.086C184.676 286.986 184.6 286.844 184.583 286.689C184.569 286.534 184.617 286.379 184.717 286.259C184.817 286.139 184.961 286.063 185.116 286.048C185.118 286.048 186.185 285.941 187.187 286.73C188.041 287.402 188.555 288.491 188.717 289.971C189.072 293.24 189.303 297.256 187.926 299.31C187.84 299.44 187.705 299.529 187.553 299.56C183.949 300.307 178.855 302.264 175.06 307.351C174.832 307.655 174.757 307.757 174.586 307.832C174.51 307.865 174.428 307.883 174.346 307.883Z" fill="#3F3F3F"/>
<path fill-rule="evenodd" clip-rule="evenodd" d="M182.386 321.699C182.321 321.701 182.257 321.681 182.204 321.642C182.151 321.604 182.113 321.549 182.095 321.486C182.077 321.424 182.08 321.357 182.105 321.296C182.129 321.236 182.173 321.185 182.229 321.152C182.276 321.125 186.979 318.257 193.555 315.623L194.459 315.263C199.287 313.334 199.287 313.334 201.273 310.648C201.574 310.24 201.922 309.774 202.333 309.227C205.632 304.891 209.347 294.475 210.5 290.829C210.882 289.62 210.465 288.383 209.383 287.52C206.987 285.61 203.297 286.56 200.864 287.954C194.708 291.48 191.077 299.032 191.04 299.109C191.01 299.172 190.959 299.222 190.895 299.251C190.831 299.28 190.76 299.286 190.692 299.267C189.659 298.975 188.565 298.973 187.531 299.262C187.494 299.274 187.455 299.28 187.416 299.278C187.377 299.276 187.339 299.266 187.303 299.249C187.268 299.232 187.237 299.208 187.211 299.179C187.185 299.15 187.165 299.116 187.152 299.079C187.126 299.006 187.131 298.924 187.165 298.854C187.199 298.784 187.26 298.73 187.334 298.704C187.396 298.682 188.804 298.205 190.612 298.637C191.271 297.346 194.856 290.715 200.569 287.442C203.162 285.956 207.125 284.965 209.755 287.059C211.035 288.081 211.525 289.556 211.066 291.006C209.904 294.681 206.156 305.179 202.809 309.584C202.397 310.125 202.051 310.591 201.752 310.997C199.684 313.793 199.618 313.838 194.679 315.809L193.777 316.171C187.247 318.787 182.588 321.626 182.541 321.655C182.494 321.684 182.44 321.699 182.386 321.699Z" fill="#3F3F3F"/>
<path fill-rule="evenodd" clip-rule="evenodd" d="M206.032 286.153C204.677 286.153 203.276 286.517 202.04 287.041C203.788 286.298 205.864 285.881 207.676 286.355C207.139 286.218 206.586 286.149 206.032 286.153ZM190.57 298.93L190.77 298.983L190.859 298.806L190.772 298.978L190.57 298.93ZM189.076 298.752C188.117 298.752 187.471 298.97 187.433 298.983C187.445 298.977 188.774 298.522 190.479 298.91C190.019 298.805 189.548 298.752 189.076 298.752ZM201.395 310.981C199.49 313.555 199.332 313.635 194.569 315.536C199.381 313.615 199.474 313.578 201.395 310.981ZM182.385 321.994C182.257 321.994 182.132 321.952 182.029 321.875C181.927 321.797 181.852 321.688 181.817 321.565C181.782 321.441 181.788 321.309 181.835 321.19C181.882 321.07 181.966 320.969 182.076 320.901C182.119 320.874 186.866 317.985 193.444 315.35L194.347 314.988C199.097 313.094 199.097 313.094 201.033 310.475C201.339 310.061 201.685 309.593 202.096 309.051C205.369 304.745 209.068 294.375 210.217 290.742C210.563 289.653 210.181 288.535 209.197 287.752C206.919 285.934 203.364 286.861 201.013 288.209C194.944 291.685 191.344 299.16 191.309 299.234C191.249 299.362 191.146 299.464 191.018 299.522C190.89 299.58 190.745 299.59 190.61 299.551C189.634 299.277 188.603 299.274 187.625 299.54C187.477 299.592 187.315 299.583 187.174 299.515C187.033 299.447 186.924 299.326 186.873 299.178C186.821 299.03 186.83 298.868 186.898 298.727C186.966 298.586 187.087 298.477 187.235 298.426C187.386 298.373 188.71 297.945 190.453 298.298C191.338 296.61 194.89 290.354 200.419 287.187C203.096 285.654 207.194 284.641 209.94 286.83C211.319 287.93 211.847 289.526 211.35 291.095C210.184 294.783 206.418 305.324 203.045 309.763C202.637 310.296 202.297 310.757 202 311.16C199.893 314.008 199.76 314.099 194.79 316.084L193.888 316.445C187.474 319.013 182.888 321.79 182.697 321.907C182.604 321.964 182.495 321.994 182.385 321.994Z" fill="#3F3F3F"/>
<path fill-rule="evenodd" clip-rule="evenodd" d="M189.957 303.703C189.883 303.704 189.812 303.677 189.757 303.628C189.702 303.579 189.667 303.511 189.66 303.437C189.651 303.332 189.41 300.842 190.512 298.841C190.55 298.773 190.614 298.723 190.689 298.701C190.763 298.679 190.844 298.688 190.913 298.724C190.947 298.742 190.978 298.767 191.002 298.797C191.027 298.827 191.046 298.862 191.057 298.899C191.068 298.937 191.072 298.976 191.068 299.015C191.063 299.053 191.052 299.091 191.033 299.125C190.022 300.962 190.25 303.354 190.25 303.377C190.254 303.419 190.249 303.46 190.236 303.5C190.223 303.539 190.202 303.575 190.174 303.606C190.147 303.636 190.113 303.661 190.075 303.678C190.037 303.695 189.998 303.703 189.957 303.703Z" fill="#3F3F3F"/>
<path fill-rule="evenodd" clip-rule="evenodd" d="M190.89 298.984C189.87 300.696 189.957 302.791 189.998 303.297C189.961 302.794 189.885 300.675 190.89 298.984ZM190.007 303.998C189.675 303.998 189.4 303.769 189.367 303.466C189.355 303.357 189.089 300.777 190.327 298.699C190.418 298.559 190.557 298.457 190.718 298.414C190.879 298.37 191.051 298.388 191.2 298.464C191.509 298.62 191.626 298.981 191.455 299.265C190.415 301.013 190.644 303.326 190.646 303.35C190.682 303.672 190.424 303.962 190.07 303.995C190.049 303.997 190.028 303.998 190.007 303.998ZM187.563 299.055C187.485 299.056 187.411 299.026 187.355 298.972C185.638 297.298 183.376 297.646 183.354 297.65C183.316 297.656 183.276 297.655 183.239 297.646C183.201 297.637 183.165 297.621 183.134 297.598C183.102 297.576 183.075 297.547 183.055 297.514C183.034 297.481 183.02 297.445 183.014 297.406C183.008 297.368 183.009 297.329 183.018 297.291C183.027 297.253 183.043 297.218 183.065 297.186C183.088 297.155 183.117 297.128 183.149 297.107C183.182 297.087 183.219 297.073 183.257 297.067C183.361 297.049 185.842 296.67 187.77 298.551C187.813 298.592 187.842 298.644 187.854 298.702C187.866 298.76 187.86 298.819 187.838 298.874C187.816 298.928 187.777 298.975 187.728 299.007C187.679 299.04 187.621 299.056 187.563 299.055Z" fill="#3F3F3F"/>
<path fill-rule="evenodd" clip-rule="evenodd" d="M183.897 297.322C184.73 297.322 186.283 297.513 187.563 298.761C185.742 296.985 183.404 297.342 183.305 297.358C183.335 297.353 183.555 297.322 183.897 297.322ZM187.563 299.351C187.408 299.351 187.259 299.29 187.148 299.181C185.555 297.63 183.42 297.936 183.4 297.941C183.246 297.966 183.088 297.928 182.961 297.837C182.834 297.746 182.748 297.609 182.721 297.455C182.708 297.378 182.711 297.3 182.728 297.224C182.746 297.148 182.779 297.077 182.824 297.014C182.87 296.951 182.928 296.898 182.994 296.857C183.06 296.816 183.134 296.789 183.211 296.777C183.32 296.759 185.944 296.359 187.979 298.34C188.063 298.422 188.121 298.527 188.145 298.642C188.169 298.758 188.158 298.877 188.113 298.986C188.069 299.095 187.992 299.188 187.894 299.253C187.796 299.318 187.681 299.352 187.563 299.351ZM204.411 300.879C204.333 300.879 204.255 300.875 204.175 300.866C202.947 300.735 202.164 299.546 201.842 298.477C200.958 295.55 201.654 292.802 203.909 290.303C205.961 288.03 208.895 288.595 210.063 288.943C211.166 289.272 211.193 289.456 211.21 289.567C211.219 289.628 211.209 289.691 211.182 289.746C211.154 289.801 211.11 289.846 211.055 289.874C211 289.903 210.938 289.913 210.877 289.905C210.816 289.896 210.759 289.869 210.714 289.826C210.478 289.711 206.744 288.048 204.351 290.698C202.242 293.031 201.59 295.592 202.41 298.307C202.678 299.194 203.299 300.178 204.24 300.28C205.506 300.411 207.078 298.923 208.673 296.074C208.692 296.04 208.717 296.01 208.748 295.986C208.779 295.962 208.814 295.944 208.851 295.933C208.889 295.923 208.928 295.919 208.967 295.924C209.006 295.929 209.043 295.941 209.077 295.96C209.146 295.998 209.196 296.061 209.217 296.136C209.239 296.211 209.23 296.292 209.192 296.36C207.513 299.362 205.905 300.879 204.411 300.879Z" fill="#3F3F3F"/>
<path fill-rule="evenodd" clip-rule="evenodd" d="M208.344 288.928C209.522 289.019 210.473 289.396 210.759 289.522L210.766 289.514C210.511 289.396 210.248 289.299 209.977 289.225C209.445 289.067 208.897 288.967 208.344 288.928ZM210.759 289.522L210.846 289.562L210.868 289.571C210.835 289.55 210.801 289.531 210.766 289.514L210.759 289.522ZM204.213 300.574C205.637 300.726 207.227 299.26 208.927 296.231C207.251 299.214 205.626 300.718 204.213 300.574ZM204.412 301.175C204.322 301.175 204.233 301.169 204.144 301.159C202.771 301.012 201.908 299.72 201.558 298.562C200.642 295.53 201.359 292.685 203.689 290.106C205.854 287.709 208.926 288.296 210.147 288.66C211.228 288.982 211.458 289.212 211.505 289.523C211.523 289.641 211.506 289.761 211.454 289.868C211.403 289.976 211.32 290.065 211.218 290.125C211.115 290.184 210.997 290.212 210.878 290.203C210.759 290.195 210.646 290.151 210.553 290.077C210.194 289.913 206.777 288.453 204.572 290.895C202.538 293.146 201.908 295.612 202.696 298.223C202.935 299.019 203.476 299.899 204.273 299.986C205.393 300.103 206.905 298.624 208.415 295.93C208.492 295.794 208.621 295.694 208.772 295.651C208.922 295.609 209.084 295.627 209.222 295.703C209.289 295.74 209.349 295.791 209.397 295.851C209.446 295.912 209.481 295.981 209.503 296.056C209.524 296.13 209.53 296.208 209.522 296.285C209.513 296.362 209.489 296.436 209.451 296.504C207.717 299.604 206.022 301.175 204.412 301.175ZM178.602 361.674C178.547 361.675 178.493 361.661 178.446 361.633C178.399 361.605 178.361 361.564 178.336 361.516C178.311 361.468 178.3 361.413 178.304 361.359C178.308 361.304 178.327 361.252 178.359 361.208C178.452 361.08 187.651 348.17 191.19 343.5C191.601 342.957 191.973 342.473 192.312 342.03C194.929 338.623 195.55 337.813 197.242 332.378C199.148 326.257 206.839 300.757 206.918 300.498C206.941 300.423 206.993 300.36 207.062 300.323C207.131 300.286 207.212 300.279 207.287 300.301C207.325 300.312 207.359 300.33 207.389 300.355C207.42 300.379 207.445 300.409 207.463 300.443C207.482 300.477 207.494 300.514 207.498 300.553C207.502 300.591 207.499 300.63 207.488 300.667C207.409 300.924 199.717 326.428 197.808 332.555C196.085 338.088 195.386 338.998 192.783 342.389C192.446 342.83 192.073 343.313 191.663 343.855C188.13 348.518 178.937 361.419 178.844 361.55C178.816 361.589 178.78 361.62 178.738 361.641C178.696 361.663 178.649 361.674 178.602 361.674Z" fill="#3F3F3F"/>
<path fill-rule="evenodd" clip-rule="evenodd" d="M192.81 341.868L192.548 342.209L192.515 342.251L192.442 342.347L192.542 342.216L192.81 341.868ZM191.426 343.677C188.039 348.148 179.566 360.026 178.61 361.366L178.601 361.378C178.692 361.25 187.895 348.339 191.426 343.677ZM178.601 361.969C178.492 361.97 178.386 361.941 178.292 361.885C178.199 361.829 178.123 361.749 178.073 361.652C178.023 361.556 178.001 361.448 178.008 361.339C178.016 361.231 178.053 361.127 178.117 361.038C179.082 359.683 187.56 347.798 190.953 343.324C191.351 342.795 191.712 342.324 192.045 341.892L192.076 341.852C194.666 338.477 195.282 337.676 196.957 332.291C198.873 326.142 206.558 300.66 206.633 300.414C206.679 300.264 206.782 300.138 206.92 300.064C207.058 299.99 207.22 299.973 207.371 300.017C207.686 300.112 207.864 300.442 207.771 300.753L207.76 300.786C206.963 303.43 199.916 326.785 198.092 332.642C196.352 338.224 195.648 339.144 193.02 342.568C192.677 343.012 192.309 343.493 191.9 344.032C188.374 348.689 179.177 361.592 179.086 361.72C179.03 361.797 178.958 361.86 178.874 361.903C178.789 361.946 178.696 361.969 178.601 361.969ZM165.986 369.05C165.936 369.05 165.888 369.038 165.844 369.014C165.801 368.991 165.764 368.956 165.737 368.915C165.71 368.873 165.694 368.826 165.691 368.777C165.687 368.727 165.696 368.678 165.716 368.633C165.771 368.507 167.137 365.537 169.461 364.032C171.759 362.543 174.91 361.685 176.855 363.748C176.882 363.777 176.903 363.81 176.916 363.846C176.93 363.883 176.937 363.922 176.935 363.961C176.934 364 176.925 364.038 176.909 364.074C176.892 364.109 176.869 364.141 176.84 364.167C176.782 364.22 176.706 364.248 176.628 364.246C176.549 364.243 176.475 364.21 176.421 364.153C174.727 362.355 171.883 363.169 169.785 364.528C167.607 365.939 166.27 368.846 166.257 368.875C166.233 368.927 166.195 368.972 166.147 369.003C166.099 369.034 166.043 369.05 165.986 369.05Z" fill="#3F3F3F"/>
<path fill-rule="evenodd" clip-rule="evenodd" d="M173.884 362.819C172.452 362.819 170.903 363.45 169.622 364.28C167.371 365.737 166.042 368.631 165.986 368.753C165.998 368.724 167.351 365.75 169.622 364.28C171.82 362.854 174.818 362.022 176.636 363.952C175.876 363.144 174.909 362.819 173.884 362.819ZM165.985 369.345C165.887 369.345 165.789 369.321 165.702 369.274C165.615 369.227 165.542 369.159 165.488 369.076C165.434 368.993 165.402 368.898 165.394 368.8C165.387 368.701 165.404 368.603 165.444 368.513C165.503 368.383 166.903 365.338 169.298 363.785C171.698 362.229 175 361.35 177.069 363.548C177.122 363.604 177.164 363.671 177.191 363.743C177.219 363.816 177.232 363.893 177.229 363.971C177.226 364.048 177.209 364.124 177.177 364.195C177.144 364.266 177.099 364.329 177.042 364.382C176.927 364.488 176.774 364.545 176.617 364.54C176.461 364.535 176.312 364.468 176.204 364.355C174.636 362.69 171.942 363.481 169.946 364.774C167.845 366.136 166.541 368.968 166.526 368.997C166.479 369.1 166.402 369.188 166.306 369.249C166.211 369.31 166.099 369.345 165.985 369.345ZM195.001 339.075C194.935 339.075 194.871 339.053 194.818 339.013C194.766 338.972 194.729 338.916 194.713 338.852C194.697 338.788 194.703 338.72 194.729 338.66C194.756 338.6 194.802 338.55 194.86 338.519C197.246 337.259 198.554 337.091 199.605 337.102C199.769 337.104 199.9 337.237 199.9 337.401C199.898 337.563 199.765 337.692 199.603 337.692H199.53C198.565 337.692 197.352 337.871 195.141 339.04C195.098 339.063 195.05 339.075 195.001 339.075Z" fill="#3F3F3F"/>
<path fill-rule="evenodd" clip-rule="evenodd" d="M199.514 337.397C199.52 337.397 199.526 337.397 199.532 337.397H199.61H199.514ZM195.001 339.37C194.908 339.37 194.817 339.348 194.735 339.306C194.652 339.265 194.581 339.205 194.525 339.131C194.47 339.056 194.433 338.97 194.417 338.88C194.401 338.789 194.406 338.695 194.433 338.607C194.455 338.532 194.493 338.463 194.543 338.404C194.592 338.344 194.653 338.295 194.722 338.259C197.174 336.962 198.516 336.796 199.609 336.809C199.936 336.811 200.199 337.079 200.197 337.403C200.194 337.559 200.131 337.707 200.02 337.817C199.909 337.926 199.759 337.987 199.603 337.987H199.548C198.612 337.987 197.461 338.148 195.28 339.299C195.194 339.345 195.098 339.369 195.001 339.37ZM197.301 333.469C197.227 333.47 197.155 333.442 197.099 333.392C197.044 333.342 197.01 333.273 197.004 333.199C196.998 333.124 197.02 333.05 197.066 332.992C197.112 332.933 197.178 332.894 197.252 332.883C197.319 332.872 204.007 331.724 208.516 329.628C212.796 327.639 218.627 323.23 219.285 322.729C221.485 317.599 221.561 314.315 221.625 311.676C221.647 310.771 221.667 309.915 221.769 309.076C221.918 307.825 222.324 306.61 222.752 305.324C223.461 303.204 224.191 301.013 223.798 298.487C223.652 297.548 223.106 296.89 222.173 296.533C219.625 295.555 214.967 297.036 212.503 299.015C210.008 301.019 208.529 305.665 207.449 309.058C206.995 310.476 206.638 311.596 206.298 312.246C205.564 313.621 204.377 314.699 202.939 315.299C202.903 315.313 202.864 315.319 202.825 315.318C202.786 315.317 202.748 315.308 202.712 315.292C202.677 315.276 202.645 315.253 202.618 315.224C202.591 315.195 202.571 315.162 202.557 315.125C202.544 315.089 202.538 315.05 202.539 315.011C202.541 314.972 202.55 314.933 202.567 314.898C202.584 314.863 202.607 314.831 202.636 314.805C202.665 314.778 202.699 314.758 202.736 314.745C204.031 314.189 205.1 313.213 205.771 311.973C206.088 311.369 206.456 310.216 206.882 308.879C207.986 305.415 209.498 300.671 212.131 298.557C214.724 296.471 219.574 294.901 222.388 295.983C223.517 296.417 224.206 297.251 224.384 298.396C224.799 301.064 224.045 303.324 223.317 305.51C222.898 306.766 222.501 307.954 222.357 309.147C222.261 309.957 222.241 310.8 222.219 311.691C222.155 314.394 222.075 317.756 219.8 323.032C219.78 323.078 219.749 323.118 219.709 323.148C219.645 323.197 213.346 328.034 208.767 330.163C204.183 332.294 197.419 333.454 197.352 333.465C197.335 333.468 197.318 333.469 197.301 333.469Z" fill="#3F3F3F"/>
<path fill-rule="evenodd" clip-rule="evenodd" d="M220.221 295.921C217.626 295.921 214.412 297.156 212.43 298.697C214.954 296.737 219.569 295.295 222.186 296.224C221.553 296.012 220.889 295.91 220.221 295.921ZM207.027 309.402C206.679 310.493 206.371 311.427 206.091 311.999C206.369 311.429 206.668 310.525 207.027 309.402ZM205.948 312.268C205.235 313.496 204.145 314.462 202.84 315.022C204.151 314.472 205.244 313.504 205.948 312.268ZM197.303 333.764C197.159 333.759 197.021 333.701 196.916 333.602C196.811 333.502 196.746 333.367 196.734 333.223C196.721 333.079 196.762 332.935 196.849 332.819C196.935 332.703 197.061 332.622 197.203 332.593C197.476 332.546 203.971 331.416 208.391 329.36C212.528 327.437 218.151 323.219 219.043 322.542C221.192 317.504 221.267 314.27 221.328 311.669C221.35 310.759 221.37 309.895 221.474 309.041C221.627 307.757 222.039 306.53 222.472 305.231C223.168 303.144 223.887 300.988 223.505 298.531C223.374 297.693 222.904 297.129 222.066 296.808C220.041 296.031 215.601 296.907 212.691 299.245C210.265 301.194 208.8 305.79 207.731 309.147C207.274 310.582 206.914 311.711 206.56 312.383C205.79 313.82 204.548 314.948 203.044 315.576C202.896 315.629 202.733 315.623 202.59 315.557C202.448 315.492 202.336 315.373 202.281 315.226C202.254 315.153 202.242 315.076 202.245 314.998C202.248 314.92 202.267 314.844 202.3 314.774C202.333 314.703 202.379 314.64 202.436 314.588C202.494 314.535 202.561 314.495 202.634 314.468C202.652 314.463 204.502 313.749 205.508 311.837C205.814 311.256 206.178 310.116 206.599 308.795C207.713 305.291 209.239 300.498 211.944 298.327C214.603 296.193 219.589 294.59 222.494 295.708C223.727 296.182 224.483 297.096 224.68 298.351C225.104 301.09 224.339 303.385 223.598 305.603C223.184 306.845 222.793 308.018 222.653 309.181C222.558 309.979 222.538 310.813 222.516 311.698C222.452 314.426 222.37 317.821 220.074 323.148C220.034 323.241 219.972 323.322 219.892 323.383C219.83 323.431 213.501 328.288 208.895 330.431C204.278 332.577 197.469 333.746 197.402 333.757C197.368 333.762 197.337 333.764 197.303 333.764Z" fill="#3F3F3F"/>
<path fill-rule="evenodd" clip-rule="evenodd" d="M209.547 317.641C209.474 317.642 209.403 317.616 209.348 317.568C209.226 317.459 206.34 314.86 206.048 311.431C206.045 311.392 206.05 311.353 206.061 311.316C206.073 311.279 206.092 311.245 206.117 311.216C206.142 311.186 206.173 311.162 206.207 311.144C206.242 311.126 206.279 311.115 206.318 311.112C206.357 311.108 206.396 311.111 206.434 311.123C206.472 311.134 206.506 311.153 206.537 311.178C206.567 311.203 206.591 311.234 206.609 311.269C206.627 311.304 206.638 311.342 206.64 311.382C206.912 314.574 209.716 317.102 209.744 317.127C209.788 317.167 209.82 317.22 209.834 317.278C209.848 317.337 209.844 317.398 209.823 317.454C209.801 317.51 209.763 317.558 209.713 317.592C209.664 317.626 209.607 317.642 209.547 317.641Z" fill="#3F3F3F"/>
<path fill-rule="evenodd" clip-rule="evenodd" d="M206.343 311.405C206.625 314.716 209.424 317.24 209.546 317.348C209.424 317.238 206.622 314.676 206.343 311.405ZM209.546 317.938C209.401 317.938 209.26 317.885 209.151 317.788C209.024 317.676 206.053 314.998 205.751 311.456C205.745 311.379 205.754 311.301 205.777 311.226C205.801 311.152 205.839 311.084 205.89 311.024C205.94 310.965 206.002 310.917 206.071 310.881C206.141 310.846 206.216 310.825 206.294 310.819C206.371 310.811 206.45 310.818 206.524 310.841C206.599 310.864 206.668 310.902 206.728 310.952C206.788 311.002 206.837 311.063 206.872 311.133C206.908 311.202 206.929 311.278 206.935 311.356C207.193 314.397 209.831 316.809 209.944 316.911C210.002 316.962 210.049 317.024 210.083 317.094C210.117 317.163 210.136 317.239 210.141 317.316C210.145 317.394 210.134 317.471 210.108 317.544C210.082 317.617 210.041 317.684 209.989 317.741C209.933 317.803 209.865 317.853 209.789 317.886C209.712 317.92 209.63 317.938 209.546 317.938ZM219.649 310.97C219.21 310.97 218.813 310.872 218.459 310.673C216.635 309.649 216.558 306.288 216.527 304.852C216.525 304.708 216.521 304.563 216.514 304.419C216.429 302.902 216.964 301.531 219.853 299.764C222.865 297.921 224.251 298.695 224.309 298.728C224.343 298.747 224.372 298.773 224.395 298.804C224.419 298.835 224.436 298.871 224.446 298.908C224.455 298.946 224.457 298.985 224.452 299.023C224.446 299.062 224.433 299.099 224.413 299.132C224.373 299.199 224.309 299.248 224.234 299.268C224.158 299.288 224.078 299.278 224.01 299.239C223.981 299.221 222.805 298.651 220.164 300.267C217.232 302.061 217.044 303.286 217.106 304.386C217.114 304.499 217.117 304.652 217.121 304.84C217.15 306.175 217.219 309.302 218.751 310.158C219.492 310.575 220.532 310.405 221.843 309.655C221.912 309.616 221.992 309.606 222.068 309.627C222.143 309.647 222.208 309.697 222.248 309.764C222.286 309.832 222.296 309.912 222.275 309.987C222.255 310.062 222.206 310.126 222.138 310.165C221.202 310.702 220.37 310.97 219.649 310.97Z" fill="#3F3F3F"/>
<path fill-rule="evenodd" clip-rule="evenodd" d="M219.649 311.265C219.182 311.271 218.723 311.155 218.314 310.93C216.342 309.824 216.263 306.344 216.231 304.858C216.228 304.717 216.224 304.576 216.218 304.436C216.127 302.815 216.684 301.358 219.698 299.513C222.82 297.604 224.302 298.382 224.462 298.475C224.53 298.514 224.588 298.566 224.635 298.628C224.682 298.69 224.716 298.761 224.735 298.836C224.754 298.911 224.758 298.989 224.747 299.066C224.735 299.143 224.709 299.217 224.668 299.283C224.588 299.416 224.459 299.512 224.308 299.552C224.158 299.591 223.999 299.571 223.863 299.495C223.863 299.495 222.771 299.021 220.321 300.518C217.525 302.226 217.347 303.359 217.403 304.37C217.411 304.485 217.413 304.643 217.418 304.833C217.443 306.007 217.513 309.127 218.897 309.903C219.54 310.263 220.481 310.094 221.694 309.4C221.761 309.361 221.836 309.336 221.913 309.326C221.99 309.316 222.068 309.321 222.143 309.341C222.218 309.361 222.288 309.395 222.35 309.443C222.411 309.49 222.463 309.549 222.502 309.616C222.541 309.683 222.566 309.757 222.576 309.834C222.586 309.911 222.581 309.989 222.561 310.064C222.541 310.139 222.507 310.21 222.459 310.271C222.412 310.333 222.353 310.385 222.286 310.424C221.308 310.981 220.421 311.265 219.649 311.265ZM233.111 299.822C233.066 299.823 233.021 299.813 232.98 299.793C232.94 299.773 232.904 299.744 232.876 299.709C232.848 299.673 232.829 299.631 232.82 299.587C232.811 299.542 232.812 299.497 232.824 299.453C233.295 297.681 233.184 296.289 232.496 295.315C231.749 294.262 230.287 293.634 228.147 293.45C225.023 293.177 223.969 297.347 223.958 297.391C223.939 297.467 223.891 297.532 223.824 297.573C223.757 297.614 223.677 297.627 223.601 297.61C223.563 297.601 223.527 297.584 223.496 297.561C223.464 297.539 223.438 297.51 223.417 297.477C223.397 297.443 223.384 297.407 223.378 297.368C223.372 297.33 223.373 297.29 223.382 297.253C223.393 297.205 224.566 292.543 228.198 292.864C230.522 293.064 232.131 293.774 232.98 294.976C233.776 296.098 233.916 297.655 233.399 299.602C233.382 299.665 233.344 299.721 233.292 299.76C233.24 299.8 233.177 299.823 233.111 299.822Z" fill="#3F3F3F"/>
<path fill-rule="evenodd" clip-rule="evenodd" d="M227.852 293.142C224.803 293.142 223.729 297.101 223.674 297.313C223.729 297.096 224.87 292.924 228.11 293.151C228.024 293.145 227.938 293.142 227.852 293.142ZM233.111 300.117C233.021 300.118 232.931 300.098 232.85 300.058C232.768 300.018 232.697 299.96 232.641 299.888C232.586 299.817 232.548 299.733 232.53 299.644C232.512 299.556 232.515 299.464 232.538 299.376C232.986 297.693 232.889 296.384 232.252 295.484C231.56 294.506 230.17 293.922 228.121 293.743C225.264 293.497 224.257 297.422 224.248 297.462C224.2 297.603 224.101 297.72 223.971 297.792C223.841 297.863 223.688 297.883 223.544 297.848C223.4 297.814 223.274 297.726 223.191 297.603C223.108 297.48 223.073 297.33 223.095 297.183C223.106 297.134 224.319 292.226 228.225 292.569C230.638 292.776 232.321 293.53 233.223 294.805C234.071 296.003 234.226 297.642 233.685 299.678C233.651 299.805 233.576 299.916 233.473 299.995C233.369 300.075 233.242 300.118 233.111 300.117ZM210.042 293.437C209.986 293.438 209.931 293.422 209.884 293.393C209.837 293.363 209.799 293.32 209.774 293.27C209.75 293.22 209.741 293.163 209.747 293.108C209.754 293.052 209.776 293 209.811 292.956C212.574 289.558 212.608 287.538 212.679 283.515C212.71 281.711 212.752 279.463 213.062 276.54C214.038 267.312 217.577 234.962 217.613 234.636C217.617 234.597 217.629 234.56 217.648 234.526C217.667 234.492 217.692 234.462 217.723 234.438C217.753 234.413 217.788 234.395 217.826 234.385C217.863 234.374 217.902 234.371 217.941 234.376C218.103 234.394 218.219 234.54 218.203 234.7C218.167 235.026 214.63 267.376 213.65 276.6C213.344 279.5 213.304 281.732 213.273 283.526C213.202 287.551 213.164 289.771 210.274 293.326C210.246 293.36 210.21 293.388 210.17 293.407C210.13 293.426 210.087 293.437 210.042 293.437Z" fill="#3F3F3F"/>
<path fill-rule="evenodd" clip-rule="evenodd" d="M210.043 293.732C209.931 293.734 209.821 293.703 209.726 293.644C209.631 293.585 209.555 293.5 209.506 293.4C209.458 293.299 209.439 293.186 209.452 293.075C209.465 292.964 209.509 292.859 209.58 292.773C212.279 289.451 212.312 287.466 212.385 283.512C212.416 281.7 212.454 279.447 212.767 276.509C213.751 267.232 217.284 234.926 217.318 234.603C217.327 234.526 217.351 234.451 217.388 234.383C217.426 234.315 217.477 234.254 217.538 234.206C217.599 234.157 217.668 234.121 217.743 234.1C217.818 234.078 217.897 234.072 217.974 234.081C218.296 234.117 218.533 234.408 218.498 234.733C218.462 235.044 214.925 267.4 213.945 276.631C213.641 279.514 213.601 281.74 213.57 283.528C213.497 287.624 213.459 289.877 210.505 293.512C210.449 293.581 210.379 293.636 210.299 293.674C210.219 293.711 210.131 293.733 210.043 293.732ZM224.206 296.202C224.155 296.202 224.105 296.189 224.06 296.164C224.016 296.139 223.978 296.103 223.952 296.06C223.926 296.016 223.911 295.966 223.909 295.915C223.908 295.864 223.92 295.814 223.944 295.768C224.173 295.339 224.647 291.984 223.922 289.629C223.093 286.939 220.74 266.212 220.183 246.512C220.182 246.473 220.189 246.434 220.203 246.398C220.217 246.362 220.238 246.328 220.265 246.3C220.292 246.272 220.324 246.249 220.36 246.233C220.395 246.218 220.434 246.209 220.473 246.208C220.631 246.208 220.773 246.332 220.777 246.496C221.36 267.15 223.782 287.158 224.488 289.456C225.253 291.933 224.793 295.437 224.468 296.045C224.443 296.093 224.405 296.132 224.359 296.16C224.313 296.187 224.26 296.202 224.206 296.202Z" fill="#3F3F3F"/>
<path fill-rule="evenodd" clip-rule="evenodd" d="M221.9 270.63C222.745 280.419 223.718 287.899 224.195 289.511C223.774 288.077 222.774 280.66 221.9 270.63ZM224.206 296.497C224.103 296.498 224.002 296.472 223.913 296.423C223.824 296.373 223.749 296.301 223.696 296.213C223.643 296.126 223.614 296.026 223.611 295.923C223.609 295.821 223.633 295.72 223.681 295.63C223.874 295.266 224.337 291.988 223.637 289.715C222.805 287.014 220.443 266.243 219.886 246.519C219.881 246.362 219.94 246.209 220.048 246.095C220.156 245.98 220.306 245.914 220.463 245.909C220.621 245.905 220.773 245.963 220.888 246.072C221.002 246.18 221.069 246.329 221.073 246.487C221.656 267.119 224.069 287.081 224.772 289.369C225.572 291.962 225.078 295.528 224.73 296.182C224.68 296.277 224.604 296.357 224.511 296.413C224.418 296.468 224.314 296.497 224.206 296.497ZM228.128 290.456C228.05 290.455 227.972 290.423 227.917 290.367C227.862 290.311 227.831 290.236 227.832 290.157C227.832 290.126 227.852 287.094 226.187 282.486C224.909 278.953 224.694 268.967 224.523 260.941C224.462 258.168 224.406 255.547 224.313 253.598C224.311 253.559 224.317 253.521 224.33 253.484C224.343 253.447 224.363 253.414 224.39 253.385C224.416 253.356 224.448 253.333 224.483 253.316C224.518 253.3 224.556 253.29 224.595 253.289C224.634 253.287 224.673 253.293 224.709 253.306C224.746 253.319 224.78 253.339 224.808 253.365C224.837 253.391 224.86 253.422 224.877 253.457C224.894 253.492 224.903 253.53 224.905 253.569C225 255.525 225.056 258.151 225.116 260.931C225.287 268.911 225.499 278.846 226.746 282.288C228.451 287.005 228.427 290.039 228.425 290.164C228.424 290.242 228.393 290.317 228.337 290.371C228.281 290.426 228.206 290.456 228.128 290.456Z" fill="#3F3F3F"/>
<path fill-rule="evenodd" clip-rule="evenodd" d="M226.465 282.386C228.139 287.016 228.13 290.033 228.128 290.159C228.128 290.033 228.15 287.045 226.465 282.386ZM228.128 290.751C228.05 290.751 227.969 290.735 227.898 290.704C227.826 290.674 227.761 290.63 227.706 290.575C227.651 290.519 227.608 290.453 227.578 290.381C227.549 290.309 227.534 290.232 227.534 290.154C227.534 290.125 227.542 287.107 225.906 282.587C224.613 279.008 224.398 268.995 224.225 260.949C224.185 258.503 224.115 256.057 224.016 253.613C224.008 253.456 224.063 253.302 224.169 253.185C224.275 253.069 224.422 252.999 224.58 252.991C224.737 252.983 224.891 253.038 225.007 253.144C225.124 253.25 225.194 253.398 225.201 253.555C225.296 255.509 225.353 258.126 225.411 260.898C225.582 268.884 225.795 278.791 227.024 282.188C228.746 286.948 228.724 290.041 228.722 290.17C228.719 290.325 228.654 290.473 228.544 290.582C228.433 290.69 228.283 290.751 228.128 290.751ZM181.962 229.336C181.897 229.336 181.834 229.315 181.783 229.275C181.731 229.236 181.694 229.181 181.677 229.118C180.613 225.153 173.833 222.381 173.765 222.354C173.729 222.34 173.696 222.318 173.669 222.291C173.641 222.264 173.619 222.231 173.604 222.196C173.588 222.16 173.58 222.122 173.58 222.083C173.58 222.044 173.587 222.006 173.601 221.97C173.631 221.897 173.689 221.839 173.761 221.809C173.833 221.778 173.914 221.777 173.987 221.806C174.279 221.924 181.11 224.72 182.25 228.965C182.262 229.009 182.264 229.055 182.255 229.1C182.246 229.144 182.226 229.186 182.199 229.222C182.171 229.258 182.135 229.287 182.094 229.307C182.053 229.327 182.008 229.337 181.962 229.336Z" fill="#3F3F3F"/>
<path fill-rule="evenodd" clip-rule="evenodd" d="M173.875 222.081C173.893 222.088 175.645 222.802 177.51 224.011C179.313 225.182 180.595 226.39 181.342 227.619C179.339 224.315 174.126 222.181 173.875 222.081ZM181.963 229.631C181.833 229.632 181.706 229.589 181.602 229.51C181.498 229.431 181.424 229.32 181.389 229.194C180.369 225.388 173.72 222.656 173.653 222.627C173.581 222.598 173.515 222.556 173.459 222.501C173.404 222.447 173.359 222.382 173.329 222.311C173.298 222.24 173.282 222.163 173.282 222.085C173.281 222.007 173.296 221.93 173.325 221.858C173.386 221.713 173.501 221.598 173.646 221.538C173.79 221.477 173.953 221.476 174.099 221.534C174.396 221.653 181.36 224.503 182.537 228.888C182.561 228.976 182.564 229.068 182.546 229.157C182.528 229.247 182.49 229.331 182.435 229.403C182.379 229.475 182.308 229.533 182.226 229.572C182.144 229.612 182.054 229.632 181.963 229.631ZM179.473 366.081C179.423 366.082 179.374 366.069 179.33 366.045C179.286 366.021 179.249 365.987 179.222 365.945C179.201 365.912 179.187 365.875 179.18 365.837C179.173 365.799 179.174 365.76 179.182 365.722C179.191 365.684 179.207 365.648 179.229 365.616C179.252 365.584 179.28 365.557 179.313 365.537C179.53 365.398 184.649 362.138 187.093 361.108C188.286 360.605 189.162 360.496 189.701 360.78C190.071 360.976 190.138 361.29 190.146 361.324C190.158 361.4 190.141 361.478 190.098 361.541C190.054 361.604 189.988 361.648 189.913 361.664C189.838 361.679 189.76 361.665 189.695 361.624C189.63 361.583 189.583 361.519 189.565 361.445C189.559 361.43 189.528 361.35 189.397 361.29C189.182 361.188 188.627 361.102 187.326 361.65C184.928 362.661 179.686 366.001 179.634 366.034C179.586 366.065 179.53 366.081 179.473 366.081Z" fill="#3F3F3F"/>
<path fill-rule="evenodd" clip-rule="evenodd" d="M189.848 361.352L189.574 361.477L189.855 361.379C189.853 361.37 189.851 361.361 189.848 361.352ZM187.211 361.379C184.785 362.402 179.689 365.648 179.474 365.786C179.551 365.737 184.774 362.406 187.211 361.379ZM179.474 366.376C179.346 366.378 179.221 366.337 179.118 366.261C179.015 366.185 178.94 366.077 178.904 365.955C178.867 365.832 178.872 365.701 178.917 365.581C178.962 365.461 179.045 365.359 179.154 365.291C179.37 365.151 184.508 361.878 186.979 360.836C188.274 360.29 189.212 360.186 189.84 360.521C190.323 360.776 190.423 361.19 190.438 361.268C190.468 361.417 190.44 361.571 190.359 361.7C190.279 361.829 190.152 361.922 190.005 361.96C189.858 361.998 189.703 361.979 189.57 361.906C189.437 361.832 189.337 361.711 189.29 361.567L189.272 361.556C189.196 361.519 188.749 361.37 187.442 361.922C185.083 362.916 179.847 366.249 179.793 366.282C179.698 366.343 179.587 366.376 179.474 366.376ZM229.708 308.225C229.69 308.226 229.672 308.224 229.654 308.222C229.532 308.198 226.667 307.602 227.086 302.106C227.357 298.557 229.696 297.462 231.621 297.604C232.795 297.691 233.615 298.216 233.567 298.852C233.565 298.891 233.555 298.929 233.538 298.964C233.52 298.999 233.496 299.03 233.467 299.055C233.437 299.081 233.403 299.1 233.366 299.112C233.329 299.124 233.289 299.128 233.251 299.125C233.212 299.122 233.174 299.112 233.139 299.095C233.104 299.077 233.072 299.053 233.047 299.024C233.021 298.994 233.002 298.96 232.99 298.923C232.977 298.886 232.973 298.847 232.976 298.808C232.988 298.629 232.467 298.26 231.577 298.192C230.978 298.15 227.985 298.132 227.679 302.152C227.302 307.083 229.665 307.621 229.765 307.643C229.835 307.658 229.897 307.699 229.939 307.757C229.981 307.816 230.001 307.887 229.994 307.959C229.987 308.03 229.954 308.097 229.901 308.146C229.849 308.195 229.78 308.223 229.708 308.225Z" fill="#3F3F3F"/>
<path fill-rule="evenodd" clip-rule="evenodd" d="M231.241 297.887C230.358 297.887 229.647 298.145 229.088 298.564C230.077 297.872 231.192 297.874 231.572 297.898C231.462 297.89 231.351 297.887 231.241 297.887ZM231.696 297.909C232.603 298 233.302 298.402 233.271 298.83C233.302 298.395 232.618 298 231.696 297.909ZM227.362 302.429C227.096 307.137 229.354 307.847 229.675 307.923C229.361 307.845 227.099 307.104 227.362 302.429ZM229.707 308.521C229.672 308.521 229.637 308.518 229.602 308.512C229.465 308.486 226.349 307.838 226.79 302.085C227.078 298.315 229.584 297.155 231.642 297.311C233.009 297.411 233.923 298.054 233.863 298.874C233.858 298.952 233.838 299.028 233.803 299.098C233.768 299.168 233.719 299.23 233.66 299.281C233.6 299.332 233.531 299.371 233.457 299.395C233.382 299.418 233.304 299.427 233.226 299.42C233.081 299.41 232.946 299.346 232.844 299.242C232.743 299.138 232.684 299 232.678 298.856C232.585 298.757 232.208 298.537 231.552 298.488C230.786 298.433 228.25 298.533 227.974 302.174C227.784 304.64 228.307 305.92 228.779 306.559C229.274 307.233 229.802 307.348 229.824 307.353C230.143 307.419 230.352 307.728 230.288 308.045C230.261 308.18 230.189 308.3 230.083 308.387C229.977 308.474 229.844 308.521 229.707 308.521ZM226.231 293.856C226.185 293.857 226.14 293.846 226.099 293.826C226.058 293.806 226.023 293.777 225.995 293.741C225.967 293.705 225.948 293.662 225.94 293.618C225.931 293.573 225.933 293.527 225.945 293.483C226.369 291.937 227.686 290.64 227.742 290.585C227.799 290.531 227.874 290.501 227.953 290.502C228.031 290.502 228.106 290.534 228.161 290.589C228.189 290.617 228.21 290.649 228.225 290.685C228.239 290.721 228.247 290.76 228.246 290.798C228.246 290.837 228.238 290.876 228.223 290.911C228.208 290.947 228.185 290.979 228.158 291.006C228.145 291.019 226.901 292.248 226.518 293.64C226.501 293.702 226.463 293.757 226.411 293.797C226.359 293.836 226.296 293.857 226.231 293.856Z" fill="#3F3F3F"/>
<path fill-rule="evenodd" clip-rule="evenodd" d="M227.949 290.797C227.938 290.807 226.71 292.017 226.268 293.437C226.701 292.046 227.896 290.849 227.949 290.797ZM226.231 294.151C226.14 294.152 226.05 294.131 225.968 294.091C225.886 294.051 225.815 293.992 225.759 293.92C225.704 293.848 225.666 293.764 225.648 293.674C225.63 293.585 225.634 293.492 225.658 293.405C226.106 291.778 227.477 290.431 227.533 290.374C227.646 290.265 227.797 290.204 227.955 290.205C228.112 290.207 228.262 290.27 228.373 290.381C228.427 290.436 228.47 290.502 228.5 290.574C228.529 290.645 228.543 290.722 228.543 290.8C228.542 290.877 228.526 290.954 228.496 291.025C228.465 291.097 228.421 291.161 228.366 291.215C228.318 291.265 227.16 292.425 226.805 293.718C226.77 293.843 226.695 293.953 226.591 294.031C226.487 294.11 226.361 294.152 226.231 294.151Z" fill="#3F3F3F"/>
<path fill-rule="evenodd" clip-rule="evenodd" d="M372.887 498.27H376.422V213.545H372.887V498.27ZM9.15527e-05 498.27H3.53469V446.367H9.15527e-05V498.27Z" fill="#FFDBCF"/>
<path fill-rule="evenodd" clip-rule="evenodd" d="M3.9242 500V179.095C3.9242 82.3997 86.5959 3.73183 188.213 3.73183C289.83 3.73183 372.498 82.3997 372.498 179.095V215.163H376.422V179.095C376.422 80.3426 291.991 0 188.213 0C84.4333 0 0 80.3426 0 179.095L0 500H3.9242Z" fill="#FFDBCF"/>
</svg>
