<svg viewBox="0 0 377 500" fill="none" xmlns="http://www.w3.org/2000/svg">
<path fill-rule="evenodd" clip-rule="evenodd" d="M183.437 287.245C180.705 287.245 177.554 285.619 173.697 282.291L173.271 281.923C167.82 277.219 165.082 274.857 162.598 270.209C161.684 268.499 160.97 266.598 160.214 264.586C158.85 260.954 157.441 257.199 154.614 253.735C150.242 248.373 149.466 246.92 150.398 242.28C150.406 242.241 150.421 242.205 150.443 242.173C150.465 242.141 150.493 242.113 150.525 242.092C150.558 242.071 150.594 242.056 150.632 242.049C150.671 242.042 150.71 242.042 150.748 242.05C150.825 242.065 150.892 242.11 150.936 242.175C150.98 242.24 150.996 242.319 150.981 242.396C150.129 246.632 150.588 247.861 155.075 253.363C157.962 256.902 159.455 260.874 160.772 264.382C161.518 266.374 162.227 268.257 163.121 269.933C165.554 274.484 168.264 276.82 173.66 281.477L174.087 281.845C179.769 286.748 183.803 287.837 187.172 285.371L187.656 285.019C190.401 283.045 192.992 281.18 190.042 274.018C188.398 270.02 185.933 266.875 183.324 263.546C181.135 260.748 178.869 257.856 177.139 254.42C173.791 247.765 174.964 239.216 180.277 231.551C184.861 224.936 184.946 219.786 183.427 211.414C182.025 203.67 174.933 194.688 164.199 181.091C163.165 179.781 162.096 178.428 160.994 177.026C148.369 160.977 114.424 111.73 114.08 111.235C114.058 111.203 114.043 111.167 114.035 111.129C114.028 111.091 114.027 111.051 114.035 111.013C114.042 110.975 114.057 110.939 114.079 110.907C114.1 110.874 114.128 110.847 114.16 110.825C114.225 110.781 114.304 110.765 114.381 110.779C114.458 110.793 114.527 110.837 114.571 110.902C114.914 111.397 148.848 160.63 161.46 176.663C162.564 178.066 163.633 179.417 164.665 180.725C175.454 194.393 182.582 203.421 184.012 211.31C185.56 219.844 185.469 225.102 180.767 231.886C175.576 239.371 174.42 247.694 177.671 254.156C179.373 257.541 181.621 260.408 183.792 263.181C186.31 266.398 188.915 269.721 190.592 273.794C193.717 281.388 190.812 283.477 188.006 285.498L187.525 285.844C186.254 286.775 184.906 287.245 183.437 287.245Z" fill="#3F3F3F"/>
<path fill-rule="evenodd" clip-rule="evenodd" d="M163.658 179.929L164.384 180.848L164.432 180.909C166.467 183.477 168.489 186.055 170.498 188.643C168.637 186.236 166.608 183.666 164.432 180.909C164.173 180.581 163.916 180.257 163.658 179.929ZM150.689 242.34C150.263 244.454 150.124 245.827 150.736 247.455C150.166 245.894 150.257 244.483 150.689 242.34ZM154.614 253.265C154.69 253.36 154.767 253.455 154.845 253.549L154.614 253.265ZM190.427 274.185C193.11 280.905 190.819 283.073 188.308 284.912C190.919 283.003 193.119 280.922 190.427 274.185ZM181.056 286.553C183.452 287.31 185.448 286.994 187.346 285.606C185.483 286.968 183.438 287.298 181.056 286.553ZM183.434 287.538C180.629 287.538 177.475 285.941 173.499 282.512L173.075 282.144C167.593 277.416 164.843 275.041 162.334 270.344C161.41 268.619 160.695 266.709 159.933 264.687C158.578 261.078 157.178 257.346 154.382 253.919C149.935 248.468 149.146 246.984 150.104 242.221C150.119 242.145 150.149 242.072 150.193 242.007C150.236 241.942 150.292 241.886 150.357 241.843C150.422 241.8 150.495 241.771 150.572 241.756C150.648 241.742 150.727 241.742 150.804 241.759C151.124 241.822 151.332 242.134 151.27 242.452C150.432 246.61 150.847 247.712 155.304 253.176C158.221 256.752 159.722 260.75 161.046 264.276C161.793 266.261 162.496 268.133 163.383 269.792C165.788 274.294 168.482 276.62 173.851 281.251L174.279 281.621C179.835 286.416 183.756 287.5 186.994 285.13C187.142 285.021 187.291 284.916 187.441 284.808L187.479 284.779C190.242 282.794 192.626 281.076 189.765 274.127C188.135 270.167 185.685 267.039 183.088 263.724C180.888 260.916 178.613 258.013 176.87 254.549C173.474 247.796 174.656 239.136 180.03 231.381C184.556 224.852 184.638 219.757 183.134 211.465C181.742 203.792 174.669 194.832 163.962 181.269L163.916 181.211C162.896 179.921 161.844 178.588 160.756 177.204C148.196 161.236 114.179 111.9 113.837 111.404C113.793 111.34 113.762 111.268 113.746 111.192C113.73 111.117 113.729 111.038 113.744 110.962C113.758 110.886 113.788 110.813 113.83 110.749C113.873 110.684 113.927 110.628 113.992 110.585C114.122 110.497 114.281 110.463 114.435 110.492C114.59 110.52 114.727 110.609 114.817 110.738C115.157 111.233 149.119 160.495 161.694 176.483C162.796 177.885 163.865 179.238 164.9 180.544C175.716 194.247 182.86 203.298 184.305 211.259C185.865 219.875 185.771 225.186 181.008 232.055C175.883 239.449 174.734 247.663 177.936 254.024C179.624 257.384 181.862 260.24 184.026 263.003C186.557 266.234 189.174 269.574 190.866 273.684C194.081 281.492 190.945 283.748 188.178 285.739L187.699 286.085C186.359 287.066 184.966 287.542 183.438 287.542" fill="#3F3F3F"/>
<path fill-rule="evenodd" clip-rule="evenodd" d="M156.923 298.098C156.893 298.098 156.864 298.093 156.835 298.085C154.397 297.347 153.157 293.286 151.723 288.584C151.024 286.289 150.301 283.914 149.374 281.689C147.698 277.655 147.884 274.192 148.048 271.138C148.163 268.989 148.272 266.957 147.731 264.984C146.513 260.55 145.305 255.252 146.389 248.499C147.354 242.473 147.573 223.742 147.573 217.655C147.573 213.721 152.519 205.14 157.558 200.332C162.423 195.688 168.491 186.394 168.551 186.301C168.594 186.235 168.662 186.189 168.739 186.173C168.816 186.156 168.897 186.171 168.963 186.214C168.996 186.235 169.024 186.262 169.046 186.294C169.068 186.326 169.084 186.362 169.092 186.4C169.1 186.437 169.1 186.477 169.093 186.515C169.086 186.553 169.072 186.589 169.05 186.622C168.99 186.715 162.884 196.067 157.968 200.756C153.022 205.478 148.167 213.847 148.167 217.655C148.167 223.754 147.948 242.527 146.975 248.592C145.91 255.228 147.048 260.253 148.305 264.83C148.87 266.893 148.76 268.971 148.642 271.169C148.472 274.307 148.299 277.553 149.924 281.463C150.86 283.716 151.589 286.103 152.292 288.412C153.676 292.953 154.872 296.874 157.008 297.518C157.078 297.538 157.137 297.582 157.177 297.642C157.216 297.702 157.232 297.775 157.221 297.846C157.211 297.917 157.174 297.982 157.12 298.028C157.065 298.074 156.995 298.099 156.923 298.098Z" fill="#3F3F3F"/>
<path fill-rule="evenodd" clip-rule="evenodd" d="M149.567 281.377L149.651 281.577C149.623 281.511 149.594 281.444 149.567 281.377ZM156.923 298.392C156.864 298.392 156.806 298.384 156.75 298.367C154.158 297.584 152.898 293.452 151.439 288.669C150.741 286.378 150.018 284.012 149.101 281.801C147.4 277.705 147.585 274.207 147.753 271.122C147.866 268.996 147.971 266.989 147.443 265.063C146.219 260.597 145.003 255.263 146.096 248.453C147.059 242.445 147.276 223.736 147.276 217.657C147.276 213.657 152.266 204.97 157.352 200.119C162.191 195.502 168.243 186.234 168.303 186.141C168.48 185.868 168.85 185.789 169.123 185.964C169.189 186.006 169.246 186.06 169.29 186.124C169.335 186.188 169.366 186.26 169.383 186.336C169.399 186.412 169.4 186.491 169.386 186.567C169.372 186.644 169.342 186.717 169.299 186.782C169.238 186.875 163.096 196.274 158.174 200.969C153.273 205.646 148.463 213.91 148.463 217.655C148.463 223.76 148.245 242.554 147.268 248.637C146.212 255.217 147.341 260.205 148.591 264.753C149.168 266.862 149.057 268.962 148.937 271.184C148.771 274.291 148.6 277.503 150.199 281.35C151.14 283.615 151.871 286.01 152.575 288.325C153.936 292.787 155.111 296.637 157.096 297.238C157.231 297.279 157.347 297.367 157.423 297.487C157.499 297.607 157.529 297.75 157.508 297.89C157.487 298.03 157.416 298.158 157.309 298.25C157.201 298.342 157.064 298.393 156.923 298.392Z" fill="#3F3F3F"/>
<path fill-rule="evenodd" clip-rule="evenodd" d="M169.292 372.437C169.241 372.437 169.188 372.437 169.139 372.432C167.737 372.319 166.786 370.618 165.932 368.884C164.156 365.285 166.582 359.747 168.186 356.766C168.6 355.997 169.141 355.023 169.713 353.992C170.711 352.194 171.741 350.337 172.164 349.452C172.446 348.858 172.789 348.093 173.22 347.124C173.796 345.836 174.584 344.072 175.65 341.784C177.515 337.781 179.86 330.201 180.632 327.708C181.252 325.71 181.938 322.893 182.199 321.798C174.564 323.419 170.403 317.573 169.345 315.819L169.101 316.308C167.835 318.861 164.471 325.645 159.161 327.774C156.766 328.734 155.039 328.921 153.883 328.349C152.739 327.783 152.418 326.601 152.185 325.74C152.136 325.557 152.091 325.384 152.04 325.233C151.664 324.117 152.182 322.021 152.837 319.369C153.103 318.287 153.378 317.171 153.613 316.034C154.061 313.867 154.598 309.933 155.119 306.131C155.513 303.253 155.884 300.538 156.185 298.833C156.88 294.876 161.484 282.195 162.734 279.295C163.881 276.636 163.688 272.047 163.686 271.999C163.684 271.961 163.69 271.922 163.704 271.885C163.717 271.849 163.738 271.815 163.764 271.786C163.791 271.758 163.822 271.735 163.858 271.718C163.893 271.702 163.931 271.693 163.97 271.692C164.009 271.69 164.048 271.695 164.085 271.709C164.121 271.722 164.155 271.742 164.184 271.768C164.213 271.795 164.236 271.826 164.252 271.862C164.269 271.897 164.278 271.935 164.28 271.974C164.289 272.167 164.48 276.746 163.278 279.528C162.073 282.328 157.445 295.098 156.769 298.933C156.471 300.627 156.099 303.341 155.708 306.211C155.185 310.023 154.646 313.965 154.196 316.153C153.959 317.3 153.681 318.422 153.413 319.507C152.806 321.968 152.284 324.091 152.602 325.047C152.657 325.208 152.706 325.392 152.759 325.587C152.974 326.382 153.243 327.371 154.149 327.821C155.13 328.307 156.742 328.107 158.938 327.227C164.038 325.182 167.33 318.546 168.569 316.045C168.806 315.572 168.975 315.226 169.09 315.049C169.118 315.005 169.158 314.969 169.204 314.946C169.251 314.922 169.303 314.911 169.356 314.914C169.408 314.917 169.459 314.934 169.503 314.962C169.546 314.991 169.582 315.031 169.605 315.078C169.771 315.415 173.77 323.292 182.527 321.117C182.575 321.105 182.627 321.106 182.675 321.119C182.724 321.133 182.768 321.158 182.804 321.193C182.84 321.228 182.867 321.272 182.881 321.32C182.896 321.368 182.898 321.42 182.887 321.469C182.878 321.509 181.986 325.344 181.199 327.883C180.425 330.384 178.07 337.993 176.189 342.032C175.365 343.802 174.556 345.579 173.763 347.363C173.329 348.335 172.985 349.104 172.699 349.705C172.27 350.606 171.235 352.473 170.233 354.276C169.662 355.307 169.122 356.279 168.711 357.044C167.159 359.925 164.806 365.261 166.465 368.623C167.416 370.554 168.203 371.765 169.186 371.843C170.221 371.934 171.616 370.714 173.451 368.141C177.567 362.368 178.551 361.231 178.589 361.184C178.63 361.138 178.683 361.106 178.742 361.092C178.802 361.077 178.864 361.082 178.921 361.104C178.977 361.125 179.026 361.164 179.06 361.215C179.094 361.265 179.111 361.325 179.11 361.386C179.11 361.441 179.006 366.808 181.896 367.208C184.739 367.604 187.597 364.007 190.121 360.834L190.578 360.26C192.419 357.957 195.865 353.824 198.251 352.047C199.198 351.34 200.691 349.672 202.421 347.74C204.257 345.687 206.341 343.36 208.419 341.446C212.423 337.756 213.345 336.39 214.219 332.839C214.472 331.815 214.607 331.079 214.716 330.487C214.989 328.999 215.073 328.551 216.33 327.586C218.273 326.093 219.262 324.599 219.444 322.884C219.449 322.836 219.466 322.789 219.494 322.749C219.521 322.709 219.558 322.677 219.601 322.654C219.652 322.627 224.755 319.926 225.658 319.316C225.829 319.2 226.011 319.112 226.204 319.019C227.104 318.591 228.222 318.056 228.858 313.982C229.076 312.592 229.229 311.398 229.366 310.345C229.723 307.564 229.96 305.726 230.914 303.863C231.209 303.291 231.488 302.676 231.783 302.024C232.759 299.875 233.863 297.434 235.917 295.801C237.024 294.921 236.82 293.852 236.598 293.293C236.079 291.982 234.358 290.667 232.637 290.794C229.699 291.013 228.193 291.089 228.177 291.089C228.13 291.092 228.083 291.084 228.04 291.065C227.997 291.046 227.959 291.017 227.93 290.981C227.9 290.944 227.88 290.901 227.871 290.855C227.861 290.809 227.863 290.761 227.876 290.716C227.922 290.548 229.024 286.578 229.617 285.107C230.169 283.735 230.247 278.55 229.577 274.917C228.889 271.193 227.865 246.887 227.865 237.029C227.865 227.223 227.716 224.24 227.139 222.517C226.764 221.399 224.829 215.517 223.569 209.454C223.323 208.273 223.221 207.066 223.267 205.861C223.303 203.606 223.318 202.672 217.042 197.625L214.352 195.052C214.332 195.033 214.315 195.012 214.301 194.988C213.977 194.433 181.953 139.217 176.074 112.32C176.066 112.282 176.065 112.243 176.072 112.204C176.079 112.166 176.093 112.13 176.115 112.097C176.136 112.064 176.163 112.036 176.195 112.014C176.227 111.992 176.264 111.977 176.302 111.969C176.378 111.952 176.459 111.966 176.525 112.008C176.591 112.051 176.638 112.118 176.655 112.194C182.452 138.717 213.817 192.97 214.791 194.655L217.432 197.183C223.915 202.391 223.897 203.482 223.859 205.87C223.844 206.729 223.828 207.798 224.146 209.332C225.403 215.362 227.326 221.217 227.7 222.33C228.308 224.144 228.457 227.029 228.457 237.027C228.457 246.616 229.492 271.196 230.158 274.81C230.807 278.317 230.812 283.721 230.167 285.322C229.694 286.498 228.858 289.414 228.557 290.476C229.188 290.439 230.539 290.357 232.591 290.204C234.429 290.068 236.469 291.355 237.15 293.076C237.627 294.284 237.314 295.444 236.287 296.26C234.345 297.804 233.271 300.175 232.322 302.266C232.025 302.922 231.743 303.545 231.442 304.129C230.533 305.901 230.302 307.699 229.952 310.418C229.816 311.474 229.661 312.674 229.442 314.071C228.76 318.453 227.43 319.087 226.461 319.549C226.288 319.633 226.124 319.711 225.989 319.802C225.134 320.38 220.856 322.654 220.016 323.101C219.774 324.922 218.714 326.499 216.69 328.052C215.616 328.877 215.561 329.172 215.299 330.591C215.193 331.159 215.051 331.937 214.795 332.977C213.884 336.674 212.935 338.085 208.821 341.875C206.763 343.769 204.691 346.088 202.862 348.131C201.112 350.085 199.6 351.774 198.606 352.517C196.901 353.786 194.144 356.742 191.041 360.626L190.585 361.198C187.963 364.495 184.994 368.237 181.813 367.791C179.146 367.421 178.629 363.857 178.534 362.2C177.892 363.029 176.538 364.828 173.934 368.481C171.991 371.204 170.55 372.437 169.292 372.437Z" fill="#3F3F3F"/>
<path fill-rule="evenodd" clip-rule="evenodd" d="M223.563 205.867C223.55 206.741 223.532 207.828 223.858 209.394C223.617 208.236 223.518 207.05 223.563 205.867ZM227.484 222.625C228.021 224.416 228.161 227.552 228.161 237.029C228.161 246.749 229.156 270.521 229.842 274.71C229.172 270.592 228.161 246.5 228.161 237.029C228.161 227.437 228.026 224.425 227.484 222.625ZM163.984 271.987C163.984 272.033 164.166 276.44 163.104 279.176C164.17 276.44 163.991 272.173 163.984 271.987ZM230.358 280.682C230.361 282.725 230.19 284.477 229.893 285.215C229.401 286.442 228.538 289.46 228.254 290.469L228.272 290.398C228.604 289.232 229.422 286.388 229.893 285.215C230.212 284.424 230.367 282.671 230.358 280.682ZM233.284 290.516C234.88 290.702 236.349 291.919 236.856 293.141C236.287 291.762 234.783 290.689 233.284 290.516ZM236.89 293.223C237.091 293.756 237.377 295.02 236.102 296.033C237.023 295.301 237.305 294.303 236.89 293.223ZM162.88 279.709C161.509 283.006 157.331 294.559 156.524 298.628C157.32 294.629 161.534 282.947 162.88 279.709ZM230.653 305.219C230.137 306.667 229.933 308.242 229.658 310.38C229.658 310.386 229.657 310.392 229.656 310.398C229.933 308.246 230.135 306.67 230.653 305.219ZM169.331 315.223L169.462 315.441C169.42 315.364 169.379 315.287 169.34 315.208L169.331 315.223ZM153.151 319.331L153.124 319.439C153.079 319.623 153.033 319.805 152.991 319.985C153.044 319.767 153.098 319.55 153.151 319.331ZM182.598 321.404C182.417 321.449 182.234 321.49 182.05 321.528L182.138 321.51L182.597 321.413L182.598 321.404ZM225.825 319.561C224.896 320.189 219.791 322.89 219.74 322.915C219.572 324.502 218.757 325.9 217.19 327.268C218.709 325.942 219.52 324.591 219.722 323.065L219.74 322.915L219.877 322.843C220.722 322.395 224.981 320.129 225.825 319.561ZM152.552 325.951C152.778 326.751 153.108 327.634 154.016 328.084C155.091 328.618 156.737 328.425 159.048 327.499C164.257 325.412 167.583 318.703 168.836 316.177L168.854 316.141L168.952 315.938L168.841 316.164C167.584 318.703 164.255 325.412 159.048 327.499C156.77 328.412 155.078 328.61 154.016 328.084C153.11 327.634 152.769 326.718 152.552 325.951ZM216.336 327.955C215.484 328.638 215.307 329.02 215.112 329.989C215.304 329.042 215.486 328.636 216.336 327.955ZM182.493 321.845L182.489 321.865C182.221 322.981 181.535 325.795 180.916 327.794C181.544 325.767 182.234 322.932 182.493 321.845ZM170.591 353.016L169.972 354.133L169.947 354.182L169.601 354.803L169.965 354.149L169.979 354.12L170.591 353.016ZM198.334 352.353C195.979 354.149 192.619 358.181 190.812 360.443C193.873 356.611 196.605 353.674 198.334 352.353ZM178.787 361.408L178.832 362.184C178.835 361.915 178.829 361.646 178.814 361.378L178.787 361.408ZM178.437 361.844C178.391 361.903 178.346 361.962 178.3 362.02L178.437 361.844ZM181.915 367.508C184.773 367.859 187.538 364.55 190.003 361.456C187.536 364.552 184.767 367.848 181.915 367.508ZM169.103 372.13L169.162 372.135L169.194 372.137C169.164 372.137 169.133 372.134 169.103 372.13ZM169.291 372.731C169.233 372.731 169.173 372.731 169.114 372.724C167.559 372.6 166.557 370.822 165.665 369.012C163.831 365.297 166.295 359.655 167.925 356.624C168.333 355.868 168.863 354.91 169.426 353.898L169.453 353.847C170.447 352.057 171.475 350.204 171.893 349.325C172.172 348.742 172.507 347.995 172.93 347.048L172.948 347.003C173.525 345.715 174.312 343.952 175.381 341.658C177.239 337.671 179.579 330.107 180.349 327.621C180.892 325.866 181.489 323.471 181.804 322.176C181.032 322.313 180.295 322.375 179.595 322.375C173.973 322.375 170.64 318.339 169.375 316.421L169.367 316.437C168.087 319.018 164.687 325.875 159.271 328.046C156.794 329.038 154.987 329.224 153.752 328.612C152.487 327.986 152.132 326.68 151.898 325.815C151.849 325.629 151.806 325.469 151.758 325.325C151.358 324.128 151.882 321.996 152.549 319.297C152.814 318.22 153.088 317.108 153.323 315.973C153.767 313.817 154.304 309.896 154.823 306.104C155.218 303.212 155.59 300.495 155.892 298.781C156.592 294.805 161.208 282.084 162.461 279.179C163.578 276.591 163.392 272.058 163.39 272.011C163.384 271.854 163.44 271.701 163.546 271.586C163.652 271.471 163.8 271.402 163.957 271.395C164.032 271.391 164.108 271.401 164.18 271.426C164.251 271.451 164.317 271.49 164.374 271.541C164.434 271.594 164.482 271.658 164.517 271.73C164.552 271.802 164.572 271.88 164.576 271.96C164.585 272.155 164.778 276.801 163.552 279.644C162.35 282.434 157.734 295.166 157.062 298.985C156.763 300.673 156.393 303.381 156.002 306.248C155.479 310.065 154.94 314.013 154.486 316.21C154.248 317.363 153.971 318.486 153.703 319.574C153.13 321.892 152.592 324.079 152.884 324.952C152.938 325.119 152.993 325.307 153.046 325.509C153.257 326.287 153.496 327.166 154.281 327.556C155.171 327.997 156.743 327.787 158.826 326.951C163.824 324.948 167.076 318.386 168.302 315.915C168.546 315.425 168.717 315.079 168.839 314.889C168.896 314.8 168.975 314.728 169.07 314.68C169.164 314.632 169.269 314.61 169.375 314.616C169.48 314.622 169.581 314.656 169.668 314.715C169.756 314.773 169.826 314.853 169.872 314.948C170.034 315.276 173.926 322.948 182.455 320.83C182.553 320.805 182.656 320.806 182.754 320.832C182.851 320.858 182.941 320.909 183.014 320.98C183.086 321.051 183.139 321.139 183.168 321.236C183.197 321.333 183.2 321.436 183.178 321.535C183.141 321.693 182.263 325.447 181.484 327.968C180.708 330.472 178.35 338.093 176.457 342.155C175.635 343.923 174.827 345.699 174.035 347.482C173.6 348.454 173.256 349.225 172.968 349.829C172.534 350.738 171.5 352.603 170.5 354.406L170.223 354.291L170.484 354.435C169.916 355.457 169.38 356.422 168.972 357.181C167.448 360.013 165.129 365.249 166.732 368.493C167.612 370.278 168.371 371.48 169.209 371.547C170.116 371.627 171.46 370.422 173.208 367.968C177.239 362.319 178.26 361.11 178.364 360.993C178.444 360.901 178.55 360.836 178.669 360.807C178.787 360.777 178.912 360.785 179.025 360.829C179.139 360.872 179.237 360.95 179.305 361.051C179.373 361.152 179.408 361.272 179.406 361.394C179.406 361.443 179.318 366.552 181.937 366.914C184.611 367.285 187.414 363.763 189.885 360.654L190.346 360.077C192.196 357.761 195.66 353.606 198.073 351.809C198.995 351.122 200.477 349.465 202.196 347.545C204.043 345.482 206.13 343.149 208.217 341.226C212.166 337.589 213.074 336.245 213.93 332.768C214.18 331.757 214.315 331.027 214.422 330.441C214.699 328.942 214.803 328.386 216.149 327.352C218.024 325.913 218.977 324.482 219.15 322.854C219.16 322.757 219.193 322.665 219.247 322.584C219.301 322.504 219.374 322.438 219.46 322.393C219.512 322.365 224.601 319.672 225.491 319.071C225.681 318.943 225.883 318.845 226.076 318.752C226.914 318.353 227.952 317.856 228.566 313.937C228.751 312.733 228.919 311.526 229.07 310.316C229.434 307.494 229.671 305.636 230.651 303.727C230.942 303.161 231.219 302.549 231.512 301.902C232.501 299.721 233.621 297.247 235.732 295.57C236.643 294.845 236.555 293.989 236.322 293.399C235.852 292.214 234.235 290.973 232.66 291.086C229.955 291.288 228.471 291.369 228.198 291.383C228.103 291.39 228.009 291.374 227.922 291.336C227.836 291.299 227.759 291.241 227.699 291.168C227.64 291.095 227.599 291.008 227.579 290.916C227.56 290.823 227.564 290.727 227.589 290.636C227.637 290.467 228.746 286.477 229.343 284.994C229.868 283.687 229.937 278.493 229.285 274.969C228.595 271.233 227.568 246.895 227.568 237.028C227.568 227.26 227.422 224.297 226.857 222.609C226.482 221.491 224.544 215.599 223.277 209.513C222.938 207.883 222.954 206.759 222.969 205.856C223.005 203.701 223.018 202.809 216.855 197.853L214.145 195.264C214.105 195.226 214.071 195.182 214.043 195.134C213.721 194.581 181.681 139.358 175.785 112.381C175.769 112.305 175.767 112.226 175.781 112.15C175.795 112.073 175.824 112 175.867 111.935C175.909 111.87 175.964 111.814 176.028 111.77C176.092 111.726 176.164 111.695 176.241 111.68C176.394 111.647 176.554 111.676 176.686 111.761C176.818 111.845 176.911 111.978 176.945 112.131C179.317 122.986 186.527 140.44 197.796 162.608C203.277 173.37 209.023 183.995 215.03 194.473L217.64 196.972C224.215 202.255 224.196 203.39 224.156 205.878C224.144 206.723 224.127 207.772 224.439 209.276C225.692 215.29 227.611 221.128 227.983 222.238C228.604 224.09 228.755 226.993 228.755 237.029C228.755 246.609 229.788 271.155 230.452 274.757C231.108 278.307 231.104 283.794 230.445 285.433C230.03 286.466 229.334 288.846 228.959 290.159C229.691 290.116 230.906 290.037 232.57 289.912C234.523 289.766 236.703 291.139 237.428 292.971C237.956 294.306 237.61 295.59 236.473 296.493C234.586 297.992 233.528 300.329 232.594 302.389C232.295 303.05 232.011 303.673 231.709 304.265C230.824 305.993 230.594 307.769 230.248 310.457C230.11 311.528 229.957 312.724 229.738 314.117C229.028 318.652 227.62 319.326 226.591 319.818C226.442 319.885 226.297 319.962 226.158 320.049C225.329 320.608 221.379 322.715 220.288 323.294C219.999 325.134 218.911 326.724 216.875 328.288C215.888 329.046 215.848 329.259 215.593 330.646C215.488 331.217 215.344 331.996 215.083 333.05C214.156 336.817 213.193 338.255 209.024 342.095C206.977 343.98 204.908 346.291 203.085 348.329C201.324 350.295 199.803 351.995 198.787 352.754C197.101 354.011 194.363 356.947 191.276 360.811L190.819 361.385C188.14 364.754 185.117 368.557 181.773 368.087C179.26 367.737 178.521 364.825 178.306 362.989C176.904 364.858 175.527 366.746 174.177 368.653C172.165 371.474 170.659 372.731 169.291 372.731Z" fill="#3F3F3F"/>
<path fill-rule="evenodd" clip-rule="evenodd" d="M191.266 151.052C191.213 151.052 191.162 151.038 191.117 151.012C191.072 150.985 191.034 150.947 191.008 150.902C190.982 150.856 190.969 150.805 190.969 150.753C190.97 150.7 190.984 150.649 191.011 150.604L214.306 112.104C214.347 112.037 214.413 111.989 214.489 111.97C214.565 111.951 214.646 111.963 214.714 112.004C214.747 112.024 214.776 112.05 214.799 112.081C214.822 112.113 214.839 112.148 214.848 112.186C214.857 112.224 214.859 112.263 214.853 112.301C214.847 112.34 214.834 112.376 214.814 112.41L191.519 150.91C191.492 150.953 191.455 150.989 191.411 151.014C191.366 151.039 191.316 151.052 191.266 151.052Z" fill="#3F3F3F"/>
<path fill-rule="evenodd" clip-rule="evenodd" d="M191.265 151.347C191.133 151.347 191.005 151.303 190.901 151.222C190.796 151.14 190.722 151.027 190.69 150.899C190.671 150.824 190.667 150.746 190.679 150.669C190.69 150.592 190.717 150.519 190.757 150.453L214.05 111.952C214.133 111.819 214.264 111.724 214.417 111.686C214.569 111.649 214.73 111.674 214.864 111.754C214.931 111.794 214.989 111.846 215.035 111.908C215.081 111.97 215.115 112.041 215.133 112.116C215.152 112.191 215.156 112.269 215.144 112.346C215.133 112.423 215.107 112.496 215.067 112.563L191.773 151.063C191.72 151.15 191.646 151.222 191.557 151.272C191.468 151.322 191.367 151.347 191.265 151.347ZM214.558 195.136C214.502 195.136 214.447 195.121 214.4 195.091C214.352 195.061 214.314 195.018 214.29 194.968C214.266 194.917 214.257 194.86 214.264 194.805C214.271 194.749 214.293 194.697 214.329 194.653C214.602 194.322 241.774 161.418 252.738 150.547C263.684 139.697 287.507 111.167 287.749 110.882C287.799 110.821 287.872 110.783 287.95 110.775C288.029 110.768 288.107 110.792 288.168 110.841C288.292 110.945 288.31 111.133 288.204 111.257C287.967 111.544 264.124 140.095 253.161 150.964C242.215 161.815 215.061 194.697 214.788 195.027C214.76 195.06 214.726 195.088 214.686 195.107C214.647 195.126 214.602 195.135 214.558 195.136Z" fill="#3F3F3F"/>
<path fill-rule="evenodd" clip-rule="evenodd" d="M252.346 151.362C241.163 162.648 215.659 193.508 214.559 194.841C214.827 194.515 241.054 162.76 252.346 151.362ZM214.559 195.431C214.447 195.432 214.336 195.402 214.241 195.342C214.145 195.283 214.069 195.197 214.021 195.095C213.972 194.994 213.954 194.881 213.968 194.769C213.982 194.657 214.028 194.552 214.1 194.466C215.22 193.109 241.673 161.101 252.53 150.338C263.371 139.591 286.539 111.867 287.518 110.69C287.62 110.57 287.764 110.495 287.921 110.481C288.077 110.466 288.233 110.514 288.354 110.614C288.608 110.823 288.642 111.197 288.433 111.446C288.194 111.732 264.386 140.252 253.369 151.174C242.462 161.986 215.291 194.883 215.018 195.214C214.963 195.282 214.892 195.337 214.813 195.374C214.734 195.412 214.647 195.431 214.559 195.431ZM173.713 277.95L178.17 283.22C179.468 284.756 181.386 285.555 183.302 285.357C186.088 285.071 188.084 282.942 189.239 279.03C189.386 278.523 189.406 277.988 189.296 277.472C189.187 276.956 188.951 276.475 188.611 276.072L182.94 269.266C181.956 269.164 175.281 268.805 173.713 277.95ZM182.725 285.976C180.831 285.976 178.995 285.114 177.715 283.599L173.169 278.227C173.141 278.194 173.121 278.156 173.11 278.115C173.099 278.074 173.096 278.032 173.103 277.99C174.812 267.594 183.053 268.685 183.136 268.696C183.209 268.707 183.275 268.744 183.322 268.8L189.066 275.697C189.886 276.68 190.164 277.992 189.807 279.195C188.962 282.058 187.157 285.551 183.36 285.943C183.149 285.965 182.937 285.976 182.725 285.976Z" fill="#3F3F3F"/>
<path fill-rule="evenodd" clip-rule="evenodd" d="M173.465 277.649C173.446 277.744 173.428 277.84 173.414 277.937L173.419 277.9L173.465 277.649ZM174.029 277.866L178.396 283.031C179.631 284.491 181.454 285.253 183.27 285.063C185.923 284.79 187.836 282.732 188.954 278.946C189.087 278.486 189.104 278 189.004 277.532C188.904 277.063 188.689 276.627 188.38 276.261L182.789 269.548C181.336 269.426 175.526 269.486 174.029 277.866ZM182.725 286.272C180.731 286.272 178.821 285.367 177.488 283.79L172.942 278.416C172.887 278.351 172.847 278.275 172.825 278.193C172.802 278.112 172.797 278.026 172.811 277.942C174.555 267.328 183.091 268.394 183.177 268.405C183.323 268.425 183.456 268.499 183.55 268.612L189.294 275.507C190.18 276.569 190.478 277.979 190.094 279.279C189.222 282.229 187.353 285.828 183.392 286.236C183.171 286.259 182.948 286.272 182.725 286.272Z" fill="#3F3F3F"/>
<path fill-rule="evenodd" clip-rule="evenodd" d="M169.34 315.503C169.322 315.503 169.307 315.503 169.289 315.499C169.212 315.486 169.144 315.442 169.099 315.379C169.053 315.315 169.036 315.236 169.049 315.159C169.056 315.106 169.965 309.963 171.741 306.04C172.281 304.849 173.05 303.188 173.864 301.43C175.722 297.418 178.035 292.426 178.86 290.321C179.654 288.294 179.459 286.114 179.457 286.09C179.45 286.013 179.474 285.935 179.524 285.875C179.574 285.815 179.645 285.777 179.723 285.77C179.762 285.765 179.801 285.769 179.839 285.78C179.876 285.791 179.911 285.809 179.941 285.834C179.972 285.859 179.997 285.889 180.015 285.924C180.033 285.959 180.044 285.997 180.047 286.036C180.056 286.13 180.256 288.38 179.413 290.534C178.579 292.658 176.263 297.659 174.403 301.676C173.589 303.434 172.821 305.093 172.283 306.282C170.537 310.138 169.643 315.208 169.633 315.259C169.621 315.327 169.585 315.389 169.532 315.434C169.479 315.478 169.41 315.503 169.34 315.503Z" fill="#3F3F3F"/>
<path fill-rule="evenodd" clip-rule="evenodd" d="M179.752 286.063C179.759 286.154 179.939 288.207 179.213 290.223C179.941 288.197 179.759 286.152 179.752 286.063ZM178.537 291.869C177.468 294.353 175.65 298.276 174.135 301.549C173.421 303.084 172.714 304.621 172.012 306.162C172.556 304.96 173.359 303.228 174.133 301.554C175.648 298.28 177.466 294.355 178.537 291.869ZM169.34 315.8C169.253 315.8 169.168 315.782 169.089 315.745C169.011 315.709 168.941 315.656 168.886 315.59C168.83 315.524 168.789 315.447 168.767 315.363C168.744 315.28 168.74 315.193 168.755 315.108C168.764 315.055 169.688 309.855 171.469 305.92C172.015 304.714 172.78 303.06 173.594 301.306C175.452 297.296 177.759 292.31 178.582 290.212C179.346 288.267 179.162 286.14 179.16 286.118C179.153 286.04 179.161 285.963 179.184 285.888C179.207 285.814 179.245 285.746 179.295 285.686C179.344 285.627 179.405 285.577 179.474 285.541C179.543 285.506 179.618 285.483 179.695 285.477C179.841 285.458 179.996 285.5 180.121 285.599C180.184 285.649 180.235 285.711 180.273 285.781C180.311 285.852 180.334 285.929 180.342 286.008C180.351 286.105 180.56 288.421 179.688 290.642C178.852 292.774 176.535 297.781 174.672 301.8C173.898 303.474 173.097 305.204 172.552 306.402C170.819 310.234 169.934 315.259 169.924 315.308C169.901 315.446 169.83 315.571 169.723 315.661C169.616 315.751 169.479 315.8 169.34 315.8ZM158.589 327.973C158.525 327.974 158.463 327.955 158.411 327.918C158.359 327.881 158.32 327.828 158.301 327.766C158.282 327.705 158.284 327.64 158.306 327.58C158.327 327.52 158.368 327.468 158.422 327.433C160.802 325.829 162.414 319.136 162.414 317.273C162.414 315.616 161.904 315.053 159.533 314.104C156.205 312.775 154.67 313.949 154.654 313.962C154.592 314.011 154.514 314.034 154.436 314.026C154.358 314.018 154.286 313.979 154.237 313.918C154.212 313.889 154.194 313.855 154.182 313.818C154.171 313.781 154.167 313.742 154.171 313.704C154.175 313.666 154.186 313.629 154.204 313.595C154.222 313.561 154.247 313.531 154.277 313.507C154.35 313.447 156.071 312.083 159.755 313.558C162.155 314.519 163.008 315.224 163.008 317.273C163.008 319.274 161.337 326.18 158.755 327.922C158.706 327.955 158.648 327.972 158.589 327.973Z" fill="#3F3F3F"/>
<path fill-rule="evenodd" clip-rule="evenodd" d="M156.628 313.179C157.411 313.179 158.415 313.339 159.644 313.831C160.895 314.334 161.651 314.76 162.099 315.252C161.626 314.711 160.842 314.312 159.644 313.831C156.118 312.42 154.483 313.72 154.468 313.733C154.477 313.724 155.182 313.179 156.628 313.179ZM158.588 328.27C158.491 328.27 158.395 328.246 158.31 328.2C158.224 328.155 158.151 328.089 158.096 328.009C158.052 327.945 158.021 327.873 158.005 327.797C157.989 327.721 157.988 327.642 158.003 327.566C158.018 327.489 158.048 327.417 158.092 327.352C158.135 327.287 158.191 327.232 158.256 327.19C160.515 325.667 162.117 319.042 162.117 317.273C162.117 315.824 161.8 315.332 159.422 314.378C156.306 313.132 154.851 314.184 154.836 314.195C154.713 314.291 154.558 314.335 154.403 314.318C154.248 314.301 154.106 314.225 154.007 314.104C153.91 313.984 153.863 313.83 153.878 313.675C153.893 313.521 153.968 313.379 154.088 313.279C154.164 313.216 156.011 311.74 159.866 313.285C162.29 314.255 163.305 315.024 163.305 317.273C163.305 318.286 162.902 320.506 162.132 322.79C161.491 324.687 160.414 327.161 158.923 328.166C158.825 328.233 158.707 328.269 158.588 328.27ZM159.746 277.606C159.653 277.606 159.562 277.564 159.504 277.485C159.481 277.455 159.465 277.42 159.455 277.382C159.446 277.345 159.444 277.306 159.45 277.269C159.456 277.231 159.469 277.194 159.489 277.162C159.509 277.129 159.535 277.1 159.566 277.077C159.866 276.859 162.205 275.843 163.824 276.491C163.896 276.52 163.954 276.577 163.985 276.648C164.015 276.72 164.016 276.801 163.988 276.873C163.958 276.946 163.901 277.004 163.829 277.034C163.757 277.065 163.676 277.066 163.603 277.037C162.268 276.506 160.176 277.373 159.917 277.553C159.867 277.588 159.807 277.605 159.746 277.606Z" fill="#3F3F3F"/>
<path fill-rule="evenodd" clip-rule="evenodd" d="M162.591 276.653C161.336 276.653 160.019 277.292 159.76 277.485C160.099 277.236 162.268 276.216 163.712 276.873C163.358 276.721 162.976 276.645 162.591 276.653ZM159.746 278.168C159.649 278.166 159.553 278.14 159.469 278.092C159.385 278.043 159.314 277.974 159.263 277.891C159.172 277.746 159.135 277.572 159.158 277.402C159.181 277.232 159.264 277.075 159.391 276.959C159.755 276.653 162.195 275.458 163.935 276.249C164.239 276.387 164.386 276.78 164.264 277.123C164.142 277.469 163.796 277.633 163.492 277.498C162.286 276.948 160.318 277.862 160.088 278.044C159.992 278.124 159.871 278.167 159.746 278.168ZM174.558 307.588C174.495 307.589 174.434 307.571 174.383 307.535C174.332 307.5 174.294 307.449 174.274 307.39C174.253 307.332 174.252 307.268 174.271 307.208C174.289 307.149 174.326 307.097 174.376 307.06C174.438 306.982 174.499 306.903 174.558 306.823C178.475 301.572 183.713 299.516 187.461 298.719C188.619 296.841 188.35 292.891 188.044 290.064C187.685 286.777 185.505 286.923 185.41 286.93C185.372 286.934 185.333 286.93 185.296 286.918C185.258 286.907 185.224 286.888 185.194 286.863C185.164 286.838 185.14 286.808 185.122 286.774C185.103 286.739 185.092 286.702 185.089 286.663C185.085 286.625 185.089 286.586 185.101 286.549C185.112 286.511 185.131 286.477 185.156 286.447C185.18 286.417 185.211 286.393 185.245 286.375C185.279 286.356 185.317 286.345 185.356 286.342C185.385 286.34 188.211 286.118 188.634 290.002C188.983 293.222 189.216 297.172 187.892 299.145C187.849 299.21 187.782 299.256 187.705 299.272C184.05 300.028 178.885 302.015 175.033 307.176C174.825 307.453 174.778 307.519 174.678 307.562C174.64 307.579 174.599 307.588 174.558 307.588Z" fill="#3F3F3F"/>
<path fill-rule="evenodd" clip-rule="evenodd" d="M188.367 290.297C188.662 293.109 188.882 296.91 187.744 298.826C188.871 296.935 188.685 293.331 188.367 290.297ZM174.728 307.09C174.751 307.06 174.774 307.03 174.797 306.999L174.728 307.09ZM174.558 307.883C174.444 307.882 174.331 307.849 174.235 307.786C174.139 307.724 174.062 307.634 174.016 307.529C173.965 307.415 173.952 307.287 173.979 307.164C174.006 307.041 174.072 306.931 174.167 306.848C174.201 306.806 174.258 306.726 174.316 306.65C178.259 301.368 183.513 299.279 187.272 298.458C188.31 296.609 188.044 292.812 187.748 290.097C187.42 287.088 185.518 287.219 185.436 287.223C185.281 287.234 185.128 287.185 185.008 287.085C184.889 286.986 184.812 286.844 184.795 286.689C184.782 286.534 184.83 286.379 184.93 286.259C185.03 286.139 185.173 286.063 185.329 286.048C185.331 286.048 186.398 285.941 187.4 286.729C188.254 287.401 188.767 288.491 188.93 289.971C189.285 293.24 189.516 297.256 188.139 299.31C188.052 299.439 187.918 299.529 187.766 299.56C184.162 300.307 179.068 302.264 175.272 307.351C175.045 307.655 174.97 307.757 174.799 307.832C174.723 307.865 174.641 307.883 174.558 307.883Z" fill="#3F3F3F"/>
<path fill-rule="evenodd" clip-rule="evenodd" d="M182.599 321.699C182.533 321.701 182.469 321.681 182.417 321.642C182.364 321.604 182.326 321.549 182.308 321.486C182.29 321.424 182.293 321.357 182.318 321.296C182.342 321.236 182.386 321.185 182.442 321.152C182.489 321.125 187.192 318.257 193.768 315.623L194.671 315.262C199.499 313.334 199.499 313.334 201.486 310.648C201.787 310.24 202.135 309.773 202.546 309.227C205.844 304.891 209.56 294.475 210.712 290.829C211.095 289.62 210.678 288.383 209.596 287.52C207.199 285.61 203.51 286.56 201.076 287.954C194.921 291.479 191.289 299.032 191.253 299.108C191.223 299.172 191.172 299.222 191.108 299.251C191.044 299.28 190.972 299.286 190.905 299.267C189.872 298.975 188.778 298.973 187.743 299.261C187.707 299.274 187.668 299.28 187.629 299.278C187.59 299.276 187.551 299.266 187.516 299.249C187.481 299.232 187.45 299.208 187.424 299.179C187.398 299.15 187.378 299.116 187.365 299.079C187.339 299.005 187.344 298.924 187.378 298.854C187.412 298.784 187.473 298.73 187.547 298.704C187.609 298.682 189.017 298.205 190.825 298.637C191.484 297.346 195.068 290.715 200.781 287.442C203.375 285.956 207.338 284.965 209.968 287.059C211.248 288.081 211.738 289.556 211.279 291.006C210.117 294.681 206.369 305.179 203.022 309.584C202.61 310.125 202.264 310.591 201.965 310.997C199.896 313.793 199.831 313.838 194.892 315.809L193.99 316.171C187.459 318.787 182.801 321.626 182.753 321.655C182.707 321.683 182.653 321.699 182.599 321.699Z" fill="#3F3F3F"/>
<path fill-rule="evenodd" clip-rule="evenodd" d="M206.245 286.153C204.89 286.153 203.489 286.517 202.253 287.041C204.001 286.298 206.077 285.881 207.889 286.355C207.352 286.218 206.799 286.149 206.245 286.153ZM190.783 298.93L190.983 298.983L191.072 298.806L190.985 298.977L190.783 298.93ZM189.289 298.752C188.33 298.752 187.684 298.97 187.646 298.982C187.658 298.977 188.987 298.522 190.692 298.91C190.232 298.805 189.761 298.752 189.289 298.752ZM201.608 310.981C199.703 313.554 199.544 313.635 194.782 315.536C199.594 313.614 199.687 313.578 201.608 310.981ZM182.598 321.994C182.47 321.994 182.345 321.952 182.242 321.875C182.139 321.797 182.065 321.688 182.03 321.565C181.995 321.441 182.001 321.309 182.048 321.189C182.095 321.07 182.179 320.968 182.289 320.901C182.332 320.874 187.078 317.985 193.657 315.35L194.56 314.988C199.31 313.094 199.31 313.094 201.245 310.475C201.551 310.061 201.897 309.593 202.309 309.051C205.582 304.745 209.281 294.375 210.43 290.742C210.776 289.653 210.393 288.535 209.41 287.752C207.132 285.934 203.577 286.861 201.225 288.209C195.157 291.685 191.557 299.16 191.522 299.234C191.462 299.362 191.359 299.463 191.231 299.521C191.103 299.58 190.958 299.59 190.823 299.551C189.847 299.277 188.815 299.274 187.838 299.54C187.69 299.592 187.528 299.583 187.387 299.515C187.246 299.447 187.137 299.326 187.086 299.178C187.034 299.03 187.043 298.868 187.111 298.727C187.179 298.586 187.3 298.477 187.448 298.426C187.599 298.373 188.923 297.945 190.666 298.298C191.551 296.61 195.103 290.354 200.632 287.187C203.309 285.654 207.407 284.641 210.153 286.83C211.532 287.93 212.06 289.525 211.563 291.095C210.397 294.783 206.631 305.324 203.258 309.763C202.85 310.296 202.509 310.757 202.213 311.159C200.105 314.008 199.972 314.099 195.002 316.084L194.101 316.445C187.687 319.013 183.101 321.79 182.91 321.906C182.816 321.964 182.707 321.994 182.598 321.994Z" fill="#3F3F3F"/>
<path fill-rule="evenodd" clip-rule="evenodd" d="M190.169 303.703C190.096 303.704 190.025 303.677 189.97 303.628C189.915 303.578 189.88 303.511 189.873 303.437C189.863 303.332 189.623 300.842 190.725 298.841C190.763 298.773 190.827 298.723 190.901 298.701C190.976 298.679 191.057 298.687 191.126 298.724C191.16 298.742 191.19 298.767 191.215 298.797C191.24 298.827 191.258 298.862 191.27 298.899C191.281 298.937 191.284 298.976 191.28 299.014C191.276 299.053 191.264 299.091 191.246 299.125C190.235 300.962 190.463 303.354 190.463 303.377C190.467 303.418 190.462 303.46 190.449 303.499C190.436 303.539 190.415 303.575 190.387 303.606C190.359 303.636 190.326 303.661 190.288 303.678C190.25 303.694 190.211 303.703 190.169 303.703Z" fill="#3F3F3F"/>
<path fill-rule="evenodd" clip-rule="evenodd" d="M191.103 298.984C190.083 300.696 190.17 302.791 190.21 303.297C190.174 302.794 190.097 300.674 191.103 298.984ZM190.219 303.998C189.888 303.998 189.613 303.769 189.58 303.466C189.567 303.357 189.302 300.776 190.54 298.698C190.631 298.558 190.77 298.457 190.931 298.414C191.092 298.37 191.264 298.388 191.412 298.463C191.722 298.62 191.839 298.981 191.667 299.265C190.627 301.013 190.857 303.326 190.859 303.35C190.895 303.672 190.637 303.962 190.283 303.994C190.262 303.997 190.241 303.998 190.219 303.998ZM187.775 299.055C187.698 299.056 187.623 299.026 187.568 298.972C185.85 297.298 183.588 297.646 183.567 297.649C183.528 297.656 183.489 297.654 183.451 297.646C183.414 297.637 183.378 297.621 183.346 297.598C183.315 297.576 183.288 297.547 183.268 297.514C183.247 297.481 183.233 297.445 183.227 297.406C183.221 297.368 183.222 297.329 183.231 297.291C183.239 297.253 183.256 297.218 183.278 297.186C183.301 297.155 183.329 297.128 183.362 297.107C183.395 297.087 183.432 297.073 183.47 297.067C183.574 297.048 186.054 296.67 187.983 298.551C188.025 298.592 188.055 298.644 188.067 298.702C188.079 298.759 188.073 298.819 188.051 298.874C188.028 298.928 187.99 298.975 187.941 299.007C187.892 299.039 187.834 299.056 187.775 299.055Z" fill="#3F3F3F"/>
<path fill-rule="evenodd" clip-rule="evenodd" d="M184.11 297.322C184.942 297.322 186.496 297.513 187.776 298.761C185.955 296.985 183.617 297.342 183.518 297.358C183.547 297.353 183.768 297.322 184.11 297.322ZM187.776 299.351C187.621 299.351 187.472 299.29 187.361 299.181C185.767 297.63 183.633 297.936 183.613 297.941C183.459 297.965 183.301 297.928 183.174 297.837C183.047 297.746 182.96 297.609 182.934 297.455C182.921 297.378 182.924 297.3 182.941 297.224C182.959 297.148 182.992 297.077 183.037 297.014C183.083 296.951 183.14 296.898 183.207 296.857C183.273 296.816 183.347 296.789 183.424 296.777C183.533 296.759 186.157 296.358 188.191 298.34C188.276 298.422 188.334 298.527 188.358 298.642C188.382 298.757 188.371 298.877 188.326 298.986C188.282 299.095 188.205 299.188 188.107 299.253C188.009 299.318 187.894 299.352 187.776 299.351ZM204.624 300.879C204.546 300.879 204.468 300.875 204.387 300.866C203.16 300.735 202.377 299.546 202.054 298.477C201.171 295.55 201.867 292.802 204.121 290.303C206.174 288.03 209.108 288.595 210.275 288.943C211.379 289.272 211.406 289.456 211.423 289.567C211.432 289.628 211.422 289.691 211.395 289.746C211.367 289.801 211.322 289.846 211.268 289.874C211.213 289.903 211.151 289.913 211.09 289.905C211.029 289.896 210.972 289.868 210.927 289.826C210.691 289.711 206.957 288.048 204.564 290.698C202.455 293.031 201.803 295.592 202.623 298.307C202.89 299.194 203.511 300.178 204.453 300.28C205.719 300.411 207.29 298.923 208.886 296.074C208.905 296.04 208.93 296.01 208.961 295.986C208.991 295.962 209.027 295.944 209.064 295.933C209.102 295.922 209.141 295.919 209.18 295.924C209.219 295.928 209.256 295.941 209.29 295.96C209.358 295.998 209.409 296.061 209.43 296.136C209.452 296.211 209.443 296.292 209.405 296.36C207.726 299.362 206.118 300.879 204.624 300.879Z" fill="#3F3F3F"/>
<path fill-rule="evenodd" clip-rule="evenodd" d="M208.557 288.928C209.735 289.019 210.686 289.396 210.971 289.521L210.979 289.514C210.724 289.396 210.461 289.299 210.19 289.225C209.658 289.066 209.11 288.967 208.557 288.928ZM210.971 289.521L211.059 289.562L211.081 289.571C211.048 289.55 211.014 289.531 210.979 289.514L210.971 289.521ZM204.426 300.574C205.85 300.726 207.44 299.259 209.139 296.231C207.464 299.214 205.839 300.718 204.426 300.574ZM204.625 301.175C204.535 301.175 204.446 301.169 204.357 301.159C202.984 301.011 202.12 299.72 201.771 298.562C200.855 295.53 201.572 292.685 203.902 290.106C206.067 287.709 209.139 288.296 210.36 288.66C211.441 288.982 211.671 289.212 211.718 289.523C211.736 289.641 211.718 289.761 211.667 289.868C211.616 289.976 211.533 290.065 211.431 290.125C211.328 290.184 211.209 290.212 211.091 290.203C210.972 290.195 210.859 290.151 210.766 290.077C210.407 289.913 206.99 288.452 204.785 290.895C202.751 293.146 202.12 295.612 202.909 298.223C203.148 299.019 203.688 299.899 204.486 299.986C205.606 300.103 207.118 298.624 208.628 295.93C208.705 295.794 208.833 295.694 208.984 295.651C209.135 295.609 209.297 295.627 209.434 295.703C209.502 295.74 209.562 295.791 209.61 295.851C209.658 295.912 209.694 295.981 209.716 296.056C209.737 296.13 209.743 296.208 209.734 296.285C209.726 296.362 209.702 296.436 209.664 296.504C207.93 299.604 206.235 301.175 204.625 301.175ZM178.815 361.674C178.76 361.675 178.706 361.661 178.659 361.633C178.612 361.605 178.574 361.564 178.549 361.516C178.524 361.467 178.512 361.413 178.517 361.358C178.521 361.304 178.54 361.252 178.572 361.208C178.665 361.08 187.864 348.17 191.403 343.5C191.814 342.957 192.186 342.473 192.525 342.03C195.142 338.623 195.763 337.812 197.455 332.378C199.361 326.257 207.052 300.756 207.131 300.498C207.154 300.423 207.206 300.36 207.275 300.323C207.344 300.286 207.425 300.278 207.5 300.301C207.537 300.312 207.572 300.33 207.602 300.354C207.633 300.379 207.658 300.409 207.676 300.443C207.695 300.477 207.707 300.514 207.711 300.553C207.715 300.591 207.711 300.63 207.701 300.667C207.622 300.924 199.93 326.428 198.021 332.555C196.298 338.087 195.599 338.998 192.996 342.389C192.659 342.83 192.286 343.313 191.876 343.855C188.343 348.518 179.15 361.419 179.057 361.55C179.029 361.588 178.993 361.62 178.951 361.641C178.909 361.663 178.862 361.674 178.815 361.674Z" fill="#3F3F3F"/>
<path fill-rule="evenodd" clip-rule="evenodd" d="M193.023 341.868L192.761 342.209L192.728 342.251L192.655 342.347L192.755 342.216L193.023 341.868ZM191.639 343.677C188.251 348.148 179.779 360.026 178.823 361.366L178.814 361.378C178.905 361.25 188.108 348.339 191.639 343.677ZM178.814 361.969C178.705 361.97 178.598 361.941 178.505 361.885C178.412 361.829 178.336 361.749 178.286 361.652C178.236 361.556 178.213 361.448 178.221 361.339C178.229 361.231 178.266 361.127 178.33 361.038C179.295 359.683 187.772 347.798 191.165 343.323C191.564 342.795 191.925 342.324 192.258 341.892L192.289 341.852C194.879 338.477 195.494 337.676 197.17 332.291C199.086 326.142 206.771 300.66 206.846 300.414C206.892 300.264 206.995 300.138 207.133 300.064C207.271 299.99 207.433 299.973 207.583 300.017C207.899 300.112 208.077 300.441 207.984 300.753L207.973 300.786C207.176 303.43 200.129 326.785 198.304 332.642C196.565 338.224 195.86 339.144 193.232 342.568C192.89 343.012 192.522 343.493 192.112 344.032C188.587 348.689 179.389 361.592 179.298 361.719C179.243 361.797 179.171 361.859 179.086 361.903C179.002 361.946 178.909 361.969 178.814 361.969ZM166.198 369.05C166.149 369.05 166.1 369.038 166.057 369.014C166.013 368.99 165.977 368.956 165.95 368.915C165.923 368.873 165.907 368.826 165.903 368.776C165.9 368.727 165.909 368.678 165.929 368.633C165.984 368.507 167.349 365.537 169.673 364.032C171.972 362.543 175.122 361.685 177.067 363.748C177.094 363.776 177.115 363.81 177.129 363.846C177.143 363.883 177.15 363.922 177.148 363.961C177.147 364 177.138 364.038 177.121 364.074C177.105 364.109 177.082 364.141 177.053 364.167C176.995 364.22 176.919 364.248 176.84 364.246C176.762 364.243 176.688 364.209 176.634 364.153C174.94 362.355 172.096 363.169 169.998 364.528C167.819 365.939 166.483 368.846 166.47 368.875C166.446 368.927 166.408 368.971 166.36 369.002C166.312 369.033 166.256 369.05 166.198 369.05Z" fill="#3F3F3F"/>
<path fill-rule="evenodd" clip-rule="evenodd" d="M174.097 362.819C172.665 362.819 171.115 363.449 169.835 364.28C167.584 365.737 166.255 368.631 166.199 368.753C166.211 368.724 167.564 365.75 169.835 364.28C172.033 362.854 175.031 362.022 176.849 363.952C176.089 363.144 175.122 362.819 174.097 362.819ZM166.198 369.345C166.099 369.345 166.002 369.321 165.915 369.274C165.828 369.227 165.754 369.159 165.701 369.076C165.647 368.993 165.615 368.898 165.607 368.8C165.599 368.701 165.617 368.603 165.657 368.512C165.716 368.383 167.116 365.338 169.511 363.785C171.911 362.229 175.213 361.35 177.282 363.548C177.335 363.604 177.377 363.671 177.404 363.743C177.432 363.816 177.444 363.893 177.442 363.971C177.439 364.048 177.421 364.124 177.389 364.195C177.357 364.266 177.311 364.329 177.255 364.382C177.139 364.488 176.987 364.545 176.83 364.54C176.673 364.535 176.525 364.468 176.417 364.355C174.849 362.69 172.155 363.48 170.159 364.774C168.058 366.136 166.754 368.968 166.739 368.997C166.691 369.1 166.615 369.188 166.519 369.249C166.423 369.31 166.312 369.345 166.198 369.345ZM195.214 339.075C195.148 339.075 195.083 339.053 195.031 339.013C194.979 338.972 194.942 338.916 194.926 338.852C194.91 338.788 194.915 338.72 194.942 338.66C194.969 338.6 195.015 338.55 195.073 338.519C197.459 337.259 198.767 337.091 199.818 337.102C199.981 337.104 200.113 337.237 200.113 337.401C200.111 337.563 199.978 337.692 199.816 337.692H199.743C198.778 337.692 197.565 337.871 195.354 339.04C195.311 339.063 195.262 339.075 195.214 339.075Z" fill="#3F3F3F"/>
<path fill-rule="evenodd" clip-rule="evenodd" d="M199.727 337.397C199.733 337.397 199.739 337.397 199.745 337.397H199.823H199.727ZM195.214 339.37C195.121 339.369 195.03 339.348 194.948 339.306C194.865 339.265 194.793 339.204 194.738 339.13C194.683 339.056 194.646 338.97 194.63 338.879C194.614 338.788 194.619 338.695 194.645 338.606C194.668 338.532 194.706 338.463 194.755 338.403C194.805 338.344 194.866 338.295 194.935 338.259C197.386 336.962 198.729 336.796 199.821 336.809C200.149 336.811 200.411 337.078 200.41 337.403C200.407 337.559 200.344 337.707 200.233 337.817C200.121 337.926 199.972 337.987 199.816 337.987H199.761C198.825 337.987 197.674 338.147 195.492 339.299C195.407 339.345 195.311 339.369 195.214 339.37ZM197.514 333.469C197.439 333.47 197.367 333.442 197.312 333.392C197.257 333.342 197.223 333.273 197.217 333.198C197.211 333.124 197.233 333.05 197.279 332.992C197.325 332.933 197.391 332.894 197.465 332.882C197.532 332.871 204.22 331.724 208.729 329.628C213.009 327.639 218.84 323.23 219.498 322.729C221.698 317.599 221.774 314.315 221.838 311.676C221.86 310.771 221.88 309.915 221.982 309.076C222.131 307.824 222.537 306.61 222.965 305.324C223.674 303.204 224.404 301.013 224.011 298.487C223.865 297.547 223.318 296.89 222.386 296.533C219.838 295.555 215.18 297.036 212.715 299.015C210.22 301.019 208.742 305.665 207.662 309.057C207.208 310.476 206.851 311.596 206.511 312.246C205.777 313.621 204.59 314.699 203.152 315.299C203.116 315.313 203.077 315.319 203.038 315.318C202.999 315.317 202.96 315.308 202.925 315.292C202.889 315.276 202.857 315.253 202.831 315.224C202.804 315.195 202.784 315.162 202.77 315.125C202.757 315.088 202.75 315.05 202.752 315.011C202.754 314.972 202.763 314.933 202.78 314.898C202.796 314.862 202.82 314.831 202.849 314.805C202.878 314.778 202.912 314.758 202.948 314.745C204.243 314.189 205.313 313.212 205.984 311.973C206.301 311.369 206.669 310.216 207.095 308.879C208.199 305.415 209.71 300.671 212.344 298.556C214.937 296.471 219.787 294.901 222.601 295.983C223.73 296.416 224.418 297.251 224.597 298.396C225.012 301.064 224.258 303.324 223.53 305.51C223.111 306.766 222.714 307.954 222.57 309.147C222.473 309.957 222.453 310.8 222.432 311.691C222.368 314.394 222.288 317.756 220.013 323.032C219.993 323.078 219.962 323.118 219.922 323.148C219.858 323.197 213.559 328.034 208.98 330.163C204.396 332.294 197.632 333.454 197.565 333.465C197.548 333.468 197.531 333.469 197.514 333.469Z" fill="#3F3F3F"/>
<path fill-rule="evenodd" clip-rule="evenodd" d="M220.434 295.921C217.839 295.921 214.624 297.156 212.643 298.697C215.167 296.737 219.782 295.295 222.399 296.223C221.765 296.012 221.102 295.91 220.434 295.921ZM207.239 309.402C206.892 310.493 206.584 311.427 206.303 311.999C206.582 311.429 206.881 310.525 207.239 309.402ZM206.161 312.268C205.448 313.496 204.357 314.462 203.052 315.022C204.364 314.472 205.457 313.504 206.161 312.268ZM197.516 333.764C197.371 333.759 197.234 333.701 197.129 333.601C197.024 333.502 196.959 333.367 196.947 333.223C196.934 333.079 196.975 332.935 197.062 332.819C197.148 332.703 197.274 332.622 197.416 332.593C197.689 332.546 204.183 331.416 208.604 329.36C212.741 327.437 218.363 323.219 219.256 322.542C221.405 317.504 221.479 314.27 221.541 311.669C221.563 310.758 221.583 309.895 221.687 309.041C221.84 307.757 222.252 306.53 222.685 305.231C223.381 303.144 224.1 300.988 223.718 298.531C223.587 297.693 223.117 297.129 222.279 296.808C220.254 296.03 215.814 296.906 212.903 299.245C210.478 301.194 209.013 305.79 207.944 309.147C207.487 310.582 207.127 311.711 206.773 312.383C206.003 313.82 204.761 314.947 203.256 315.576C203.109 315.629 202.946 315.623 202.803 315.557C202.66 315.492 202.549 315.373 202.493 315.226C202.467 315.153 202.455 315.075 202.458 314.998C202.461 314.92 202.48 314.844 202.513 314.774C202.546 314.703 202.592 314.64 202.649 314.588C202.707 314.535 202.774 314.495 202.847 314.468C202.865 314.463 204.715 313.749 205.721 311.837C206.027 311.256 206.391 310.116 206.811 308.795C207.926 305.291 209.452 300.498 212.157 298.327C214.816 296.192 219.802 294.59 222.707 295.708C223.94 296.182 224.696 297.096 224.892 298.351C225.317 301.09 224.552 303.384 223.811 305.603C223.397 306.845 223.006 308.018 222.865 309.181C222.771 309.979 222.751 310.813 222.729 311.698C222.665 314.426 222.583 317.821 220.287 323.148C220.247 323.241 220.184 323.322 220.104 323.383C220.042 323.43 213.714 328.288 209.108 330.431C204.491 332.576 197.682 333.746 197.614 333.757C197.581 333.762 197.55 333.764 197.516 333.764Z" fill="#3F3F3F"/>
<path fill-rule="evenodd" clip-rule="evenodd" d="M209.76 317.641C209.687 317.642 209.616 317.616 209.561 317.568C209.439 317.459 206.553 314.86 206.261 311.431C206.258 311.392 206.262 311.353 206.274 311.316C206.286 311.279 206.305 311.245 206.33 311.215C206.355 311.186 206.386 311.161 206.42 311.144C206.455 311.126 206.492 311.115 206.531 311.112C206.57 311.108 206.609 311.111 206.647 311.123C206.684 311.134 206.719 311.153 206.749 311.178C206.779 311.203 206.804 311.234 206.822 311.269C206.84 311.304 206.85 311.342 206.853 311.381C207.125 314.574 209.929 317.102 209.956 317.127C210.001 317.167 210.033 317.22 210.047 317.278C210.061 317.336 210.057 317.398 210.036 317.454C210.014 317.51 209.976 317.558 209.926 317.592C209.877 317.625 209.82 317.641 209.76 317.641Z" fill="#3F3F3F"/>
<path fill-rule="evenodd" clip-rule="evenodd" d="M206.556 311.405C206.838 314.716 209.637 317.24 209.759 317.348C209.637 317.238 206.834 314.676 206.556 311.405ZM209.759 317.938C209.614 317.938 209.473 317.885 209.364 317.788C209.237 317.675 206.266 314.998 205.964 311.456C205.957 311.378 205.966 311.3 205.99 311.226C206.014 311.152 206.052 311.084 206.103 311.024C206.153 310.965 206.215 310.916 206.284 310.881C206.353 310.846 206.429 310.825 206.507 310.819C206.584 310.811 206.663 310.818 206.737 310.841C206.812 310.864 206.881 310.901 206.941 310.952C207.001 311.002 207.05 311.063 207.085 311.133C207.121 311.202 207.142 311.278 207.148 311.356C207.406 314.397 210.043 316.809 210.156 316.91C210.214 316.962 210.262 317.024 210.296 317.094C210.329 317.163 210.349 317.239 210.353 317.316C210.358 317.393 210.346 317.471 210.32 317.544C210.294 317.617 210.254 317.684 210.202 317.741C210.146 317.803 210.078 317.852 210.001 317.886C209.925 317.92 209.843 317.938 209.759 317.938ZM219.862 310.97C219.423 310.97 219.026 310.871 218.672 310.673C216.847 309.649 216.771 306.287 216.74 304.852C216.738 304.708 216.734 304.563 216.727 304.419C216.642 302.902 217.177 301.53 220.066 299.764C223.078 297.921 224.464 298.695 224.522 298.728C224.556 298.747 224.585 298.773 224.608 298.804C224.632 298.835 224.649 298.87 224.658 298.908C224.668 298.946 224.67 298.985 224.665 299.023C224.659 299.062 224.646 299.099 224.626 299.132C224.586 299.199 224.522 299.248 224.447 299.268C224.371 299.288 224.291 299.278 224.223 299.239C224.194 299.221 223.018 298.651 220.377 300.267C217.445 302.06 217.257 303.286 217.319 304.386C217.326 304.499 217.33 304.652 217.334 304.84C217.363 306.175 217.432 309.301 218.964 310.157C219.705 310.575 220.745 310.405 222.056 309.655C222.124 309.616 222.205 309.606 222.281 309.627C222.356 309.647 222.421 309.696 222.46 309.764C222.499 309.832 222.509 309.912 222.488 309.987C222.468 310.062 222.418 310.126 222.351 310.165C221.415 310.702 220.583 310.97 219.862 310.97Z" fill="#3F3F3F"/>
<path fill-rule="evenodd" clip-rule="evenodd" d="M219.862 311.265C219.395 311.271 218.935 311.155 218.527 310.93C216.554 309.824 216.476 306.344 216.443 304.858C216.441 304.717 216.437 304.576 216.431 304.435C216.34 302.815 216.897 301.358 219.911 299.513C223.033 297.604 224.515 298.382 224.675 298.475C224.742 298.514 224.801 298.566 224.848 298.628C224.895 298.69 224.929 298.76 224.948 298.836C224.967 298.911 224.971 298.989 224.959 299.066C224.948 299.143 224.921 299.217 224.881 299.283C224.8 299.416 224.671 299.512 224.521 299.551C224.371 299.591 224.211 299.57 224.076 299.494C224.076 299.494 222.983 299.021 220.534 300.518C217.738 302.226 217.56 303.359 217.616 304.37C217.624 304.485 217.625 304.643 217.631 304.832C217.656 306.007 217.726 309.127 219.11 309.903C219.753 310.263 220.694 310.094 221.907 309.4C221.974 309.361 222.048 309.336 222.125 309.326C222.202 309.316 222.281 309.321 222.356 309.341C222.431 309.361 222.501 309.395 222.563 309.443C222.624 309.49 222.676 309.549 222.715 309.616C222.754 309.683 222.779 309.757 222.789 309.834C222.799 309.911 222.794 309.989 222.774 310.064C222.754 310.139 222.719 310.21 222.672 310.271C222.625 310.333 222.566 310.385 222.499 310.424C221.521 310.981 220.634 311.265 219.862 311.265ZM233.324 299.822C233.279 299.823 233.234 299.813 233.193 299.793C233.152 299.773 233.117 299.744 233.089 299.708C233.061 299.673 233.042 299.631 233.033 299.587C233.024 299.542 233.025 299.496 233.036 299.453C233.508 297.681 233.397 296.289 232.709 295.315C231.962 294.262 230.499 293.634 228.36 293.45C225.236 293.177 224.182 297.347 224.171 297.391C224.152 297.467 224.104 297.532 224.037 297.573C223.97 297.614 223.89 297.627 223.814 297.61C223.776 297.601 223.74 297.584 223.709 297.561C223.677 297.539 223.651 297.51 223.63 297.477C223.61 297.443 223.596 297.406 223.59 297.368C223.584 297.33 223.586 297.29 223.595 297.253C223.606 297.205 224.779 292.543 228.411 292.863C230.734 293.064 232.344 293.774 233.193 294.976C233.989 296.098 234.129 297.655 233.612 299.602C233.595 299.665 233.557 299.721 233.505 299.76C233.453 299.8 233.389 299.823 233.324 299.822Z" fill="#3F3F3F"/>
<path fill-rule="evenodd" clip-rule="evenodd" d="M228.065 293.142C225.016 293.142 223.941 297.101 223.887 297.313C223.941 297.096 225.083 292.924 228.323 293.151C228.237 293.145 228.151 293.142 228.065 293.142ZM233.324 300.117C233.234 300.118 233.144 300.097 233.063 300.058C232.981 300.018 232.91 299.96 232.854 299.888C232.799 299.817 232.761 299.733 232.743 299.644C232.725 299.555 232.727 299.464 232.751 299.376C233.199 297.693 233.102 296.384 232.465 295.484C231.773 294.506 230.383 293.922 228.334 293.743C225.477 293.497 224.47 297.422 224.46 297.462C224.412 297.602 224.314 297.72 224.184 297.791C224.053 297.863 223.901 297.883 223.757 297.848C223.613 297.813 223.487 297.726 223.403 297.603C223.32 297.48 223.286 297.33 223.308 297.183C223.319 297.134 224.531 292.226 228.438 292.568C230.851 292.776 232.534 293.53 233.435 294.805C234.284 296.003 234.439 297.642 233.898 299.678C233.864 299.804 233.789 299.916 233.686 299.995C233.582 300.074 233.455 300.117 233.324 300.117ZM210.255 293.437C210.199 293.437 210.144 293.422 210.097 293.392C210.049 293.363 210.011 293.32 209.987 293.27C209.963 293.22 209.953 293.163 209.96 293.108C209.966 293.052 209.989 293 210.024 292.956C212.787 289.558 212.821 287.538 212.892 283.515C212.923 281.71 212.965 279.463 213.275 276.54C214.251 267.312 217.789 234.962 217.826 234.636C217.83 234.597 217.842 234.56 217.861 234.526C217.88 234.492 217.905 234.462 217.936 234.437C217.966 234.413 218.001 234.395 218.038 234.385C218.076 234.374 218.115 234.371 218.154 234.375C218.316 234.394 218.432 234.539 218.416 234.7C218.379 235.026 214.843 267.376 213.863 276.6C213.557 279.499 213.517 281.732 213.486 283.526C213.415 287.551 213.377 289.771 210.486 293.326C210.458 293.36 210.423 293.388 210.383 293.407C210.343 293.426 210.299 293.437 210.255 293.437Z" fill="#3F3F3F"/>
<path fill-rule="evenodd" clip-rule="evenodd" d="M210.255 293.732C210.144 293.733 210.034 293.703 209.939 293.644C209.844 293.585 209.768 293.5 209.719 293.399C209.67 293.299 209.652 293.186 209.665 293.075C209.678 292.964 209.722 292.859 209.793 292.772C212.492 289.451 212.525 287.465 212.598 283.512C212.628 281.7 212.667 279.447 212.98 276.509C213.963 267.232 217.497 234.926 217.531 234.603C217.54 234.526 217.564 234.451 217.601 234.383C217.639 234.314 217.69 234.254 217.75 234.206C217.811 234.157 217.881 234.121 217.956 234.1C218.031 234.078 218.109 234.072 218.187 234.081C218.509 234.117 218.746 234.408 218.711 234.733C218.675 235.044 215.138 267.399 214.158 276.631C213.854 279.514 213.814 281.74 213.783 283.528C213.71 287.624 213.672 289.877 210.718 293.512C210.662 293.58 210.592 293.636 210.511 293.674C210.431 293.711 210.344 293.733 210.255 293.732ZM224.419 296.202C224.368 296.202 224.318 296.189 224.273 296.164C224.229 296.139 224.191 296.103 224.165 296.059C224.138 296.016 224.124 295.966 224.122 295.915C224.121 295.864 224.133 295.813 224.157 295.768C224.386 295.339 224.86 291.984 224.135 289.629C223.306 286.939 220.953 266.212 220.396 246.512C220.395 246.473 220.402 246.434 220.416 246.398C220.43 246.362 220.451 246.328 220.478 246.3C220.505 246.272 220.537 246.249 220.572 246.233C220.608 246.218 220.646 246.209 220.685 246.208C220.844 246.208 220.986 246.332 220.99 246.496C221.572 267.15 223.995 287.158 224.701 289.456C225.466 291.933 225.005 295.437 224.681 296.045C224.656 296.093 224.618 296.132 224.572 296.16C224.526 296.187 224.473 296.202 224.419 296.202Z" fill="#3F3F3F"/>
<path fill-rule="evenodd" clip-rule="evenodd" d="M222.113 270.63C222.958 280.419 223.93 287.899 224.408 289.511C223.987 288.077 222.987 280.659 222.113 270.63ZM224.418 296.497C224.316 296.498 224.215 296.472 224.126 296.422C224.037 296.373 223.962 296.301 223.909 296.213C223.856 296.125 223.827 296.026 223.824 295.923C223.821 295.821 223.845 295.72 223.894 295.63C224.087 295.266 224.55 291.987 223.85 289.715C223.018 287.014 220.656 266.243 220.099 246.519C220.094 246.362 220.153 246.209 220.261 246.095C220.369 245.98 220.518 245.913 220.676 245.909C220.833 245.905 220.986 245.963 221.1 246.071C221.215 246.18 221.282 246.329 221.286 246.486C221.869 267.119 224.282 287.081 224.985 289.368C225.784 291.962 225.291 295.528 224.943 296.182C224.892 296.277 224.817 296.357 224.724 296.413C224.631 296.468 224.527 296.497 224.418 296.497ZM228.341 290.456C228.263 290.455 228.184 290.423 228.129 290.367C228.075 290.311 228.044 290.235 228.044 290.157C228.044 290.126 228.064 287.094 226.4 282.486C225.121 278.953 224.907 268.967 224.735 260.941C224.675 258.168 224.619 255.547 224.526 253.598C224.524 253.559 224.53 253.52 224.543 253.484C224.556 253.447 224.576 253.413 224.603 253.385C224.629 253.356 224.66 253.333 224.696 253.316C224.731 253.3 224.769 253.29 224.808 253.289C224.847 253.287 224.886 253.292 224.922 253.305C224.959 253.318 224.992 253.339 225.021 253.365C225.05 253.391 225.073 253.422 225.09 253.457C225.106 253.492 225.116 253.53 225.118 253.569C225.212 255.525 225.269 258.151 225.329 260.93C225.5 268.911 225.712 278.846 226.959 282.288C228.664 287.005 228.64 290.039 228.638 290.164C228.637 290.242 228.605 290.317 228.55 290.371C228.494 290.426 228.419 290.456 228.341 290.456Z" fill="#3F3F3F"/>
<path fill-rule="evenodd" clip-rule="evenodd" d="M226.678 282.386C228.352 287.016 228.343 290.033 228.341 290.159C228.341 290.033 228.363 287.045 226.678 282.386ZM228.341 290.751C228.263 290.75 228.182 290.735 228.11 290.704C228.039 290.674 227.973 290.63 227.919 290.574C227.864 290.519 227.82 290.453 227.791 290.381C227.762 290.309 227.747 290.232 227.747 290.154C227.747 290.124 227.755 287.107 226.119 282.586C224.826 279.008 224.611 268.995 224.438 260.949C224.398 258.503 224.328 256.057 224.229 253.613C224.221 253.456 224.276 253.302 224.382 253.185C224.487 253.069 224.635 252.999 224.792 252.991C224.95 252.983 225.103 253.038 225.22 253.144C225.337 253.25 225.407 253.397 225.414 253.555C225.509 255.509 225.565 258.126 225.624 260.898C225.795 268.884 226.008 278.791 227.237 282.188C228.958 286.948 228.936 290.041 228.935 290.17C228.931 290.325 228.867 290.473 228.756 290.582C228.645 290.69 228.496 290.751 228.341 290.751ZM182.175 229.336C182.11 229.336 182.047 229.315 181.995 229.275C181.944 229.236 181.907 229.18 181.889 229.118C180.826 225.153 174.045 222.381 173.978 222.354C173.942 222.339 173.909 222.318 173.882 222.291C173.854 222.264 173.832 222.231 173.816 222.196C173.801 222.16 173.793 222.122 173.793 222.083C173.792 222.044 173.8 222.006 173.814 221.97C173.844 221.897 173.901 221.839 173.974 221.808C174.046 221.778 174.127 221.777 174.2 221.806C174.492 221.924 181.323 224.72 182.463 228.965C182.475 229.009 182.476 229.055 182.467 229.099C182.458 229.144 182.439 229.186 182.411 229.222C182.384 229.258 182.348 229.287 182.307 229.307C182.266 229.327 182.221 229.337 182.175 229.336Z" fill="#3F3F3F"/>
<path fill-rule="evenodd" clip-rule="evenodd" d="M174.088 222.08C174.106 222.088 175.858 222.802 177.723 224.011C179.526 225.182 180.808 226.389 181.555 227.619C179.551 224.315 174.339 222.181 174.088 222.08ZM182.176 229.631C182.045 229.631 181.919 229.589 181.815 229.51C181.711 229.431 181.637 229.32 181.602 229.194C180.582 225.388 173.933 222.656 173.866 222.627C173.793 222.598 173.728 222.556 173.672 222.501C173.616 222.447 173.572 222.382 173.542 222.311C173.511 222.239 173.495 222.163 173.494 222.085C173.494 222.007 173.509 221.93 173.538 221.858C173.598 221.713 173.713 221.598 173.858 221.537C174.003 221.477 174.166 221.476 174.312 221.534C174.609 221.653 181.573 224.503 182.749 228.888C182.773 228.976 182.777 229.068 182.759 229.157C182.741 229.247 182.703 229.33 182.648 229.402C182.592 229.474 182.52 229.533 182.439 229.572C182.357 229.612 182.267 229.632 182.176 229.631ZM179.686 366.081C179.636 366.081 179.587 366.069 179.543 366.045C179.499 366.021 179.462 365.987 179.435 365.945C179.414 365.912 179.399 365.875 179.393 365.837C179.386 365.799 179.387 365.76 179.395 365.722C179.403 365.684 179.419 365.648 179.442 365.616C179.464 365.584 179.493 365.557 179.526 365.537C179.743 365.398 184.862 362.138 187.306 361.107C188.499 360.605 189.375 360.496 189.914 360.78C190.284 360.976 190.351 361.29 190.358 361.324C190.371 361.4 190.354 361.478 190.311 361.541C190.267 361.604 190.201 361.648 190.126 361.664C190.051 361.679 189.972 361.665 189.907 361.624C189.843 361.583 189.796 361.519 189.777 361.444C189.772 361.43 189.741 361.35 189.61 361.29C189.395 361.188 188.84 361.102 187.539 361.65C185.141 362.661 179.899 366.001 179.846 366.034C179.799 366.065 179.743 366.081 179.686 366.081Z" fill="#3F3F3F"/>
<path fill-rule="evenodd" clip-rule="evenodd" d="M190.06 361.352L189.787 361.477L190.068 361.379C190.066 361.37 190.063 361.36 190.06 361.352ZM187.423 361.379C184.998 362.402 179.902 365.648 179.687 365.786C179.763 365.737 184.987 362.406 187.423 361.379ZM179.687 366.376C179.559 366.378 179.434 366.337 179.331 366.261C179.228 366.185 179.153 366.077 179.117 365.955C179.08 365.832 179.085 365.701 179.13 365.581C179.175 365.461 179.258 365.359 179.366 365.291C179.583 365.151 184.721 361.878 187.192 360.836C188.487 360.29 189.425 360.186 190.053 360.521C190.536 360.776 190.636 361.189 190.651 361.268C190.681 361.417 190.653 361.571 190.572 361.7C190.492 361.829 190.365 361.922 190.218 361.96C190.071 361.998 189.915 361.979 189.782 361.905C189.649 361.832 189.55 361.711 189.503 361.566L189.485 361.555C189.408 361.519 188.962 361.37 187.655 361.922C185.296 362.916 180.06 366.249 180.006 366.281C179.911 366.343 179.8 366.376 179.687 366.376ZM229.921 308.225C229.903 308.226 229.885 308.224 229.866 308.222C229.744 308.198 226.88 307.602 227.299 302.106C227.57 298.556 229.908 297.462 231.833 297.604C233.008 297.691 233.828 298.216 233.78 298.851C233.778 298.89 233.768 298.929 233.751 298.964C233.733 298.998 233.709 299.03 233.68 299.055C233.65 299.081 233.616 299.1 233.579 299.112C233.541 299.124 233.502 299.128 233.463 299.125C233.424 299.122 233.386 299.112 233.351 299.095C233.316 299.077 233.285 299.053 233.26 299.024C233.234 298.994 233.215 298.96 233.202 298.923C233.19 298.886 233.185 298.847 233.188 298.808C233.201 298.629 232.68 298.26 231.79 298.192C231.19 298.15 228.198 298.132 227.892 302.151C227.515 307.083 229.877 307.621 229.978 307.642C230.048 307.658 230.11 307.699 230.152 307.757C230.194 307.816 230.214 307.887 230.207 307.959C230.2 308.03 230.167 308.097 230.114 308.146C230.062 308.195 229.993 308.223 229.921 308.225Z" fill="#3F3F3F"/>
<path fill-rule="evenodd" clip-rule="evenodd" d="M231.454 297.887C230.57 297.887 229.86 298.145 229.301 298.564C230.29 297.872 231.405 297.874 231.785 297.897C231.675 297.89 231.564 297.886 231.454 297.887ZM231.909 297.908C232.816 297.999 233.515 298.402 233.484 298.83C233.515 298.395 232.831 297.999 231.909 297.908ZM227.575 302.429C227.309 307.136 229.567 307.847 229.887 307.923C229.574 307.845 227.312 307.104 227.575 302.429ZM229.92 308.521C229.885 308.52 229.849 308.517 229.815 308.511C229.678 308.486 226.562 307.838 227.003 302.084C227.29 298.315 229.796 297.154 231.854 297.311C233.222 297.411 234.136 298.054 234.076 298.874C234.071 298.952 234.051 299.028 234.016 299.098C233.981 299.168 233.932 299.23 233.873 299.281C233.813 299.332 233.744 299.371 233.67 299.394C233.595 299.418 233.517 299.427 233.439 299.42C233.294 299.409 233.158 299.346 233.057 299.242C232.956 299.138 232.897 299 232.891 298.855C232.798 298.757 232.421 298.537 231.765 298.488C230.998 298.433 228.463 298.533 228.186 302.174C227.997 304.64 228.52 305.92 228.991 306.559C229.487 307.233 230.015 307.348 230.037 307.353C230.356 307.419 230.565 307.728 230.501 308.045C230.474 308.179 230.402 308.3 230.296 308.387C230.19 308.473 230.057 308.521 229.92 308.521ZM226.444 293.856C226.398 293.856 226.353 293.846 226.312 293.826C226.271 293.806 226.236 293.777 226.208 293.741C226.18 293.704 226.161 293.662 226.152 293.618C226.144 293.573 226.146 293.527 226.158 293.483C226.582 291.937 227.899 290.64 227.955 290.585C228.011 290.531 228.087 290.501 228.165 290.501C228.244 290.502 228.319 290.534 228.374 290.589C228.401 290.616 228.423 290.649 228.438 290.685C228.452 290.721 228.46 290.759 228.459 290.798C228.459 290.837 228.451 290.875 228.436 290.911C228.42 290.947 228.398 290.979 228.37 291.006C228.358 291.019 227.114 292.248 226.731 293.639C226.714 293.702 226.676 293.757 226.624 293.796C226.572 293.836 226.509 293.857 226.444 293.856Z" fill="#3F3F3F"/>
<path fill-rule="evenodd" clip-rule="evenodd" d="M228.161 290.796C228.15 290.807 226.923 292.017 226.48 293.437C226.914 292.046 228.109 290.849 228.161 290.796ZM226.444 294.151C226.353 294.151 226.263 294.131 226.181 294.091C226.099 294.051 226.028 293.992 225.972 293.92C225.917 293.848 225.879 293.763 225.861 293.674C225.843 293.585 225.847 293.492 225.87 293.404C226.318 291.778 227.69 290.43 227.746 290.374C227.859 290.264 228.01 290.204 228.167 290.205C228.325 290.207 228.475 290.27 228.586 290.381C228.64 290.436 228.683 290.502 228.712 290.574C228.742 290.645 228.756 290.722 228.756 290.8C228.755 290.877 228.739 290.954 228.708 291.025C228.678 291.097 228.634 291.161 228.578 291.215C228.531 291.264 227.373 292.425 227.018 293.718C226.983 293.843 226.908 293.953 226.804 294.031C226.7 294.109 226.574 294.152 226.444 294.151Z" fill="#3F3F3F"/>
<path fill-rule="evenodd" clip-rule="evenodd" d="M4.13709 500V179.095C4.13709 82.3997 86.8088 3.73183 188.426 3.73183C290.043 3.73183 372.711 82.3997 372.711 179.095V500H376.635V179.095C376.635 80.3426 292.203 0 188.426 0C84.6462 0 0.212891 80.3426 0.212891 179.095L0.212891 500H4.13709Z" fill="#FFDBCF"/>
</svg>
