<svg viewBox="0 0 392 500" fill="none" xmlns="http://www.w3.org/2000/svg">
<path fill-rule="evenodd" clip-rule="evenodd" d="M196.218 86.6354C195.799 98.634 186.237 108.226 174.502 108.226H174.45L174.452 108.361H174.502C186.235 108.361 195.799 117.955 196.218 129.952C196.638 117.966 206.182 108.378 217.902 108.361L217.904 108.226C206.182 108.211 196.638 98.6232 196.218 86.6354Z" fill="#DCA465"/>
<path fill-rule="evenodd" clip-rule="evenodd" d="M377.817 121.327C367.948 97.7617 353.602 76.3208 335.569 58.1847C317.466 39.9398 296.384 25.6173 272.908 15.6112C248.604 5.25211 222.788 0 196.177 0C169.562 0.00216582 143.748 5.25211 119.444 15.6112C95.9682 25.6173 74.8866 39.9398 56.7837 58.1847C38.7496 76.3211 24.403 97.7619 14.5335 121.327C7.55679 137.931 2.88093 155.405 0.634766 173.268H2.19911C14.59 76.5313 96.8568 1.54639 196.177 1.54639C295.498 1.54639 377.76 76.5313 390.155 173.268H391.72C389.47 155.406 384.793 137.932 377.817 121.327Z" fill="#DCA465"/>
<path fill-rule="evenodd" clip-rule="evenodd" d="M196.218 413.365C195.799 401.367 186.237 391.774 174.502 391.774H174.45L174.452 391.64H174.502C186.235 391.64 195.799 382.046 196.218 370.049C196.638 382.035 206.182 391.623 217.902 391.64L217.904 391.774C206.182 391.79 196.638 401.378 196.218 413.365Z" fill="#DCA465"/>
<path fill-rule="evenodd" clip-rule="evenodd" d="M377.817 378.673C367.948 402.238 353.602 423.679 335.569 441.815C317.466 460.06 296.384 474.383 272.908 484.389C248.604 494.748 222.788 500 196.177 500C169.562 499.998 143.748 494.748 119.444 484.389C95.9682 474.383 74.8866 460.06 56.7837 441.815C38.7496 423.679 24.403 402.238 14.5335 378.673C7.55679 362.069 2.88093 344.595 0.634766 326.732H2.19911C14.59 423.469 96.8568 498.454 196.177 498.454C295.498 498.454 377.76 423.469 390.155 326.732H391.72C389.47 344.594 384.793 362.068 377.817 378.673Z" fill="#DCA465"/>
</svg>
