<svg viewBox="0 0 332 500" fill="none" xmlns="http://www.w3.org/2000/svg">
<path d="M331.674 471.505H270.685V468.048H327.877V165.223C327.877 76.026 255.355 3.45691 166.211 3.45691C77.0674 3.45691 4.53568 76.0519 4.53568 165.223V468.048H63.0376V471.505H0.719727V165.223C0.719727 74.1161 74.9506 0 166.183 0C257.414 0 331.674 74.1161 331.674 165.223V471.505Z" fill="#D2D2D2"/>
<path d="M146.405 500C140.865 500 135.449 498.354 130.842 495.271C126.236 492.187 122.645 487.805 120.525 482.677C118.405 477.55 117.85 471.908 118.931 466.464C120.012 461.021 122.68 456.021 126.597 452.097C130.515 448.172 135.506 445.5 140.94 444.417C146.374 443.334 152.006 443.89 157.125 446.014C162.244 448.138 166.619 451.734 169.697 456.349C172.775 460.964 174.418 466.389 174.418 471.939C174.405 479.377 171.449 486.507 166.199 491.767C160.948 497.027 153.831 499.987 146.405 500ZM146.405 446.872C141.425 446.863 136.555 448.333 132.41 451.098C128.264 453.862 125.031 457.796 123.119 462.402C121.206 467.008 120.701 472.079 121.667 476.973C122.633 481.866 125.026 486.363 128.544 489.894C132.061 493.425 136.546 495.831 141.429 496.807C146.313 497.784 151.375 497.288 155.977 495.381C160.579 493.474 164.512 490.243 167.28 486.096C170.048 481.949 171.525 477.072 171.525 472.084C171.544 468.765 170.909 465.475 169.655 462.402C168.402 459.33 166.555 456.536 164.222 454.18C161.888 451.824 159.113 449.953 156.055 448.674C152.998 447.395 149.718 446.734 146.405 446.728V446.872Z" fill="#DBC29E"/>
<path d="M185.94 500C180.399 500 174.983 498.354 170.377 495.271C165.77 492.187 162.18 487.805 160.06 482.677C157.939 477.55 157.385 471.908 158.466 466.464C159.546 461.021 162.214 456.021 166.132 452.097C170.05 448.172 175.041 445.5 180.475 444.417C185.909 443.334 191.541 443.89 196.66 446.014C201.778 448.138 206.153 451.734 209.231 456.349C212.309 460.964 213.952 466.389 213.952 471.939C213.952 475.624 213.228 479.273 211.82 482.677C210.412 486.082 208.349 489.175 205.748 491.781C203.146 494.387 200.058 496.454 196.66 497.864C193.261 499.274 189.618 500 185.94 500ZM185.94 446.872C180.962 446.872 176.096 448.351 171.957 451.121C167.818 453.892 164.593 457.829 162.688 462.436C160.783 467.043 160.284 472.112 161.256 477.002C162.227 481.893 164.624 486.385 168.143 489.911C171.663 493.437 176.148 495.838 181.03 496.811C185.912 497.784 190.972 497.284 195.571 495.376C200.17 493.468 204.101 490.237 206.866 486.091C209.632 481.945 211.108 477.07 211.108 472.084C211.127 468.761 210.49 465.467 209.234 462.391C207.977 459.316 206.126 456.519 203.788 454.163C201.449 451.806 198.668 449.936 195.605 448.66C192.542 447.384 189.257 446.727 185.94 446.728V446.872Z" fill="#DBC29E"/>
</svg>
