<svg viewBox="0 0 43 50" fill="none" xmlns="http://www.w3.org/2000/svg">
<path d="M0.487638 49.5491C0.491913 49.6822 0.607885 49.802 0.744786 49.7935C5.02102 49.4756 6.56412 49.3395 10.3373 48.1465C10.3719 48.1573 10.4099 48.1623 10.4547 48.1559C13.8737 47.8021 16.6994 48.4185 20.3676 47.5236C20.5998 47.6675 20.8752 47.3543 23.441 47.5863C23.5163 47.6903 23.6318 47.7244 23.7935 47.6483C26.4243 48.5416 27.8052 47.9966 32.7091 47.1947C33.3773 47.0741 34.0877 46.9754 34.6722 46.6009C34.7959 46.5133 34.8619 46.3673 34.881 46.2186C34.9097 45.6131 34.188 45.3831 33.7282 45.2169C28.706 43.5451 25.9345 45.9684 23.7376 47.1141C23.1805 47.0515 22.6208 47.0107 22.0604 46.9991C24.6843 45.9906 26.4891 44.3011 27.8369 43.3133C28.0366 43.3263 28.0958 43.1336 28.1094 43.1172C29.8616 41.8921 31.6964 41.9143 33.4299 40.4723C35.3668 38.8775 35.9286 37.2457 36.6679 35.634C36.8281 35.2235 37.1011 34.83 37.1341 34.3835C37.1367 33.9494 36.6516 33.7588 36.2892 33.8755C35.5894 34.0622 34.9658 34.4595 34.3422 34.8179C30.805 36.9302 29.6936 39.1089 27.731 42.7641C25.418 44.4337 23.1086 46.9418 17.8155 47.4434C15.9429 47.5909 14.0603 47.5047 12.1835 47.5448C16.8857 45.9686 21.1129 43.74 25.4431 39.621C27.3498 37.8462 29.0854 35.8716 30.5087 33.6875C33.9153 30.1152 35.6741 26.8556 37.6338 22.6093C37.794 22.553 37.7642 22.4327 38.1291 21.8302C38.6113 21.0431 39.5903 19.9794 40.8088 18.0002C42.1565 15.8269 42.3628 13.1488 42.9167 10.809C42.9586 10.598 43.0783 10.3335 42.9074 10.1531C42.5599 9.82134 42.1526 10.614 41.4225 11.6573C36.5313 18.8991 38.3157 18.9759 36.9421 22.9056C36.6049 23.8585 34.4407 28.2466 31.819 31.4411C34.7135 25.83 36.3046 19.75 36.5593 13.6021C36.6536 13.4798 36.6008 13.3572 36.5721 13.2544C36.5776 13.0962 36.5812 12.9368 36.5848 12.7774C36.6859 12.6825 36.653 12.5048 36.6927 12.3558C38.2267 6.683 36.8896 5.286 34.5394 0.790355C34.4539 0.632279 34.2942 0.478215 34.1032 0.526085C33.4973 0.576032 33.8792 3.64848 33.9321 4.16408C34.7538 11.7403 35.0796 9.56273 36.0791 13.3602C35.9851 15.9632 35.6222 18.5447 35.058 21.0812C33.0599 29.9964 29.3739 35.4953 24.2452 40.0344C27.5168 36.0658 30.6982 30.0594 31.7148 26.6414C31.7208 26.6334 32.3814 25.3164 32.3855 25.3072C34.6986 20.8753 33.7206 18.5943 33.6902 15.754C33.6692 15.5086 33.7532 15.2288 33.6232 15.0074C33.1988 14.4685 32.7098 15.956 32.3844 16.6149C29.9827 21.9067 31.0786 23.9544 30.9989 26.9049C30.9866 26.9904 30.9844 27.0848 31.0086 27.1628C29.2086 32.092 25.447 38.5995 21.6073 42.0879C21.5709 42.1277 21.551 42.1699 21.5428 42.214C20.1394 43.2417 17.7457 44.7472 17.3344 44.847C17.2889 44.8762 16.2792 45.4559 15.8273 45.6306C18.2285 43.5055 19.4263 42.2091 21.0432 39.2212C21.3537 39.0948 20.561 39.6024 22.7194 37.2647C24.7447 35.2532 24.4884 32.9449 24.8995 31.1826C25.1059 30.2883 25.196 30.2075 25.1056 30.0296C24.9782 29.7996 24.6981 29.8876 24.5602 30.0596C20.676 34.4114 21.1231 36.8966 20.4223 39.3137C19.8126 40.4174 19.1284 41.4848 18.3241 42.4546C17.5202 43.4129 15.0648 45.9058 13.9804 46.2746C13.8894 46.3006 13.8372 46.3606 13.8147 46.4309C3.83553 50.261 0.457765 48.6687 0.487638 49.5491ZM22.5819 36.6782C22.3426 36.9435 21.838 37.4533 21.1922 38.2377C21.6429 35.0957 22.4653 33.4131 24.437 30.9605C23.9882 33.0088 24.1411 35.0551 22.5804 36.6786L22.5819 36.6782ZM31.4775 25.9941C31.3356 22.614 30.7674 21.2637 33.1944 16.0416C33.2179 17.289 33.4437 18.5279 33.4292 19.7768C33.3491 22.3391 32.5976 23.7792 31.4775 25.9941ZM36.2313 12.1382C35.6413 10.4166 35.0136 9.82507 34.6006 5.7836C34.4738 4.31942 34.2053 2.85682 34.2839 1.38323C35.8862 4.67384 37.8993 6.54186 36.2309 12.1367L36.2313 12.1382ZM38.5556 20.3745C38.3367 20.6639 38.1105 20.9502 37.9055 21.2507C38.1161 20.1548 38.1951 19.0563 38.534 17.9946C39.266 15.4839 40.8815 13.3988 42.3048 11.2534C41.4327 15.6784 41.3754 16.6971 38.556 20.3761L38.5556 20.3745ZM33.564 35.925C34.109 35.5588 36.0703 34.2296 36.632 34.3751C36.6171 34.5276 36.6284 34.5215 35.7735 36.3951C33.8817 40.8896 30.9384 41.1711 28.6319 42.1453C30.0003 39.5981 31.1401 37.6111 33.564 35.925ZM24.4288 47.3177C25.4764 46.7236 26.4875 46.053 27.6313 45.6532C30.9324 44.4378 35.0161 45.939 34.2769 46.2568C33.5089 46.6126 32.6864 46.678 31.8692 46.81C29.4292 47.1304 26.8827 48.0645 24.4288 47.3177Z" fill="#ABC4A5"/>
</svg>
