<svg viewBox="0 0 139 160" fill="none" xmlns="http://www.w3.org/2000/svg">
<path d="M0.391262 159.205C0.405144 159.637 0.781699 160.026 1.22621 159.999C15.111 158.966 20.1215 158.525 32.3729 154.651C32.4853 154.686 32.6087 154.702 32.754 154.681C43.8554 153.533 53.0305 155.534 64.941 152.628C65.695 153.096 66.5891 152.079 74.9202 152.832C75.1648 153.17 75.5399 153.28 76.0648 153.033C84.6069 155.934 89.0908 154.164 105.014 151.56C107.183 151.169 109.49 150.848 111.388 149.632C111.789 149.348 112.004 148.874 112.066 148.391C112.159 146.425 109.816 145.678 108.323 145.139C92.0155 139.71 83.0167 147.579 75.8835 151.299C74.0745 151.095 72.2572 150.963 70.4374 150.925C78.9573 147.651 84.8174 142.165 89.1936 138.957C89.8421 139 90.0344 138.374 90.0783 138.321C95.7678 134.343 101.725 134.415 107.354 129.733C113.643 124.555 115.467 119.256 117.868 114.023C118.388 112.69 119.274 111.413 119.382 109.963C119.39 108.553 117.815 107.935 116.638 108.313C114.366 108.92 112.341 110.209 110.316 111.373C98.8311 118.232 95.2223 125.306 88.8497 137.174C81.3396 142.595 73.8409 150.739 56.6544 152.368C50.5742 152.847 44.4614 152.567 38.3674 152.697C53.6353 147.579 67.3611 140.343 81.4212 126.969C87.6119 121.206 93.2476 114.795 97.8689 107.703C108.93 96.1038 114.641 85.52 121.004 71.7324C121.524 71.5495 121.427 71.159 122.612 69.2026C124.178 66.6469 127.357 63.1932 131.313 56.7668C135.689 49.7102 136.359 41.0145 138.157 33.4171C138.294 32.7318 138.682 31.873 138.127 31.2875C136.999 30.2102 135.676 32.7838 133.306 36.1715C117.424 59.6854 123.218 59.9349 118.758 72.6943C117.663 75.7885 110.636 90.0366 102.124 100.409C111.522 82.19 116.688 62.4482 117.515 42.4863C117.821 42.0892 117.65 41.6911 117.557 41.3574C117.574 40.8435 117.586 40.326 117.598 39.8085C117.926 39.5004 117.819 38.9233 117.948 38.4394C122.929 20.0201 118.588 15.4841 110.957 0.886888C110.679 0.37362 110.16 -0.12662 109.54 0.0288101C107.573 0.190986 108.813 10.1671 108.985 11.8413C111.653 36.441 112.71 29.3705 115.956 41.7007C115.651 50.1527 114.472 58.5347 112.641 66.7707C106.153 95.7181 94.1843 113.573 77.5316 128.311C88.1543 115.425 98.4844 95.9226 101.785 84.8243C101.805 84.7984 103.95 80.5221 103.963 80.4925C111.474 66.1022 108.298 58.6958 108.199 49.4733C108.131 48.6764 108.404 47.7679 107.982 47.0493C106.604 45.2994 105.016 50.1292 103.959 52.2686C96.161 69.4511 99.7193 76.1 99.4606 85.6798C99.4206 85.9577 99.4136 86.264 99.492 86.5174C93.6477 102.522 81.4336 123.652 68.9664 134.979C68.848 135.108 68.7834 135.245 68.7567 135.388C64.1999 138.725 56.4279 143.613 55.0922 143.938C54.9445 144.032 51.6661 145.915 50.1987 146.482C57.9955 139.582 61.8846 135.372 67.1346 125.671C68.1429 125.26 65.569 126.908 72.5773 119.318C79.1532 112.787 78.3211 105.292 79.6561 99.5696C80.3261 96.6659 80.6189 96.4035 80.3252 95.826C79.9116 95.0789 79.0021 95.3646 78.5544 95.9231C65.9423 110.053 67.3942 118.123 65.1186 125.971C63.1389 129.555 60.9174 133.021 58.3059 136.169C55.6956 139.281 47.7229 147.375 44.202 148.573C43.9065 148.657 43.737 148.852 43.664 149.08C11.2618 161.517 0.294263 156.346 0.391262 159.205ZM72.1308 117.414C71.3537 118.275 69.7153 119.93 67.6186 122.477C69.0821 112.275 71.7522 106.812 78.1544 98.8485C76.697 105.499 77.1936 112.143 72.1259 117.415L72.1308 117.414ZM101.015 82.7226C100.554 71.7477 98.7088 67.3633 106.589 50.4071C106.666 54.4576 107.399 58.48 107.352 62.5351C107.092 70.8551 104.651 75.5309 101.015 82.7226ZM116.45 37.7331C114.534 32.1429 112.496 30.2223 111.155 17.0998C110.744 12.3456 109.872 7.59662 110.127 2.81192C115.33 13.4964 121.866 19.5618 116.449 37.7281L116.45 37.7331ZM123.997 64.4762C123.286 65.4157 122.552 66.3454 121.886 67.3209C122.57 63.7626 122.826 60.1958 123.927 56.7484C126.304 48.5964 131.549 41.826 136.171 34.8602C133.339 49.228 133.153 52.5355 123.998 64.4811L123.997 64.4762ZM107.789 114.968C109.559 113.779 115.927 109.463 117.751 109.935C117.703 110.431 117.739 110.411 114.964 116.494C108.821 131.088 99.2643 132.002 91.7751 135.165C96.218 126.894 99.9192 120.443 107.789 114.968ZM78.1276 151.96C81.5293 150.031 84.8123 147.853 88.5261 146.555C99.2448 142.609 112.504 147.483 110.104 148.515C107.61 149.67 104.94 149.883 102.286 150.311C94.3638 151.351 86.0953 154.384 78.1276 151.96Z" fill="#ABC4A5"/>
</svg>
