<svg viewBox="0 0 156 160" fill="none" xmlns="http://www.w3.org/2000/svg">
<path d="M73.3208 6.87573L73.3208 156.979" stroke="#777777" stroke-width="1.87629"/>
<path fill-rule="evenodd" clip-rule="evenodd" d="M106.729 22.0456C106.973 22.6937 107.135 23.3644 107.28 23.9957L107.291 24.0816C107.348 25.4038 107.524 26.7226 107.7 27.96L107.741 28.2482C108.013 30.1589 108.293 32.1372 108.432 34.1152C108.733 38.4206 108.563 42.7461 107.923 47.0143C108.055 46.6172 108.184 46.2183 108.321 45.8243C109.507 42.4066 111.219 37.9702 113.948 33.9551C114.011 33.861 114.086 33.7577 114.16 33.656C114.31 33.1882 114.478 32.7268 114.666 32.2728L114.705 32.2008C115.42 31.1226 116.039 29.9607 116.612 28.8629L116.747 28.6038C117.626 26.9124 118.536 25.1635 119.565 23.5094C121.869 19.7993 124.624 16.3893 127.767 13.3577C129.54 11.6501 131.437 10.0911 133.403 8.72445C133.477 8.66846 133.566 8.63478 133.658 8.62732C133.751 8.61987 133.844 8.63895 133.926 8.68235C133.964 8.70032 134 8.72211 134.034 8.74736C134.212 8.88169 134.303 9.10822 134.26 9.2879C134.252 9.37713 134.223 9.46321 134.175 9.53914C133.733 10.4324 133.295 11.3288 132.854 12.2256C131.264 15.4763 129.619 18.835 127.758 21.9958C125.261 26.2402 122.643 29.413 119.756 31.6998C118.106 33.0064 116.349 34.0228 114.534 34.7174L114.423 34.7599C112.422 37.7699 110.764 41.2972 109.08 46.1486C108.542 47.715 108.034 49.2917 107.557 50.878C108.433 50.0196 109.235 49.0729 109.98 48.1739L110.16 47.9571C111.328 46.5439 112.536 45.0809 113.841 43.7359C116.768 40.7125 120.071 38.0767 123.668 35.8928C125.682 34.6719 127.791 33.6155 129.975 32.7341C130.06 32.6967 130.155 32.6841 130.247 32.6977C130.34 32.7113 130.427 32.7506 130.498 32.811C130.716 32.975 130.797 33.2726 130.705 33.4771C130.679 33.557 130.635 33.6301 130.577 33.6909C129.979 34.4444 129.385 35.2019 128.79 35.9617C126.643 38.6967 124.424 41.527 122.035 44.1186C118.821 47.6032 115.696 50.043 112.482 51.5782C110.646 52.4561 108.758 53.0329 106.875 53.2951L106.832 53.2996L106.427 54.6776C105.143 59.0562 103.811 63.5694 102.003 67.8084C102.577 67.2183 103.136 66.6135 103.68 65.9945L103.872 65.7745C105.073 64.3999 106.317 62.9783 107.654 61.6759C110.66 58.7418 114.031 56.2065 117.683 54.1322C119.73 52.9707 121.868 51.9771 124.076 51.1612C124.268 51.0909 124.478 51.1369 124.593 51.2547C124.809 51.4241 124.882 51.7235 124.785 51.9242C124.757 52.0067 124.711 52.0783 124.65 52.1376C124.035 52.8681 123.423 53.6056 122.812 54.3415C120.593 57.0146 118.299 59.7777 115.841 62.299C112.538 65.6846 109.351 68.0292 106.096 69.4683C104.259 70.2806 102.382 70.7961 100.518 71.0061C98.5157 74.9507 96.0232 78.5757 93.1546 81.8084C93.6911 81.5109 94.2143 81.2034 94.7166 80.9024L94.9649 80.7524C96.4983 79.8339 98.0841 78.8842 99.728 78.0766C103.447 76.2471 107.391 74.9174 111.459 74.1221C113.759 73.6721 116.092 73.4105 118.434 73.3398C118.53 73.3356 118.624 73.357 118.708 73.4018C118.792 73.4467 118.862 73.5132 118.912 73.5945C119.071 73.822 119.059 74.1281 118.911 74.2843C118.863 74.352 118.798 74.4066 118.723 74.4431C117.928 74.9415 117.136 75.4469 116.343 75.951C113.476 77.7748 110.513 79.6607 107.457 81.2642C103.349 83.4223 99.6334 84.6298 96.0998 84.9575C94.2588 85.1347 92.4021 85.0484 90.5855 84.7014L90.4253 84.6685C85.7541 89.1664 80.2737 92.6909 74.3057 94.9268L74.0148 94.1118C82.2271 91.0343 89.4967 85.4721 94.964 78.2785C94.9515 78.2586 94.9285 78.2439 94.9193 78.2212C94.8757 78.1431 94.8502 78.0562 94.8447 77.9669C94.6848 76.9711 94.5187 75.9748 94.3542 74.9782C93.757 71.3739 93.1381 67.647 92.7932 63.9377C92.3318 58.9557 92.5527 54.7466 93.4671 51.0655C93.9919 48.963 94.7577 47.0212 95.7438 45.2953L96.159 44.5704L96.4657 45.3802C96.7093 46.0283 96.8723 46.6997 97.0162 47.3303L97.0284 47.4169C97.0845 48.7384 97.2612 50.0564 97.4359 51.2954L97.479 51.5969C97.7505 53.5046 98.031 55.4768 98.1675 57.4506C98.4817 61.91 98.2886 66.3906 97.5921 70.8064C97.3038 72.6311 96.9206 74.4396 96.4442 76.2244C98.1266 73.7664 99.6127 71.1475 100.856 68.3831C102.757 64.1512 104.132 59.5788 105.44 55.1213C105.327 55.0791 105.234 54.9941 105.182 54.8845C105.139 54.8054 105.114 54.7178 105.108 54.6279C104.949 53.6372 104.784 52.6467 104.62 51.6554C104.02 48.0469 103.402 44.3161 103.057 40.6031C102.593 35.6222 102.816 31.4114 103.732 27.7307C104.254 25.6286 105.022 23.688 106.007 21.9592L106.422 21.2352L106.729 22.0456ZM105.619 24.6463C105.178 25.7002 104.803 26.8128 104.513 27.9809C103.622 31.56 103.408 35.6724 103.862 40.5485C104.137 43.5246 104.595 46.5201 105.074 49.4603C104.627 40.0453 104.979 33.8517 105.62 24.6469L105.619 24.6463ZM107.06 47.297C107.745 42.9495 107.935 38.5385 107.626 34.1482C107.492 32.2033 107.212 30.2422 106.942 28.3477L106.902 28.0586C106.724 26.8118 106.548 25.4825 106.487 24.1325L106.471 24.0719C105.719 34.8281 105.351 41.015 106.03 52.2369C106.452 50.6078 106.796 48.9592 107.06 47.297ZM95.3551 47.9832C94.9133 49.0357 94.5403 50.1466 94.2487 51.3149C93.3576 54.8954 93.1454 59.0061 93.5974 63.8839C93.8732 66.851 94.3279 69.8402 94.8065 72.7699C94.357 63.4279 94.6966 57.453 95.3551 47.9832ZM96.7965 70.6331C97.4813 66.2854 97.671 61.8741 97.3619 57.4836C97.2273 55.544 96.9481 53.5872 96.6804 51.6955L96.6373 51.3941C96.4614 50.1462 96.2838 48.8171 96.223 47.4671C96.2178 47.4464 96.2128 47.4256 96.2083 47.4048C95.4563 58.1648 95.0882 64.3517 95.7669 75.5722C96.1888 73.9432 96.5324 72.2949 96.7965 70.6331ZM132.301 10.5967C130.91 11.6571 129.581 12.796 128.32 14.008C125.224 16.9934 122.511 20.3515 120.242 24.0054C119.232 25.6321 118.329 27.3651 117.456 29.0422L117.32 29.3021C117.109 29.7078 116.894 30.1115 116.676 30.5132L117.48 29.5513C119.974 26.5641 123.749 22.0461 128.511 15.7288C129.713 14.1342 130.977 12.4261 132.301 10.5967ZM118.09 30.1382C116.978 31.468 116.079 32.5443 115.417 33.3913C116.785 32.7445 118.074 31.942 119.259 30.9998C122.069 28.7754 124.625 25.6733 127.07 21.5178C128.655 18.8251 130.084 15.9801 131.461 13.1781C130.673 14.2493 129.909 15.2752 129.169 16.2574C124.384 22.6049 120.595 27.1391 118.09 30.1382ZM124.085 36.6482C120.545 38.7976 117.294 41.3914 114.412 44.3663C113.13 45.6902 111.931 47.14 110.773 48.5428L110.594 48.758C109.83 49.6814 109.008 50.6571 108.095 51.5453C108.081 51.5645 108.068 51.5865 108.056 51.607C116.162 45.5287 120.792 41.9694 128.272 34.4193C126.837 35.0857 125.439 35.8298 124.085 36.6482ZM109.019 51.9557C110.064 51.6624 111.104 51.2785 112.129 50.789C115.256 49.2961 118.303 46.9136 121.448 43.5007C123.368 41.4186 125.181 39.1757 126.939 36.9479C120.627 43.1454 116.169 46.5922 109.019 51.9557ZM118.082 54.8984C114.487 56.9399 111.168 59.4352 108.209 62.3229C106.897 63.6031 105.663 65.0128 104.47 66.3742L104.277 66.5959C103.491 67.4939 102.645 68.4423 101.708 69.3063L101.666 69.3668C109.929 63.5366 114.651 60.12 122.327 52.7966C120.875 53.4191 119.458 54.1208 118.082 54.8984ZM111.633 74.9708C107.629 75.7532 103.747 77.0618 100.087 78.8627C98.4724 79.6571 96.8996 80.5983 95.38 81.5088L95.131 81.6582C94.1262 82.2601 93.0505 82.8898 91.9129 83.4086C91.8911 83.4236 91.8691 83.4424 91.8466 83.4583C101.414 80.5615 106.902 78.8255 116.31 74.3293C114.74 74.4564 113.179 74.6706 111.633 74.9708ZM102.621 69.7438C103.698 69.4772 104.749 69.1178 105.764 68.6696C108.929 67.2709 112.039 64.9798 115.27 61.6654C117.248 59.6387 119.12 57.4458 120.939 55.2688C114.414 61.3136 109.705 64.7417 102.621 69.7438ZM92.6683 84.1158C93.778 84.2054 94.8935 84.199 96.0021 84.0967C99.4354 83.7786 103.058 82.5983 107.08 80.4882C109.546 79.1928 111.957 77.7082 114.31 76.2191C106.357 79.8775 100.876 81.6261 92.6683 84.1158Z" fill="#CBC49A"/>
<path fill-rule="evenodd" clip-rule="evenodd" d="M15.8905 114.775C16.5828 114.787 17.2689 114.714 17.9121 114.637L17.9968 114.619C19.2609 114.228 20.5621 113.949 21.7865 113.699L22.0717 113.64C23.9624 113.253 25.9195 112.851 27.8287 112.315C31.9843 111.15 35.9998 109.533 39.8035 107.493C39.4742 107.752 39.142 108.008 38.8171 108.269C35.998 110.536 32.3969 113.642 29.5348 117.563C29.4674 117.654 29.3955 117.76 29.3246 117.864C28.9345 118.162 28.5568 118.476 28.1925 118.806L28.1377 118.866C27.3634 119.903 26.4776 120.877 25.6367 121.786L25.4382 122C24.1414 123.397 22.801 124.843 21.5899 126.369C18.8718 129.787 16.5884 133.53 14.792 137.51C13.7808 139.754 12.9514 142.065 12.3263 144.376C12.2986 144.465 12.2967 144.56 12.3209 144.65C12.3451 144.74 12.3944 144.821 12.4629 144.884C12.4926 144.913 12.5252 144.94 12.5602 144.963C12.7467 145.085 12.9908 145.095 13.1454 144.994C13.2267 144.956 13.298 144.9 13.3535 144.83C14.0457 144.112 14.7422 143.398 15.4382 142.681C17.964 140.089 20.5729 137.41 22.9228 134.594C26.0787 130.813 28.1852 127.28 29.3664 123.791C30.0412 121.798 30.4069 119.801 30.4501 117.859L30.4528 117.74C32.6133 114.842 35.3767 112.094 39.378 108.875C40.6716 107.84 41.9853 106.831 43.3185 105.848C42.8053 106.963 42.1837 108.036 41.5879 109.04L41.4444 109.283C40.5068 110.858 39.5358 112.488 38.7087 114.17C36.8473 117.944 35.4772 121.941 34.6318 126.064C34.16 128.371 33.8753 130.713 33.7805 133.066C33.7742 133.159 33.7941 133.252 33.838 133.335C33.882 133.417 33.9482 133.486 34.0291 133.533C34.2568 133.682 34.5643 133.659 34.7258 133.503C34.7924 133.452 34.8467 133.386 34.8843 133.311C35.3925 132.494 35.9056 131.679 36.4207 130.863C38.2733 127.921 40.1914 124.879 41.8275 121.756C44.0269 117.558 45.2723 113.794 45.6358 110.25C45.8443 108.226 45.7522 106.254 45.3649 104.392L45.3548 104.351L46.516 103.505C50.2067 100.822 54.0082 98.0487 57.3909 94.9186C57.0286 95.6583 56.6474 96.3884 56.2474 97.1084L56.1049 97.3633C55.2151 98.9574 54.295 100.607 53.5189 102.305C51.768 106.123 50.5154 110.15 49.7918 114.288C49.3872 116.607 49.1713 118.954 49.1462 121.308C49.1446 121.512 49.2588 121.695 49.4083 121.763C49.6406 121.91 49.9473 121.878 50.1034 121.719C50.1717 121.664 50.2235 121.597 50.259 121.52C50.7398 120.695 51.2282 119.87 51.7154 119.047C53.4857 116.058 55.3152 112.968 56.8617 109.804C58.9379 105.555 60.0727 101.764 60.3321 98.2148C60.4783 96.2109 60.332 94.2704 59.9023 92.4445C62.9425 89.2309 65.5168 85.6635 67.5952 81.8741C67.4956 82.4795 67.3821 83.0756 67.2679 83.65L67.2102 83.9342C66.8615 85.6873 66.5011 87.5003 66.2941 89.3201C65.8233 93.4379 65.8991 97.5998 66.5196 101.698C66.8701 104.015 67.4091 106.3 68.1311 108.529C68.1592 108.62 68.2112 108.702 68.2816 108.766C68.3521 108.83 68.4384 108.874 68.5316 108.893C68.7994 108.966 69.0837 108.852 69.181 108.66C69.2284 108.592 69.2581 108.513 69.2672 108.43C69.4688 107.513 69.6781 106.597 69.8858 105.681C70.638 102.367 71.4163 98.9422 71.8974 95.5246C72.5466 90.93 72.4329 87.025 71.5519 83.5872C71.099 81.7941 70.3927 80.0747 69.4544 78.481L69.3695 78.3412C72.0323 72.4285 73.5062 66.0815 73.6025 59.7092L72.7371 59.7096C72.6038 68.4786 69.8136 77.1963 64.8804 84.7662C64.8574 84.7612 64.8358 84.7444 64.8114 84.7434C64.7231 84.7287 64.6327 84.7339 64.5468 84.7588C63.5553 84.9434 62.5612 85.1225 61.5674 85.303C57.9725 85.954 54.2547 86.6259 50.6458 87.5499C45.7993 88.7926 41.9102 90.4176 38.7518 92.5178C36.9487 93.7198 35.378 95.0946 34.0848 96.6042L33.5421 97.2391L34.4079 97.2553C35.1001 97.2665 35.7872 97.194 36.4294 97.1172L36.515 97.0995C37.7783 96.7074 39.0789 96.4302 40.3044 96.1775L40.6027 96.1166C42.4905 95.7301 44.4421 95.3303 46.3466 94.7943C50.6514 93.5889 54.8056 91.8988 58.7292 89.7564C60.3503 88.8706 61.9242 87.901 63.4445 86.8515C61.6963 89.2631 59.7305 91.5442 57.5459 93.6451C54.2012 96.8604 50.3586 99.6945 46.6017 102.427C46.5236 102.334 46.4124 102.275 46.2917 102.263C46.2027 102.249 46.1117 102.255 46.0251 102.28C45.0388 102.464 44.0505 102.642 43.0617 102.821C39.4621 103.471 35.7408 104.145 32.1284 105.07C27.2823 106.31 23.392 107.937 20.2348 110.039C18.4311 111.238 16.8621 112.614 15.566 114.125L15.0239 114.759L15.8905 114.775ZM17.9656 112.855C18.8094 112.084 19.731 111.357 20.7333 110.691C23.8034 108.646 27.6039 107.061 32.3479 105.846C35.2432 105.104 38.2179 104.527 41.1476 103.987C32.1317 106.736 26.4182 109.153 17.9665 112.855L17.9656 112.855ZM39.7793 106.586C35.9162 108.695 31.8265 110.358 27.5886 111.546C25.7119 112.074 23.771 112.47 21.8964 112.854L21.6105 112.913C20.3766 113.166 19.0655 113.447 17.7738 113.844L17.7114 113.85C27.5867 109.521 33.2885 107.091 44.0841 103.953C42.6922 104.899 41.2556 105.778 39.7793 106.586ZM36.485 95.3332C37.3273 94.5629 38.2478 93.8377 39.2498 93.1699C42.3214 91.1254 46.1207 89.5417 50.8659 88.3252C53.7527 87.5861 56.7205 87.008 59.6403 86.4723C50.6922 89.194 45.1804 91.5252 36.485 95.3332ZM58.2981 89.0656C54.4347 91.174 50.3447 92.8377 46.1065 94.0246C44.2348 94.5509 42.2983 94.9467 40.4268 95.3314L40.1284 95.3924C38.8942 95.6468 37.5829 95.927 36.2912 96.3242C36.27 96.3263 36.2488 96.3286 36.2276 96.3313C46.1064 92.001 51.8082 89.5715 62.6023 86.4333C61.2104 87.379 59.774 88.2574 58.2981 89.0656ZM13.7184 142.709C14.2486 141.042 14.8737 139.407 15.5904 137.812C17.3594 133.892 19.608 130.206 22.2848 126.84C23.4767 125.341 24.8043 123.907 26.0896 122.52L26.2887 122.305C26.5997 121.97 26.9075 121.632 27.2123 121.291L26.5771 122.372C24.604 125.726 21.6205 130.801 17.275 137.412C16.1781 139.081 14.9953 140.846 13.7184 142.709ZM27.3351 122.748C28.2131 121.254 28.9239 120.045 29.4986 119.136C29.3502 120.643 29.0285 122.127 28.5399 123.559C27.3915 126.954 25.331 130.405 22.2411 134.107C20.2392 136.506 18.0411 138.808 15.8663 141.049C16.6098 139.946 17.3186 138.881 17.9942 137.854C22.3603 131.211 25.3543 126.117 27.3351 122.748ZM35.4835 126.202C36.3156 122.145 37.6637 118.211 39.4948 114.496C40.3096 112.842 41.2711 111.225 42.2024 109.663L42.3447 109.422C42.957 108.391 43.599 107.289 44.1282 106.131C44.1414 106.111 44.1578 106.091 44.1728 106.072C41.1782 115.752 39.3854 121.31 34.7939 130.895C34.9384 129.319 35.1686 127.753 35.4835 126.202ZM44.8257 106.863C44.9013 107.945 44.8899 109.054 44.774 110.184C44.4207 113.63 43.2032 117.302 41.0482 121.412C39.7339 123.921 38.2322 126.383 36.7263 128.788C40.4372 120.759 42.1822 115.401 44.8257 106.863ZM50.6475 114.406C51.3594 110.333 52.5921 106.368 54.315 102.61C55.0786 100.943 55.9909 99.3069 56.8712 97.7253L57.0149 97.4687C57.5959 96.4263 58.2042 95.3103 58.7021 94.1369L58.7451 94.0773C56.0368 103.821 54.4093 109.417 50.0975 119.111C50.1947 117.533 50.3783 115.963 50.6475 114.406ZM67.3772 101.576C66.7661 97.5424 66.6914 93.4461 67.155 89.3933C67.3596 87.6057 67.7163 85.8079 68.0622 84.0705L68.119 83.7857C68.3475 82.6369 68.5784 81.4121 68.6839 80.1662C68.6907 80.1406 68.701 80.1135 68.7084 80.087C69.2016 90.0716 69.4143 95.8232 68.3475 106.195C67.9388 104.675 67.6149 103.132 67.3772 101.576ZM59.4213 94.8491C59.5329 95.9529 59.5486 97.0644 59.4682 98.171C59.2163 101.621 58.1059 105.321 56.073 109.48C54.8304 112.025 53.3958 114.526 51.9579 116.971C55.4534 108.792 57.0963 103.204 59.4213 94.8491ZM69.6041 80.6394C70.0621 81.6542 70.4315 82.7067 70.7084 83.7851C71.5647 87.1251 71.6729 90.9337 71.0399 95.4311C70.6501 98.189 70.064 100.959 69.454 103.677C70.2214 94.9558 70.0227 89.2058 69.6041 80.6394Z" fill="#CBC49A"/>
</svg>
