<svg viewBox="0 0 87 160" fill="none" xmlns="http://www.w3.org/2000/svg">
<path d="M11.6553 2.21095L11.5087 1.96951C11.1273 1.39885 10.7166 0.740382 11.2153 0.213614L11.45 0.0160838C11.5556 -0.00536832 11.667 -0.00536833 11.7727 0.0160838C12.2692 0.0700841 12.7308 0.238923 13.0927 0.498957C14.7582 1.6854 15.9211 3.21187 16.4368 4.88869C16.6184 5.37129 16.7557 5.86262 16.8475 6.35925C16.8753 7.58875 17.4654 8.77398 18.5196 9.7174V9.7174C18.5782 9.32354 18.5782 8.92602 18.5196 8.53216C18.3758 7.93757 18.5439 7.32441 18.9889 6.82017C19.0765 6.71833 19.1977 6.63516 19.3409 6.57873C19.496 6.55676 19.6552 6.55676 19.8103 6.57873V6.57873C20.2796 6.57873 20.7196 7.06161 21.013 7.39084C22.4042 9.10411 23.3962 10.9819 23.9464 12.9439C24.1811 13.6901 24.3864 14.4144 24.6504 15.1387L25.0904 16.3459C25.6586 18.6698 26.9002 20.8724 28.7279 22.7988C30.5157 24.7321 31.4586 27.0326 31.4266 29.3834L31.6026 30.7223C32.688 30.1297 33.5387 29.976 34.1841 30.2614C35.2694 30.7003 35.5334 32.1928 35.3868 33.4439C35.2401 34.695 35.0054 36.0119 34.7414 37.263C34.4965 38.9098 34.3985 40.5669 34.4481 42.2234C34.9174 41.8942 35.3574 41.543 35.7974 41.1918C36.2351 41.7328 36.5229 42.3342 36.6439 42.9601C36.7648 43.586 36.7164 44.2237 36.5015 44.8353L36.5015 45.384C36.4811 46.5016 36.0553 47.5941 35.2694 48.5446C34.65 47.2137 34.2174 45.8381 33.9787 44.4402C33.7123 42.7061 33.0992 41.0118 32.16 39.414V39.414C31.4763 41.6762 31.4471 44.0217 32.0745 46.293C32.7018 48.5644 33.9712 50.7091 35.7974 52.5832V52.5832C35.9238 52.1059 35.9925 51.6211 36.0028 51.1346C36.0028 49.664 36.2668 47.6447 37.7922 47.3594C39.3176 47.074 40.1096 49.1153 40.4909 49.9713C41.311 51.9979 41.3719 54.154 40.6669 56.2047L40.3149 57.5655C39.3695 59.595 39.2672 61.791 40.0216 63.8648V63.8648C40.4795 63.0133 41.113 62.2209 41.899 61.5163L42.515 60.8578C43.5013 61.9779 44.1556 63.243 44.4339 64.5681C44.7122 65.8931 44.608 67.2474 44.1284 68.5399C43.9248 69.3328 43.6304 70.1112 43.2484 70.8664C42.7749 71.5746 42.3729 72.3083 42.0457 73.0613C41.643 74.215 41.573 75.4195 41.8403 76.595L41.8403 77.1876C41.8403 76.6828 42.1337 75.6293 42.5443 75.4537C43.1017 75.6512 42.8963 76.9023 42.8083 77.4291L42.8083 77.6925C42.8375 78.4922 42.7787 79.2924 42.6323 80.0849C42.5695 82.0562 42.2552 84.0185 41.6936 85.9452C41.2564 87.0282 40.6869 88.0789 39.9923 89.0838C39.6989 89.5228 39.4056 89.9618 39.1709 90.4007C38.415 91.7596 37.9307 93.1943 37.7335 94.6588C37.2055 97.4243 36.8828 100.256 36.5601 102.999L36.3548 104.733C35.7094 110.396 34.4481 116.564 32.7467 124.136C31.2201 129.884 29.2614 135.563 26.8798 141.146L26.0585 143.341L26.1171 144.636C25.1597 147.231 24.0239 149.788 22.7144 152.296C21.8561 153.895 20.8767 155.456 19.7809 156.971L19.4876 157.52C18.9891 158.49 18.1597 159.345 17.0822 160C17.342 159.042 17.8721 158.137 18.6369 157.344C18.8716 157.037 19.1356 156.73 19.3409 156.4C20.3622 154.924 21.2538 153.399 22.0103 151.835C23.4184 148.806 24.6504 145.733 25.6478 142.617L26.0585 141.453C28.3854 135.188 30.2751 128.836 31.72 122.424C32.7174 117.529 33.4214 112.547 34.0961 107.718L34.8294 102.933C35.0348 101.507 35.2988 100.058 35.5628 98.6534C35.8268 97.2487 36.1201 95.6465 36.3255 94.132C36.6952 92.715 36.6424 91.2544 36.1708 89.8544C35.6992 88.4544 34.8205 87.1496 33.5974 86.033C32.8347 85.4184 32.072 84.8477 31.3093 84.321C29.0839 82.9865 27.3813 81.2272 26.3811 79.2289L26.3811 78.9655C26.0291 78.1753 25.3544 76.7706 26.3811 76.3536C26.7273 76.3091 27.0824 76.3256 27.4185 76.4018C27.7546 76.478 28.0623 76.6118 28.3172 76.7926L29.4319 77.5388L29.4319 77.3852C29.1901 77.0981 28.9046 76.8329 28.5812 76.595C26.3633 75.2007 24.6486 73.4121 23.5944 71.3932C23.1544 70.2958 23.5944 70.1641 24.6504 69.8568L24.9144 69.8568C25.2596 69.7662 25.5712 69.6158 25.8238 69.4178C26.0611 69.2126 26.2407 68.9737 26.3518 68.7154C26.5034 68.3732 26.7653 68.0641 27.1145 67.8155C27.6978 67.4598 28.3789 67.205 29.1092 67.0693C29.2251 67.0781 29.3422 67.069 29.4532 67.0426C29.5642 67.0162 29.6668 66.973 29.7546 66.9157L29.7546 66.762C29.0008 66.1677 28.1055 65.6839 27.1145 65.3353C25.7282 64.9181 24.5918 64.138 23.9171 63.1405C23.7225 62.809 23.6774 62.4391 23.7885 62.0867C23.8996 61.7343 24.161 61.4185 24.5331 61.187C25.0927 60.8456 25.7713 60.6311 26.4886 60.5689C27.2059 60.5067 27.932 60.5993 28.5812 60.8359L29.2559 61.1212C29.9013 61.4285 30.4879 61.7138 31.3093 61.3407C31.5593 61.2262 31.7865 61.0858 31.984 60.9237C32.112 60.7628 32.3105 60.6399 32.5457 60.5759C32.7809 60.5119 33.0384 60.5107 33.2747 60.5725C33.5511 60.6784 33.8076 60.8113 34.0374 60.9676C34.2657 61.136 34.4454 61.3377 34.5654 61.5602C34.9616 62.1345 35.1248 62.783 35.0348 63.4258C34.5947 62.9868 34.1841 62.504 33.7734 62.0211L33.128 61.2968C33.0849 61.9469 33.1739 62.5982 33.392 63.2283C33.6128 63.9478 33.7113 64.6852 33.6854 65.4231C33.1449 64.9597 32.6358 64.4762 32.16 63.9745C31.3945 63.1566 30.4869 62.4185 29.4612 61.7797C29.0853 61.4902 28.5848 61.3095 28.0481 61.2693C27.5113 61.2292 26.9729 61.3322 26.5278 61.5602C26.234 61.8839 26.0769 62.2663 26.0769 62.6576C26.0769 63.049 26.234 63.4313 26.5278 63.755C27.3847 64.5719 28.3695 65.3088 29.4612 65.9499L30.0186 66.323C30.2533 66.4547 30.4879 66.6303 30.752 66.8059C31.6243 67.7427 32.9501 68.3882 34.4481 68.6057L35.4161 68.6057C36.4135 68.6057 37.0588 68.4082 37.7335 69.33C38.05 69.8459 38.2673 70.3927 38.3789 70.9542C38.4706 71.386 38.6079 71.8117 38.7895 72.2272L38.7895 72.0955C38.6869 71.6396 38.7793 71.171 39.0536 70.7567L39.3469 70.0543C39.4644 69.2666 39.4644 68.4716 39.3469 67.6839L39.3469 65.489C39.4662 64.006 39.2277 62.519 38.6429 61.0993C38.1735 60.1335 37.6748 59.9579 37.3228 59.9799C36.9708 60.0018 36.3841 60.5725 36.2081 61.4065C36.0321 62.6248 36.0321 63.8537 36.2081 65.072C36.2081 65.6865 36.3841 66.345 36.4135 66.9596C34.9382 64.7681 34.6645 62.2323 35.6508 59.8921C36.3601 58.8475 36.5273 57.6434 36.1201 56.512L35.9148 55.8755C35.6472 54.4922 34.8873 53.1883 33.7147 52.1003V52.1003C33.6926 53.8958 34.0592 55.6821 34.8001 57.3899L35.2988 58.8385C34.7796 58.0761 34.3193 57.2919 33.9201 56.49C33.2469 54.8617 32.1055 53.3634 30.5759 52.1003V52.1003C29.6558 54.2647 29.8227 56.606 31.0453 58.6849L31.3386 59.4312C29.1255 56.723 27.5387 53.7548 26.6452 50.6517C26.2051 49.3567 26.0291 47.8423 26.6452 47.5569C27.2612 47.2716 27.5545 47.5569 27.9945 47.9081C27.7621 45.9771 27.056 44.0946 25.9118 42.3551V42.3551C25.2078 41.0601 24.5918 39.7432 24.0051 38.4482L23.4477 37.0874L23.4477 36.846C23.0223 36.0094 22.7748 35.128 22.7144 34.2341C22.6557 33.8916 22.6557 33.5449 22.7144 33.2025C22.7733 32.8453 22.7733 32.4841 22.7144 32.127C22.5844 31.3554 22.2556 30.61 21.7463 29.9321L21.277 29.142C18.3435 23.9621 17.1115 20.3625 17.6982 19.7918C17.9545 19.9907 18.2398 20.1674 18.5489 20.3186L18.9009 20.5161C18.9009 20.143 18.5196 19.9016 18.0502 19.6602C17.7061 19.5094 17.4066 19.3078 17.1702 19.0675C16.5862 18.2493 16.1144 17.3889 15.7621 16.4995C15.5275 16.0167 15.3221 15.5118 15.0581 15.0509L14.6181 14.2388C13.3392 11.9347 12.5856 9.48638 12.3887 6.99576L12.77 7.21525L15.7035 8.83945C15.9921 7.81902 15.762 6.75471 15.0581 5.85442L14.6474 5.10818L14.2367 4.16438C14.0718 3.18131 13.5204 2.25701 12.6527 1.50859V1.50859C12.7106 2.56994 13.0082 3.61629 13.5327 4.60335C14.0026 5.37655 14.3567 6.18627 14.5888 7.01772C13.5335 6.08921 12.7983 4.98145 12.4474 3.79126C12.2127 3.26449 11.9487 2.73772 11.6553 2.21095ZM35.2988 44.9231L35.2988 45.4718L35.8561 45.8669C36.2752 45.0775 36.3472 44.2087 36.0615 43.3867L36.0615 42.4648C34.9761 42.4648 35.1814 43.9573 35.2988 44.9231ZM28.3172 78.4168C28.3947 79.6293 28.8518 80.8112 29.6518 81.8672C30.4518 82.9233 31.5722 83.8239 32.9227 84.4965C33.8549 85.0148 34.676 85.6365 35.3574 86.3402L35.9441 86.867L36.1201 86.9987C36.7088 87.5008 37.2574 88.0285 37.7628 88.579V88.579C38.2033 87.511 38.2098 86.3693 37.7815 85.2985C37.3532 84.2278 36.5095 83.2764 35.3574 82.5651C35.0641 82.4114 34.7707 82.2797 34.4774 82.148C34.0657 81.9683 33.682 81.7548 33.3334 81.5115C33.0665 81.3016 32.8395 81.0653 32.6587 80.8092C32.4807 80.5691 32.2745 80.3415 32.0427 80.1288C30.9301 79.2965 29.5439 78.6984 28.0239 78.3948L28.3172 78.4168ZM25.2078 71.8322C27.8657 74.6312 30.8078 77.2728 34.0081 79.7337L35.0641 80.5677C36.2412 81.4038 37.2847 82.3392 38.1735 83.3552C38.6187 83.9887 38.9633 84.6591 39.2002 85.3525C39.4327 86.1266 39.8079 86.8726 40.3149 87.5694V87.5694C41.4138 86.5068 42.1443 85.2573 42.4411 83.9322C42.738 82.6072 42.5921 81.2477 42.0163 79.9751V79.9751C41.5199 80.4985 41.134 81.0759 40.8723 81.6871C40.7465 81.9955 40.5896 82.2964 40.4029 82.587L40.1096 81.7969C39.7154 80.1759 38.6234 78.696 37.0002 77.5827V77.5827L36.1788 78.7899C35.7438 78.4132 35.2626 78.0678 34.7414 77.7583C34.4187 77.5388 34.0961 77.3413 33.8027 77.1218C33.372 76.7964 32.9794 76.4439 32.6293 76.0682L31.5146 75.1245C30.2458 74.2734 28.8477 73.5367 27.3492 72.9296C26.6452 72.6004 25.9118 72.2711 25.2371 71.898L25.2078 71.8322ZM38.7895 74.5757L38.7895 73.8514C38.7015 72.1179 37.8797 70.4501 36.4428 69.0886V69.0886C36.2669 70.1894 36.2669 71.302 36.4428 72.4028C36.5015 73.1924 36.5015 73.9837 36.4428 74.7733L35.8268 73.193C35.4705 71.8723 34.8052 70.6091 33.8614 69.4617C33.4488 69.0078 32.9103 68.6259 32.2826 68.3418C31.6549 68.0577 30.9527 67.8782 30.2239 67.8155C29.8685 67.7924 29.5112 67.8389 29.1871 67.9505C28.8631 68.0621 28.5835 68.235 28.3759 68.4521C26.3518 70.2738 28.9919 72.2053 30.752 73.4783L31.28 73.8734C31.5401 74.0828 31.7849 74.3026 32.0133 74.5318C32.4771 75.0767 33.1114 75.5287 33.8614 75.8488C34.132 75.8927 34.4121 75.8927 34.6827 75.8488C34.9521 75.8066 35.2037 75.7163 35.4161 75.5854C35.6506 75.4737 35.9084 75.3921 36.1788 75.3439C36.1321 75.7051 36.1978 76.0694 36.3709 76.4083C36.5439 76.7472 36.8196 77.0515 37.1762 77.2974L37.5575 77.6705C38.1789 78.3698 38.7281 79.1036 39.2002 79.8654L40.0803 81.0287C40.4584 80.3172 40.5402 79.5368 40.3149 78.7899L40.3149 77.6266L40.5789 76.4414C41.0654 75.1572 41.0039 73.7913 40.4029 72.5345V72.5345C39.9674 73.5522 39.9368 74.6427 40.3149 75.6732C40.5913 76.7366 40.363 77.8389 39.6696 78.7899C39.2596 77.3411 38.9657 75.8752 38.7895 74.4002L38.7895 74.5757ZM40.5789 70.8006L41.371 71.5029C42.9598 69.8653 43.7937 67.8855 43.747 65.8621L43.747 65.4231C43.8937 64.3477 44.099 62.5479 43.0137 62.0869C42.8784 62.065 42.7383 62.065 42.603 62.0869C42.4578 62.0651 42.3082 62.0651 42.163 62.0869C41.2536 62.3942 40.7843 63.8428 40.5496 64.633L40.5496 64.8744C39.7407 66.8031 39.6595 68.8615 40.3149 70.8225L40.5789 70.8006ZM36.9708 53.2416L36.9708 54.9097C36.9708 56.1169 36.7068 57.785 37.9682 58.3337C38.1415 58.4074 38.3298 58.4593 38.5255 58.4874C38.7167 58.5314 38.9211 58.5314 39.1122 58.4874C40.0803 58.1362 40.3443 56.6437 40.4909 55.8535L40.4909 55.656C40.9904 53.601 40.7266 51.4829 39.7282 49.5323V49.5323L38.1735 48.2373C37.4426 49.8756 37.1729 51.6094 37.3815 53.3294L36.9708 53.2416ZM22.7144 12.3732L22.3037 11.583L21.9223 10.5515C21.7422 9.51333 21.1259 8.54488 20.1623 7.78592V7.78592C19.8502 8.53813 19.7211 9.32613 19.7809 10.1125L19.7809 10.749C20.7229 12.3606 21.862 13.9036 23.1837 15.3582V15.3582C23.4868 14.3523 23.3212 13.299 22.7144 12.3732V12.3732ZM26.3225 21.7233C26.2312 20.7212 26.0052 19.7285 25.6478 18.7603C25.4718 18.2993 25.3251 17.8165 25.2078 17.3555L23.8291 16.3678C23.5352 17.6584 23.5951 18.9801 24.0051 20.2528L24.1811 21.1746C24.21 21.5621 24.21 21.9504 24.1811 22.3379C24.2085 23.5965 24.7175 24.8228 25.6478 25.8716V25.8716C25.6571 25.2147 25.7554 24.5603 25.9411 23.9182C26.1707 23.1986 26.2985 22.4629 26.3225 21.7233V21.7233ZM30.2826 28.7908L30.0479 28.0445L30.0479 26.8813C30.0132 26.3732 29.9348 25.8673 29.8133 25.3668C29.493 24.4069 28.7487 23.5562 27.7012 22.9525L27.2612 22.6452C26.81 24.2448 26.8905 25.9029 27.4958 27.4739L27.8479 28.8347C27.8479 28.8347 28.5225 31.6441 29.8133 31.8856C29.9744 31.9292 30.1508 31.9292 30.3119 31.8856C30.4656 31.8221 30.5965 31.7318 30.6933 31.6222C31.3386 31.0515 30.8986 29.8224 30.6933 28.8347L30.2826 28.7908ZM29.3732 32.6977C29.0269 33.9832 29.2217 35.3174 29.9306 36.5167C30.1704 37.0039 30.3664 37.5025 30.5173 38.0092V38.0092L31.016 38.3385C31.3036 37.3653 31.3056 36.357 31.022 35.3832C30.7384 34.4093 30.1759 33.4931 29.3732 32.6977V32.6977ZM33.216 37.8995C33.4214 38.558 33.5974 39.2164 33.7147 39.809C33.7704 38.6783 34.0168 37.5574 34.4481 36.4728C35.1535 34.6719 34.9767 32.7417 33.9494 31.0296V31.0296C32.0133 32.8294 32.8347 35.4193 33.5387 37.9215L33.216 37.8995ZM27.9652 44.6158L28.3465 45.4279C28.9812 46.8667 29.5004 48.3325 29.9013 49.8176L29.6079 49.6859C28.7866 49.3567 27.7012 48.8738 27.1732 49.4665C26.6452 50.0591 27.1732 50.7175 27.7012 51.376C27.886 51.5769 28.0248 51.7994 28.1119 52.0345V52.0345L28.7279 52.4734L29.9013 50.8712C30.9707 51.6425 31.9519 52.4795 32.8347 53.3733V53.3733C32.6313 51.0336 32.1004 48.7163 31.2506 46.4595L31.5146 45.8669C31.3951 44.8473 30.9418 43.8654 30.1949 43.0079C29.448 42.1504 28.4303 41.4438 27.2318 40.9504V40.9504C27.1496 42.1801 27.4614 43.4067 28.1412 44.528L27.9652 44.6158ZM25.0318 38.2946C25.7814 39.3122 26.8607 40.1726 28.1705 40.7967C28.8788 41.1981 29.5546 41.6306 30.1946 42.0917V42.0917C30.1416 40.699 29.8357 39.3183 29.2852 37.9873L29.2852 37.6581L29.0212 37.6581L28.5812 36.6484C28.3519 35.9777 27.9963 35.3348 27.5252 34.7389C26.8869 34.1139 26.0358 33.6288 25.0611 33.3342L24.5038 33.1147C24.0246 34.845 24.3344 36.6456 25.3838 38.2287L25.0318 38.2946ZM23.6824 30.2175C23.9171 30.7662 24.1811 31.3149 24.3571 31.8636C24.5961 32.0132 24.8215 32.1745 25.0318 32.3465C25.5114 32.7845 26.1396 33.118 26.8505 33.3122L27.0558 33.3122C27.201 33.3341 27.3506 33.3341 27.4958 33.3122C27.6224 33.266 27.7329 33.1983 27.8185 33.1147C28.1412 32.7635 27.8185 32.1709 27.8185 31.71L27.8185 31.5124L27.6132 30.9637C26.8212 28.9005 25.8531 26.3325 23.0957 25.4546C22.862 27.0618 23.1853 28.687 24.0344 30.1736L23.6824 30.2175ZM18.9302 21.438C19.1869 22.619 19.7234 23.7562 20.5143 24.7961C21.1887 25.7213 21.692 26.7107 22.0103 27.7373L22.0103 28.4835C22.0396 28.2866 22.0396 28.0878 22.0103 27.8909L22.0103 26.8593C22.0463 25.7228 21.7975 24.5912 21.277 23.5231C20.7783 22.6671 20.0156 21.5038 18.8422 21.4819L18.9302 21.438ZM21.4236 22.6232L21.629 22.6232C22.0983 23.15 22.5384 23.4573 22.8904 23.5012C22.976 23.5229 23.0688 23.5229 23.1544 23.5012C23.5357 23.3914 23.6237 22.9524 23.4184 22.1403C23.1718 20.0964 21.8663 18.2058 19.7809 16.8727V16.8727C19.9492 18.815 20.5852 20.7185 21.6583 22.4915L21.4236 22.6232ZM16.8475 16.741L17.2875 17.5311L18.4902 18.8041L18.4902 18.4091C18.3435 16.9605 18.1382 14.9631 15.9675 14.3486C15.9604 15.1175 16.2234 15.8744 16.7302 16.5434L16.8475 16.741ZM18.0209 14.3266C18.8129 15.3143 20.2503 16.9166 21.277 17.0263L21.453 17.0263C21.5486 17.0483 21.6508 17.0483 21.7463 17.0263C21.8289 16.9869 21.8989 16.9344 21.9517 16.8727C22.421 16.324 21.9517 15.007 21.2183 13.6901L20.9543 13.1633L20.1036 12.2854C19.3735 11.3893 18.3678 10.6368 17.1702 10.0905V10.0905C16.9219 10.8365 16.8877 11.6134 17.0697 12.37C17.2517 13.1267 17.6459 13.8458 18.2262 14.4803L18.0209 14.3266ZM13.5327 8.31268L13.9141 10.9246L15.5568 12.3732C15.2861 10.9322 14.5951 9.55346 13.5327 8.33463L13.5327 8.31268Z" fill="#DBC29E"/>
<path d="M62.6584 41.7685L62.6515 41.5669C62.6116 41.082 62.5856 40.5296 63.1324 40.2903L63.3702 40.2123C63.451 40.2234 63.5274 40.2507 63.5916 40.2913C63.9113 40.4499 64.1624 40.6788 64.3097 40.9459C64.9916 42.1679 65.1964 43.5 64.8988 44.7769C64.8359 45.1525 64.7392 45.5232 64.6092 45.8865C64.1506 46.7369 64.0951 47.6946 64.4518 48.6001V48.6001C64.645 48.3442 64.7995 48.0715 64.9123 47.7869C65.0447 47.3437 65.3982 46.9642 65.8994 46.7272C65.9991 46.6788 66.1146 46.6514 66.2348 46.6477C66.3497 46.6706 66.4589 46.7096 66.5568 46.7627V46.7627C66.8789 46.8776 66.9932 47.3167 67.0665 47.6145C67.3555 49.1307 67.3066 50.6621 66.9218 52.143C66.7929 52.7125 66.6524 53.2598 66.5521 53.8214L66.385 54.7575C65.872 56.4912 65.8682 58.3065 66.3738 60.076C66.8494 61.8403 66.6025 63.6497 65.6673 65.2549L65.2679 66.2166C66.2428 66.0758 66.8862 66.1788 67.2182 66.5326C67.7923 67.0996 67.3936 68.1883 66.8069 69.0108C66.2202 69.8333 65.5476 70.6794 64.8803 71.4732C64.0725 72.5431 63.3615 73.6561 62.7519 74.8049C63.2018 74.6939 63.6402 74.5607 64.0785 74.4275C64.1686 74.9059 64.1325 75.389 63.9723 75.8481C63.8121 76.3072 63.5311 76.7329 63.146 77.0999L62.9329 77.4764C62.4847 78.2382 61.7681 78.8835 60.8596 79.3432C60.9516 78.2783 61.1892 77.2286 61.5686 76.2109C62.0595 74.9559 62.2971 73.6432 62.2735 72.3168V72.3168C60.9254 73.7016 59.9941 75.3037 59.5422 77.0159C59.0902 78.728 59.1279 80.5104 59.6528 82.2436V82.2436C59.9249 81.947 60.1604 81.6312 60.3565 81.2999C60.9279 80.2909 61.8935 78.9701 63.051 79.1479C64.2085 79.3257 63.9589 80.9202 63.888 81.601C63.6633 83.1923 62.8674 84.6866 61.5869 85.921L60.8167 86.7685C59.3796 87.9295 58.4562 89.4112 58.1681 91.0189V91.0189C58.8131 90.5468 59.5556 90.1582 60.3687 89.8673L61.0472 89.5664C61.2888 90.5764 61.2462 91.6047 60.9223 92.5821C60.5985 93.5594 60.0008 94.4631 59.1696 95.2324C58.7218 95.7267 58.2174 96.1886 57.6619 96.6132C57.0619 96.9832 56.501 97.3881 55.9839 97.8247C55.2594 98.5176 54.7434 99.327 54.4701 100.199L54.2399 100.606C54.436 100.259 55.0466 99.6082 55.3966 99.5883C55.7023 99.8604 55.0753 100.668 54.8103 101.008L54.7079 101.189C54.4173 101.745 54.066 102.28 53.6577 102.787C52.8487 104.125 51.8706 105.394 50.7368 106.579C50.016 107.215 49.217 107.796 48.35 108.315C47.9782 108.545 47.6063 108.774 47.2748 109.018C46.2282 109.765 45.3385 110.631 44.6342 111.587C43.1975 113.356 41.876 115.219 40.5887 117.023L39.7742 118.162C37.1313 121.89 33.8696 125.812 29.7603 130.591C26.4796 134.162 22.9293 137.578 19.1261 140.826L17.7098 142.131L17.2469 143.034C15.5816 144.58 13.809 146.056 11.9361 147.456C10.726 148.343 9.4476 149.174 8.10703 149.945L7.69258 150.25C6.97376 150.793 6.0725 151.177 5.07854 151.363C5.62899 150.769 6.34444 150.278 7.1771 149.921C7.4575 149.768 7.75803 149.622 8.02684 149.446C9.30131 148.683 10.5056 147.855 11.6321 146.967C13.775 145.234 15.8142 143.427 17.7094 141.533L18.4432 140.836C22.4739 137.107 26.2383 133.211 29.721 129.165C32.3069 126.051 34.7257 122.805 37.0646 119.657L39.4268 116.554C40.122 115.625 40.8659 114.696 41.5928 113.797C42.3197 112.897 43.1435 111.87 43.8728 110.881C44.677 109.999 45.2082 108.984 45.4286 107.908C45.6489 106.832 45.553 105.722 45.1475 104.656C44.863 104.047 44.5614 103.469 44.2427 102.921C43.2343 101.46 42.7495 99.8361 42.8397 98.22L42.942 98.0393C43.0075 97.4109 43.0903 96.2818 43.9568 96.2472C44.2115 96.3014 44.4488 96.3997 44.6498 96.5343C44.8508 96.6689 45.01 96.8361 45.1146 97.0225L45.5895 97.8076L45.6492 97.7022C45.5949 97.4459 45.502 97.1941 45.3725 96.9516C44.3925 95.4517 43.9109 93.8046 43.9719 92.1611C44.0963 91.3004 44.4494 91.3178 45.2934 91.3656L45.4745 91.4302C45.7465 91.4526 46.0188 91.4257 46.269 91.3518C46.5115 91.2691 46.7276 91.1492 46.9042 90.9992C47.1412 90.8014 47.441 90.6535 47.7771 90.5685C48.3155 90.4673 48.8819 90.4593 49.4357 90.545C49.5118 90.5794 49.5957 90.6019 49.6821 90.6109C49.7685 90.62 49.8557 90.6155 49.9382 90.5976L49.9979 90.4922C49.7116 89.8998 49.2853 89.3486 48.7407 88.8667C47.9516 88.2409 47.475 87.4274 47.3996 86.5777C47.3949 86.3025 47.5076 86.0377 47.7208 85.8231C47.9339 85.6085 48.2359 85.4559 48.5812 85.3882C49.0978 85.291 49.6467 85.31 50.1631 85.443C50.6794 85.576 51.1417 85.8174 51.4952 86.1387L51.8473 86.4997C52.1707 86.8686 52.4624 87.2081 53.1709 87.1532C53.387 87.1359 53.5974 87.0952 53.7959 87.0323C53.9462 86.9533 54.1301 86.9176 54.3164 86.9313C54.5026 86.945 54.6798 87.0072 54.8179 87.1075C54.9664 87.2479 55.0907 87.4018 55.1877 87.5654C55.2789 87.7369 55.3238 87.9193 55.3198 88.1013C55.3685 88.5924 55.2285 89.0773 54.917 89.4963C54.7856 89.0874 54.6914 88.6555 54.5973 88.2236L54.4359 87.5685C54.1537 88.004 53.9617 88.4727 53.8666 88.9585C53.7385 89.5062 53.5196 90.0363 53.2151 90.5363C53.0243 90.0859 52.8629 89.6295 52.7313 89.1687C52.5238 88.4201 52.1879 87.6913 51.7323 87.0018C51.5868 86.7111 51.3136 86.4645 50.961 86.3055C50.6083 86.1465 50.1988 86.0853 49.8049 86.1328C49.4775 86.2829 49.2211 86.5068 49.0691 86.7753C48.917 87.0438 48.8763 87.3446 48.9521 87.6387C49.2227 88.4091 49.6122 89.1559 50.1121 89.8632L50.3496 90.2557C50.4594 90.4035 50.5522 90.5815 50.6652 90.7666C50.8998 91.623 51.5586 92.3907 52.502 92.9068L53.1662 93.1438C53.8505 93.3881 54.3701 93.4106 54.4748 94.2084C54.4916 94.6399 54.4282 95.0683 54.2866 95.4809C54.1818 95.7996 54.1106 96.1253 54.0738 96.4549L54.125 96.3646C54.2317 96.0266 54.4771 95.7277 54.8263 95.5106L55.3004 95.1005C55.6871 94.5888 55.9959 94.0433 56.2214 93.474L57.0741 91.9681C57.7321 90.9797 58.1462 89.9011 58.2965 88.7837C58.3497 88.0061 58.0758 87.7635 57.8257 87.6923C57.5757 87.6212 56.9514 87.869 56.5066 88.3982C55.9125 89.191 55.4351 90.0342 55.0825 90.9132C54.8438 91.3349 54.7087 91.8298 54.4901 92.2586C54.3292 90.3937 55.1267 88.5867 56.7126 87.2226C57.6051 86.6796 58.1876 85.8943 58.3478 85.0183L58.4542 84.5313C58.8081 83.5166 58.7933 82.4359 58.4114 81.4022V81.4022C57.6987 82.6287 57.2561 83.9441 57.101 85.2974L56.8803 86.4135C56.8204 85.7632 56.8092 85.1124 56.8468 84.4644C57.0176 83.1823 56.8165 81.8747 56.2578 80.6334V80.6334C54.7855 81.8932 53.9904 83.5405 54.0216 85.2663L53.9329 85.8502C53.4666 83.45 53.531 81.0248 54.1235 78.6768C54.3247 77.6805 54.7923 76.5982 55.3259 76.5533C55.8594 76.5084 55.9498 76.7761 56.1153 77.1248C56.706 75.7429 56.9529 74.2784 56.8437 72.8046V72.8046C56.8637 71.7436 56.9527 70.6891 57.0533 69.6569L57.1995 68.5867L57.2933 68.421C57.3264 67.7428 57.4991 67.0775 57.8049 66.4493C57.8977 66.2 58.0324 65.9621 58.2057 65.7415C58.3849 65.5109 58.5252 65.2631 58.6235 65.0036C58.8341 64.4423 58.8982 63.8504 58.8121 63.2605L58.797 62.6034C58.7968 58.3308 59.3499 55.5593 59.9742 55.3114C60.0727 55.5107 60.1999 55.7018 60.3532 55.8812L60.518 56.103C60.6629 55.8469 60.4951 55.5879 60.2668 55.3073C60.0893 55.1196 59.9622 54.9079 59.8933 54.6851C59.8105 53.9807 59.821 53.2748 59.9249 52.5783C59.9514 52.1895 60.0067 51.7928 60.0046 51.4119L60.0182 50.7469C60.0359 48.8527 60.47 46.9883 61.3026 45.2312L61.479 45.4752L62.8607 47.308C63.4552 46.6786 63.7108 45.892 63.5776 45.1018L63.5857 44.4892L63.6706 43.7411C63.9394 43.0261 63.9202 42.2569 63.6156 41.5309V41.5309C63.243 42.2733 63.0406 43.0641 63.017 43.8698C63.039 44.5154 62.9674 45.1578 62.8036 45.7851C62.4403 44.8895 62.3662 43.9494 62.5878 43.0468C62.6315 42.6279 62.655 42.2018 62.6584 41.7685ZM62.2867 76.8656L62.0735 77.2421L62.3025 77.6496C62.8967 77.2107 63.2836 76.6322 63.4069 75.9982L63.7651 75.3657C63.0204 75.0998 62.5814 76.1742 62.2867 76.8656ZM44.4836 98.137C44.0657 98.9879 43.9202 99.9108 44.0588 100.831C44.1973 101.752 44.6162 102.644 45.2815 103.436C45.7198 104.02 46.0416 104.648 46.2358 105.298L46.4337 105.803L46.5033 105.936C46.7122 106.425 46.8835 106.921 47.0164 107.423V107.423C47.7336 106.798 48.1816 106.016 48.3038 105.177C48.4259 104.337 48.2166 103.478 47.7025 102.708C47.5609 102.53 47.4108 102.368 47.2607 102.206C47.048 101.982 46.8677 101.741 46.723 101.489C46.6215 101.28 46.5575 101.062 46.533 100.842C46.5041 100.633 46.4511 100.427 46.3746 100.224C45.9346 99.3805 45.2159 98.6306 44.2909 98.0501L44.4836 98.137ZM44.9083 92.8575C45.6445 95.4289 46.6369 97.962 47.8767 100.434L48.2772 101.265C48.7601 102.127 49.1126 103.025 49.3277 103.939C49.3871 104.483 49.3631 105.027 49.2562 105.561C49.115 106.149 49.0825 106.753 49.1598 107.355V107.355C50.3266 106.895 51.3132 106.217 52.0317 105.38C52.7502 104.544 53.1782 103.576 53.2776 102.561V102.561C52.7337 102.799 52.2446 103.101 51.8275 103.456C51.6214 103.637 51.3969 103.805 51.1559 103.958L51.2616 103.344C51.6209 102.136 51.4466 100.853 50.7653 99.6913V99.6913L49.7328 100.318C49.5807 99.9534 49.3847 99.5985 49.1473 99.2585C49.0112 99.0289 48.8665 98.8144 48.7505 98.5919C48.5814 98.2632 48.449 97.9252 48.3548 97.5817L47.9566 96.6611C47.4166 95.7663 46.7436 94.9185 45.9513 94.1349C45.5961 93.7366 45.2208 93.3311 44.9029 92.9098L44.9083 92.8575ZM53.1614 98.0663L53.4428 97.5693C54.0559 96.3583 54.14 95.0127 53.683 93.7266V93.7266C53.1346 94.4389 52.7024 95.2022 52.3954 96.0006C52.1289 96.5567 51.8214 97.0997 51.4744 97.6271L51.6657 96.3919C51.9344 95.3985 51.9686 94.3688 51.7669 93.3504C51.6601 92.9379 51.439 92.544 51.1187 92.1953C50.7984 91.8467 50.3863 91.5516 49.9106 91.33C49.6758 91.2271 49.4125 91.1715 49.1468 91.1687C48.8811 91.1659 48.6221 91.2161 48.3953 91.3142C46.2987 92.0684 47.3598 94.0403 48.0728 95.3448L48.2816 95.7452C48.3788 95.9526 48.4614 96.1634 48.529 96.3766C48.6355 96.864 48.8951 97.3296 49.2854 97.7328C49.454 97.8292 49.6462 97.8978 49.849 97.934C50.0501 97.971 50.2579 97.9706 50.4545 97.9329C50.6587 97.9136 50.8673 97.9208 51.0716 97.954C50.8992 98.1903 50.8028 98.4564 50.7898 98.7313C50.7769 99.0063 50.8478 99.2826 50.997 99.5386L51.1137 99.888C51.2683 100.52 51.3601 101.158 51.3881 101.796L51.5399 102.81C52.0758 102.414 52.4351 101.899 52.5707 101.331L53.0227 100.533L53.6643 99.7846C54.4971 99.0226 54.9855 98.0704 55.0614 97.0609V97.0609C54.3672 97.6525 53.9225 98.3933 53.7816 99.1929C53.5581 99.9902 52.9732 100.691 52.1279 101.173C52.4095 100.079 52.7774 99.0011 53.2296 97.9458L53.1614 98.0663ZM55.8558 95.9143L56.1264 96.5902C57.8528 95.8556 59.1942 94.7015 59.9483 93.3017L60.1188 93.0005C60.6373 92.2985 61.4774 91.1139 60.9118 90.5318C60.8275 90.4836 60.7314 90.4493 60.63 90.4312C60.5389 90.3807 60.4362 90.344 60.3281 90.3235C59.5848 90.3116 58.6999 91.1906 58.2319 91.6753L58.1381 91.8409C56.8338 92.9662 55.9784 94.3586 55.6662 95.8647L55.8558 95.9143ZM60.2021 82.9827L59.554 84.1273C59.085 84.9556 58.2558 86.0355 58.9081 86.7209C58.9983 86.8139 59.1073 86.8956 59.2308 86.9628C59.3448 87.0398 59.4851 87.0899 59.6333 87.1065C60.434 87.1026 61.195 86.1432 61.6026 85.637L61.6794 85.5014C62.8204 84.2138 63.4624 82.6958 63.5352 81.113V81.113L62.9716 79.8437C61.8335 80.7887 60.9749 81.9123 60.4498 83.1436L60.2021 82.9827ZM66.2982 51.4497L66.3234 50.807L66.4625 50.0058C66.7423 49.2494 66.6956 48.434 66.3293 47.6772V47.6772C65.823 48.1169 65.4282 48.6259 65.1638 49.1801L64.9165 49.6169C64.9367 50.9534 65.1188 52.291 65.4605 53.6128V53.6128C66.0593 52.9968 66.3548 52.2336 66.2982 51.4497V51.4497ZM65.1412 58.7489C65.4679 58.0389 65.6985 57.3024 65.8295 56.5506C65.8878 56.1912 65.9747 55.824 66.0733 55.479L65.511 54.4636C64.808 55.2771 64.3356 56.1987 64.1225 57.1723L63.8851 57.8479C63.7544 58.1209 63.6035 58.3874 63.4331 58.6461C62.963 59.5164 62.8358 60.4825 63.0666 61.43V61.43C63.3282 60.9815 63.6499 60.5565 64.0268 60.1615C64.4639 59.724 64.8374 59.2505 65.1412 58.7489V58.7489ZM65.1126 64.5681L65.2415 63.9986L65.6934 63.2004C65.867 62.8433 66.0098 62.477 66.1208 62.1038C66.274 61.3667 66.0938 60.6007 65.6096 59.9299L65.4271 59.6113C64.496 60.5984 63.9071 61.7558 63.7121 62.9819L63.4249 64.0019C63.4249 64.0019 62.7964 66.0948 63.5882 66.5765C63.6818 66.6459 63.8028 66.6891 63.9303 66.6987C64.0604 66.6928 64.1853 66.6628 64.2943 66.6114C64.9588 66.3779 65.1344 65.4267 65.3773 64.6988L65.1126 64.5681ZM62.9707 67.026C62.2337 67.8232 61.8489 68.7864 61.8694 69.7829C61.8446 70.1759 61.7854 70.566 61.6921 70.9507V70.9507L61.9063 71.2987C62.4818 70.7014 62.8749 70.0101 63.0587 69.2724C63.2424 68.5348 63.2124 67.7683 62.9707 67.026V67.026ZM63.5864 71.5363C63.4715 72.0384 63.3364 72.5333 63.1867 72.9687C63.6642 72.2065 64.2688 71.4977 64.9861 70.8592C66.1698 69.7962 66.7984 68.4285 66.7587 67.0022V67.0022C64.731 67.7629 64.2884 69.7412 63.7993 71.6304L63.5864 71.5363ZM57.3743 74.8586L57.3204 75.5092C57.1969 76.6519 56.9836 77.7848 56.6817 78.902L56.5316 78.7398C56.0959 78.3127 55.5388 77.7156 54.9463 77.9929C54.3537 78.2702 54.4602 78.8513 54.5667 79.4324C54.6155 79.6155 54.6242 79.8022 54.5926 79.9848V79.9848L54.8448 80.4368L56.2724 79.6248C56.7065 80.416 57.0546 81.2306 57.313 82.0601V82.0601C58.0825 80.4049 58.6185 78.6849 58.9122 76.9283L59.3236 76.5863C59.6377 75.8575 59.7082 75.0728 59.5288 74.3015C59.3495 73.5302 58.9258 72.7961 58.2951 72.164V72.164C57.761 72.9876 57.4983 73.9056 57.5291 74.8415L57.3743 74.8586ZM57.8174 69.803C57.9364 70.6848 58.3427 71.5394 58.9989 72.2885C59.3289 72.7374 59.6246 73.1996 59.8846 73.6728V73.6728C60.3893 72.7042 60.7158 71.6819 60.8553 70.6339L60.9832 70.408L60.802 70.3433L60.8924 69.5428C60.9956 69.0264 61.0014 68.4982 60.9097 67.9739C60.7145 67.3888 60.3191 66.8475 59.7647 66.4066L59.4676 66.1195C58.4665 67.1894 57.9796 68.5008 58.0845 69.844L57.8174 69.803ZM60.0296 63.9305C59.9775 64.3644 59.9454 64.8056 59.853 65.2252C59.9589 65.3863 60.0509 65.5522 60.1283 65.7217C60.2873 66.1398 60.5887 66.5224 61.001 66.8298L61.1419 66.8801C61.2331 66.9307 61.3357 66.9673 61.4438 66.9879C61.5486 66.9871 61.6507 66.9678 61.742 66.9314C62.0998 66.7694 62.1086 66.2838 62.2877 65.9675L62.3645 65.832L62.4368 65.4052C62.6949 63.7956 63.0284 61.7965 61.4775 60.5188C60.6927 61.5643 60.2832 62.7586 60.2882 63.9865L60.0296 63.9305ZM60.18 56.7427C59.8973 57.6159 59.8235 58.5275 59.9621 59.4348C60.0655 60.2347 60.0264 61.0369 59.846 61.8192L59.556 62.3312C59.6526 62.2033 59.7299 62.0669 59.7863 61.9246L60.1871 61.2168C60.6533 60.4458 60.9223 59.6084 60.98 58.7481C60.9704 58.0386 60.8991 57.0537 60.1025 56.7512L60.18 56.7427ZM61.4303 58.1666L61.5712 58.2169C61.6886 58.6932 61.8711 59.0118 62.0956 59.1282C62.1459 59.1641 62.2095 59.1868 62.2767 59.1928C62.581 59.2109 62.8119 58.9313 62.9866 58.3238C63.6115 56.861 63.4502 55.244 62.5373 53.8186V53.8186C61.8982 55.1925 61.595 56.6543 61.6425 58.1337L61.4303 58.1666ZM60.5758 53.0098L60.5707 53.6597L60.9013 54.8277L61.0548 54.5566C61.517 53.5268 62.1521 52.106 60.9014 51.1527C60.5978 51.6786 60.4842 52.2623 60.572 52.8455L60.5758 53.0098ZM62.3189 51.6406C62.4786 52.5122 62.8423 53.9636 63.5041 54.2904L63.6249 54.3335C63.6819 54.372 63.7521 54.397 63.8262 54.4053C63.8981 54.3985 63.9666 54.3797 64.0268 54.3502C64.562 54.0887 64.7516 53.0701 64.7601 51.9869L64.7836 51.5608L64.541 50.7501C64.3882 49.9564 63.9905 49.1938 63.381 48.5257V48.5257C62.9208 48.9767 62.5955 49.5014 62.4264 50.0651C62.2573 50.6288 62.2484 51.2188 62.4001 51.7963L62.3189 51.6406ZM61.5759 46.415L60.8228 48.3005L61.3871 49.6967C61.7612 48.6417 61.8228 47.5265 61.5674 46.43L61.5759 46.415Z" fill="#DBC29E"/>
</svg>
