<svg height="10000" version="1.1" width="10000" xmlns="http://www.w3.org/2000/svg" data-id="1" data-type="update"><g data-type="PATH" data-id="gSlmi64fmd33" data-state="{&quot;transform&quot;:{&quot;attrs&quot;:{&quot;x&quot;:0,&quot;y&quot;:0.00012199999764561653,&quot;size&quot;:{&quot;x&quot;:312.49871826171875,&quot;y&quot;:499.9997863769531},&quot;center&quot;:{&quot;x&quot;:156.24935913085938,&quot;y&quot;:250.0000151884742},&quot;rotate&quot;:0,&quot;scale&quot;:{&quot;x&quot;:1.3280054468973408,&quot;y&quot;:1.3280054468973408},&quot;translate&quot;:{&quot;x&quot;:4856.001281738281,&quot;y&quot;:4728.001433501097},&quot;ratio&quot;:1}}}" data-metadata="{&quot;id&quot;:&quot;1&quot;,&quot;type&quot;:&quot;ORNAMENT&quot;}" style="cursor: pointer;" transform="matrix(1.328,0,0,1.328,4804.7506,4646.0001)" xmlns="http://www.w3.org/2000/svg"><path fill-rule="evenodd" clip-rule="evenodd" d="M260.663 9.71392C278.332 15.4026 294.78 28.5535 300.921 33.8365C293.707 34.239 275.971 34.4418 258.255 28.5896C244.041 23.8963 228.677 14.5488 220.635 9.28783C231.816 11.8853 243.349 15.4875 255.921 20.4639C256.098 20.5344 256.288 20.569 256.478 20.5658C256.669 20.5625 256.857 20.5214 257.032 20.4449C257.206 20.3684 257.364 20.2579 257.497 20.1197C257.629 19.9816 257.733 19.8186 257.802 19.64C257.872 19.4618 257.906 19.2716 257.902 19.0801C257.899 18.8887 257.858 18.6998 257.782 18.5243C257.706 18.3488 257.596 18.1901 257.459 18.0573C257.322 17.9244 257.161 17.82 256.984 17.7501C244.851 12.9466 233.527 9.32871 222.21 6.65733C230.782 5.52212 245.454 4.81772 260.663 9.71392ZM278.599 62.1335C291.838 75.1775 298.66 94.1885 300.815 101.1C294.419 98.7702 277.362 91.5423 263.807 76.7011C252.282 64.0785 242.826 47.0629 237.87 37.2752C240.688 39.9088 242.962 42.4465 244.527 44.7688C244.745 45.083 245.078 45.2982 245.452 45.3679C245.826 45.4377 246.213 45.3564 246.529 45.1417C246.844 44.9269 247.063 44.5959 247.138 44.2202C247.213 43.8445 247.138 43.4542 246.929 43.1336C245.135 40.4717 242.479 37.5535 239.176 34.5409C248.109 38.9182 264.224 47.9701 278.598 62.1335M19.0874 374.016C19.1767 374.185 19.2982 374.335 19.4451 374.457C19.5919 374.579 19.7612 374.671 19.9433 374.727C20.1254 374.784 20.3167 374.803 20.5063 374.785C20.6959 374.767 20.8801 374.711 21.0484 374.621C21.2166 374.532 21.3656 374.409 21.4869 374.262C21.6082 374.114 21.6994 373.943 21.7553 373.76C21.8111 373.577 21.8306 373.384 21.8125 373.194C21.7944 373.003 21.7392 372.818 21.6499 372.648C10.0375 350.661 3.89999 325.79 3.89999 300.724C3.89955 300.444 3.81884 300.17 3.66752 299.935C3.5162 299.7 3.3007 299.513 3.04686 299.398V157.827C3.30058 157.712 3.51597 157.525 3.66727 157.29C3.81857 157.055 3.89936 156.781 3.89999 156.501C3.89999 115.478 19.7874 76.9102 48.6373 47.9009C77.4857 18.8931 115.84 2.91835 156.637 2.91678C172.543 3.01112 191.557 8.4655 210.179 18.2784C218.448 22.6337 226.134 27.6179 232.32 32.5189C235.452 39.217 246.869 62.4622 261.673 78.6744C279.158 97.8221 301.64 104.501 302.588 104.775C302.833 104.845 303.092 104.849 303.34 104.787C303.587 104.724 303.814 104.598 303.997 104.419C304.18 104.241 304.313 104.017 304.383 103.77C304.453 103.524 304.458 103.263 304.396 103.014C304.126 101.949 297.583 76.7499 280.63 60.0502C259.052 38.7924 233.565 28.794 233.31 28.695C233.127 28.6254 232.933 28.5938 232.737 28.6019C232.542 28.61 232.351 28.6577 232.174 28.7422C226.198 24.2029 219.091 19.6793 211.526 15.6935C201.526 10.4262 191.399 6.38689 181.667 3.7281C192.367 4.41992 202.663 5.64161 213.135 7.6872C213.19 7.74204 213.248 7.79251 213.31 7.83815C213.54 8.00481 236.59 24.5048 257.351 31.3616C271.341 35.9811 285.335 36.9245 294.424 36.9245C300.608 36.9245 304.524 36.4874 304.619 36.4764C304.893 36.444 305.153 36.3335 305.366 36.1579C305.58 35.9823 305.74 35.749 305.827 35.4853C305.913 35.2216 305.923 34.9385 305.855 34.6693C305.788 34.4001 305.645 34.1559 305.444 33.9654C304.599 33.1651 284.451 14.3082 261.549 6.93563C239.584 -0.13667 219.216 3.94665 214.685 5.0174C212.471 4.57715 210.254 4.16835 208.021 3.79099C193.262 1.31773 177.421 0.149493 156.651 0.00012207H156.64C115.067 0.00012207 75.981 16.2784 46.5842 45.838C17.4749 75.1068 1.32812 113.926 1.0125 155.268C0.716993 155.373 0.460974 155.567 0.279659 155.824C0.0983446 156.081 0.000644557 156.389 0 156.704V300.634C0 301.296 0.421874 301.856 1.00781 302.068C1.22343 327.153 7.46091 352.002 19.0859 374.018" fill="#E4C97E"></path><path fill-rule="evenodd" clip-rule="evenodd" d="M266.071 429.983C262.294 439.417 257.688 445.132 255.337 447.652C255.054 446.58 254.763 445.089 254.646 443.218C254.404 439.385 254.849 433.127 258.344 425.074C260.762 419.503 265.574 413.553 268.394 410.327C268.657 414.91 268.691 423.44 266.071 429.981M224.854 467.918C223.402 479.879 215.073 489.217 211.316 492.88C210.599 488.534 209.607 478.833 212.293 467.372C213.981 460.185 220.49 449.555 223.782 444.483C224.652 449.424 225.938 458.984 224.854 467.918ZM184.331 483.883C178.413 489.143 167.748 493.888 162.587 496.006C164.634 490.71 169.587 479.509 177.301 472.066C183.368 466.214 190.938 465.3 193.809 465.173C194.024 467.959 193.606 475.637 184.331 483.883ZM60.4623 429.483C55.3045 429.943 46.9983 429.484 36.728 424.684C24.2546 418.854 13.9844 409.025 10.0437 404.951C14.4578 404.299 25.0781 403.835 42.0124 409.767C56.4576 414.829 64.9029 424.363 67.6967 427.97C66.2217 428.494 63.7545 429.189 60.4623 429.483ZM80.5044 422.008C74.6513 412.511 71.0357 401.038 69.592 395.881C74.4826 398.009 85.2482 403.632 92.5606 414.362C98.7794 423.481 100.079 436.346 100.347 441.909C95.9684 438.843 86.3013 431.415 80.5044 422.008ZM117.454 477.998C106.367 485.97 92.506 489.473 86.8638 490.64C88.9419 486.159 94.745 476.037 107.925 466.671C114.643 461.899 127.437 458.2 133.098 456.722C130.834 461.674 125.3 472.357 117.454 477.997M82.5779 457.718C73.1013 461.308 65.7967 461.766 62.3561 461.728C64.2717 458.72 69.3514 452.693 80.9466 448.681C86.6654 446.703 94.2778 446.239 98.5513 446.145C95.3669 449.439 89.1325 455.236 82.5779 457.718ZM114.047 414.55C107.154 407.097 103.968 400.473 102.701 397.261C106.197 397.906 113.67 400.348 121.756 409.613C125.742 414.182 129.053 421.088 130.756 425.027C126.515 423.313 118.815 419.708 114.047 414.55ZM147.57 422.223C145.282 419.008 142.385 413.387 141.573 404.851C140.692 395.59 144.584 386.565 146.517 382.745C148.965 386.154 154.089 394.274 155.189 403.852C156.657 416.654 153.001 423.86 151.334 426.396C150.421 425.621 149.023 424.264 147.57 422.223ZM194.934 427.539C187.354 425.296 177.687 418.734 173.162 415.464C178.71 414.393 190.779 412.662 201.165 415.28C209.329 417.34 214.121 423.308 215.748 425.679C213.516 427.363 206.874 431.077 194.934 427.539ZM253.007 405.48C241.205 405.709 231.996 401.314 227.305 398.459C229.571 398.219 232.649 397.731 236.407 396.764C237.839 396.387 239.266 395.987 240.685 395.563C244.819 394.352 249.096 393.102 255.446 392.393C264.055 391.434 271.052 395.038 273.966 396.863C270.857 399.429 262.726 405.28 253.007 405.48ZM311.874 299.645V157.907C312.066 157.773 312.223 157.594 312.332 157.386C312.44 157.178 312.497 156.947 312.497 156.712C312.497 145.646 311.341 134.598 309.06 123.874C308.975 123.5 308.747 123.175 308.426 122.969C308.105 122.763 307.716 122.692 307.344 122.772C306.971 122.852 306.645 123.076 306.436 123.396C306.226 123.716 306.15 124.106 306.224 124.482C308.389 134.714 309.515 145.141 309.583 155.602C309.354 155.735 309.164 155.926 309.031 156.156C308.899 156.387 308.828 156.648 308.827 156.914V300.747C308.827 301.282 309.104 301.754 309.519 302.026C308.154 325.544 302.902 347.26 293.888 366.579C289.173 376.693 283.362 386.253 276.562 395.083C274.205 393.42 265.935 388.291 255.126 389.495C248.527 390.231 243.929 391.576 239.874 392.763C238.437 393.182 237.082 393.579 235.687 393.939C227.862 395.953 223.109 395.769 223.016 395.767C222.714 395.753 222.414 395.834 222.16 396C221.905 396.166 221.709 396.408 221.599 396.692C221.488 396.976 221.469 397.288 221.544 397.584C221.619 397.879 221.784 398.144 222.016 398.34C222.512 398.758 234.185 408.402 252.052 408.402C252.388 408.402 252.726 408.399 253.066 408.392C259.61 408.258 265.396 405.866 269.682 403.385C266.978 406.425 264.155 409.355 261.218 412.167C260.381 412.964 259.535 413.752 258.68 414.53C242.19 427.799 225.779 426.281 218.574 424.678C217.218 422.511 211.879 414.976 201.871 412.451C187.22 408.756 170.081 413.119 169.359 413.308C169.097 413.376 168.858 413.517 168.672 413.714C168.485 413.911 168.357 414.158 168.302 414.424C168.247 414.691 168.268 414.968 168.361 415.224C168.455 415.48 168.618 415.704 168.832 415.871C169.421 416.329 183.385 427.157 194.113 430.336C197.993 431.484 201.388 431.926 204.316 431.926C212.016 431.926 216.488 428.869 218.062 427.549C220.552 428.096 224.037 428.626 228.204 428.626C233.046 428.626 238.802 427.906 244.968 425.67C227.546 438.27 207.656 447.299 188.618 451.044C170.098 448.843 157.695 438.434 153.299 428.67C155.059 426.296 159.774 418.382 158.07 403.516C156.517 389.98 147.784 379.569 147.414 379.134C147.265 378.959 147.077 378.822 146.866 378.735C146.654 378.647 146.426 378.61 146.198 378.628C145.97 378.646 145.749 378.718 145.554 378.838C145.359 378.958 145.195 379.122 145.075 379.318C144.762 379.829 137.434 391.991 138.685 405.126C140.215 421.192 148.512 428.017 150.457 429.41C153.551 436.635 160.668 444.24 171.135 449.133C164.807 447.577 159.417 445.374 155.323 443.347C146.145 438.802 138.432 432.649 134.653 426.869C134.073 425.343 129.796 414.406 123.937 407.69C111.956 393.959 101.003 394.107 100.542 394.118C100.324 394.124 100.111 394.179 99.917 394.28C99.7234 394.38 99.5549 394.524 99.4238 394.699C99.2928 394.874 99.2026 395.076 99.16 395.291C99.1174 395.506 99.1235 395.728 99.1778 395.94C99.2762 396.325 101.725 405.505 111.922 416.533C118.57 423.723 129.939 427.917 132.437 428.778C138.404 437.591 154.687 449.344 175.146 452.981C144.89 456.126 120.953 451.17 103.315 444.582C103.336 442.781 103.318 424.983 94.9559 412.714C84.7279 397.711 68.5857 392.308 67.9045 392.085C67.6601 392.005 67.399 391.992 67.1479 392.047C66.8968 392.102 66.6649 392.224 66.4757 392.399C66.2865 392.574 66.147 392.796 66.0713 393.043C65.9956 393.29 65.9866 393.553 66.0451 393.805C66.2014 394.481 70.0107 410.517 78.0388 423.544C82.4451 430.695 88.8075 436.638 93.7388 440.6C83.0341 435.684 75.4607 430.583 71.0045 427.558C69.6514 425.561 60.7217 413.234 42.9655 407.014C19.1797 398.681 7.25626 402.513 6.76095 402.679C6.53446 402.756 6.33024 402.887 6.16648 403.062C6.00271 403.237 5.88447 403.45 5.8223 403.682C5.76012 403.914 5.75594 404.158 5.81012 404.392C5.86429 404.626 5.97515 404.843 6.13282 405.024C6.64845 405.616 18.989 419.608 35.503 427.325C44.1311 431.358 51.4967 432.564 57.2233 432.564C63.7217 432.564 68.0982 431.016 69.8232 430.273C74.4841 433.434 82.2247 438.571 93.045 443.494C88.9403 443.824 84.0841 444.511 80.0029 445.923C62.8186 451.869 58.8076 462.111 58.6436 462.545C58.5663 462.751 58.5362 462.971 58.5554 463.189C58.5747 463.408 58.6429 463.619 58.7549 463.808C58.8668 463.996 59.0197 464.156 59.202 464.277C59.3844 464.397 59.5914 464.474 59.8076 464.503C59.9326 464.52 60.9858 464.655 62.8201 464.655C66.7014 464.655 74.0826 464.05 83.6013 460.445C91.57 457.426 98.7966 450.209 101.67 447.086C110.721 450.506 120.081 453.034 129.618 454.633C123.082 456.461 112.454 459.883 106.25 464.292C87.9716 477.28 83.3169 491.519 83.1263 492.119C83.052 492.355 83.0386 492.606 83.0873 492.848C83.136 493.091 83.2452 493.317 83.4046 493.505C83.564 493.693 83.7684 493.837 83.9985 493.924C84.2286 494.011 84.4769 494.038 84.72 494.001C85.5169 493.885 104.35 491.004 119.142 480.368C129.248 473.102 135.501 458.684 136.726 455.666C142.984 456.432 149.645 456.869 156.717 456.869C165.264 456.869 174.412 456.234 184.151 454.777C185.468 454.578 186.793 454.347 188.12 454.1C188.607 454.097 189.095 454.093 189.584 454.08H189.626C189.654 454.078 189.681 454.071 189.709 454.067C189.77 454.064 189.83 454.056 189.89 454.044C189.927 454.036 189.962 454.023 189.999 454.012C190.049 453.997 190.101 453.981 190.151 453.961C190.188 453.945 190.223 453.926 190.26 453.907C190.34 453.864 190.416 453.814 190.487 453.758C190.525 453.726 190.562 453.693 190.598 453.659L190.66 453.596C197.41 452.174 204.254 450.115 211.048 447.486C204.821 452.234 199.368 457.415 194.482 462.234C191.946 462.237 182.745 462.773 175.293 469.964C164.396 480.476 158.974 497.385 158.748 498.1C158.665 498.36 158.657 498.639 158.724 498.904C158.791 499.168 158.931 499.409 159.127 499.597C159.323 499.786 159.569 499.915 159.834 499.97C160.1 500.025 160.376 500.004 160.631 499.908C161.331 499.652 177.878 493.512 186.253 486.066C197.234 476.302 197.007 467.034 196.623 464.207C203.263 457.66 210.968 450.453 220.195 444.682C216.623 450.322 211.09 459.799 209.47 466.704C205.665 482.931 208.856 495.533 208.995 496.061C209.075 496.373 209.257 496.649 209.51 496.846C209.764 497.043 210.076 497.15 210.396 497.149C210.724 497.149 211.049 497.039 211.31 496.824C211.898 496.346 225.713 484.918 227.734 468.27C229.226 455.975 226.509 442.983 226.007 440.742C237.568 434.775 248.663 427.252 258.554 418.549C257.462 420.299 256.465 422.112 255.685 423.907C248.419 440.648 253.213 450.544 253.419 450.957C253.518 451.153 253.659 451.325 253.832 451.458C254.005 451.592 254.206 451.685 254.42 451.729C254.633 451.774 254.854 451.77 255.066 451.717C255.278 451.664 255.475 451.563 255.643 451.423C255.946 451.168 263.173 445.036 268.763 431.069C272.788 421.016 271.074 407.28 270.997 406.7C270.982 406.588 270.955 406.479 270.915 406.374C281.33 394.892 289.96 381.892 296.515 367.815C305.851 347.805 311.227 325.296 312.497 300.912C312.509 300.665 312.458 300.418 312.349 300.196C312.239 299.974 312.075 299.784 311.872 299.643" fill="#E4C97E"></path><rect x="0" y="0.0001220700069097802" width="312.49871826171875" height="499.9997863769531" data-id="gSlmi64fmd33" data-type="PATH" data-action="SELECTOR" style="" fill="rgba(0,0,0,0)" stroke="rgba(0,0,0,0)"></rect></g><g data-type="PATH" data-id="gSlmi64fmd5j" data-state="{&quot;transform&quot;:{&quot;attrs&quot;:{&quot;x&quot;:0.3906288146972656,&quot;y&quot;:-1.1920928955078125e-7,&quot;size&quot;:{&quot;x&quot;:138.02626037597656,&quot;y&quot;:160.0003204345703},&quot;center&quot;:{&quot;x&quot;:69.40375900268555,&quot;y&quot;:80.00016009807587},&quot;rotate&quot;:0,&quot;scale&quot;:{&quot;x&quot;:2.0704846806031028,&quot;y&quot;:2.0704846806031028},&quot;translate&quot;:{&quot;x&quot;:5106.109371185303,&quot;y&quot;:5005.638785741113},&quot;ratio&quot;:1}}}" data-metadata="{&quot;id&quot;:&quot;4&quot;,&quot;type&quot;:&quot;CONNECTOR&quot;}" style="cursor: pointer;" transform="matrix(2.0705,0,0,2.0705,5031.8137,4919.9998)" xmlns="http://www.w3.org/2000/svg"><path d="M0.391262 159.205C0.405144 159.637 0.781699 160.026 1.22621 159.999C15.111 158.966 20.1215 158.525 32.3729 154.651C32.4853 154.686 32.6087 154.702 32.754 154.681C43.8554 153.533 53.0305 155.534 64.941 152.628C65.695 153.096 66.5891 152.079 74.9202 152.832C75.1648 153.17 75.5399 153.28 76.0648 153.033C84.6069 155.934 89.0908 154.164 105.014 151.56C107.183 151.169 109.49 150.848 111.388 149.632C111.789 149.348 112.004 148.874 112.066 148.391C112.159 146.425 109.816 145.678 108.323 145.139C92.0155 139.71 83.0167 147.579 75.8835 151.299C74.0745 151.095 72.2572 150.963 70.4374 150.925C78.9573 147.651 84.8174 142.165 89.1936 138.957C89.8421 139 90.0344 138.374 90.0783 138.321C95.7678 134.343 101.725 134.415 107.354 129.733C113.643 124.555 115.467 119.256 117.868 114.023C118.388 112.69 119.274 111.413 119.382 109.963C119.39 108.553 117.815 107.935 116.638 108.313C114.366 108.92 112.341 110.209 110.316 111.373C98.8311 118.232 95.2223 125.306 88.8497 137.174C81.3396 142.595 73.8409 150.739 56.6544 152.368C50.5742 152.847 44.4614 152.567 38.3674 152.697C53.6353 147.579 67.3611 140.343 81.4212 126.969C87.6119 121.206 93.2476 114.795 97.8689 107.703C108.93 96.1038 114.641 85.52 121.004 71.7324C121.524 71.5495 121.427 71.159 122.612 69.2026C124.178 66.6469 127.357 63.1932 131.313 56.7668C135.689 49.7102 136.359 41.0145 138.157 33.4171C138.294 32.7318 138.682 31.873 138.127 31.2875C136.999 30.2102 135.676 32.7838 133.306 36.1715C117.424 59.6854 123.218 59.9349 118.758 72.6943C117.663 75.7885 110.636 90.0366 102.124 100.409C111.522 82.19 116.688 62.4482 117.515 42.4863C117.821 42.0892 117.65 41.6911 117.557 41.3574C117.574 40.8435 117.586 40.326 117.598 39.8085C117.926 39.5004 117.819 38.9233 117.948 38.4394C122.929 20.0201 118.588 15.4841 110.957 0.886888C110.679 0.37362 110.16 -0.12662 109.54 0.0288101C107.573 0.190986 108.813 10.1671 108.985 11.8413C111.653 36.441 112.71 29.3705 115.956 41.7007C115.651 50.1527 114.472 58.5347 112.641 66.7707C106.153 95.7181 94.1843 113.573 77.5316 128.311C88.1543 115.425 98.4844 95.9226 101.785 84.8243C101.805 84.7984 103.95 80.5221 103.963 80.4925C111.474 66.1022 108.298 58.6958 108.199 49.4733C108.131 48.6764 108.404 47.7679 107.982 47.0493C106.604 45.2994 105.016 50.1292 103.959 52.2686C96.161 69.4511 99.7193 76.1 99.4606 85.6798C99.4206 85.9577 99.4136 86.264 99.492 86.5174C93.6477 102.522 81.4336 123.652 68.9664 134.979C68.848 135.108 68.7834 135.245 68.7567 135.388C64.1999 138.725 56.4279 143.613 55.0922 143.938C54.9445 144.032 51.6661 145.915 50.1987 146.482C57.9955 139.582 61.8846 135.372 67.1346 125.671C68.1429 125.26 65.569 126.908 72.5773 119.318C79.1532 112.787 78.3211 105.292 79.6561 99.5696C80.3261 96.6659 80.6189 96.4035 80.3252 95.826C79.9116 95.0789 79.0021 95.3646 78.5544 95.9231C65.9423 110.053 67.3942 118.123 65.1186 125.971C63.1389 129.555 60.9174 133.021 58.3059 136.169C55.6956 139.281 47.7229 147.375 44.202 148.573C43.9065 148.657 43.737 148.852 43.664 149.08C11.2618 161.517 0.294263 156.346 0.391262 159.205ZM72.1308 117.414C71.3537 118.275 69.7153 119.93 67.6186 122.477C69.0821 112.275 71.7522 106.812 78.1544 98.8485C76.697 105.499 77.1936 112.143 72.1259 117.415L72.1308 117.414ZM101.015 82.7226C100.554 71.7477 98.7088 67.3633 106.589 50.4071C106.666 54.4576 107.399 58.48 107.352 62.5351C107.092 70.8551 104.651 75.5309 101.015 82.7226ZM116.45 37.7331C114.534 32.1429 112.496 30.2223 111.155 17.0998C110.744 12.3456 109.872 7.59662 110.127 2.81192C115.33 13.4964 121.866 19.5618 116.449 37.7281L116.45 37.7331ZM123.997 64.4762C123.286 65.4157 122.552 66.3454 121.886 67.3209C122.57 63.7626 122.826 60.1958 123.927 56.7484C126.304 48.5964 131.549 41.826 136.171 34.8602C133.339 49.228 133.153 52.5355 123.998 64.4811L123.997 64.4762ZM107.789 114.968C109.559 113.779 115.927 109.463 117.751 109.935C117.703 110.431 117.739 110.411 114.964 116.494C108.821 131.088 99.2643 132.002 91.7751 135.165C96.218 126.894 99.9192 120.443 107.789 114.968ZM78.1276 151.96C81.5293 150.031 84.8123 147.853 88.5261 146.555C99.2448 142.609 112.504 147.483 110.104 148.515C107.61 149.67 104.94 149.883 102.286 150.311C94.3638 151.351 86.0953 154.384 78.1276 151.96Z" fill="#ABC4A5"></path><rect x="0.3906288146972656" y="-1.1920928955078125e-7" width="138.02626037597656" height="160.0003204345703" data-id="gSlmi64fmd5j" data-type="PATH" data-action="SELECTOR" fill="rgba(0,0,0,0)" stroke="rgba(0,0,0,0)" style=""></rect></g><g data-id="gSlmgk5uxv1" data-type="TEXT" height="180" width="180" data-state="{&quot;transform&quot;:{&quot;attrs&quot;:{&quot;x&quot;:0,&quot;y&quot;:0,&quot;size&quot;:{&quot;x&quot;:160.0625,&quot;y&quot;:199},&quot;center&quot;:{&quot;x&quot;:80.03125,&quot;y&quot;:99.5},&quot;rotate&quot;:0,&quot;scale&quot;:{&quot;x&quot;:1,&quot;y&quot;:1},&quot;translate&quot;:{&quot;x&quot;:-31,&quot;y&quot;:-116},&quot;ratio&quot;:1}}}" transform="matrix(1,0,0,1,4848,4771.5)" data-metadata="{&quot;type&quot;:&quot;FIRST_INITIAL&quot;}" style="cursor: move;" xmlns="http://www.w3.org/2000/svg">
        <text x="0" y="0" data-id="gSlmgk5uxv1" height="180" width="180" fill="#555555" style="alignment-baseline: text-before-edge; font-family: &quot;Roboto Slab&quot;, serif; font-size: 180px; font-weight: 400;">M</text>
    </g><g data-id="gSlmgk5uxv1z" data-type="TEXT" height="180" width="180" data-state="{&quot;transform&quot;:{&quot;attrs&quot;:{&quot;x&quot;:0,&quot;y&quot;:0,&quot;size&quot;:{&quot;x&quot;:109.953125,&quot;y&quot;:199},&quot;center&quot;:{&quot;x&quot;:54.9765625,&quot;y&quot;:99.5},&quot;rotate&quot;:0,&quot;scale&quot;:{&quot;x&quot;:1,&quot;y&quot;:1},&quot;translate&quot;:{&quot;x&quot;:-39,&quot;y&quot;:-141},&quot;ratio&quot;:1}}}" transform="matrix(1,0,0,1,5050,4884.5)" data-metadata="{&quot;type&quot;:&quot;SECOND_INITIAL&quot;}" style="cursor: pointer;" xmlns="http://www.w3.org/2000/svg">
        <text x="0" y="0" data-id="gSlmgk5uxv1z" height="180" width="180" fill="#555555" style="alignment-baseline: text-before-edge; font-family: &quot;Roboto Slab&quot;, serif; font-size: 180px; font-weight: 400;">E</text>
    </g></svg>