<svg viewBox="0 0 114 135" fill="none" xmlns="http://www.w3.org/2000/svg">
<path d="M108.314 78.0821C103.32 78.0821 99.2576 74.0218 99.2576 69.0304V47.4315C99.2576 41.0286 98.0026 34.8168 95.5276 28.9684C93.1376 23.3205 89.7166 18.2477 85.3586 13.8923C81.0016 9.5369 75.9266 6.1163 70.2756 3.7279C64.4247 1.2542 58.21 0 51.8042 0C45.3983 0 39.1837 1.2542 33.3326 3.7279C27.682 6.1172 22.6069 9.5369 18.2495 13.8923C13.8911 18.2486 10.4699 23.3205 8.0804 28.9684C5.6056 34.8159 4.3508 41.0277 4.3508 47.4315V108.337C4.3508 110.532 2.5648 112.317 0.3692 112.317C0.1649 112.317 0 112.482 0 112.686C0 112.89 0.1649 113.055 0.3692 113.055C2.5648 113.055 4.3508 114.84 4.3508 117.035V134.479C4.3508 134.682 4.5157 134.848 4.72 134.848H98.8896C99.0936 134.848 99.2586 134.683 99.2586 134.479V87.8731C99.2586 82.8815 103.321 78.8211 108.315 78.8211C108.519 78.8211 108.684 78.6563 108.684 78.4521C108.684 78.2479 108.519 78.083 108.315 78.083L108.314 78.0821ZM2.1984 112.685C3.3322 112.207 4.2402 111.299 4.7191 110.166C5.1979 111.299 6.106 112.207 7.2398 112.685C6.106 113.164 5.1979 114.071 4.7191 115.205C4.2402 114.071 3.3322 113.164 2.1984 112.685ZM98.5196 134.109H5.0883V117.034C5.0883 114.84 6.8743 113.054 9.0699 113.054C9.2742 113.054 9.4391 112.889 9.4391 112.685C9.4391 112.481 9.2742 112.316 9.0699 112.316C6.8743 112.316 5.0883 110.531 5.0883 108.336V47.4315C5.0883 41.1279 6.3234 35.0126 8.7597 29.256C11.1127 23.6961 14.4806 18.7019 18.7714 14.414C23.0623 10.1251 28.0578 6.7588 33.6203 4.4069C39.3795 1.9726 45.4977 0.7381 51.8042 0.7381C58.1107 0.7381 64.2288 1.9726 69.9876 4.4069C75.5506 6.7588 80.5466 10.1251 84.8366 14.414C89.1266 18.7029 92.4956 23.6961 94.8486 29.256C97.2836 35.0126 98.5196 41.1279 98.5196 47.4315V69.0304C98.5196 74.0218 94.4576 78.0821 89.4646 78.0821C89.2596 78.0821 89.0946 78.247 89.0946 78.4511C89.0946 78.6553 89.2596 78.8202 89.4646 78.8202C94.4576 78.8202 98.5196 82.8805 98.5196 87.8721V134.109ZM98.8886 85.2051C97.9646 81.9467 95.3906 79.3747 92.1306 78.4511C95.3916 77.5276 97.9656 74.9547 98.8886 71.6961C99.8126 74.9547 102.387 77.5276 105.646 78.4511C102.386 79.3747 99.8116 81.9476 98.8886 85.2051Z" fill="#D5D5D5"/>
<path d="M113.361 66.5668C111.255 66.5668 109.541 64.8532 109.541 62.7468C109.541 62.5517 109.383 62.3925 109.187 62.3925C108.991 62.3925 108.833 62.5508 108.833 62.7468C108.833 64.8532 107.119 66.5668 105.013 66.5668C104.817 66.5668 104.659 66.725 104.659 66.921C104.659 67.117 104.817 67.2752 105.013 67.2752C107.119 67.2752 108.833 68.9888 108.833 71.0953C108.833 71.2904 108.991 71.4495 109.187 71.4495C109.383 71.4495 109.541 71.2913 109.541 71.0953C109.541 68.9888 111.255 67.2752 113.361 67.2752C113.557 67.2752 113.716 67.117 113.716 66.921C113.716 66.725 113.557 66.5668 113.361 66.5668ZM109.188 69.3394C108.729 68.2516 107.857 67.3804 106.77 66.921C107.857 66.4616 108.729 65.5904 109.188 64.5026C109.647 65.5904 110.519 66.4616 111.606 66.921C110.519 67.3804 109.647 68.2516 109.188 69.3394Z" fill="#D4D4D4"/>
<path d="M27.6521 91.1371C27.6564 91.2711 27.773 91.3911 27.9108 91.3831C32.2136 91.0621 33.7664 90.9251 37.5633 89.7231C37.5981 89.7341 37.6363 89.7391 37.6814 89.7331C41.1217 89.3761 43.9648 89.9951 47.656 89.0941C47.8896 89.2391 48.1668 88.9231 50.7484 89.1561C50.8242 89.2611 50.9404 89.2951 51.1031 89.2191C53.7501 90.1171 55.1397 89.5681 60.0742 88.7601C60.7466 88.6391 61.4615 88.5391 62.0497 88.1621C62.1741 88.0741 62.2406 87.9271 62.2598 87.7771C62.2888 87.1681 61.5627 86.9371 61.1001 86.7691C56.047 85.0881 53.2578 87.5271 51.047 88.6811C50.4865 88.6181 49.9233 88.5771 49.3594 88.5661C51.9998 87.5501 53.8162 85.8491 55.1726 84.8551C55.3735 84.8681 55.4332 84.6741 55.4468 84.6571C57.2102 83.4241 59.0563 83.446 60.801 81.9944C62.7503 80.3889 63.3159 78.7464 64.0601 77.1241C64.2214 76.711 64.4962 76.3149 64.5295 75.8655C64.5322 75.4286 64.0442 75.2369 63.6795 75.3544C62.9753 75.5425 62.3478 75.9424 61.7202 76.3033C58.1606 78.43 57.0417 80.623 55.0661 84.3021C52.7385 85.9831 50.4141 88.5081 45.088 89.0141C43.2038 89.1631 41.3095 89.0761 39.421 89.1171C44.1528 87.5301 48.4068 85.2861 52.7648 81.1393C54.6836 79.3526 56.4305 77.365 57.8631 75.1664C61.2917 71.5704 63.0621 68.2894 65.0349 64.0153C65.1961 63.9586 65.1661 63.8375 65.5335 63.231C66.0188 62.4387 67.0042 61.368 68.2307 59.3758C69.5876 57.1882 69.7956 54.4928 70.3536 52.1377C70.3956 51.9253 70.5156 51.6591 70.3436 51.4776C69.9946 51.1438 69.5846 51.9416 68.8495 52.9918C63.9264 60.2814 65.7219 60.3583 64.3388 64.3136C63.9994 65.2728 61.8207 69.6897 59.1821 72.9053C62.0958 67.2574 63.6981 61.1378 63.9557 54.9502C64.0506 54.8272 63.9975 54.7038 63.9687 54.6003C63.9742 54.4411 63.9779 54.2806 63.9815 54.1202C64.0833 54.0247 64.0502 53.8458 64.0902 53.6958C65.635 47.9862 64.2899 46.5805 61.9261 42.0563C61.8401 41.8973 61.6795 41.7422 61.4872 41.7905C60.8776 41.8409 61.2612 44.933 61.3142 45.452C62.1395 53.0768 62.4677 50.8851 63.4726 54.7069C63.3775 57.3267 63.0117 59.9249 62.4435 62.4779C60.431 71.451 56.7209 76.9862 51.5593 81.5557C54.8521 77.5607 58.0546 71.5149 59.0782 68.0746C59.0843 68.0666 59.7493 66.7409 59.7534 66.7318C62.0819 62.2708 61.0983 59.9753 61.0683 57.1166C61.0473 56.8696 61.1318 56.588 61.0011 56.3653C60.5741 55.823 60.0818 57.3201 59.7542 57.9834C57.3364 63.3099 58.4387 65.3705 58.3578 68.34C58.3454 68.4261 58.3432 68.5211 58.3675 68.5996C56.5553 73.5609 52.7689 80.1113 48.9046 83.623C48.8679 83.6631 48.8479 83.7056 48.8396 83.7499C47.4273 84.7841 45.0185 86.3001 44.6045 86.4011C44.5587 86.4301 43.5427 87.0141 43.0879 87.1901C45.5045 85.0501 46.71 83.7455 48.3376 80.7379C48.6501 80.6107 47.8523 81.1217 50.0247 78.7685C52.0629 76.7435 51.8056 74.4205 52.2197 72.6467C52.4275 71.7466 52.5182 71.6652 52.4273 71.4862C52.2991 71.2547 52.0173 71.3433 51.8785 71.5165C47.9692 75.8972 48.4185 78.3983 47.7128 80.8312C47.0991 81.9422 46.4104 83.0166 45.6009 83.9931C44.7918 84.9571 42.3206 87.4671 41.2294 87.8381C41.1378 87.8641 41.0853 87.9251 41.0626 87.9961C31.0206 91.8531 27.6222 90.2511 27.6521 91.1371ZM49.8864 78.1782C49.6456 78.4453 49.1377 78.9585 48.4878 79.7481C48.942 76.5857 49.7698 74.8921 51.7544 72.4233C51.3023 74.4849 51.4557 76.5443 49.8849 78.1786L49.8864 78.1782ZM58.8396 67.4232C58.6976 64.0214 58.1261 62.6625 60.5694 57.4062C60.5927 58.6617 60.8197 59.9084 60.8048 61.1654C60.7236 63.7443 59.9671 65.1938 58.8396 67.4232ZM63.626 53.477C63.0327 51.7444 62.4013 51.1492 61.9866 47.0818C61.8594 45.6082 61.5894 44.1362 61.6688 42.6531C63.2804 45.9646 65.3056 47.8442 63.6256 53.4755L63.626 53.477ZM65.963 61.7659C65.7426 62.0572 65.515 62.3454 65.3086 62.6478C65.5208 61.5448 65.6005 60.4392 65.9417 59.3706C66.6788 56.8436 68.3049 54.7446 69.7376 52.5851C68.8589 57.0389 68.8011 58.0641 65.9634 61.7674L65.963 61.7659ZM60.9369 77.4177C61.4854 77.049 63.4591 75.7108 64.0243 75.8571C64.0093 76.0106 64.0206 76.0045 63.16 77.8903C61.2555 82.4142 58.2939 82.6982 55.9728 83.6792C57.3502 81.1153 58.4976 79.1153 60.9369 77.4177ZM51.7425 88.8861C52.7967 88.2881 53.8143 87.6121 54.9652 87.2101C58.2871 85.9861 62.3958 87.4961 61.652 87.8161C60.8791 88.1741 60.0515 88.2401 59.2292 88.3731C56.774 88.6961 54.2114 89.6371 51.7425 88.8861Z" fill="#ABC4A5"/>
<path d="M25.0767 61.2531V44.3467H28.3131L35.5103 56.2778H33.7955L40.8721 44.3467H44.0843L44.1326 61.2531H40.4615L40.4373 49.9741H41.1136L35.462 59.4658H33.6989L27.9266 49.9741H28.7478V61.2531H25.0767Z" fill="#878787"/>
<path d="M68.4986 101.474H76.6376V104.517H68.4986V101.474ZM68.7884 108.43H77.9906V111.57H64.8999V94.6631H77.6766V97.8031H68.7884V108.43Z" fill="#878787"/>
</svg>
