<svg width="515" height="664" viewBox="0 0 515 664" fill="none" xmlns="http://www.w3.org/2000/svg">
<path fill-rule="evenodd" clip-rule="evenodd" d="M346.911 12.8999C370.375 20.4545 392.218 37.9189 400.374 44.9347C390.793 45.4692 367.24 45.7385 343.713 37.9668C324.837 31.7341 304.434 19.3206 293.754 12.3341C308.602 15.7835 323.918 20.5672 340.614 27.1759C340.849 27.2695 341.101 27.3155 341.353 27.3112C341.607 27.3068 341.857 27.2523 342.089 27.1507C342.32 27.0491 342.53 26.9023 342.707 26.7188C342.882 26.5354 343.02 26.3189 343.112 26.0818C343.205 25.8451 343.25 25.5925 343.244 25.3382C343.24 25.084 343.186 24.8332 343.085 24.6001C342.984 24.367 342.838 24.1563 342.656 23.9799C342.474 23.8034 342.26 23.6648 342.025 23.572C325.913 17.1929 310.874 12.3884 295.845 8.84077C307.229 7.33321 326.713 6.39777 346.911 12.8999ZM370.73 82.5131C388.311 99.8356 397.371 125.082 400.233 134.261C391.739 131.167 369.087 121.568 351.086 101.859C335.781 85.0961 323.223 62.4994 316.642 49.5013C320.384 52.9987 323.404 56.3688 325.482 59.4528C325.772 59.8701 326.214 60.1558 326.711 60.2484C327.207 60.3411 327.721 60.2331 328.141 59.948C328.559 59.6628 328.85 59.2232 328.95 58.7243C329.049 58.2253 328.95 57.707 328.672 57.2813C326.29 53.7463 322.763 49.8709 318.376 45.8702C330.239 51.6832 351.64 63.7041 370.729 82.5131M26.0986 496.693C26.2171 496.917 26.3785 497.117 26.5736 497.279C26.7685 497.441 26.9934 497.563 27.2352 497.637C27.477 497.713 27.7311 497.738 27.9829 497.714C28.2346 497.69 28.4793 497.616 28.7028 497.497C28.9261 497.378 29.124 497.215 29.2851 497.02C29.4462 496.823 29.5673 496.596 29.6415 496.353C29.7156 496.11 29.7415 495.854 29.7175 495.601C29.6935 495.348 29.6201 495.102 29.5016 494.876C14.0803 465.678 5.92968 432.649 5.92968 399.361C5.92909 398.989 5.82191 398.626 5.62096 398.313C5.42 398.001 5.13382 397.753 4.79672 397.6V209.594C5.13366 209.441 5.4197 209.193 5.62062 208.881C5.82155 208.569 5.92884 208.205 5.92968 207.833C5.92968 153.355 27.0282 102.137 65.3408 63.6122C103.652 25.0899 154.586 3.87541 208.764 3.87332C229.888 3.99861 255.138 11.242 279.868 24.2736C290.849 30.0574 301.056 36.6764 309.271 43.1849C313.431 52.08 328.593 82.9496 348.252 104.479C371.472 129.908 401.328 138.777 402.587 139.141C402.913 139.234 403.257 139.239 403.586 139.157C403.914 139.073 404.216 138.906 404.459 138.668C404.702 138.432 404.878 138.134 404.971 137.806C405.064 137.48 405.071 137.133 404.988 136.802C404.63 135.388 395.941 101.924 373.427 79.7465C344.772 51.5161 310.925 38.2383 310.586 38.1068C310.343 38.0144 310.086 37.9724 309.825 37.9832C309.566 37.9939 309.313 38.0573 309.078 38.1695C301.141 32.1413 291.703 26.1339 281.657 20.8408C268.377 13.8458 254.928 8.48163 242.004 4.95075C256.214 5.86949 269.887 7.4919 283.794 10.2084C283.867 10.2813 283.944 10.3483 284.026 10.4089C284.332 10.6302 314.942 32.5422 342.513 41.648C361.091 47.7827 379.675 49.0356 391.746 49.0356C399.958 49.0356 405.158 48.4551 405.285 48.4405C405.648 48.3975 405.994 48.2507 406.277 48.0175C406.561 47.7843 406.773 47.4745 406.889 47.1243C407.003 46.7741 407.016 46.3982 406.926 46.0407C406.837 45.6832 406.647 45.3589 406.38 45.1059C405.258 44.0431 378.501 19.0011 348.088 9.21035C318.918 -0.18166 291.869 5.24099 285.852 6.66294C282.912 6.07829 279.968 5.53541 277.002 5.03427C257.402 1.74978 236.366 0.198365 208.783 0H208.768C153.559 0 101.653 21.6176 62.6143 60.8727C23.9572 99.7417 2.51423 151.294 2.09509 206.196C1.70266 206.335 1.36266 206.593 1.12188 206.934C0.88109 207.275 0.751344 207.684 0.750488 208.103V399.242C0.750488 400.121 1.31074 400.865 2.08886 401.146C2.3752 434.459 10.6586 467.458 26.0966 496.696" fill="#E4C97E"/>
<path fill-rule="evenodd" clip-rule="evenodd" d="M354.093 571.018C349.077 583.546 342.96 591.135 339.838 594.482C339.462 593.058 339.076 591.078 338.921 588.594C338.599 583.503 339.19 575.193 343.831 564.498C347.043 557.1 353.433 549.198 357.178 544.914C357.527 551.001 357.572 562.328 354.093 571.015M299.357 621.395C297.428 637.279 286.368 649.68 281.378 654.545C280.426 648.773 279.109 635.89 282.676 620.67C284.917 611.126 293.561 597.009 297.933 590.274C299.088 596.835 300.796 609.531 299.357 621.395ZM245.542 642.597C237.683 649.582 223.52 655.883 216.666 658.696C219.385 651.663 225.962 636.788 236.206 626.904C244.263 619.132 254.316 617.919 258.129 617.75C258.414 621.45 257.859 631.646 245.542 642.597ZM81.0445 570.354C74.195 570.964 63.1643 570.355 49.5254 563.98C32.9607 556.238 19.3219 543.185 14.0886 537.775C19.9506 536.909 34.0543 536.293 56.5431 544.171C75.7263 550.893 86.9417 563.554 90.6518 568.344C88.693 569.04 85.4166 569.963 81.0445 570.354ZM107.66 560.427C99.8875 547.815 95.086 532.579 93.1688 525.73C99.6635 528.556 113.96 536.023 123.671 550.273C131.93 562.383 133.656 579.468 134.011 586.855C128.197 582.784 115.359 572.919 107.66 560.427ZM156.73 634.781C142.006 645.368 123.599 650.02 116.106 651.57C118.865 645.619 126.572 632.177 144.075 619.739C152.997 613.402 169.987 608.49 177.505 606.527C174.498 613.103 167.149 627.292 156.73 634.781ZM110.414 607.85C97.8291 612.617 88.1286 613.225 83.5595 613.175C86.1034 609.18 92.8493 601.176 108.248 595.848C115.842 593.222 125.952 592.605 131.627 592.481C127.398 596.855 119.119 604.553 110.414 607.85ZM152.205 550.522C143.051 540.625 138.82 531.828 137.138 527.563C141.78 528.419 151.704 531.662 162.443 543.966C167.736 550.034 172.133 559.205 174.395 564.436C168.763 562.16 158.537 557.372 152.205 550.522ZM196.724 560.712C193.685 556.443 189.838 548.978 188.76 537.642C187.59 525.344 192.758 513.358 195.325 508.285C198.576 512.813 205.381 523.596 206.842 536.316C208.791 553.317 203.936 562.886 201.722 566.254C200.51 565.225 198.653 563.423 196.724 560.712ZM259.623 567.772C249.557 564.793 236.719 556.079 230.71 551.736C238.077 550.314 254.105 548.015 267.898 551.492C278.74 554.228 285.103 562.153 287.264 565.302C284.3 567.538 275.479 572.47 259.623 567.772ZM336.744 538.478C321.071 538.782 308.841 532.945 302.612 529.154C305.621 528.835 309.708 528.187 314.699 526.903C316.601 526.402 318.496 525.871 320.38 525.308C325.87 523.7 331.55 522.04 339.983 521.098C351.416 519.824 360.708 524.611 364.577 527.034C360.449 530.442 349.651 538.212 336.744 538.478ZM414.919 397.929V209.701C415.174 209.523 415.383 209.285 415.528 209.009C415.671 208.732 415.747 208.426 415.747 208.114C415.747 193.418 414.211 178.746 411.182 164.505C411.069 164.008 410.767 163.577 410.34 163.303C409.914 163.029 409.397 162.935 408.903 163.041C408.408 163.148 407.975 163.445 407.698 163.87C407.419 164.295 407.318 164.813 407.416 165.312C410.291 178.9 411.787 192.747 411.877 206.64C411.573 206.816 411.32 207.07 411.144 207.375C410.968 207.682 410.874 208.029 410.873 208.382V399.392C410.873 400.103 411.241 400.729 411.792 401.091C409.979 432.323 403.004 461.161 391.034 486.817C384.772 500.248 377.055 512.944 368.025 524.67C364.895 522.462 353.912 515.651 339.558 517.249C330.794 518.227 324.688 520.013 319.303 521.589C317.395 522.146 315.596 522.673 313.743 523.151C303.351 525.826 297.039 525.581 296.916 525.579C296.515 525.56 296.116 525.668 295.779 525.888C295.44 526.109 295.18 526.43 295.034 526.807C294.887 527.184 294.861 527.599 294.961 527.992C295.061 528.383 295.28 528.735 295.588 528.996C296.247 529.551 311.748 542.358 335.476 542.358C335.922 542.358 336.371 542.354 336.822 542.345C345.513 542.167 353.196 538.99 358.888 535.695C355.297 539.733 351.548 543.624 347.648 547.358C346.537 548.416 345.413 549.463 344.278 550.496C322.379 568.117 300.585 566.101 291.017 563.972C289.216 561.095 282.126 551.088 268.835 547.735C249.379 542.828 226.618 548.622 225.659 548.873C225.311 548.963 224.994 549.151 224.747 549.412C224.499 549.674 224.329 550.002 224.256 550.355C224.183 550.71 224.211 551.078 224.334 551.418C224.459 551.758 224.675 552.055 224.96 552.277C225.742 552.885 244.286 567.265 258.533 571.486C263.685 573.011 268.194 573.598 272.082 573.598C282.308 573.598 288.247 569.538 290.337 567.785C293.644 568.512 298.272 569.215 303.806 569.215C310.236 569.215 317.88 568.259 326.068 565.29C302.932 582.023 276.518 594.013 251.235 598.987C226.641 596.064 210.17 582.24 204.332 569.274C206.669 566.121 212.93 555.611 210.668 535.869C208.605 517.894 197.008 504.068 196.516 503.49C196.319 503.258 196.069 503.076 195.789 502.96C195.507 502.843 195.204 502.794 194.902 502.818C194.599 502.842 194.305 502.938 194.046 503.097C193.787 503.256 193.57 503.474 193.41 503.734C192.995 504.413 183.263 520.564 184.924 538.007C186.956 559.343 197.975 568.407 200.558 570.257C204.666 579.851 214.118 589.951 228.018 596.449C219.614 594.382 212.456 591.457 207.02 588.765C194.831 582.729 184.588 574.558 179.57 566.882C178.8 564.856 173.12 550.331 165.339 541.412C149.428 523.178 134.883 523.374 134.27 523.389C133.981 523.397 133.698 523.47 133.44 523.604C133.183 523.737 132.96 523.928 132.785 524.16C132.611 524.393 132.492 524.661 132.435 524.947C132.379 525.232 132.387 525.527 132.459 525.808C132.589 526.32 135.841 538.511 149.383 553.156C158.212 562.704 173.31 568.274 176.627 569.417C184.551 581.121 206.175 596.729 233.344 601.559C193.165 605.735 161.376 599.154 137.953 590.405C137.981 588.013 137.957 564.378 126.852 548.084C113.269 528.16 91.8324 520.985 90.9278 520.689C90.6032 520.583 90.2565 520.565 89.923 520.639C89.5896 520.712 89.2816 520.874 89.0303 521.106C88.7791 521.338 88.5938 521.633 88.4933 521.961C88.3928 522.289 88.3808 522.638 88.4585 522.973C88.6661 523.871 93.7248 545.167 104.386 562.467C110.238 571.963 118.687 579.855 125.236 585.117C111.02 578.588 100.962 571.814 95.0446 567.797C93.2477 565.145 81.389 548.775 57.8088 540.515C26.2212 529.448 10.3869 534.537 9.72914 534.758C9.42836 534.86 9.15716 535.034 8.93968 535.266C8.7222 535.499 8.56517 535.782 8.48261 536.09C8.40004 536.398 8.39449 536.722 8.46644 537.033C8.53837 537.343 8.6856 537.632 8.89498 537.872C9.57974 538.658 25.968 557.24 47.8986 567.488C59.3567 572.844 69.1382 574.445 76.7431 574.445C85.373 574.445 91.185 572.389 93.4758 571.403C99.6655 575.6 109.945 582.422 124.314 588.96C118.863 589.398 112.414 590.311 106.994 592.186C84.1737 600.082 78.8471 613.684 78.6293 614.26C78.5266 614.533 78.4867 614.826 78.5122 615.115C78.5378 615.406 78.6284 615.686 78.7771 615.937C78.9257 616.187 79.1288 616.399 79.3709 616.56C79.6131 616.719 79.888 616.822 80.1751 616.86C80.3411 616.883 81.7397 617.062 84.1757 617.062C89.3301 617.062 99.1323 616.259 111.773 611.471C122.356 607.462 131.952 597.878 135.768 593.73C147.788 598.272 160.218 601.629 172.883 603.753C164.203 606.18 150.09 610.725 141.851 616.58C117.577 633.828 111.395 652.737 111.142 653.534C111.044 653.848 111.026 654.181 111.091 654.502C111.155 654.825 111.3 655.125 111.512 655.375C111.724 655.624 111.995 655.816 112.301 655.931C112.606 656.047 112.936 656.083 113.259 656.033C114.317 655.879 139.327 652.053 158.971 637.929C172.392 628.28 180.696 609.132 182.323 605.125C190.633 606.142 199.479 606.722 208.871 606.722C220.221 606.722 232.37 605.879 245.303 603.944C247.052 603.68 248.812 603.373 250.574 603.045C251.221 603.041 251.869 603.036 252.518 603.018H252.574C252.611 603.016 252.647 603.006 252.684 603.001C252.765 602.997 252.845 602.986 252.925 602.971C252.974 602.96 253.02 602.943 253.069 602.928C253.136 602.908 253.205 602.887 253.271 602.86C253.32 602.839 253.367 602.814 253.416 602.789C253.522 602.732 253.623 602.665 253.717 602.591C253.768 602.548 253.817 602.504 253.865 602.459L253.947 602.376C262.911 600.487 272 597.753 281.022 594.261C272.753 600.567 265.511 607.447 259.023 613.847C255.655 613.851 243.436 614.563 233.54 624.112C219.069 638.072 211.868 660.527 211.568 661.477C211.458 661.822 211.447 662.193 211.536 662.545C211.625 662.895 211.811 663.215 212.071 663.465C212.332 663.716 212.658 663.887 213.01 663.96C213.363 664.033 213.73 664.005 214.069 663.878C214.998 663.538 236.973 655.384 248.095 645.496C262.677 632.529 262.376 620.221 261.866 616.467C270.684 607.773 280.916 598.202 293.17 590.538C288.426 598.028 281.078 610.613 278.927 619.783C273.874 641.332 278.111 658.068 278.296 658.769C278.402 659.183 278.644 659.55 278.98 659.812C279.317 660.073 279.732 660.215 280.157 660.214C280.592 660.214 281.024 660.068 281.37 659.782C282.151 659.148 300.497 643.971 303.181 621.863C305.163 605.535 301.555 588.282 300.888 585.305C316.241 577.381 330.975 567.391 344.11 555.833C342.66 558.157 341.336 560.565 340.3 562.949C330.651 585.181 337.017 598.323 337.291 598.871C337.423 599.131 337.61 599.36 337.84 599.536C338.069 599.714 338.336 599.838 338.62 599.896C338.903 599.956 339.197 599.951 339.478 599.88C339.76 599.81 340.021 599.676 340.245 599.49C340.647 599.151 350.244 591.008 357.668 572.46C363.013 559.109 360.737 540.868 360.635 540.098C360.615 539.949 360.579 539.804 360.526 539.665C374.357 524.417 385.818 507.153 394.523 488.458C406.921 461.885 414.06 431.993 415.747 399.611C415.763 399.283 415.695 398.955 415.55 398.66C415.404 398.366 415.186 398.113 414.917 397.926" fill="#E4C97E"/>
<path d="M228.624 603.634C228.653 604.528 229.432 605.334 230.353 605.278C259.101 603.139 269.475 602.226 294.842 594.205C295.075 594.277 295.33 594.311 295.631 594.267C318.616 591.89 337.613 596.033 362.274 590.016C363.835 590.985 365.687 588.88 382.936 590.439C383.442 591.139 384.219 591.366 385.306 590.855C402.992 596.861 412.276 593.197 445.245 587.805C449.736 586.995 454.513 586.331 458.443 583.813C459.273 583.225 459.718 582.244 459.846 581.244C460.039 577.173 455.188 575.626 452.097 574.51C418.332 563.27 399.7 579.562 384.931 587.265C381.185 586.842 377.422 586.569 373.654 586.49C391.295 579.711 403.428 568.353 412.489 561.71C413.832 561.8 414.23 560.503 414.321 560.394C426.101 552.157 438.435 552.306 450.09 542.612C463.112 531.891 466.888 520.92 471.859 510.085C472.936 507.325 474.771 504.681 474.994 501.678C475.011 498.759 471.75 497.479 469.313 498.262C464.609 499.519 460.416 502.188 456.223 504.598C432.444 518.799 424.972 533.446 411.777 558.019C396.227 569.243 380.701 586.105 345.117 589.478C332.528 590.47 319.871 589.89 307.253 590.159C338.866 579.562 367.285 564.58 396.396 536.889C409.214 524.957 420.883 511.683 430.451 496.999C453.353 472.983 465.178 451.069 478.353 422.522C479.429 422.143 479.228 421.335 481.682 417.284C484.924 411.992 491.506 404.842 499.697 391.536C508.758 376.925 510.145 358.921 513.868 343.19C514.152 341.771 514.955 339.993 513.806 338.781C511.47 336.55 508.731 341.879 503.824 348.893C470.94 397.579 482.937 398.095 473.702 424.514C471.435 430.92 456.886 460.421 439.262 481.897C458.72 444.174 469.416 403.299 471.129 361.968C471.762 361.146 471.408 360.321 471.216 359.631C471.251 358.566 471.276 357.495 471.3 356.424C471.98 355.786 471.758 354.591 472.025 353.589C482.338 315.452 473.35 306.06 457.55 275.836C456.975 274.774 455.9 273.738 454.616 274.06C450.544 274.395 453.111 295.051 453.467 298.517C458.991 349.451 461.18 334.812 467.901 360.341C467.269 377.841 464.828 395.196 461.037 412.249C447.604 472.184 422.822 509.153 388.343 539.668C410.337 512.987 431.726 472.608 438.56 449.629C438.601 449.575 443.042 440.721 443.069 440.66C458.621 410.865 452.045 395.53 451.84 376.434C451.699 374.784 452.264 372.903 451.391 371.416C448.537 367.792 445.249 377.793 443.061 382.222C426.915 417.799 434.283 431.565 433.747 451.4C433.664 451.975 433.65 452.61 433.812 453.134C421.711 486.272 396.422 530.021 370.609 553.474C370.364 553.741 370.23 554.025 370.175 554.321C360.74 561.23 344.648 571.351 341.882 572.024C341.576 572.218 334.788 576.117 331.75 577.291C347.893 563.005 355.946 554.288 366.816 534.202C368.904 533.351 363.574 536.763 378.085 521.048C391.7 507.526 389.978 492.007 392.742 480.159C394.129 474.147 394.735 473.603 394.127 472.408C393.271 470.861 391.388 471.452 390.461 472.609C364.347 501.865 367.353 518.574 362.642 534.823C358.543 542.244 353.943 549.42 348.536 555.938C343.132 562.381 326.624 579.14 319.334 581.62C318.722 581.794 318.371 582.198 318.22 582.67C251.131 608.421 228.423 597.714 228.624 603.634ZM377.161 517.106C375.552 518.888 372.159 522.315 367.818 527.589C370.848 506.465 376.377 495.154 389.632 478.666C386.615 492.436 387.643 506.192 377.15 517.108L377.161 517.106ZM436.965 445.277C436.011 422.554 432.19 413.476 448.506 378.368C448.666 386.754 450.183 395.083 450.086 403.479C449.548 420.705 444.494 430.387 436.965 445.277ZM468.924 352.126C464.956 340.552 460.737 336.575 457.96 309.405C457.109 299.562 455.304 289.729 455.832 279.822C466.605 301.944 480.137 314.503 468.921 352.116L468.924 352.126ZM484.55 407.498C483.077 409.443 481.558 411.368 480.179 413.388C481.595 406.02 482.125 398.635 484.405 391.498C489.326 374.619 500.186 360.601 509.756 346.178C503.892 375.927 503.507 382.775 484.552 407.508L484.55 407.498ZM450.991 512.041C454.656 509.579 467.841 500.643 471.617 501.62C471.518 502.647 471.592 502.606 465.847 515.201C453.128 545.418 433.341 547.31 417.834 553.859C427.033 536.734 434.696 523.377 450.991 512.041ZM389.577 588.633C396.62 584.639 403.418 580.13 411.107 577.442C433.3 569.272 460.753 579.364 455.784 581.5C450.62 583.892 445.092 584.333 439.597 585.219C423.194 587.372 406.074 593.652 389.577 588.633Z" fill="#ABC4A5"/>
<path d="M52.2617 283.5V272.426L66.5879 269.965V169.154L52.2617 166.693V155.531H66.5879H89.7031L130.924 252.65H131.451L171.354 155.531H209.938V166.693L195.611 169.154V269.965L209.938 272.426V283.5H163.971V272.426L179.088 269.965V232.875V179.174L178.648 179.086L137.076 278.93H125.562L82.584 179.262L82.1445 179.35L82.7598 232.875V269.965L98.2285 272.426V283.5H52.2617Z" fill="#555555"/>
<path d="M253.119 396.5V385.426L267.445 382.965V282.154L253.119 279.693V268.531H347.865V299.293H333.979L332.045 281.891H284.76V323.551H331.957V337.174H284.76V383.492H334.857L336.791 365.826H350.59V396.5H253.119Z" fill="#555555"/>
</svg>
