<svg width="314" height="500" viewBox="0 0 314 500" fill="none" xmlns="http://www.w3.org/2000/svg">
<path fill-rule="evenodd" clip-rule="evenodd" d="M261.413 9.7138C279.082 15.4025 295.53 28.5534 301.671 33.8364C294.457 34.2389 276.721 34.4417 259.005 28.5895C244.791 23.8962 229.427 14.5487 221.385 9.28771C232.566 11.8852 244.099 15.4874 256.671 20.4638C256.848 20.5343 257.038 20.5689 257.228 20.5657C257.419 20.5624 257.608 20.5213 257.783 20.4448C257.957 20.3683 258.114 20.2578 258.247 20.1196C258.379 19.9815 258.483 19.8185 258.552 19.6399C258.622 19.4617 258.656 19.2715 258.652 19.08C258.649 18.8886 258.609 18.6997 258.533 18.5242C258.457 18.3487 258.347 18.19 258.21 18.0572C258.073 17.9243 257.911 17.8199 257.734 17.75C245.601 12.9465 234.277 9.32859 222.96 6.65721C231.532 5.522 246.204 4.8176 261.413 9.7138ZM279.349 62.1334C292.588 75.1774 299.41 94.1884 301.565 101.1C295.169 98.7701 278.112 91.5422 264.557 76.701C253.032 64.0784 243.576 47.0628 238.62 37.2751C241.438 39.9087 243.712 42.4464 245.277 44.7687C245.495 45.0829 245.828 45.2981 246.202 45.3678C246.576 45.4376 246.963 45.3563 247.279 45.1416C247.594 44.9268 247.813 44.5958 247.888 44.2201C247.963 43.8444 247.888 43.4541 247.679 43.1335C245.885 40.4716 243.229 37.5534 239.926 34.5408C248.859 38.9181 264.974 47.97 279.348 62.1334M19.8379 374.016C19.9272 374.185 20.0487 374.335 20.1956 374.457C20.3424 374.579 20.5117 374.671 20.6938 374.727C20.8759 374.784 21.0672 374.803 21.2568 374.785C21.4464 374.767 21.6306 374.711 21.7989 374.621C21.9671 374.532 22.1161 374.409 22.2374 374.262C22.3587 374.114 22.4499 373.943 22.5058 373.76C22.5616 373.577 22.5811 373.384 22.563 373.194C22.5449 373.003 22.4897 372.818 22.4004 372.648C10.788 350.661 4.65048 325.79 4.65048 300.724C4.65004 300.444 4.56933 300.17 4.41801 299.935C4.26669 299.7 4.05119 299.513 3.79735 299.398V157.827C4.05107 157.712 4.26646 157.525 4.41776 157.29C4.56906 157.055 4.64985 156.781 4.65048 156.501C4.65048 115.478 20.5379 76.9101 49.3878 47.9008C78.2362 18.893 116.59 2.91823 157.387 2.91666C173.293 3.011 192.307 8.46538 210.929 18.2783C219.198 22.6336 226.884 27.6178 233.07 32.5188C236.202 39.2169 247.619 62.4621 262.423 78.6743C279.908 97.822 302.391 104.501 303.339 104.775C303.584 104.845 303.842 104.849 304.09 104.787C304.337 104.724 304.564 104.598 304.747 104.419C304.93 104.241 305.063 104.017 305.133 103.77C305.203 103.524 305.208 103.263 305.146 103.014C304.876 101.949 298.333 76.7498 281.38 60.0501C259.802 38.7923 234.315 28.7939 234.06 28.6949C233.877 28.6253 233.683 28.5937 233.487 28.6018C233.292 28.6099 233.101 28.6576 232.924 28.7421C226.948 24.2028 219.841 19.6792 212.276 15.6934C202.276 10.4261 192.149 6.38677 182.417 3.72798C193.117 4.4198 203.413 5.64149 213.885 7.68708C213.94 7.74192 213.998 7.79239 214.06 7.83803C214.29 8.00469 237.341 24.5047 258.102 31.3615C272.092 35.981 286.085 36.9244 295.174 36.9244C301.358 36.9244 305.274 36.4873 305.369 36.4763C305.643 36.4439 305.903 36.3334 306.116 36.1578C306.33 35.9822 306.49 35.7489 306.577 35.4852C306.663 35.2215 306.673 34.9384 306.605 34.6692C306.538 34.4 306.395 34.1558 306.194 33.9653C305.349 33.165 285.201 14.3081 262.299 6.93551C240.334 -0.136792 219.966 3.94653 215.435 5.01728C213.221 4.57703 211.004 4.16823 208.771 3.79087C194.012 1.31761 178.171 0.149371 157.401 0H157.39C115.817 0 76.7315 16.2783 47.3347 45.8379C18.2254 75.1067 2.07861 113.926 1.76299 155.268C1.46748 155.373 1.21146 155.567 1.03015 155.824C0.848833 156.081 0.751133 156.389 0.750488 156.704V300.634C0.750488 301.296 1.17236 301.856 1.7583 302.068C1.97392 327.153 8.2114 352.002 19.8364 374.018" fill="#E4C97E"/>
<path fill-rule="evenodd" clip-rule="evenodd" d="M266.822 429.983C263.045 439.417 258.439 445.132 256.088 447.652C255.805 446.58 255.514 445.089 255.397 443.218C255.155 439.385 255.6 433.127 259.095 425.074C261.513 419.503 266.325 413.553 269.145 410.327C269.408 414.91 269.442 423.44 266.822 429.981M225.605 467.918C224.153 479.879 215.824 489.217 212.067 492.88C211.35 488.534 210.358 478.833 213.044 467.372C214.732 460.185 221.241 449.555 224.533 444.483C225.403 449.424 226.689 458.984 225.605 467.918ZM185.082 483.883C179.164 489.143 168.499 493.888 163.338 496.006C165.385 490.71 170.338 479.509 178.052 472.066C184.119 466.214 191.689 465.3 194.56 465.173C194.775 467.959 194.357 475.637 185.082 483.883ZM61.2129 429.483C56.0551 429.943 47.7489 429.484 37.4786 424.684C25.0052 418.854 14.735 409.025 10.7943 404.951C15.2084 404.299 25.8287 403.835 42.763 409.767C57.2082 414.829 65.6535 424.363 68.4473 427.97C66.9723 428.494 64.5051 429.189 61.2129 429.483ZM81.255 422.008C75.4019 412.511 71.7863 401.038 70.3426 395.881C75.2332 398.009 85.9988 403.632 93.3112 414.362C99.53 423.481 100.83 436.346 101.098 441.909C96.719 438.843 87.0519 431.415 81.255 422.008ZM118.205 477.998C107.118 485.97 93.2566 489.473 87.6144 490.64C89.6925 486.159 95.4956 476.037 108.676 466.671C115.394 461.899 128.188 458.2 133.849 456.722C131.585 461.674 126.051 472.358 118.205 477.998ZM83.3285 457.718C73.8519 461.308 66.5473 461.766 63.1067 461.728C65.0223 458.72 70.102 452.693 81.6972 448.681C87.416 446.703 95.0284 446.239 99.3019 446.145C96.1175 449.439 89.8831 455.236 83.3285 457.718ZM114.798 414.55C107.905 407.097 104.719 400.473 103.452 397.261C106.948 397.906 114.421 400.348 122.507 409.613C126.493 414.182 129.804 421.088 131.507 425.027C127.266 423.313 119.566 419.708 114.798 414.55ZM148.321 422.223C146.033 419.008 143.136 413.387 142.324 404.851C141.443 395.59 145.335 386.565 147.268 382.745C149.716 386.154 154.84 394.274 155.94 403.852C157.408 416.654 153.752 423.86 152.085 426.396C151.172 425.621 149.774 424.264 148.321 422.223ZM195.685 427.539C188.105 425.296 178.438 418.734 173.913 415.464C179.461 414.393 191.53 412.662 201.916 415.28C210.08 417.34 214.872 423.308 216.499 425.679C214.267 427.363 207.625 431.077 195.685 427.539ZM253.758 405.48C241.956 405.709 232.747 401.314 228.056 398.459C230.322 398.219 233.4 397.731 237.158 396.764C238.59 396.387 240.017 395.987 241.436 395.563C245.57 394.352 249.847 393.102 256.197 392.393C264.806 391.434 271.803 395.038 274.717 396.863C271.608 399.429 263.477 405.28 253.758 405.48ZM312.625 299.645V157.907C312.817 157.773 312.974 157.594 313.083 157.386C313.191 157.178 313.248 156.947 313.248 156.712C313.248 145.646 312.092 134.598 309.811 123.874C309.726 123.5 309.498 123.175 309.177 122.969C308.856 122.763 308.467 122.692 308.095 122.772C307.722 122.852 307.396 123.076 307.187 123.396C306.977 123.716 306.901 124.106 306.975 124.482C309.14 134.714 310.266 145.141 310.334 155.602C310.105 155.735 309.915 155.926 309.782 156.156C309.65 156.387 309.579 156.648 309.578 156.914V300.747C309.578 301.282 309.855 301.754 310.27 302.026C308.905 325.544 303.653 347.26 294.639 366.579C289.924 376.693 284.113 386.253 277.313 395.083C274.956 393.42 266.686 388.291 255.877 389.495C249.278 390.231 244.68 391.576 240.625 392.763C239.188 393.182 237.833 393.579 236.438 393.939C228.613 395.953 223.86 395.769 223.767 395.767C223.465 395.753 223.165 395.834 222.911 396C222.656 396.166 222.46 396.408 222.35 396.692C222.239 396.976 222.22 397.288 222.295 397.584C222.37 397.879 222.535 398.144 222.767 398.34C223.263 398.758 234.936 408.402 252.803 408.402C253.139 408.402 253.477 408.399 253.817 408.392C260.361 408.258 266.147 405.866 270.433 403.385C267.729 406.425 264.906 409.355 261.969 412.167C261.132 412.964 260.286 413.752 259.431 414.53C242.941 427.799 226.53 426.281 219.325 424.678C217.969 422.511 212.63 414.976 202.622 412.451C187.971 408.756 170.832 413.119 170.11 413.308C169.848 413.376 169.609 413.517 169.423 413.714C169.236 413.911 169.108 414.158 169.053 414.424C168.998 414.691 169.019 414.968 169.112 415.224C169.206 415.48 169.369 415.704 169.583 415.871C170.172 416.329 184.136 427.157 194.864 430.336C198.744 431.484 202.139 431.926 205.067 431.926C212.767 431.926 217.239 428.869 218.813 427.549C221.303 428.096 224.788 428.626 228.955 428.626C233.797 428.626 239.553 427.906 245.719 425.67C228.297 438.27 208.407 447.299 189.369 451.044C170.849 448.843 158.446 438.434 154.05 428.67C155.81 426.296 160.525 418.382 158.821 403.516C157.268 389.98 148.535 379.569 148.165 379.134C148.016 378.959 147.828 378.822 147.617 378.735C147.405 378.647 147.177 378.61 146.949 378.628C146.721 378.646 146.5 378.718 146.305 378.838C146.11 378.958 145.946 379.122 145.826 379.318C145.513 379.829 138.185 391.991 139.436 405.126C140.966 421.192 149.263 428.017 151.208 429.41C154.302 436.635 161.419 444.24 171.886 449.133C165.558 447.577 160.168 445.374 156.074 443.347C146.896 438.802 139.183 432.649 135.404 426.869C134.824 425.343 130.547 414.406 124.688 407.69C112.707 393.959 101.754 394.107 101.293 394.118C101.075 394.124 100.862 394.179 100.668 394.28C100.474 394.38 100.305 394.524 100.174 394.699C100.043 394.874 99.9532 395.076 99.9106 395.291C99.868 395.506 99.8741 395.728 99.9284 395.94C100.027 396.325 102.476 405.505 112.673 416.533C119.321 423.723 130.69 427.917 133.188 428.778C139.155 437.591 155.438 449.344 175.897 452.981C145.641 456.126 121.704 451.17 104.066 444.582C104.087 442.781 104.069 424.983 95.7065 412.714C85.4785 397.711 69.3363 392.308 68.6551 392.085C68.4107 392.005 68.1496 391.992 67.8985 392.047C67.6474 392.102 67.4155 392.224 67.2263 392.399C67.0371 392.574 66.8976 392.796 66.8219 393.043C66.7462 393.29 66.7372 393.553 66.7957 393.805C66.952 394.481 70.7613 410.517 78.7894 423.544C83.1957 430.695 89.5581 436.638 94.4894 440.6C83.7847 435.684 76.2113 430.583 71.7551 427.558C70.402 425.561 61.4723 413.234 43.7161 407.014C19.9303 398.681 8.00685 402.513 7.51154 402.679C7.28505 402.756 7.08083 402.887 6.91707 403.062C6.7533 403.237 6.63506 403.45 6.57289 403.682C6.51071 403.914 6.50653 404.158 6.56071 404.392C6.61488 404.626 6.72574 404.843 6.88341 405.024C7.39904 405.616 19.7396 419.608 36.2536 427.325C44.8817 431.358 52.2473 432.564 57.9739 432.564C64.4723 432.564 68.8488 431.016 70.5738 430.273C75.2347 433.434 82.9753 438.571 93.7956 443.494C89.6909 443.824 84.8347 444.511 80.7535 445.923C63.5692 451.869 59.5582 462.111 59.3942 462.545C59.3169 462.751 59.2868 462.971 59.306 463.189C59.3253 463.408 59.3935 463.619 59.5055 463.808C59.6174 463.996 59.7703 464.156 59.9526 464.277C60.135 464.397 60.342 464.474 60.5582 464.503C60.6832 464.52 61.7364 464.655 63.5707 464.655C67.452 464.655 74.8332 464.05 84.3519 460.445C92.3206 457.426 99.5472 450.209 102.421 447.086C111.472 450.506 120.832 453.034 130.369 454.633C123.833 456.461 113.205 459.883 107.001 464.292C88.7222 477.28 84.0675 491.519 83.8769 492.119C83.8026 492.355 83.7892 492.606 83.8379 492.848C83.8866 493.091 83.9958 493.317 84.1552 493.505C84.3146 493.693 84.519 493.837 84.7491 493.924C84.9792 494.011 85.2275 494.038 85.4706 494.001C86.2675 493.885 105.101 491.004 119.893 480.368C129.999 473.102 136.252 458.684 137.477 455.666C143.735 456.432 150.396 456.869 157.468 456.869C166.015 456.869 175.163 456.234 184.902 454.777C186.219 454.578 187.544 454.347 188.871 454.1C189.358 454.097 189.846 454.093 190.335 454.08H190.377C190.405 454.078 190.432 454.071 190.46 454.067C190.521 454.064 190.581 454.056 190.641 454.044C190.678 454.036 190.713 454.023 190.75 454.012C190.8 453.997 190.852 453.981 190.902 453.961C190.939 453.945 190.974 453.926 191.011 453.907C191.091 453.864 191.167 453.814 191.238 453.758C191.276 453.726 191.313 453.693 191.349 453.659L191.411 453.596C198.161 452.174 205.005 450.115 211.799 447.486C205.572 452.234 200.119 457.415 195.233 462.234C192.697 462.237 183.496 462.773 176.044 469.964C165.147 480.476 159.725 497.385 159.499 498.1C159.416 498.36 159.408 498.639 159.475 498.904C159.542 499.168 159.682 499.409 159.878 499.597C160.074 499.786 160.32 499.915 160.585 499.97C160.851 500.025 161.127 500.004 161.382 499.908C162.082 499.652 178.629 493.512 187.004 486.066C197.985 476.302 197.758 467.034 197.374 464.207C204.014 457.66 211.719 450.453 220.946 444.682C217.374 450.322 211.841 459.799 210.221 466.704C206.416 482.931 209.607 495.533 209.746 496.061C209.826 496.373 210.008 496.649 210.261 496.846C210.515 497.043 210.827 497.15 211.147 497.149C211.475 497.149 211.8 497.039 212.061 496.824C212.649 496.346 226.464 484.918 228.485 468.27C229.977 455.975 227.26 442.983 226.758 440.742C238.319 434.775 249.414 427.252 259.305 418.549C258.213 420.299 257.216 422.112 256.436 423.907C249.17 440.648 253.964 450.544 254.17 450.957C254.269 451.153 254.41 451.325 254.583 451.458C254.756 451.592 254.957 451.685 255.171 451.729C255.384 451.774 255.605 451.77 255.817 451.717C256.029 451.664 256.226 451.563 256.394 451.423C256.697 451.168 263.924 445.036 269.514 431.069C273.539 421.016 271.825 407.28 271.748 406.7C271.733 406.588 271.706 406.479 271.666 406.374C282.081 394.892 290.711 381.892 297.266 367.815C306.602 347.805 311.978 325.296 313.248 300.912C313.26 300.665 313.209 300.418 313.1 300.196C312.99 299.974 312.826 299.784 312.623 299.643" fill="#E4C97E"/>
<path fill-rule="evenodd" clip-rule="evenodd" d="M219.693 159.296L220.979 160.787L99.3017 265.71L98.0162 264.219L219.693 159.296Z" fill="#BAAB81"/>
<path d="M58.76 171.6C57.72 171.6 56.88 171.48 56.24 171.24C55.6 171.08 55.28 170.76 55.28 170.28C55.28 169.72 55.6 169.28 56.24 168.96C56.88 168.64 57.88 168.36 59.24 168.12C61.24 167.72 62.88 166.76 64.16 165.24C65.44 163.72 66.28 161.56 66.68 158.76C67.64 151.56 68.48 144.72 69.2 138.24C69.92 131.68 70.48 125.8 70.88 120.6C71.36 115.32 71.6 111 71.6 107.64C71.6 107 71.6 106.32 71.6 105.6C71.6 104.88 71.56 104.24 71.48 103.68C71.4 103.04 71.28 102.4 71.12 101.76C70.96 101.04 70.48 100.36 69.68 99.72C68.24 98.52 66.84 97.72 65.48 97.32C64.12 96.84 62.52 96.44 60.68 96.12C59.88 95.96 59.24 95.68 58.76 95.28C58.28 94.8 58.04 94.28 58.04 93.72C58.04 93.08 58.4 92.72 59.12 92.64C59.92 92.48 60.92 92.4 62.12 92.4C62.92 92.4 64.12 92.44 65.72 92.52C67.4 92.6 69.2 92.72 71.12 92.88C73.04 93.04 74.8 93.16 76.4 93.24C78.08 93.32 79.32 93.36 80.12 93.36C80.68 93.36 81.16 93.52 81.56 93.84C81.96 94.16 82.24 94.64 82.4 95.28C82.8 96.72 83.2 98.24 83.6 99.84C84 101.44 84.48 103 85.04 104.52L104 152.64C104.24 153.2 104.68 153.56 105.32 153.72C105.96 153.8 106.44 153.56 106.76 153L130.4 103.8C130.8 102.44 131.2 100.92 131.6 99.24C132 97.56 132.32 96.08 132.56 94.8C132.8 93.76 133.2 93.24 133.76 93.24H138.08C140.48 93.24 143 93.08 145.64 92.76C148.36 92.44 150.4 92.28 151.76 92.28C152.16 92.28 152.68 92.36 153.32 92.52C153.96 92.6 154.28 92.92 154.28 93.48C154.28 94.04 154.04 94.48 153.56 94.8C153.16 95.12 152.36 95.52 151.16 96C150.12 96.4 148.96 96.84 147.68 97.32C146.4 97.8 145.2 98.28 144.08 98.76C143.28 99.08 142.6 99.64 142.04 100.44C141.48 101.16 141.2 101.96 141.2 102.84C141.2 108.44 141.28 113.72 141.44 118.68C141.68 123.56 141.92 128.28 142.16 132.84C142.4 137.32 142.68 141.76 143 146.16C143.32 150.56 143.6 155.04 143.84 159.6C144 162.08 144.8 164 146.24 165.36C147.68 166.64 149.88 167.56 152.84 168.12C154.2 168.36 155.2 168.64 155.84 168.96C156.48 169.28 156.8 169.72 156.8 170.28C156.8 170.76 156.48 171.08 155.84 171.24C155.2 171.48 154.36 171.6 153.32 171.6C151.16 171.6 149.36 171.52 147.92 171.36C146.56 171.28 145.24 171.2 143.96 171.12C142.68 171.04 141.12 171 139.28 171C137.68 171 136.32 171.04 135.2 171.12C134.16 171.2 133 171.28 131.72 171.36C130.52 171.52 128.84 171.6 126.68 171.6C125.64 171.6 124.8 171.48 124.16 171.24C123.52 171.08 123.2 170.76 123.2 170.28C123.2 169.72 123.52 169.28 124.16 168.96C124.8 168.56 125.8 168.28 127.16 168.12C129.48 167.8 131.08 167 131.96 165.72C132.84 164.36 133.28 162.28 133.28 159.48C133.28 153.72 133.2 148.52 133.04 143.88C132.96 139.24 132.8 134.68 132.56 130.2C132.32 125.64 132.08 120.68 131.84 115.32C131.76 114.44 131.52 114.04 131.12 114.12C130.72 114.12 130.32 114.52 129.92 115.32L102.32 171.6C102.16 172 101.8 172.2 101.24 172.2C100.68 172.28 100.32 172.04 100.16 171.48C97.04 162.12 93.68 152.92 90.08 143.88C86.56 134.76 82.56 124.96 78.08 114.48C77.92 114.08 77.64 113.88 77.24 113.88C76.84 113.88 76.6 114.08 76.52 114.48C75.8 120.08 75.12 125.24 74.48 129.96C73.92 134.6 73.48 139.2 73.16 143.76C72.84 148.32 72.68 153.32 72.68 158.76C72.68 160.92 73.36 162.92 74.72 164.76C76.08 166.52 78 167.64 80.48 168.12C81.84 168.36 82.84 168.64 83.48 168.96C84.12 169.28 84.44 169.72 84.44 170.28C84.44 170.76 84.12 171.08 83.48 171.24C82.84 171.48 82 171.6 80.96 171.6C78.8 171.6 77.16 171.52 76.04 171.36C75 171.28 74.04 171.2 73.16 171.12C72.36 171.04 71.2 171 69.68 171C68.24 171 67.12 171.04 66.32 171.12C65.52 171.2 64.6 171.28 63.56 171.36C62.52 171.52 60.92 171.6 58.76 171.6Z" fill="#DEBF7C"/>
<path d="M184.92 351.6C183.88 351.6 183.04 351.48 182.4 351.24C181.76 351.08 181.44 350.76 181.44 350.28C181.44 349.32 182.76 348.6 185.4 348.12C188.44 347.56 190.68 346.64 192.12 345.36C193.56 344.08 194.28 342 194.28 339.12V285.12C194.28 282.24 193.68 280.2 192.48 279C191.36 277.8 189.28 276.92 186.24 276.36C184.88 276.12 183.88 275.8 183.24 275.4C182.6 275 182.28 274.52 182.28 273.96C182.28 273.48 182.6 273.16 183.24 273C183.88 272.76 184.72 272.64 185.76 272.64C188.8 272.64 191.36 272.68 193.44 272.76C195.6 272.84 197.68 272.92 199.68 273C201.76 273 204.2 273 207 273C209.64 273 212.4 273 215.28 273C218.24 272.92 220.96 272.88 223.44 272.88C226.16 272.8 228.44 272.76 230.28 272.76C232.2 272.68 233.32 272.64 233.64 272.64C234.04 272.64 234.48 272.72 234.96 272.88C235.44 273.04 235.72 273.32 235.8 273.72C236.2 275.96 236.6 278.2 237 280.44C237.4 282.6 237.6 284.48 237.6 286.08C237.6 286.8 237.4 287.28 237 287.52C236.68 287.76 236.32 287.88 235.92 287.88C235.52 287.88 235.24 287.8 235.08 287.64C234.92 287.4 234.76 287.08 234.6 286.68C234.2 285.32 233.8 284.04 233.4 282.84C233 281.56 232.52 280.64 231.96 280.08C230.84 278.8 229.6 277.96 228.24 277.56C226.88 277.08 225.44 276.84 223.92 276.84H208.2C207.56 276.84 206.68 277.2 205.56 277.92C204.44 278.64 203.88 279.56 203.88 280.68V306.12C203.88 306.84 204.08 307.48 204.48 308.04C204.96 308.52 205.48 308.76 206.04 308.76H217.92C220.24 308.76 221.84 308.36 222.72 307.56C223.6 306.68 224.32 305.12 224.88 302.88C225.36 301.12 226.08 300.24 227.04 300.24C227.36 300.24 227.68 300.4 228 300.72C228.4 301.04 228.6 301.52 228.6 302.16C228.6 302.48 228.56 303.2 228.48 304.32C228.48 305.44 228.44 306.6 228.36 307.8C228.28 309 228.24 309.92 228.24 310.56C228.24 311.36 228.24 312.44 228.24 313.8C228.32 315.08 228.36 316.32 228.36 317.52C228.44 318.72 228.48 319.48 228.48 319.8C228.48 320.36 228.4 320.84 228.24 321.24C228.16 321.64 227.88 321.84 227.4 321.84C226.2 321.84 225.28 320.56 224.64 318C224.16 316.16 223.52 314.8 222.72 313.92C221.92 313.04 220.72 312.6 219.12 312.6H207.96C206.6 312.6 205.56 312.8 204.84 313.2C204.2 313.52 203.88 314.36 203.88 315.72V338.76C203.88 341.8 204.52 343.92 205.8 345.12C207.08 346.24 209.08 346.8 211.8 346.8H220.68C223.24 346.8 225.36 346.68 227.04 346.44C228.8 346.12 230.32 345.56 231.6 344.76C232.88 343.88 234 342.72 234.96 341.28C236 339.84 237.16 337.92 238.44 335.52C238.68 335.04 238.96 334.64 239.28 334.32C239.6 334 239.96 333.88 240.36 333.96C240.76 334.04 241.08 334.24 241.32 334.56C241.56 334.8 241.68 335.16 241.68 335.64C241.68 336.36 241.48 337.64 241.08 339.48C240.68 341.24 240.16 343.08 239.52 345C238.96 346.92 238.44 348.44 237.96 349.56C237.72 350.12 237.48 350.6 237.24 351C237.08 351.4 236.76 351.6 236.28 351.6C232.44 351.6 228.88 351.56 225.6 351.48C222.32 351.4 219.2 351.32 216.24 351.24C213.28 351.16 210.36 351.08 207.48 351C204.68 350.92 201.76 350.88 198.72 350.88C196.96 350.88 195.44 350.92 194.16 351C192.88 351.16 191.56 351.28 190.2 351.36C188.84 351.52 187.08 351.6 184.92 351.6Z" fill="#DEBF7C"/>
</svg>
