<svg width="347" height="636" viewBox="0 0 347 636" fill="none" xmlns="http://www.w3.org/2000/svg">
<path fill-rule="evenodd" clip-rule="evenodd" d="M3.84646 499.867V179.048C3.84646 82.3777 79.9532 3.73084 173.501 3.73084C267.049 3.73084 343.152 82.3777 343.152 179.048V500H346.764V179.048C346.764 80.3212 269.038 0 173.501 0C77.9624 0 0.233887 80.3212 0.233887 179.048V499.867H3.84646Z" fill="#E8E8E8"/>
<path fill-rule="evenodd" clip-rule="evenodd" d="M86.6798 410.823C89.3914 411.558 92.1342 412.146 94.9584 412.494C101.411 413.3 108.023 412.326 114.423 413.502C120.46 414.613 125.985 417.607 130.643 421.542C132.909 423.458 139.827 429.028 140.576 432.164C131.739 428.912 120.607 426.029 112.027 427.763C111.374 427.895 111.677 428.858 112.316 428.746C120.64 427.284 131.479 430.174 140.354 433.936C140.175 433.994 140.011 434.091 139.874 434.22C139.737 434.348 139.63 434.505 139.56 434.68C136.965 440.571 125.283 439.528 120.066 438.992C113.056 438.269 107.7 435.612 103.104 430.185C97.528 423.6 92.5968 416.943 86.6798 410.823ZM221.846 404.185C227.181 405.511 232.597 407.454 238.096 409.156C238.682 409.336 239.01 408.443 238.483 408.17C233.385 405.55 227.371 403.119 221.151 401.649C221.148 401.63 221.141 401.615 221.134 401.592C221.116 401.509 221.07 401.457 221.042 401.383C225.701 399.283 230.623 397.963 235.652 400.241C238.923 401.72 241.518 404.5 243.864 407.146C248.565 412.435 253.084 417.896 257.66 423.292C250.244 423.932 242.702 424.178 235.79 420.943C228.844 417.692 224.084 411.333 221.846 404.185ZM208.846 387.264C214.744 381.02 219.664 374.34 218.77 364.825C218.718 364.292 217.947 364.296 217.932 364.835C217.684 373.081 213.399 379.396 208.099 385.25C209.991 371.86 216.816 359.622 222.139 347.103C222.755 350.78 224.502 354.48 225.75 358.213C227.976 364.88 229.014 372.634 224.611 378.643C220.713 383.965 214.657 385.254 208.846 387.264ZM199.966 237.944C199.959 237.874 199.924 237.824 199.905 237.76C204.102 233.492 206.434 227.569 207.569 221.659C207.572 221.642 207.565 221.63 207.569 221.611C208.573 221.506 209.529 221.129 210.334 220.521C213.143 223.444 215.686 226.72 217.031 230.584C217.703 232.514 219.249 236.996 218.8 238.916C218.89 240.77 217.985 243.759 214.744 244.264C213.831 244.518 212.917 244.762 212.001 245.002C208.752 246.082 203.478 251.976 200.988 246.86C199.872 244.582 200.26 240.448 199.966 237.944ZM211.72 219.156C212.361 218.302 212.817 217.297 212.975 216.256C213.034 215.88 213.037 215.517 213.034 215.149C217.395 214.564 222.229 213.564 226.486 214.426C231.523 215.441 232.684 219.17 236.218 221.948C237.682 223.098 239.344 223.155 240.307 224.781C242.525 228.51 237.698 230.913 234.697 232.123C230.603 233.78 225.119 237.9 220.671 235.548C219.533 229.519 215.017 222.686 211.72 219.156ZM232.77 215.242C232.275 214.762 231.723 214.344 231.128 213.995C225.656 210.911 218.672 212.473 212.722 213.25C212.11 211.243 210.653 209.515 208.927 208.265C208.936 208.189 208.958 208.114 208.945 208.021C208.331 203.98 210.093 200.03 210.897 195.982C210.989 195.859 211.047 195.714 211.065 195.562C211.464 192.459 212.907 188.55 215.86 186.961C219.375 185.072 221.842 186.781 225.226 186.81C225.997 186.819 226.689 186.399 227.349 186.283C230.332 183.977 233.52 183.071 235.099 191.843C235.418 193.616 235.823 195.891 236.733 197.496C237.402 198.672 239.436 199.667 239.786 199.782C242.033 201.263 244.233 202.221 241.981 205.892C241.863 207.301 239.749 209.104 238.907 210.048C237.1 212.072 235.026 213.744 232.77 215.242ZM209.128 188.977C209.431 190.799 209.457 192.639 209.282 194.46C209.244 194.67 209.203 194.884 209.177 195.09C209.168 195.147 209.184 195.192 209.184 195.24C208.976 196.844 208.629 198.433 208.161 199.973C207.337 202.718 206.592 205.044 206.98 207.886H206.974C204.552 208.272 202.873 210.235 202.114 212.592C194.009 211.087 180.917 211.477 184.628 199.366C185.237 197.39 185.356 195.839 184.422 193.962C183.894 193.135 183.334 192.33 182.742 191.548C181.376 188.898 184.039 186.874 186.217 186.653C187.371 186.11 189.915 186.923 191.228 186.843C193.498 186.713 196.067 183.993 197.265 183.152C198.812 181.78 199.677 181.391 202.036 181.571C206.411 181.139 208.563 185.615 209.128 188.977ZM207.69 209.75C209.435 210.959 210.927 212.727 211.088 214.917C211.239 216.903 209.962 219.04 207.978 219.59C202.085 221.213 202.298 209.958 207.688 209.752L207.69 209.75ZM184.625 209.865C188.922 213.445 196.776 213.575 201.693 214.49C201.375 217.544 202.568 220.637 205.623 221.446C204.237 228.469 201.243 235.358 194.907 239.279C192.134 240.998 190.831 241.358 187.584 239.732C187.227 239.552 186.961 239.042 186.545 238.885C185.41 238.45 184.209 238.216 182.995 238.193C180.915 238.136 177.707 239.113 177.781 234.747C177.797 233.976 178.838 232.184 179.055 231.262C179.431 229.676 179.498 228.455 178.817 226.91C177.341 223.544 174.115 221.581 175.224 217.267C176.346 212.89 180.837 211.221 184.625 209.865ZM160.716 156.28C160.714 155.755 160.686 155.229 160.633 154.706C160.633 154.694 160.633 154.687 160.63 154.675C162.684 152.542 164.154 149.455 164.887 145.729C165.36 145.655 165.817 145.475 166.238 145.197C168.068 147.127 169.213 148.864 169.837 150.654C170.175 151.622 171.065 154.189 170.824 155.227L170.821 155.279C170.863 156.13 170.487 157.797 168.709 158.079C168.177 158.224 167.666 158.368 167.149 158.499C166.605 158.683 166.009 159.056 165.374 159.461C164.308 160.136 163.102 160.897 162.203 160.646C161.79 160.53 161.459 160.203 161.189 159.65C160.784 158.818 160.751 157.469 160.716 156.28ZM167.3 144.152C167.643 143.657 167.865 143.114 167.947 142.566C167.972 142.409 167.984 142.25 167.985 142.09C168.322 142.042 168.664 141.988 169.01 141.94C171.133 141.628 173.33 141.303 175.305 141.699C177.109 142.068 178.01 143.09 178.964 144.173C179.476 144.756 180.001 145.354 180.688 145.894C181.026 146.157 181.368 146.321 181.699 146.475C182.201 146.715 182.638 146.921 182.939 147.431C183.234 147.926 183.303 148.386 183.152 148.845C182.859 149.702 181.789 150.496 179.881 151.269C179.347 151.486 178.781 151.771 178.18 152.07C176.253 153.042 174.073 154.139 172.256 153.245C171.609 149.993 169.27 146.298 167.3 144.152ZM178.897 141.708C178.64 141.471 178.357 141.262 178.055 141.085C175.305 139.537 171.887 140.03 168.872 140.463C168.497 140.518 168.122 140.57 167.747 140.62C167.402 139.631 166.678 138.69 165.685 137.944C165.685 137.922 165.685 137.899 165.682 137.875C165.446 136.306 165.859 134.781 166.29 133.165C166.463 132.529 166.64 131.868 166.772 131.214C166.828 131.127 166.863 131.028 166.876 130.925C167.098 129.217 167.895 127.091 169.464 126.24C170.734 125.565 171.715 125.745 172.853 125.963C173.413 126.067 173.992 126.179 174.633 126.184C174.934 126.188 175.212 126.086 175.452 126.005C175.6 125.953 175.735 125.903 175.865 125.883L175.915 125.873L175.955 125.842C176.91 125.103 177.618 124.861 178.183 125.081C178.987 125.389 179.592 126.655 179.985 128.848C180.177 129.895 180.406 131.166 180.929 132.086C181.338 132.806 182.489 133.366 182.728 133.454L183.017 133.643C184.178 134.385 184.94 134.876 183.882 136.6L183.856 136.689C183.805 137.244 183.055 138.003 182.56 138.51C182.429 138.639 182.301 138.772 182.177 138.908C181.29 139.906 180.215 140.819 178.897 141.708ZM162.989 140.475C163.206 139.98 163.714 139.155 164.717 139.081C165.363 139.537 166.389 140.468 166.486 141.796C166.566 142.869 165.874 143.924 164.913 144.204C164.9 144.204 164.894 144.207 164.881 144.211C164.19 144.401 163.639 144.268 163.241 143.81C162.606 143.083 162.496 141.618 162.989 140.475ZM165.386 127.233C165.547 128.184 165.573 129.201 165.472 130.265L165.457 130.344C165.439 130.431 165.422 130.521 165.412 130.611V130.714C165.308 131.555 165.115 132.444 164.849 133.323L164.803 133.47C164.37 134.909 163.993 136.161 164.154 137.668C164.09 137.683 164.022 137.697 163.958 137.716C162.866 138.034 161.971 138.953 161.505 140.246C160.874 140.134 160.202 140.039 159.491 139.942C156.644 139.544 153.418 139.1 152.186 137.173C151.537 136.161 151.476 134.826 152.01 133.094C152.339 132.008 152.444 131.053 151.878 129.908C151.576 129.433 151.254 128.973 150.916 128.523C150.804 128.321 150.744 128.094 150.744 127.864C150.743 127.633 150.801 127.405 150.913 127.203C151.228 126.626 151.975 126.169 152.727 126.095L152.762 126.089L152.794 126.075C153.141 125.915 153.827 126.015 154.432 126.101C154.841 126.165 155.232 126.217 155.532 126.202C156.577 126.139 157.658 125.233 158.443 124.56C158.68 124.367 158.88 124.194 159.032 124.088C159.879 123.339 160.314 123.14 161.584 123.237H161.622C163.868 123.012 165.051 125.25 165.386 127.233ZM159.256 141.426C159.947 141.516 160.604 141.606 161.189 141.708C161.089 143.199 161.603 145.013 163.379 145.591C162.437 150.201 160.453 153.47 157.486 155.305C155.934 156.265 155.269 156.403 153.567 155.552C153.494 155.503 153.428 155.444 153.37 155.377C153.26 155.243 153.119 155.137 152.959 155.069C152.302 154.814 151.605 154.676 150.901 154.661C150.705 154.656 150.499 154.668 150.289 154.675C149.639 154.71 148.97 154.739 148.569 154.353C148.286 154.08 148.154 153.615 148.167 152.93C148.17 152.728 148.362 152.292 148.53 151.913C148.678 151.576 148.82 151.257 148.877 151.013C149.09 150.111 149.139 149.369 148.733 148.44C148.463 147.833 148.102 147.307 147.749 146.802C146.98 145.688 146.314 144.728 146.72 143.152C147.326 140.805 149.762 139.89 151.772 139.171C153.685 140.696 156.769 141.101 159.256 141.426ZM124.765 286.204C123.92 286.145 121.816 285.377 120.981 285.031C120.865 284.979 120.739 284.952 120.611 284.952C120.484 284.952 120.358 284.979 120.241 285.031C118.938 280.59 116.057 276.925 112.287 274.283C113.156 273.803 113.863 273.077 114.319 272.196C117.864 272.097 121.605 271.535 124.585 269.743C125.632 269.496 126.696 269.582 127.78 270.013C129.842 270.857 129.889 271.198 129.88 272.87C129.963 273.533 128.78 274.676 128.522 275.275C127.915 276.67 127.03 278.338 126.831 279.867C126.689 280.981 127.357 281.318 127.425 282.191C127.439 282.371 129.317 286.531 124.765 286.204ZM123.506 268.095C123.274 268.162 123.041 268.223 122.82 268.304C122.614 268.377 122.445 268.524 122.345 268.717C120.077 269.773 117.424 270.16 114.856 270.257C114.896 269.616 114.757 268.976 114.454 268.41C114.007 267.597 113.605 266.939 112.902 266.344C112.243 265.793 111.31 265.509 110.468 265.365C110.438 265.358 110.412 265.365 110.381 265.362C110.506 262.361 110.142 259.512 109.849 256.397C109.721 255.052 110.097 252.575 110.863 251.277C113.427 246.922 117.109 253.391 118.036 253.834C119.8 254.676 121.768 254.83 123.578 255.524C127.406 256.997 128.889 261.012 126.831 264.665C126.037 266.075 124.892 267.257 123.506 268.095ZM109.199 250.279C108.232 251.739 107.797 253.471 107.808 255.247C107.832 258.781 108.511 262.064 108.395 265.545C107.773 265.759 107.182 266.052 106.637 266.419C105.931 266.877 105.434 267.612 105.15 268.429C105.006 268.259 104.805 268.147 104.585 268.114C101.002 267.536 97.3599 266.574 94.158 264.793C90.8191 262.937 91.2471 258.122 94.9896 256.51C95.7173 256.198 96.5889 256.188 97.2767 255.761C98.4931 255.01 99.0908 253.931 99.6383 252.665C100.24 251.267 100.725 249.254 102.009 248.268C104.653 246.251 107.888 247.754 109.199 250.281V250.279ZM93.5307 268.095C94.0748 268.166 94.4144 267.832 94.5305 267.42C97.7238 268.873 101.525 269.582 104.353 270.041C104.528 270.071 104.708 270.045 104.868 269.968C104.868 270.193 104.875 270.411 104.906 270.625C104.999 271.307 105.263 271.865 105.597 272.364C105.19 275.887 104.485 279.469 102.27 282.318C99.8449 285.448 95.3604 287.507 91.7132 284.938C88.9669 283.004 91.6144 280.389 91.3978 277.85C91.2922 276.577 90.6043 275.595 90.1798 274.429C89.0917 271.435 89.0692 267.495 93.5307 268.095ZM99.8759 287.161C99.9869 287.051 100.066 286.914 100.105 286.763C100.519 286.544 100.916 286.296 101.295 286.021C105.176 283.146 106.63 278.566 107.328 273.979C107.482 274.069 107.64 274.166 107.794 274.242C107.804 274.245 107.817 274.252 107.832 274.256C107.82 274.256 107.808 274.249 107.797 274.242C108.669 274.65 110.587 275.463 110.968 275.722C113.564 277.518 115.716 279.725 117.169 282.539C117.819 283.791 118.627 285.485 118.739 286.913C119.186 292.701 115.276 292.775 111.795 291.407C109.913 290.665 108.373 289.582 106.261 289.724C105.42 289.785 104.528 290.167 103.733 290.402L101.674 291.054C98.2332 291.381 98.1292 288.359 99.8759 287.161ZM152.595 414.037C150.994 410.439 149.398 406.845 147.723 403.277C144.909 397.294 142.156 389.447 135.948 386.299C135.782 386.216 135.591 386.395 135.695 386.56C141.458 395.8 145.95 405.586 150.388 415.424C145.263 414.57 140.042 413.899 135.328 411.574C127.94 407.935 124.72 401.225 122.769 393.648C120.621 385.29 122.755 379.371 124.097 371.348C124.779 367.278 125.067 363.139 125.257 359.013C136.672 376.102 165.056 391.531 152.595 414.037ZM80.3764 408.727C87.5167 415.213 93.3887 422.391 99.2745 429.996C102.7 434.429 106.359 438.148 111.693 440.167C119.333 443.065 138.07 445.558 142.262 436.161C142.367 435.933 142.414 435.683 142.397 435.433C142.381 435.183 142.302 434.941 142.168 434.729C144.13 435.609 146.056 436.568 147.941 437.603C156.171 442.144 163.398 448.455 171.377 453.43C177.602 460.97 185.169 467.297 193.697 472.092C197.405 480.87 201.314 489.619 206.352 497.324C207.463 499.019 210.206 497.845 209.624 495.872C207.373 488.254 203.918 480.751 200.248 473.364C200.447 472.947 200.482 472.472 200.347 472.031C200.212 471.59 199.917 471.215 199.519 470.98C199.29 470.837 199.065 470.698 198.843 470.556C196.248 465.411 193.611 460.324 191.263 455.294C189.561 451.658 187.825 448.023 186.091 444.389C186.867 432.57 187.338 420.461 191.739 409.656C199.56 403.003 207.569 401.845 215.771 402.984C216.028 403.365 216.532 403.607 217.057 403.336L217.291 403.22C217.786 403.303 218.285 403.4 218.781 403.496C220.604 411.51 225.309 418.319 232.538 422.5C241.097 427.45 251.221 426.836 260.713 426.049C262.095 425.937 262.61 424.449 261.735 423.432C254.959 415.63 248.203 405.288 239.37 399.632C232.053 394.945 224.653 397.316 217.594 400.919C209.554 399.532 201.401 399.956 194.614 403.804C195.801 401.764 197.157 399.826 198.666 398.01C201.092 395.099 203.868 392.371 206.578 389.614C206.999 389.489 207.355 389.204 207.569 388.82C215.192 388.134 224.039 385.219 227.95 378.109C232.067 370.631 229.731 361.866 226.902 354.433C226.016 352.116 224.996 349.822 224.483 347.38C224.362 345.882 224.148 344.394 223.842 342.923C224.415 341.435 224.975 339.951 225.479 338.448C225.798 337.507 224.441 337.147 223.961 337.86C222.537 339.977 221.964 342.094 221.906 344.22L221.692 344.823C219.481 350.078 216.641 355.137 214.078 360.231C209.553 369.222 205.424 378.046 204.564 388.213C204.54 388.442 204.57 388.673 204.651 388.888C199.087 394.573 193.148 400.096 189.794 406.878C189.648 407.174 189.516 407.483 189.372 407.781C189.333 407.822 189.286 407.86 189.246 407.905C188.893 408.251 188.776 408.635 188.809 408.995C184.998 417.602 183.235 427.346 182.582 436.96C179.009 429.31 175.581 421.597 172.706 413.684C167.016 398.019 165.637 381.568 165.055 364.998C165.137 364.839 165.177 364.662 165.171 364.483C165.164 364.304 165.111 364.13 165.017 363.978C164.611 351.671 164.585 339.302 163.54 327.143C163.643 327.043 163.755 326.956 163.842 326.818C171.708 314.001 177.436 299.732 181.763 285.362C186.443 269.83 186.77 252.44 197.544 239.805C197.731 239.659 197.937 239.528 198.122 239.378C198.296 242.946 198.155 248.788 200.638 250.802C201.946 251.862 203.565 251.817 205.07 251.315C207.115 250.637 208.338 248.82 210.175 247.804C211.765 246.926 213.609 246.723 215.288 246.132C219.6 244.599 221.073 241.455 220.929 237.765C222.593 238.362 224.27 238.404 226.113 237.923C230.17 236.868 233.411 234.573 237.615 233.668C241.454 232.848 244.504 228.097 242.686 224.034C241.827 222.107 240.013 222.04 238.377 221.061C236.575 219.988 235.43 218.265 234.118 216.685C238.576 213.678 246.202 207.479 244.613 201.561C243.882 198.821 242.213 199.139 240.255 197.899C236.057 195.249 237.286 188.36 234.803 184.492C233.664 182.72 231.873 181.798 229.724 182.299C228.686 182.543 228.182 183.24 227.331 183.709C224.949 185.029 223.615 184.098 221.106 183.866C216.722 183.465 213.287 185.842 211.219 189.24C211.091 186.419 210.599 183.443 208.53 181.652C206.048 179.504 201.059 177.908 197.972 179.523C197.348 179.848 197.178 180.179 196.482 180.699C194.246 182.36 196.109 181.351 193.016 183.577C189.996 185.757 187.983 184.126 184.648 184.875C182.39 185.385 180.087 186.947 180.013 189.493C179.949 191.793 181.971 193.839 182.466 195.998C183.152 199.013 181.387 200.915 181.6 203.858C181.733 205.688 182.293 207.156 183.159 208.353C177.24 210.665 171.181 214.794 173.543 222.107C174.349 224.596 176.227 226.064 176.748 228.688C177.301 231.476 175.802 232.871 175.712 235.507C175.639 237.548 176.534 239.16 178.502 239.891C179.756 240.356 181.187 240.123 182.48 240.154C184.94 240.209 185.581 241.54 187.404 242.493C189.703 243.691 191.961 242.968 194.189 241.877C186.444 251.874 185.101 264.414 181.643 276.925C177.289 292.685 170.603 307.205 162.989 321.549C159.964 294.114 152.535 267.697 148.653 240.42C144.521 211.411 150.937 185.395 159.302 157.975C159.424 159.622 159.718 161.331 160.685 162.109C161.343 162.645 162.213 162.773 163.209 162.484C163.261 162.467 163.313 162.45 163.371 162.436C164.072 162.199 164.609 161.739 165.127 161.296C165.484 160.99 165.857 160.674 166.271 160.442C166.812 160.143 167.427 159.985 168.024 159.831C168.385 159.741 168.757 159.644 169.116 159.516C171.311 158.738 172.424 157.188 172.425 154.907C173.302 155.166 174.207 155.166 175.184 154.91C176.258 154.637 177.258 154.184 178.219 153.755C179.294 153.279 180.409 152.786 181.641 152.518C182.802 152.276 183.894 151.387 184.488 150.221C185.063 149.094 185.115 147.89 184.639 146.823C184.266 145.992 183.599 145.721 182.951 145.451C182.681 145.339 182.4 145.221 182.133 145.06C181.343 144.593 180.796 143.894 180.21 143.164C180.117 143.048 180.027 142.927 179.933 142.815C182.572 141.006 186.638 137.595 185.732 134.219C185.412 133.034 184.765 132.764 184.079 132.475C183.771 132.357 183.475 132.213 183.192 132.043C181.867 131.207 181.558 129.581 181.231 127.864C181.011 126.691 180.777 125.48 180.191 124.562C179.465 123.438 178.346 122.953 177.114 123.244C176.702 123.341 176.431 123.555 176.164 123.753C176.017 123.865 175.882 123.971 175.721 124.057C174.811 124.562 174.219 124.446 173.396 124.285C173.084 124.225 172.736 124.157 172.337 124.121C170.206 123.926 168.26 124.87 166.924 126.726C166.812 125.384 166.484 123.877 165.382 122.924C164.039 121.763 161.151 120.691 159.219 121.699C158.987 121.821 158.852 121.942 158.708 122.078C158.614 122.16 158.509 122.262 158.351 122.377C157.762 122.817 157.661 122.936 157.554 123.068C157.447 123.194 157.337 123.327 156.405 123.996C155.43 124.702 154.659 124.654 153.761 124.597C153.188 124.562 152.533 124.517 151.779 124.69C150.535 124.963 149.059 125.871 149.014 127.478C148.991 128.288 149.386 129.023 149.769 129.739C150.036 130.237 150.287 130.709 150.396 131.19C150.599 132.07 150.403 132.771 150.201 133.516C150.027 134.146 149.847 134.798 149.906 135.578C149.972 136.493 150.23 137.299 150.674 137.991C146.139 139.831 144.311 142.557 145.386 145.885C145.599 146.542 145.937 147.073 146.264 147.591C146.659 148.208 147.026 148.789 147.181 149.562C147.35 150.417 147.155 151.038 146.943 151.686C146.782 152.181 146.618 152.695 146.595 153.347C146.55 154.637 147.155 155.585 148.297 156.009C148.849 156.211 149.438 156.192 150.012 156.176C150.211 156.17 150.407 156.166 150.599 156.17C151.471 156.187 151.902 156.51 152.406 156.886C152.666 157.079 152.931 157.283 153.278 157.458C154.799 158.254 156.267 157.635 157.525 156.995C157.739 156.886 157.946 156.761 158.154 156.642C148.984 183.069 142.125 209.297 145.431 237.501C148.969 267.693 157.639 296.845 159.99 327.28C160.794 337.68 160.874 348.203 161.09 358.713C145.772 336.338 143.627 306.021 122.276 287.558C124.719 288.323 127.479 288.614 129.315 286.528C131.741 283.777 128.737 281.736 129.187 278.848C129.657 275.861 133.271 272.846 130.902 269.902C129.894 268.65 128.489 268.008 126.994 267.806C127.588 267.183 128.125 266.479 128.579 265.673C131.01 261.375 129.527 255.941 124.909 253.964C123.175 253.223 120.947 253.223 119.33 252.289C117.464 251.213 116.611 248.955 114.903 247.934C113.359 247.009 111.867 247.597 110.584 248.711C108.998 246.139 106.15 244.667 103 245.604C101.357 246.09 100.039 247.223 99.1411 248.654C97.4171 251.412 98.7322 252.211 94.7089 254.55C93.9015 255.017 92.7961 255.103 91.9523 255.565C89.0778 257.132 87.5306 260.168 89.3031 263.184C89.9979 264.373 91.0184 265.346 92.233 266.158C89.2355 266.517 86.7942 269.081 87.3244 272.341C87.5236 273.564 88.2739 274.527 88.6343 275.678C89.0172 276.923 88.9046 279.208 88.5476 280.479C88.435 280.872 87.3088 283.878 89.6791 285.767C91.8726 287.513 94.449 288.3 97.0636 287.832C96.1176 290.051 96.8418 292.512 99.9159 293.026C103.242 293.585 105.644 291.096 109.215 292.329C111.507 293.121 113.299 294.365 115.853 294.06C119.5 293.623 120.834 291.07 120.763 288.102C125.517 293.866 130.521 299.285 134.335 305.83C137.989 312.104 140.81 318.785 143.454 325.529C148.028 337.199 152.176 353.499 161.191 363.054C161.65 380.632 162.83 398.109 168.815 414.813C172.64 425.491 177.457 435.82 182.26 446.117C182.256 447.064 182.26 448.009 182.272 448.941C182.289 450.247 183.362 450.733 184.317 450.532C184.965 451.925 185.611 453.319 186.25 454.715C187.872 458.252 189.424 461.907 190.968 465.598C186.734 462.899 182.648 460.07 178.902 456.671C178.912 456.588 178.901 456.503 178.871 456.425C178.841 456.346 178.792 456.277 178.729 456.221C177.862 455.4 176.953 454.619 176.026 453.852C175.601 453.409 175.165 452.99 174.756 452.52C168.504 445.423 163.705 437.166 159.457 428.767C157.589 425.07 155.861 421.312 154.167 417.538C154.172 416.986 153.976 416.431 153.517 416.109L153.344 415.716C153.5 415.68 153.639 415.592 153.739 415.466C171.961 392.553 134.2 370.547 125.247 353.66C124.613 352.467 122.731 353.117 122.757 354.387C123.137 370.943 115.988 386.748 122.84 402.713C127.874 414.438 140.236 418.176 152.089 419.186C154.832 425.266 157.616 431.333 160.721 437.285C162.497 440.682 164.474 443.97 166.642 447.132C164.564 445.779 162.483 444.447 160.451 443.084C155.466 439.751 150.497 436.161 144.923 433.857C143.772 433.382 142.614 432.926 141.449 432.489C141.373 429.887 138.24 427.17 136.79 425.465C133.169 421.203 128.868 417.387 123.951 414.663C118.94 411.885 113.63 410.571 107.934 410.275C98.7997 409.806 90.412 409.379 81.7192 406.271C80.3175 405.769 79.3559 407.796 80.3747 408.722L80.3764 408.727Z" fill="#E2A967"/>
<path d="M172.437 594.072C172.148 594.748 171.762 595.23 171.279 595.52C170.797 595.809 170.314 596.002 169.735 596.002H167.805L197.816 523.532C198.299 522.374 199.167 521.698 200.422 521.698H202.352L172.437 594.072Z" fill="#8C8C8C"/>
<path d="M56.84 602.7C53.32 594.7 49.76 586.74 46.16 578.82C42.56 570.82 39.04 562.74 35.6 554.58C34.48 552.02 33.36 549.46 32.24 546.9C31.2 544.26 30.16 541.62 29.12 538.98C28.16 536.34 27.16 533.7 26.12 531.06C26.12 531.94 26.08 532.82 26 533.7C26 534.58 26 535.46 26 536.34C25.92 539.22 25.8 542.7 25.64 546.78C25.56 550.78 25.44 555.1 25.28 559.74C25.12 564.3 25 568.9 24.92 573.54C24.84 578.1 24.76 582.42 24.68 586.5C24.6 588.26 24.52 590.02 24.44 591.78C24.44 593.54 24.36 595.18 24.2 596.7C25.72 596.62 27.2 596.54 28.64 596.46C30.16 596.38 31.68 596.3 33.2 596.22V601.5H10.28V597.54C12.76 597.46 14.56 596.94 15.68 595.98C16.88 594.94 17.64 593.58 17.96 591.9C18.28 590.22 18.48 588.42 18.56 586.5L20.84 531.78C20.92 530.18 20.96 528.58 20.96 526.98C21.04 525.38 21.12 523.82 21.2 522.3C19.76 522.38 18.32 522.46 16.88 522.54C15.44 522.54 14 522.58 12.56 522.66V517.5H30.92L51.56 565.14C52.6 567.54 53.6 569.94 54.56 572.34C55.6 574.74 56.64 577.14 57.68 579.54C58.8 581.94 59.88 584.38 60.92 586.86H61.16C62.04 584.7 63.08 582.14 64.28 579.18C65.48 576.14 66.48 573.54 67.28 571.38C70.8 562.58 74.44 553.78 78.2 544.98C82.04 536.1 85.8 526.94 89.48 517.5H107.24V521.46C105.24 521.38 103.6 521.78 102.32 522.66C101.04 523.46 100.12 524.82 99.56 526.74C99 528.66 98.8 531.26 98.96 534.54L102.08 589.14C102.24 590.5 102.32 591.82 102.32 593.1C102.32 594.38 102.32 595.54 102.32 596.58C103.76 596.5 105.2 596.46 106.64 596.46C108.16 596.38 109.64 596.3 111.08 596.22V601.5H84.2V597.54C86.68 597.46 88.52 596.86 89.72 595.74C90.92 594.62 91.64 593.02 91.88 590.94C92.2 588.86 92.28 586.3 92.12 583.26L89.72 543.66C89.64 542.38 89.56 541.1 89.48 539.82C89.4 538.54 89.32 537.26 89.24 535.98C89.16 534.7 89.08 533.42 89 532.14C88.76 532.7 88.48 533.3 88.16 533.94C87.92 534.58 87.68 535.26 87.44 535.98L60.44 602.7H56.84Z" fill="#555555"/>
<path d="M316.36 571.42C316.36 567.9 315.88 565.38 314.92 563.86C313.96 562.34 312.44 561.42 310.36 561.1C308.28 560.78 305.52 560.7 302.08 560.86L293.32 561.22V588.7C293.32 590.86 293.28 592.7 293.2 594.22C293.2 595.74 293.12 597.02 292.96 598.06L315.88 597.7C319.4 597.62 322.44 597.06 325 596.02C327.56 594.9 329.56 592.98 331 590.26C332.44 587.54 333.16 583.82 333.16 579.1H337.24L336.52 602.5H274.6V598.54C277.64 598.38 279.72 597.7 280.84 596.5C281.96 595.22 282.56 593.5 282.64 591.34C282.8 589.1 282.88 586.58 282.88 583.78V531.94C282.88 530.34 282.92 528.82 283 527.38C283.08 525.86 283.16 524.5 283.24 523.3C281.8 523.38 280.36 523.46 278.92 523.54C277.48 523.62 276.04 523.7 274.6 523.78V518.5H332.32L332.92 539.5H328.96C328.96 534.78 328.24 531.22 326.8 528.82C325.36 526.34 323.4 524.7 320.92 523.9C318.52 523.02 315.8 522.62 312.76 522.7L302.44 522.94C299.48 523.02 297.36 523.58 296.08 524.62C294.8 525.66 294 527.22 293.68 529.3C293.44 531.3 293.32 533.94 293.32 537.22V556.42L315.88 556.54L315.04 546.22H320.32V571.42H316.36Z" fill="#555555"/>
</svg>
